<svg width="61" height="54" viewBox="0 0 61 54" fill="none" xmlns="http://www.w3.org/2000/svg">
<path d="M0.499588 28.5202C0.499588 29.7496 0.987957 30.9286 1.85725 31.7979C2.72655 32.6672 3.90558 33.1556 5.13496 33.1556L41.8471 33.1556L29.6715 45.3311C28.8527 46.2098 28.407 47.3721 28.4281 48.5729C28.4493 49.7738 28.9358 50.9196 29.7851 51.7689C30.6344 52.6181 31.7801 53.1046 32.981 53.1258C34.1819 53.147 35.3441 52.7012 36.2228 51.8824L56.3094 31.7959C57.1775 30.9267 57.665 29.7486 57.665 28.5202C57.665 27.2918 57.1775 26.1137 56.3094 25.2445L36.2228 5.15795C35.7985 4.70253 35.2867 4.33725 34.7181 4.0839C34.1495 3.83055 33.5357 3.69432 32.9133 3.68334C32.2909 3.67236 31.6727 3.78685 31.0955 4.01998C30.5183 4.25312 29.994 4.60012 29.5538 5.04028C29.1137 5.48045 28.7667 6.00477 28.5335 6.58195C28.3004 7.15914 28.1859 7.77736 28.1969 8.39976C28.2079 9.02215 28.3441 9.63595 28.5974 10.2046C28.8508 10.7732 29.2161 11.2849 29.6715 11.7093L41.8471 23.8848L5.13496 23.8848C2.57623 23.8848 0.499588 25.9615 0.499588 28.5202Z" fill="#CE6C9E"/>
<path d="M3.33455 24.8571C3.33455 26.0865 3.82292 27.2655 4.69221 28.1348C5.56152 29.0041 6.74054 29.4925 7.96992 29.4925L44.682 29.4925L32.5065 41.668C31.6877 42.5468 31.2419 43.709 31.2631 44.9098C31.2843 46.1107 31.7708 47.2565 32.62 48.1058C33.4693 48.9551 34.6151 49.4415 35.816 49.4627C37.0168 49.4839 38.1791 49.0382 39.0578 48.2194L59.1444 28.1328C60.0124 27.2636 60.5 26.0855 60.5 24.8571C60.5 23.6287 60.0124 22.4506 59.1444 21.5815L39.0578 1.49487C38.6334 1.03944 38.1217 0.674164 37.5531 0.420814C36.9845 0.167464 36.3707 0.031234 35.7483 0.0202526C35.1259 0.00927125 34.5076 0.123762 33.9305 0.356896C33.3533 0.59003 32.829 0.937032 32.3888 1.3772C31.9486 1.81737 31.6016 2.34168 31.3685 2.91887C31.1354 3.49605 31.0209 4.11428 31.0318 4.73667C31.0428 5.35906 31.1791 5.97287 31.4324 6.54147C31.6858 7.11007 32.051 7.62182 32.5065 8.04618L44.682 20.2217L7.96992 20.2217C5.41119 20.2217 3.33455 22.2984 3.33455 24.8571Z" fill="#DDD347"/>
<path fill-rule="evenodd" clip-rule="evenodd" d="M4.69263 28.1351C3.82333 27.2658 3.33496 26.0868 3.33496 24.8574C3.33496 24.6448 3.3493 24.4356 3.37706 24.2305C3.91947 24.0077 4.51336 23.8848 5.13577 23.8848H41.8479L38.1851 20.2221H44.6824L32.5069 8.04651C32.0514 7.62215 31.6862 7.1104 31.4328 6.5418C31.1795 5.9732 31.0432 5.35939 31.0323 4.737C31.0281 4.49973 31.0421 4.26307 31.074 4.02906C31.0814 4.02602 31.0889 4.02299 31.0963 4.01998C31.6735 3.78685 32.2917 3.67236 32.9141 3.68334C33.5365 3.69432 34.1503 3.83055 34.7189 4.0839C35.2875 4.33725 35.7993 4.70253 36.2236 5.15795L56.3102 25.2445C57.1783 26.1137 57.6659 27.2918 57.6659 28.5202C57.6659 28.9532 57.6053 29.3799 57.4888 29.7891L39.0582 48.2197C38.1795 49.0385 37.0173 49.4842 35.8164 49.4631C34.6155 49.4419 33.4697 48.9554 32.6205 48.1061C31.7712 47.2568 31.2847 46.111 31.2635 44.9102C31.2554 44.4517 31.3154 43.9988 31.4382 43.5652L41.8479 33.1556H41.0197L44.6824 29.4928H7.97033C6.74095 29.4928 5.56193 29.0044 4.69263 28.1351Z" fill="#D3592C"/>
</svg>
