<svg width="61" height="54" viewBox="0 0 61 54" fill="none" xmlns="http://www.w3.org/2000/svg">
<path d="M0.499596 28.5002C0.499596 29.7296 0.987961 30.9086 1.85726 31.7779C2.72656 32.6472 3.90558 33.1355 5.13496 33.1355L41.8471 33.1355L29.6715 45.3111C28.8527 46.1898 28.407 47.352 28.4281 48.5529C28.4493 49.7538 28.9358 50.8996 29.7851 51.7488C30.6344 52.5981 31.7801 53.0846 32.981 53.1058C34.1819 53.127 35.3441 52.6812 36.2228 51.8624L56.3094 31.7758C57.1775 30.9067 57.665 29.7286 57.665 28.5002C57.665 27.2718 57.1775 26.0937 56.3094 25.2245L36.2228 5.13793C35.7985 4.68251 35.2867 4.31723 34.7181 4.06388C34.1495 3.81053 33.5357 3.6743 32.9133 3.66332C32.2909 3.65234 31.6727 3.76683 31.0955 3.99996C30.5183 4.2331 29.994 4.5801 29.5538 5.02026C29.1137 5.46043 28.7667 5.98475 28.5335 6.56193C28.3004 7.13912 28.1859 7.75734 28.1969 8.37974C28.2079 9.00213 28.3441 9.61594 28.5975 10.1845C28.8508 10.7531 29.2161 11.2649 29.6715 11.6892L41.8471 23.8648L5.13496 23.8648C2.57624 23.8648 0.499596 25.9415 0.499596 28.5002Z" fill="#76ACB6"/>
<path d="M3.33456 24.8376C3.33456 26.067 3.82292 27.246 4.69222 28.1153C5.56152 28.9846 6.74054 29.473 7.96992 29.473L44.682 29.473L32.5065 41.6485C31.6877 42.5272 31.2419 43.6894 31.2631 44.8903C31.2843 46.0912 31.7708 47.237 32.62 48.0862C33.4693 48.9355 34.6151 49.422 35.816 49.4432C37.0169 49.4644 38.1791 49.0186 39.0578 48.1998L59.1444 28.1132C60.0124 27.2441 60.5 26.066 60.5 24.8376C60.5 23.6092 60.0124 22.4311 59.1444 21.5619L39.0578 1.47533C38.6334 1.01991 38.1217 0.654633 37.5531 0.401283C36.9845 0.147932 36.3707 0.0117028 35.7483 0.000721398C35.1259 -0.01026 34.5076 0.104231 33.9305 0.337365C33.3533 0.570499 32.829 0.9175 32.3888 1.35767C31.9486 1.79783 31.6016 2.32215 31.3685 2.89933C31.1354 3.47652 31.0209 4.09475 31.0319 4.71714C31.0428 5.33953 31.1791 5.95334 31.4324 6.52194C31.6858 7.09054 32.051 7.60229 32.5065 8.02665L44.682 20.2022L7.96992 20.2022C5.4112 20.2022 3.33456 22.2789 3.33456 24.8376Z" fill="#AD6095"/>
<path fill-rule="evenodd" clip-rule="evenodd" d="M4.69263 28.1152C3.82333 27.2459 3.33496 26.0669 3.33496 24.8375C3.33496 24.6248 3.3493 24.4155 3.37707 24.2105C3.91946 23.9877 4.51332 23.8648 5.13571 23.8648H41.8478L38.1851 20.2021H44.6824L32.5069 8.02656C32.0514 7.60219 31.6862 7.09044 31.4328 6.52184C31.1795 5.95324 31.0432 5.33944 31.0323 4.71704C31.0281 4.47974 31.0421 4.24305 31.074 4.00901C31.0814 4.00598 31.0888 4.00296 31.0962 3.99996C31.6734 3.76683 32.2917 3.65234 32.9141 3.66332C33.5364 3.6743 34.1503 3.81053 34.7189 4.06388C35.2875 4.31723 35.7992 4.68251 36.2236 5.13793L56.3102 25.2245C57.1782 26.0937 57.6658 27.2718 57.6658 28.5002C57.6658 28.9332 57.6052 29.36 57.4887 29.7692L39.0582 48.1997C38.1795 49.0185 37.0173 49.4643 35.8164 49.4431C34.6155 49.4219 33.4697 48.9354 32.6205 48.0861C31.7712 47.2369 31.2847 46.0911 31.2635 44.8902C31.2554 44.4317 31.3154 43.9787 31.4383 43.5451L41.8478 33.1355H41.0197L44.6824 29.4729H7.97032C6.74095 29.4729 5.56193 28.9845 4.69263 28.1152Z" fill="#715A95"/>
</svg>
