<svg width="61" height="55" viewBox="0 0 61 55" fill="none" xmlns="http://www.w3.org/2000/svg">
<path d="M0.499588 29.4138C0.499588 30.6431 0.987957 31.8222 1.85725 32.6915C2.72655 33.5608 3.90558 34.0491 5.13496 34.0491L41.8471 34.0491L29.6715 46.2247C28.8527 47.1034 28.407 48.2656 28.4281 49.4665C28.4493 50.6674 28.9358 51.8131 29.7851 52.6624C30.6344 53.5117 31.7801 53.9982 32.981 54.0194C34.1819 54.0406 35.3441 53.5948 36.2228 52.776L56.3094 32.6894C57.1775 31.8203 57.665 30.6421 57.665 29.4138C57.665 28.1854 57.1775 27.0072 56.3094 26.1381L36.2228 6.05151C35.7985 5.59609 35.2867 5.23081 34.7181 4.97745C34.1495 4.7241 33.5357 4.58787 32.9133 4.57689C32.2909 4.56591 31.6727 4.6804 31.0955 4.91354C30.5183 5.14667 29.994 5.49367 29.5538 5.93384C29.1137 6.37401 28.7667 6.89832 28.5335 7.47551C28.3004 8.05269 28.1859 8.67092 28.1969 9.29331C28.2079 9.9157 28.3441 10.5295 28.5974 11.0981C28.8508 11.6667 29.2161 12.1785 29.6715 12.6028L41.8471 24.7784L5.13496 24.7784C2.57623 24.7784 0.499588 26.855 0.499588 29.4138Z" fill="#76ACB6"/>
<path d="M3.33455 25.7507C3.33455 26.98 3.82292 28.1591 4.69221 29.0284C5.56152 29.8977 6.74054 30.386 7.96992 30.386L44.682 30.386L32.5065 42.5616C31.6877 43.4403 31.2419 44.6025 31.2631 45.8034C31.2843 47.0043 31.7708 48.15 32.62 48.9993C33.4693 49.8486 34.6151 50.3351 35.816 50.3563C37.0168 50.3775 38.1791 49.9317 39.0578 49.1129L59.1444 29.0263C60.0124 28.1572 60.5 26.979 60.5 25.7507C60.5 24.5223 60.0124 23.3441 59.1444 22.475L39.0578 2.38842C38.6334 1.933 38.1217 1.56772 37.5531 1.31437C36.9845 1.06102 36.3707 0.924789 35.7483 0.913807C35.1259 0.902826 34.5076 1.01732 33.9305 1.25045C33.3533 1.48359 32.829 1.83059 32.3888 2.27075C31.9486 2.71092 31.6016 3.23524 31.3685 3.81242C31.1354 4.3896 31.0209 5.00783 31.0318 5.63023C31.0428 6.25262 31.1791 6.86642 31.4324 7.43502C31.6858 8.00363 32.051 8.51537 32.5065 8.93974L44.682 21.1153L7.96992 21.1153C5.41119 21.1153 3.33455 23.1919 3.33455 25.7507Z" fill="#DDD347"/>
<path fill-rule="evenodd" clip-rule="evenodd" d="M4.69263 29.0287C3.82333 28.1594 3.33496 26.9804 3.33496 25.751C3.33496 25.5384 3.3493 25.3291 3.37706 25.1241C3.91947 24.9013 4.51336 24.7784 5.13577 24.7784H41.8479L38.1851 21.1156H44.6824L32.5069 8.94007C32.0514 8.5157 31.6862 8.00395 31.4328 7.43535C31.1795 6.86675 31.0432 6.25295 31.0323 5.63055C31.0281 5.39329 31.0421 5.15663 31.074 4.92261C31.0814 4.91957 31.0889 4.91654 31.0963 4.91354C31.6735 4.6804 32.2917 4.56591 32.9141 4.57689C33.5365 4.58787 34.1503 4.7241 34.7189 4.97745C35.2875 5.23081 35.7993 5.59609 36.2236 6.05151L56.3102 26.1381C57.1783 27.0072 57.6659 28.1854 57.6659 29.4138C57.6659 29.8467 57.6053 30.2735 57.4888 30.6826L39.0582 49.1132C38.1795 49.932 37.0173 50.3778 35.8164 50.3566C34.6155 50.3354 33.4697 49.8489 32.6205 48.9997C31.7712 48.1504 31.2847 47.0046 31.2635 45.8037C31.2554 45.3452 31.3154 44.8924 31.4382 44.4588L41.8479 34.0491H41.0197L44.6824 30.3864H7.97033C6.74095 30.3864 5.56193 29.898 4.69263 29.0287Z" fill="#7CA835"/>
</svg>
