<svg width="350" height="96" viewBox="0 0 350 96" fill="none" xmlns="http://www.w3.org/2000/svg">
<path fill-rule="evenodd" clip-rule="evenodd" d="M78.8148 8.40234H0.30957V86.9076H8.79724C11.9285 82.8045 20.8014 79.5955 31.9939 78.5494C17.9638 77.238 7.57856 72.5281 7.57856 66.9187C7.57856 61.3098 17.9624 56.6 31.9912 55.2883C17.9624 53.9766 7.57856 49.2669 7.57856 43.658C7.57856 38.0485 17.9644 33.3384 31.9951 32.0272C17.9643 30.716 7.57834 26.006 7.57834 20.3964C7.57834 13.7724 22.0606 8.40258 39.9254 8.40258C57.7902 8.40258 72.2725 13.7724 72.2725 20.3964C72.2725 26.0059 61.8867 30.716 47.856 32.0272C61.8868 33.3384 72.2727 38.0484 72.2727 43.658C72.2727 49.2669 61.8888 53.9766 47.8601 55.2883C61.8888 56.6 72.2727 61.3098 72.2727 66.9187C72.2727 72.5281 61.8875 77.238 47.8574 78.5494C59.0499 79.5955 67.9227 82.8045 71.054 86.9076H78.8148V8.40234Z" fill="#AD6095"/>
<path fill-rule="evenodd" clip-rule="evenodd" d="M75.1805 17.489C75.1805 23.0983 64.7952 27.8083 50.7651 29.1196C64.7952 30.431 75.1805 35.1409 75.1805 40.7503C75.1805 46.3589 64.7979 51.0683 50.7705 52.3804C64.7979 53.6924 75.1805 58.4019 75.1805 64.0105C75.1805 69.6202 64.7939 74.3304 50.7624 75.6414C64.4887 76.9239 74.7269 81.4593 75.1658 86.9076H10.501C10.9399 81.4593 21.1781 76.9239 34.9044 75.6414C20.8729 74.3304 10.4863 69.6202 10.4863 64.0105C10.4863 58.4019 20.8689 53.6924 34.8962 52.3804C20.8689 51.0683 10.4863 46.3589 10.4863 40.7503C10.4863 35.1409 20.8715 30.431 34.9016 29.1196C20.8715 27.8083 10.4863 23.0983 10.4863 17.489C10.4863 13.8568 14.8406 10.6018 21.7193 8.40234H63.9475C70.8261 10.6018 75.1805 13.8568 75.1805 17.489Z" fill="#76ACB6"/>
<path fill-rule="evenodd" clip-rule="evenodd" d="M71.4623 23.0792C73.8377 21.4102 75.1824 19.5082 75.1824 17.4897C75.1824 13.8577 70.8283 10.6028 63.9501 8.40332H40.2134C57.9465 8.46026 72.2745 13.8081 72.2745 20.3967C72.2745 21.3189 71.9938 22.2168 71.4623 23.0792ZM58.4202 30.2385C55.2649 31.0551 51.6985 31.6685 47.8592 32.0274C61.8893 33.3387 72.2745 38.0487 72.2745 43.658C72.2745 44.5802 71.9938 45.4781 71.4623 46.3405C73.8377 44.6714 75.1824 42.7695 75.1824 40.751C75.1824 36.2221 68.4124 32.2795 58.4202 30.2385ZM58.4224 53.4992C55.2673 54.3159 51.7011 54.9294 47.8619 55.2884C61.8906 56.6001 72.2745 61.3098 72.2745 66.9188C72.2745 67.8406 71.994 68.7382 71.4629 69.6004C73.8379 67.9314 75.1824 66.0296 75.1824 64.0113C75.1824 59.4827 68.4134 55.5403 58.4224 53.4992ZM58.4202 76.7606C55.2649 77.5772 51.6985 78.1906 47.8591 78.5494C59.0523 79.5956 67.9256 82.8049 71.0563 86.9083H75.1677C74.8152 82.5331 68.1432 78.7465 58.4202 76.7606ZM21.7205 8.40332C16.5887 10.0443 12.862 12.2729 11.3004 14.8072C16.6787 11.028 27.3409 8.44282 39.6414 8.40332H21.7205ZM11.3003 84.5906C15.5262 81.6212 23.0141 79.3889 31.9957 78.5494C29.2933 78.2968 26.7262 77.9182 24.3425 77.4313C17.8629 79.1083 13.1168 81.6425 11.3003 84.5906ZM11.2998 61.3297C15.5251 58.3604 23.0122 56.1281 31.9929 55.2884C29.2908 55.0357 26.7239 54.657 24.3403 54.1701C17.8612 55.8472 13.1157 58.3816 11.2998 61.3297ZM11.3004 38.0685C15.5262 35.0991 23.0141 32.8668 31.9957 32.0274C29.2933 31.7748 26.7262 31.3961 24.3425 30.9092C17.8629 32.5862 13.1169 35.1205 11.3004 38.0685Z" fill="#715A95"/>
<path d="M151.833 48.8134C151.556 48.6525 151.251 48.4984 150.936 48.3477C151.251 48.197 151.556 48.0429 151.833 47.882C153.404 46.9891 154.782 45.7945 155.889 44.3668C156.996 42.9391 157.809 41.3065 158.283 39.5632C158.756 37.8198 158.88 36 158.647 34.2086C158.414 32.4172 157.829 30.6896 156.926 29.1251C156.023 27.5607 154.819 26.1903 153.384 25.093C151.949 23.9957 150.311 23.1931 148.564 22.7313C146.818 22.2696 144.997 22.1579 143.208 22.4026C141.418 22.6473 139.694 23.2437 138.136 24.1573C137.858 24.3182 137.571 24.4997 137.286 24.7018C137.314 24.3593 137.331 24.0169 137.331 23.6744C137.331 20.0415 135.888 16.5574 133.319 13.9886C130.75 11.4197 127.266 9.97656 123.633 9.97656C120 9.97656 116.516 11.4197 113.947 13.9886C111.378 16.5574 109.935 20.0415 109.935 23.6744C109.935 23.9963 109.935 24.3388 109.98 24.7018C109.695 24.5066 109.408 24.3182 109.13 24.1573C107.572 23.2437 105.848 22.6473 104.058 22.4026C102.269 22.1579 100.448 22.2696 98.7015 22.7313C96.9551 23.1931 95.3172 23.9957 93.8822 25.093C92.4472 26.1903 91.2434 27.5607 90.3401 29.1251C89.4369 30.6896 88.852 32.4172 88.6191 34.2086C88.3863 36 88.5101 37.8198 88.9834 39.5632C89.4567 41.3065 90.2702 42.9391 91.377 44.3668C92.4838 45.7945 93.8621 46.9891 95.4325 47.882C95.7099 48.0429 96.0147 48.197 96.3297 48.3477C96.0147 48.4984 95.7099 48.6525 95.4325 48.8134C93.8621 49.7063 92.4838 50.901 91.377 52.3287C90.2702 53.7564 89.4567 55.3889 88.9834 57.1323C88.5101 58.8756 88.3863 60.6954 88.6191 62.4868C88.852 64.2782 89.4369 66.0059 90.3401 67.5703C91.2434 69.1347 92.4472 70.5051 93.8822 71.6024C95.3172 72.6997 96.9551 73.5023 98.7015 73.9641C100.448 74.4258 102.269 74.5375 104.058 74.2928C105.848 74.0481 107.572 73.4518 109.13 72.5381C109.408 72.3772 109.695 72.1957 109.98 71.9936C109.952 72.3361 109.935 72.6785 109.935 73.0039C109.935 76.6368 111.378 80.1209 113.947 82.6897C116.516 85.2586 120 86.7017 123.633 86.7017C127.266 86.7017 130.75 85.2586 133.319 82.6897C135.888 80.1209 137.331 76.6368 137.331 73.0039C137.331 72.682 137.314 72.3395 137.286 71.9936C137.571 72.1888 137.858 72.3772 138.136 72.5381C140.211 73.74 142.566 74.3732 144.964 74.3736C146.169 74.3722 147.368 74.2133 148.532 73.9011C151.149 73.1997 153.499 71.738 155.285 69.701C157.072 67.6639 158.214 65.1429 158.567 62.4568C158.92 59.7706 158.469 57.0401 157.271 54.6103C156.072 52.1806 154.18 50.1609 151.833 48.8066V48.8134ZM115.414 48.3477C115.414 46.7222 115.896 45.1332 116.799 43.7816C117.702 42.4301 118.986 41.3767 120.488 40.7546C121.99 40.1325 123.642 39.9698 125.236 40.2869C126.831 40.604 128.295 41.3868 129.444 42.5362C130.594 43.6856 131.377 45.15 131.694 46.7443C132.011 48.3386 131.848 49.9911 131.226 51.4929C130.604 52.9947 129.551 54.2782 128.199 55.1813C126.847 56.0844 125.258 56.5664 123.633 56.5664C121.453 56.5664 119.363 55.7005 117.821 54.1592C116.28 52.6179 115.414 50.5274 115.414 48.3477Z" fill="#CE6C9E"/>
<path d="M152.784 45.5177C152.493 45.3831 152.175 45.2579 151.847 45.137C152.147 44.9578 152.436 44.7762 152.697 44.5903C154.178 43.5559 155.44 42.2388 156.41 40.7148C157.38 39.1908 158.039 37.49 158.349 35.7103C158.659 33.9306 158.614 32.1072 158.216 30.3451C157.819 28.5829 157.076 26.9168 156.032 25.4426C154.988 23.9685 153.663 22.7154 152.132 21.7556C150.602 20.7958 148.897 20.1482 147.115 19.8501C145.333 19.5519 143.51 19.6092 141.751 20.0185C139.991 20.4278 138.33 21.1811 136.863 22.235C136.602 22.4209 136.332 22.6283 136.068 22.8557C136.063 22.5122 136.049 22.1697 136.017 21.8287C135.681 18.2114 133.921 14.8758 131.126 12.5557C128.33 10.2356 124.727 9.12102 121.11 9.45721C117.493 9.7934 114.157 11.5528 111.837 14.3483C109.517 17.1439 108.403 20.7466 108.739 24.3639C108.768 24.6844 108.8 25.0254 108.878 25.3827C108.577 25.2147 108.273 25.0538 107.982 24.9192C106.346 24.1537 104.574 23.7194 102.769 23.6414C100.965 23.5633 99.1623 23.8431 97.4661 24.4644C95.7698 25.0858 94.2132 26.0366 92.8859 27.262C91.5586 28.4874 90.4868 29.9632 89.7322 31.6046C88.9776 33.2459 88.5551 35.0202 88.4891 36.8255C88.423 38.6308 88.7147 40.4313 89.3473 42.1234C89.9799 43.8154 90.9409 45.3657 92.1751 46.6848C93.4093 48.004 94.8922 49.066 96.5385 49.8097C96.8296 49.9443 97.1473 50.0695 97.475 50.1904C97.1752 50.3696 96.886 50.5512 96.6247 50.7371C95.1437 51.7715 93.8819 53.0886 92.9119 54.6126C91.942 56.1366 91.2831 57.8374 90.9731 59.6171C90.6632 61.3967 90.7083 63.2202 91.1059 64.9823C91.5036 66.7445 92.2458 68.4106 93.29 69.8848C94.3341 71.3589 95.6596 72.6119 97.19 73.5718C98.7204 74.5316 100.426 75.1792 102.207 75.4773C103.989 75.7755 105.812 75.7182 107.571 75.3089C109.331 74.8996 110.992 74.1463 112.459 73.0924C112.721 72.9065 112.99 72.6991 113.255 72.4717C113.259 72.8152 113.274 73.1577 113.304 73.4817C113.64 77.099 115.399 80.4346 118.195 82.7547C120.99 85.0748 124.593 86.1893 128.21 85.8531C131.828 85.5169 135.163 83.7576 137.483 80.962C139.804 78.1665 140.918 74.5637 140.582 70.9464C140.552 70.6259 140.503 70.2865 140.444 69.9447C140.745 70.1127 141.049 70.2736 141.34 70.4082C143.517 71.4129 145.921 71.8254 148.309 71.604C149.509 71.491 150.688 71.2218 151.818 70.8032C154.359 69.8627 156.564 68.1898 158.154 65.9962C159.744 63.8025 160.648 61.1867 160.751 58.4794C160.854 55.7721 160.152 53.095 158.734 50.7866C157.316 48.4782 155.245 46.6423 152.783 45.5109L152.784 45.5177ZM140.03 26.704C140.91 26.0802 141.905 25.6359 142.958 25.3966C144.01 25.1573 145.1 25.1277 146.163 25.3094C147.227 25.491 148.245 25.8805 149.158 26.4555C150.072 27.0305 150.863 27.7797 151.487 28.6605C152.111 29.5413 152.555 30.5363 152.794 31.5887C153.034 32.6412 153.063 33.7305 152.882 34.7944C152.7 35.8583 152.31 36.876 151.735 37.7894C151.16 38.7028 150.411 39.494 149.53 40.1178C147.508 41.5543 143.379 42.7978 137.769 43.6837C136.906 40.8522 135.148 38.3766 132.76 36.6277C135.459 31.6239 138.007 28.1404 140.03 26.704ZM121.619 14.9299C123.789 14.7282 125.951 15.3969 127.628 16.789C129.305 18.181 130.361 20.1824 130.563 22.3528C130.792 24.8214 129.807 29.0229 127.769 34.3265C124.885 33.6496 121.859 33.9309 119.149 35.1276C116.168 30.2905 114.425 26.3426 114.196 23.8739C113.994 21.7035 114.663 19.5419 116.055 17.8646C117.447 16.1872 119.448 15.1316 121.619 14.9299ZM94.7911 33.9315C95.2418 32.9505 95.8813 32.0679 96.6731 31.3341C97.4649 30.6003 98.3936 30.0297 99.406 29.6549C100.418 29.28 101.495 29.1083 102.573 29.1496C103.652 29.1908 104.712 29.4442 105.693 29.8952C107.946 30.9343 111.092 33.8885 114.667 38.3092C112.64 40.4711 111.369 43.2321 111.045 46.1778C105.368 46.3409 101.081 45.8795 98.8284 44.8438C97.846 44.3933 96.9621 43.7535 96.2274 42.9609C95.4926 42.1684 94.9214 41.2387 94.5464 40.2251C94.1714 39.2115 94 38.1339 94.0419 37.0539C94.0839 35.974 94.3385 34.913 94.7911 33.9315ZM109.293 68.6234C107.514 69.8833 105.307 70.385 103.159 70.018C101.01 69.6511 99.0951 68.4457 97.8353 66.6669C96.5754 64.8881 96.0737 62.6817 96.4406 60.533C96.8075 58.3843 98.013 56.4694 99.7918 55.2096C101.815 53.7731 105.943 52.5296 111.553 51.6437C112.416 54.4752 114.174 56.9508 116.562 58.6997C113.863 63.7035 111.315 67.187 109.293 68.6234ZM127.703 80.3975C125.533 80.5992 123.371 79.9305 121.694 78.5384C120.017 77.1464 118.961 75.145 118.759 72.9746C118.53 70.5059 119.515 66.3045 121.553 61.0009C124.437 61.6778 127.463 61.3965 130.173 60.1998C133.154 65.0369 134.897 68.9848 135.126 71.4535C135.328 73.6239 134.659 75.7855 133.267 77.4628C131.875 79.1402 129.874 80.1958 127.703 80.3975ZM154.531 61.3959C154.08 62.3769 153.441 63.2595 152.649 63.9933C151.857 64.7271 150.929 65.2977 149.916 65.6725C148.904 66.0474 147.827 66.2191 146.749 66.1778C145.67 66.1366 144.61 65.8832 143.629 65.4322C141.376 64.3931 138.23 61.4389 134.655 57.0182C136.682 54.8562 137.953 52.0953 138.277 49.1496C143.954 48.9865 148.241 49.4479 150.494 50.4835C151.476 50.9341 152.36 51.5739 153.095 52.3665C153.83 53.159 154.401 54.0887 154.776 55.1023C155.151 56.1159 155.322 57.1935 155.28 58.2735C155.238 59.3534 154.984 60.4144 154.531 61.3959Z" fill="#DDD347"/>
<path fill-rule="evenodd" clip-rule="evenodd" d="M151.847 45.1365C152.174 45.2574 152.492 45.3826 152.783 45.5172L152.783 45.5104C153.251 45.7256 153.705 45.9662 154.143 46.2308C153.434 46.8582 152.661 47.4119 151.834 47.882C151.557 48.0429 151.252 48.197 150.937 48.3477C151.252 48.4984 151.557 48.6525 151.834 48.8134V48.8066C154.181 50.1609 156.073 52.1806 157.271 54.6103C158.47 57.0401 158.921 59.7706 158.568 62.4568C158.329 64.2695 157.731 66.007 156.819 67.5713C155.415 68.9962 153.71 70.1024 151.818 70.8027C150.688 71.2213 149.508 71.4905 148.309 71.6034C145.921 71.8249 143.517 71.4124 141.34 70.4077C141.049 70.2731 140.745 70.1122 140.444 69.9441C140.503 70.286 140.552 70.6254 140.581 70.9459C140.666 71.8501 140.659 72.7533 140.566 73.6432C139.725 73.3564 138.911 72.9869 138.136 72.5381C137.859 72.3772 137.571 72.1888 137.287 71.9936C137.314 72.3395 137.331 72.682 137.331 73.0039C137.331 76.6368 135.888 80.1209 133.319 82.6897C131.924 84.0852 130.258 85.1484 128.446 85.8286C128.367 85.8373 128.289 85.8453 128.21 85.8526C124.593 86.1888 120.99 85.0742 118.194 82.7542C115.399 80.4341 113.64 77.0984 113.303 73.4811C113.273 73.1572 113.259 72.8147 113.254 72.4711C112.99 72.6986 112.72 72.906 112.459 73.0919C111.693 73.642 110.874 74.1102 110.017 74.4903C109.963 73.9989 109.936 73.5028 109.936 73.0039C109.936 72.6785 109.953 72.3361 109.98 71.9936C109.696 72.1957 109.408 72.3772 109.131 72.5381C107.573 73.4518 105.849 74.0481 104.059 74.2928C102.269 74.5375 100.449 74.4258 98.7022 73.9641C98.0382 73.7885 97.3899 73.5637 96.7625 73.2921C95.4119 72.3733 94.2354 71.2195 93.2896 69.8842C92.2454 68.4101 91.5032 66.744 91.1056 64.9818C90.7079 63.2196 90.6628 61.3962 90.9727 59.6165C91.2827 57.8368 91.9416 56.136 92.9115 54.612C93.8815 53.088 95.1433 51.771 96.6243 50.7366C96.8856 50.5507 97.1748 50.369 97.4746 50.1898C97.1469 50.069 96.8292 49.9437 96.5381 49.8091C96.0301 49.5796 95.5376 49.3198 95.0632 49.0315C95.1853 48.9569 95.3086 48.8842 95.4331 48.8134C95.7105 48.6525 96.0153 48.4984 96.3303 48.3477C96.0153 48.197 95.7105 48.0429 95.4331 47.882C93.8627 46.9891 92.4844 45.7945 91.3776 44.3668C90.2708 42.9391 89.4573 41.3065 88.984 39.5632C88.7019 38.5242 88.544 37.458 88.5117 36.387C88.6254 34.7331 89.0383 33.1124 89.7318 31.604C90.4864 29.9627 91.5582 28.4869 92.8856 27.2615C94.2129 26.0361 95.7694 25.0853 97.4657 24.4639C99.1619 23.8425 100.964 23.5628 102.769 23.6409C104.574 23.7189 106.345 24.1532 107.982 24.9186C108.273 25.0532 108.577 25.2141 108.878 25.3822C108.8 25.0249 108.768 24.6839 108.738 24.3634C108.724 24.2146 108.713 24.0659 108.704 23.9172C108.848 23.9946 108.99 24.0747 109.131 24.1573C109.408 24.3182 109.696 24.5066 109.98 24.7018C109.936 24.3388 109.936 23.9964 109.936 23.6745V23.6744C109.936 20.0415 111.379 16.5574 113.948 13.9886C116.517 11.4197 120.001 9.97656 123.634 9.97656C125.397 9.97656 127.124 10.3164 128.73 10.9598C129.576 11.4026 130.379 11.9359 131.125 12.5551C133.921 14.8752 135.68 18.2108 136.016 21.8281C136.048 22.1691 136.063 22.5117 136.067 22.8552C136.332 22.6277 136.601 22.4204 136.862 22.2345C136.983 22.1482 137.104 22.064 137.227 21.9818C137.296 22.5404 137.331 23.1056 137.331 23.6744C137.331 24.0169 137.314 24.3593 137.287 24.7018C137.571 24.4997 137.859 24.3182 138.136 24.1573C139.695 23.2437 141.418 22.6473 143.208 22.4026C144.998 22.1579 146.819 22.2696 148.565 22.7313C150.311 23.1931 151.949 23.9957 153.384 25.093C154.819 26.1903 156.023 27.5607 156.926 29.1251C157.723 30.5045 158.272 32.0108 158.55 33.5757C158.539 34.2896 158.472 35.0031 158.349 35.7098C158.039 37.4895 157.38 39.1903 156.41 40.7143C155.44 42.2383 154.178 43.5554 152.697 44.5897C152.436 44.7757 152.147 44.9573 151.847 45.1365ZM142.957 25.3961C141.905 25.6354 140.91 26.0796 140.029 26.7035C138.006 28.1399 135.458 31.6234 132.759 36.6272C135.148 38.3761 136.905 40.8516 137.769 43.6832C143.379 42.7973 147.507 41.5538 149.53 40.1173C150.411 39.4935 151.16 38.7023 151.735 37.7889C152.31 36.8755 152.699 35.8578 152.881 34.7939C153.063 33.7299 153.033 32.6407 152.794 31.5882C152.555 30.5358 152.11 29.5407 151.487 28.66C150.863 27.7792 150.071 27.0299 149.158 26.455C148.245 25.88 147.227 25.4905 146.163 25.3088C145.099 25.1272 144.01 25.1568 142.957 25.3961ZM127.628 16.7884C125.95 15.3964 123.789 14.7276 121.618 14.9294C119.448 15.1311 117.447 16.1867 116.055 17.864C114.663 19.5414 113.994 21.703 114.196 23.8734C114.425 26.3421 116.168 30.29 119.148 35.1271C121.858 33.9303 124.884 33.6491 127.768 34.3259C129.807 29.0224 130.792 24.8209 130.562 22.3522C130.361 20.1819 129.305 18.1805 127.628 16.7884ZM96.6727 31.3336C95.8809 32.0674 95.2414 32.95 94.7907 33.931C94.3381 34.9124 94.0836 35.9735 94.0416 37.0534C93.9996 38.1333 94.171 39.2109 94.546 40.2246C94.921 41.2382 95.4922 42.1678 96.227 42.9604C96.9618 43.7529 97.8456 44.3928 98.828 44.8433C101.081 45.879 105.368 46.3403 111.044 46.1773C111.369 43.2316 112.64 40.4706 114.667 38.3087C111.092 33.8879 107.946 30.9337 105.693 29.8947C104.712 29.4437 103.652 29.1903 102.573 29.149C101.494 29.1078 100.418 29.2795 99.4056 29.6543C98.3932 30.0292 97.4645 30.5998 96.6727 31.3336ZM103.158 70.0175C105.307 70.3844 107.513 69.8828 109.292 68.6229C111.315 67.1864 113.863 63.703 116.562 58.6991C114.174 56.9503 112.416 54.4747 111.552 51.6432C105.943 52.5291 101.814 53.7726 99.7914 55.209C98.0126 56.4689 96.8071 58.3838 96.4402 60.5325C96.0733 62.6811 96.575 64.8876 97.8349 66.6664C99.0947 68.4451 101.01 69.6506 103.158 70.0175ZM121.694 78.5379C123.371 79.93 125.533 80.5987 127.703 80.397C129.873 80.1953 131.875 79.1396 133.267 77.4623C134.659 75.785 135.328 73.6233 135.126 71.453C134.896 68.9843 133.154 65.0364 130.173 60.1993C127.463 61.396 124.437 61.6772 121.553 61.0004C119.515 66.304 118.53 70.5054 118.759 72.9741C118.961 75.1445 120.016 77.1458 121.694 78.5379ZM152.649 63.9928C153.441 63.259 154.08 62.3763 154.531 61.3953C154.983 60.4139 155.238 59.3529 155.28 58.2729C155.322 57.193 155.15 56.1154 154.775 55.1018C154.4 54.0882 153.829 53.1585 153.094 52.3659C152.36 51.5734 151.476 50.9335 150.493 50.483C148.241 49.4474 143.954 48.986 138.277 49.149C137.953 52.0947 136.681 54.8557 134.654 57.0176C138.229 61.4384 141.376 64.3926 143.629 65.4316C144.609 65.8827 145.67 66.136 146.748 66.1773C147.827 66.2185 148.903 66.0468 149.916 65.672C150.928 65.2972 151.857 64.7266 152.649 63.9928ZM116.8 43.7816C115.897 45.1332 115.415 46.7222 115.415 48.3477C115.415 50.5274 116.281 52.6179 117.822 54.1592C119.363 55.7005 121.454 56.5664 123.634 56.5664C125.259 56.5664 126.848 56.0844 128.2 55.1813C129.551 54.2782 130.605 52.9947 131.227 51.4929C131.849 49.9911 132.012 48.3386 131.694 46.7443C131.377 45.15 130.595 43.6856 129.445 42.5362C128.296 41.3868 126.831 40.604 125.237 40.2869C123.643 39.9698 121.99 40.1325 120.488 40.7546C118.987 41.3767 117.703 42.4301 116.8 43.7816Z" fill="#D3592C"/>
<circle cx="209.759" cy="47.654" r="39.2526" fill="#76ACB6"/>
<path d="M249.012 8.40137L170.507 86.9066H249.012V8.40137Z" fill="#DDD347"/>
<path fill-rule="evenodd" clip-rule="evenodd" d="M182.003 75.411C189.106 82.5143 198.919 86.9078 209.759 86.9078C231.437 86.9078 249.011 69.3338 249.011 47.6552C249.011 36.8159 244.618 27.0027 237.515 19.8994L182.003 75.411Z" fill="#7CA835"/>
<path d="M288.545 32.93C290.414 30.9662 292.459 29.3177 294.682 27.9844C296.904 26.6512 299.22 25.6448 301.629 24.9651C304.037 24.2854 306.509 23.905 309.046 23.8238C311.582 23.7427 314.071 24.0012 316.512 24.5993C318.952 25.1975 321.326 26.0981 323.631 27.3013C325.937 28.5044 328.072 30.0408 330.037 31.9104C332.195 33.9633 333.983 36.251 335.401 38.7734C336.818 41.2958 337.835 43.9502 338.451 46.7367C339.067 49.5233 339.279 52.3667 339.09 55.2671C338.9 58.1674 338.257 61.0037 337.161 63.7758L332.137 61.4173C331.689 63.0078 331.068 64.5085 330.277 65.9193C329.485 67.3302 328.522 68.6513 327.387 69.8826C326.252 71.0763 324.999 72.1036 323.629 72.9646C322.26 73.8256 320.773 74.5203 319.169 75.0486L321.775 79.9485C319.061 81.181 316.26 81.9644 313.373 82.2986C310.486 82.6328 307.644 82.5522 304.849 82.0568C302.053 81.5614 299.352 80.6782 296.743 79.4073C294.135 78.1363 291.752 76.4744 289.594 74.4215C287.629 72.5519 285.979 70.5053 284.644 68.2817C283.309 66.0581 282.301 63.7419 281.62 61.3331C280.938 58.9242 280.556 56.4516 280.473 53.9152C280.39 51.3788 280.647 48.8905 281.244 46.4503C281.84 44.01 282.739 41.6375 283.94 39.3328C285.142 37.0281 286.677 34.8939 288.545 32.93ZM305.739 70.4146C306.234 69.8947 306.595 69.3217 306.824 68.6956C307.053 68.0695 307.159 67.437 307.143 66.7981C307.126 66.1592 306.988 65.5139 306.727 64.8622C306.466 64.2105 306.076 63.656 305.557 63.1987C305.037 62.7038 304.463 62.3418 303.837 62.1127C303.211 61.8837 302.578 61.777 301.939 61.7927C301.3 61.8084 300.655 61.9465 300.003 62.2069C299.352 62.4674 298.798 62.8571 298.341 63.376C297.846 63.8958 297.485 64.4688 297.256 65.0949C297.027 65.721 296.921 66.3536 296.937 66.9925C296.953 67.6314 297.092 68.2767 297.353 68.9284C297.614 69.5801 298.004 70.1346 298.523 70.5919C299.043 71.0868 299.617 71.4488 300.243 71.6778C300.869 71.9069 301.502 72.0135 302.141 71.9978C302.78 71.9821 303.425 71.8441 304.076 71.5836C304.728 71.3232 305.282 70.9335 305.739 70.4146ZM298.158 56.1601C298.653 55.6402 299.014 55.0673 299.243 54.4411C299.472 53.815 299.578 53.1825 299.562 52.5436C299.546 51.9047 299.407 51.2594 299.146 50.6077C298.885 49.956 298.495 49.4015 297.976 48.9442C297.456 48.4493 296.882 48.0873 296.256 47.8582C295.63 47.6292 294.997 47.5225 294.358 47.5382C293.719 47.5539 293.074 47.692 292.423 47.9525C291.771 48.2129 291.217 48.6026 290.76 49.1215C290.265 49.6413 289.904 50.2143 289.675 50.8404C289.446 51.4666 289.34 52.0991 289.356 52.738C289.372 53.3769 289.511 54.0222 289.772 54.6739C290.033 55.3256 290.423 55.8801 290.942 56.3374C291.462 56.8323 292.036 57.1943 292.662 57.4233C293.288 57.6524 293.921 57.7591 294.56 57.7434C295.199 57.7277 295.844 57.5896 296.495 57.3291C297.147 57.0687 297.701 56.679 298.158 56.1601ZM323.688 66.3633C324.64 65.3621 325.431 64.2615 326.058 63.0615C326.686 61.8615 327.152 60.5808 327.456 59.2195L305.192 48.7668L316.741 70.4827C318.066 70.0928 319.312 69.5545 320.48 68.8677C321.647 68.1809 322.716 67.3461 323.688 66.3633ZM305.009 41.5509C305.53 42.0458 306.103 42.4078 306.729 42.6369C307.355 42.8659 307.988 42.9726 308.627 42.9569C309.266 42.9412 309.911 42.8031 310.563 42.5427C311.214 42.2822 311.768 41.8925 312.225 41.3736C312.72 40.8538 313.082 40.2808 313.31 39.6547C313.539 39.0286 313.645 38.396 313.629 37.7571C313.613 37.1182 313.474 36.4729 313.213 35.8212C312.952 35.1695 312.562 34.615 312.043 34.1577C311.523 33.6628 310.95 33.3008 310.323 33.0718C309.697 32.8427 309.064 32.7361 308.425 32.7518C307.786 32.7675 307.141 32.9055 306.49 33.166C305.838 33.4264 305.284 33.8161 304.827 34.335C304.332 34.8549 303.971 35.4278 303.742 36.054C303.514 36.6801 303.407 37.3126 303.424 37.9515C303.44 38.5904 303.578 39.2357 303.839 39.8874C304.1 40.5391 304.49 41.0936 305.009 41.5509ZM326.84 48.2349C327.334 47.715 327.696 47.1421 327.925 46.5159C328.153 45.8898 328.26 45.2573 328.243 44.6184C328.227 43.9795 328.089 43.3342 327.828 42.6825C327.567 42.0308 327.177 41.4763 326.658 41.019C326.137 40.5241 325.564 40.1621 324.938 39.933C324.311 39.704 323.679 39.5973 323.04 39.613C322.401 39.6287 321.756 39.7668 321.104 40.0272C320.453 40.2877 319.898 40.6774 319.441 41.1963C318.947 41.7161 318.585 42.2891 318.357 42.9152C318.128 43.5413 318.022 44.1739 318.038 44.8128C318.054 45.4517 318.193 46.097 318.454 46.7487C318.715 47.4004 319.105 47.9549 319.624 48.4122C320.144 48.9071 320.717 49.2691 321.344 49.4981C321.97 49.7272 322.603 49.8338 323.242 49.8181C323.88 49.8024 324.526 49.6644 325.177 49.4039C325.829 49.1435 326.383 48.7538 326.84 48.2349ZM278.171 40.9413C276.784 39.6215 275.758 38.0955 275.094 36.3631L267.229 36.5282L267.1 31.4545L274.204 31.28C274.276 29.6987 274.605 28.1958 275.19 26.7712C275.774 25.3466 276.616 24.0567 277.715 22.9015C278.814 21.7463 280.06 20.8413 281.454 20.1866C282.848 19.5318 284.332 19.1287 285.908 18.9772L285.728 11.874L290.802 11.7493L291.029 19.6128C292.792 20.19 294.368 21.1385 295.755 22.4582C296.005 22.6965 296.237 22.9352 296.45 23.1744C296.663 23.4136 296.867 23.6813 297.063 23.9773C295.072 24.8347 293.19 25.8682 291.415 27.0776C289.641 28.287 288.002 29.6811 286.5 31.2598C285.017 32.8193 283.715 34.5154 282.596 36.348C281.476 38.1806 280.529 40.1218 279.753 42.1716C279.485 41.9901 279.227 41.7991 278.977 41.5984C278.728 41.3977 278.459 41.1786 278.171 40.9413Z" fill="#DDD347"/>
<path fill-rule="evenodd" clip-rule="evenodd" d="M288.466 33.6711C290.454 31.8291 292.6 30.3129 294.902 29.1226C297.205 27.9323 299.579 27.0739 302.026 26.5476C304.472 26.0212 306.964 25.7976 309.5 25.8766C312.037 25.9557 314.504 26.3707 316.902 27.1217C319.3 27.8726 321.612 28.9212 323.837 30.2674C326.062 31.6137 328.096 33.2817 329.94 35.2716C331.964 37.4566 333.604 39.8525 334.859 42.4593C336.115 45.0661 336.962 47.7794 337.401 50.5993C337.839 53.4191 337.873 56.2703 337.5 59.1529C337.127 62.0355 336.307 64.8255 335.038 67.523L304.08 50.5268L318.663 82.6927C315.876 83.7515 313.032 84.3565 310.129 84.5079C307.226 84.6592 304.396 84.3995 301.637 83.7287C298.879 83.0579 296.238 82.006 293.715 80.5731C291.192 79.1401 288.919 77.3311 286.895 75.1461C285.051 73.1562 283.534 71.0096 282.342 68.7062C281.15 66.4029 280.29 64.0277 279.762 61.5806C279.234 59.1336 279.009 56.6417 279.086 54.1052C279.163 51.5686 279.576 49.1015 280.326 46.7037C281.075 44.3059 282.122 41.9949 283.466 39.7706C284.811 37.5463 286.477 35.5132 288.466 33.6711ZM304.451 70.5188C304.184 71.1293 303.787 71.6783 303.26 72.1659C302.771 72.6549 302.194 73.0089 301.527 73.2277C300.86 73.4465 300.208 73.5436 299.569 73.5189C298.93 73.4943 298.306 73.3479 297.695 73.0798C297.085 72.8117 296.535 72.4143 296.047 71.8875C295.558 71.3984 295.204 70.8203 294.984 70.1535C294.765 69.4866 294.668 68.8339 294.692 68.1952C294.716 67.5566 294.862 66.932 295.13 66.3216C295.397 65.7111 295.794 65.1621 296.321 64.6745C296.809 64.1854 297.387 63.8315 298.054 63.6127C298.721 63.3939 299.373 63.2968 300.012 63.3214C300.65 63.3461 301.275 63.4924 301.886 63.7606C302.496 64.0287 303.046 64.4261 303.533 64.9528C304.023 65.442 304.377 66.02 304.596 66.6869C304.816 67.3537 304.913 68.0065 304.889 68.6452C304.865 69.2838 304.719 69.9084 304.451 70.5188ZM297.785 55.8144C297.517 56.4248 297.12 56.9739 296.594 57.4615C296.105 57.9505 295.527 58.3044 294.861 58.5233C294.194 58.7421 293.541 58.8392 292.903 58.8145C292.264 58.7899 291.639 58.6435 291.029 58.3754C290.418 58.1073 289.869 57.7098 289.381 57.1831C288.892 56.6939 288.537 56.1159 288.318 55.4491C288.099 54.7822 288.001 54.1294 288.025 53.4908C288.05 52.8521 288.196 52.2276 288.463 51.6171C288.731 51.0067 289.128 50.4577 289.654 49.9701C290.143 49.481 290.721 49.1271 291.387 48.9083C292.054 48.6894 292.707 48.5924 293.345 48.617C293.984 48.6416 294.609 48.788 295.219 49.0561C295.83 49.3242 296.379 49.7217 296.867 50.2484C297.356 50.7376 297.711 51.3156 297.93 51.9825C298.149 52.6493 298.247 53.3021 298.223 53.9407C298.199 54.5794 298.053 55.2039 297.785 55.8144ZM306.001 44.506C305.39 44.2379 304.841 43.8405 304.353 43.3137C303.864 42.8245 303.509 42.2465 303.29 41.5797C303.071 40.9128 302.973 40.26 302.998 39.6214C303.022 38.9827 303.168 38.3582 303.435 37.7477C303.703 37.1373 304.1 36.5883 304.626 36.1007C305.115 35.6116 305.693 35.2577 306.36 35.0389C307.026 34.8201 307.679 34.723 308.318 34.7476C308.956 34.7723 309.581 34.9186 310.191 35.1867C310.802 35.4549 311.351 35.8523 311.839 36.379C312.329 36.8682 312.683 37.4462 312.902 38.1131C313.122 38.7799 313.219 39.4327 313.195 40.0713C313.171 40.71 313.025 41.3345 312.757 41.945C312.489 42.5554 312.092 43.1045 311.566 43.5921C311.077 44.0811 310.499 44.435 309.833 44.6539C309.166 44.8727 308.514 44.9698 307.875 44.9451C307.236 44.9205 306.612 44.7741 306.001 44.506ZM326.91 49.7147C326.642 50.3252 326.245 50.8742 325.718 51.3618C325.23 51.8508 324.652 52.2048 323.985 52.4236C323.319 52.6424 322.666 52.7395 322.027 52.7148C321.389 52.6902 320.764 52.5438 320.153 52.2757C319.543 52.0076 318.994 51.6102 318.506 51.0834C318.016 50.5943 317.662 50.0163 317.443 49.3494C317.223 48.6825 317.126 48.0298 317.15 47.3911C317.174 46.7525 317.32 46.1279 317.588 45.5175C317.855 44.907 318.253 44.358 318.779 43.8704C319.268 43.3814 319.845 43.0274 320.512 42.8086C321.179 42.5898 321.831 42.4927 322.47 42.5173C323.109 42.542 323.733 42.6884 324.344 42.9565C324.955 43.2246 325.504 43.622 325.992 44.1487C326.481 44.6379 326.835 45.2159 327.055 45.8828C327.274 46.5497 327.372 47.2024 327.347 47.8411C327.323 48.4797 327.177 49.1043 326.91 49.7147Z" fill="#CE6C9E"/>
<path fill-rule="evenodd" clip-rule="evenodd" d="M318.051 81.3423C316.518 81.7966 314.959 82.1154 313.374 82.2989C310.486 82.6331 307.645 82.5525 304.85 82.0571C302.054 81.5617 299.352 80.6786 296.744 79.4076C294.136 78.1367 291.753 76.4748 289.595 74.4219C287.63 72.5522 285.98 70.5056 284.645 68.2821C283.31 66.0585 282.302 63.7423 281.621 61.3334C280.939 58.9246 280.557 56.452 280.474 53.9156C280.391 51.3792 280.648 48.8909 281.244 46.4506C281.841 44.0104 282.74 41.6379 283.941 39.3332C284.252 38.7377 284.584 38.1536 284.939 37.5809C285.974 36.1935 287.149 34.89 288.466 33.6702C290.455 31.8282 292.6 30.312 294.902 29.1217C297.205 27.9313 299.579 27.073 302.026 26.5466C304.472 26.0203 306.964 25.7966 309.5 25.8757C312.037 25.9548 314.504 26.3698 316.902 27.1207C319.3 27.8717 321.612 28.9202 323.837 30.2665C326.062 31.6127 328.097 33.2808 329.94 35.2707C331.964 37.4557 333.604 39.8516 334.859 42.4584C336.115 45.0652 336.962 47.7785 337.401 50.5983C337.84 53.4182 337.873 56.2694 337.5 59.1519C337.31 60.6261 337.002 62.076 336.577 63.5017L332.138 61.4176C331.771 62.7174 331.29 63.9572 330.694 65.1371L326.245 62.6944C326.78 61.6013 327.184 60.4432 327.457 59.2199L305.193 48.7672L306.972 52.1136L304.08 50.5258L318.051 81.3423ZM306.825 68.696C306.596 69.3221 306.234 69.8951 305.74 70.4149C305.283 70.9338 304.729 71.3235 304.077 71.584C303.946 71.6363 303.815 71.6837 303.685 71.7262C303.554 71.8776 303.413 72.0238 303.261 72.1649C302.772 72.654 302.194 73.0079 301.527 73.2267C300.861 73.4456 300.208 73.5426 299.569 73.518C298.931 73.4934 298.306 73.347 297.696 73.0789C297.085 72.8108 296.536 72.4133 296.048 71.8866C295.558 71.3974 295.204 70.8194 294.985 70.1525C294.765 69.4857 294.668 68.8329 294.692 68.1943C294.716 67.5556 294.862 66.9311 295.13 66.3206C295.398 65.7102 295.795 65.1612 296.321 64.6736C296.81 64.1845 297.387 63.8306 298.054 63.6118C298.089 63.6004 298.123 63.5893 298.158 63.5786C298.217 63.5103 298.278 63.4429 298.341 63.3763C298.798 62.8574 299.353 62.4677 300.004 62.2073C300.656 61.9468 301.301 61.8088 301.94 61.7931C302.579 61.7774 303.211 61.884 303.838 62.1131C304.464 62.3421 305.037 62.7041 305.558 63.199C306.077 63.6563 306.467 64.2108 306.728 64.8625C306.989 65.5142 307.127 66.1595 307.143 66.7984C307.16 67.4374 307.053 68.0699 306.825 68.696ZM299.244 54.4415C299.015 55.0676 298.654 55.6406 298.159 56.1604C297.804 56.5639 297.39 56.8893 296.917 57.1365C296.815 57.2473 296.708 57.3554 296.594 57.4605C296.105 57.9496 295.528 58.3035 294.861 58.5223C294.194 58.7411 293.542 58.8382 292.903 58.8136C292.264 58.7889 291.64 58.6426 291.029 58.3744C290.419 58.1063 289.869 57.7089 289.381 57.1822C288.892 56.693 288.538 56.115 288.318 55.4481C288.099 54.7813 288.002 54.1285 288.026 53.4899C288.05 52.8512 288.196 52.2266 288.463 51.6162C288.731 51.0057 289.128 50.4567 289.655 49.9691C289.961 49.662 290.303 49.4082 290.681 49.2077C290.707 49.1789 290.733 49.1503 290.761 49.1219C291.218 48.6029 291.772 48.2133 292.423 47.9528C293.075 47.6924 293.72 47.5543 294.359 47.5386C294.998 47.5229 295.631 47.6296 296.257 47.8586C296.883 48.0877 297.456 48.4496 297.977 48.9445C298.496 49.4018 298.886 49.9564 299.147 50.6081C299.408 51.2597 299.546 51.9051 299.562 52.544C299.579 53.1829 299.472 53.8154 299.244 54.4415ZM303.423 37.776C303.163 38.3771 303.022 38.992 302.998 39.6205C302.974 40.2591 303.071 40.9119 303.29 41.5787C303.51 42.2456 303.864 42.8236 304.353 43.3128C304.841 43.8395 305.391 44.2369 306.001 44.5051C306.612 44.7732 307.236 44.9195 307.875 44.9442C308.514 44.9688 309.166 44.8717 309.833 44.6529C310.5 44.4341 311.078 44.0802 311.566 43.5911C312.093 43.1035 312.49 42.5545 312.757 41.9441C313.025 41.3336 313.171 40.7091 313.195 40.0704C313.197 40.0252 313.198 39.98 313.198 39.9347C313.239 39.8427 313.276 39.7495 313.311 39.655C313.54 39.0289 313.646 38.3964 313.63 37.7575C313.614 37.1186 313.475 36.4733 313.214 35.8216C312.953 35.1699 312.563 34.6154 312.044 34.1581C311.524 33.6632 310.95 33.3012 310.324 33.0721C309.698 32.8431 309.065 32.7364 308.426 32.7521C307.787 32.7678 307.142 32.9059 306.49 33.1663C305.839 33.4268 305.285 33.8165 304.828 34.3354C304.333 34.8552 303.972 35.4282 303.743 36.0543C303.535 36.6229 303.429 37.1968 303.423 37.776ZM327.351 47.6137C327.593 47.2681 327.785 46.9023 327.925 46.5163C328.154 45.8902 328.26 45.2577 328.244 44.6187C328.228 43.9798 328.089 43.3345 327.829 42.6828C327.568 42.0311 327.178 41.4766 326.658 41.0193C326.138 40.5244 325.565 40.1624 324.939 39.9334C324.312 39.7043 323.68 39.5977 323.041 39.6134C322.402 39.6291 321.757 39.7671 321.105 40.0276C320.453 40.2881 319.899 40.6777 319.442 41.1966C318.948 41.7165 318.586 42.2895 318.358 42.9156C318.14 43.5101 318.034 44.1104 318.037 44.7164C317.86 44.9702 317.711 45.2369 317.588 45.5165C317.32 46.127 317.175 46.7515 317.15 47.3902C317.126 48.0288 317.224 48.6816 317.443 49.3485C317.662 50.0153 318.017 50.5933 318.506 51.0825C318.994 51.6092 319.543 52.0067 320.154 52.2748C320.764 52.5429 321.389 52.6893 322.028 52.7139C322.666 52.7386 323.319 52.6415 323.986 52.4226C324.652 52.2038 325.23 51.8499 325.719 51.3608C326.245 50.8732 326.642 50.3242 326.91 49.7138C327.177 49.1033 327.323 48.4788 327.348 47.8401C327.35 47.7648 327.352 47.6893 327.351 47.6137Z" fill="#D3592C"/>
</svg>
