<svg width="1442" height="250" viewBox="0 0 1442 250" fill="none" xmlns="http://www.w3.org/2000/svg">
<path d="M89.5527 70.165L167.108 204.494H11.9978L89.5527 70.165Z" fill="#CE6C9E"/>
<path d="M89.5528 179.105L11.9979 44.7764L167.108 44.7764L89.5528 179.105Z" fill="#DDD347"/>
<path fill-rule="evenodd" clip-rule="evenodd" d="M58.1045 124.636L89.553 179.106L121.002 124.635L89.553 70.165L58.1045 124.636Z" fill="#D3592C"/>
<path d="M376.922 69.8221L377.945 59.4079L367.574 60.752C349.754 63.2912 331.587 61.5903 314.547 55.7877C296.711 49.3411 277.389 48.201 258.918 52.5053C249.166 54.5807 240.088 59.0623 232.511 65.5422C224.934 72.022 219.098 80.2942 215.535 89.6057C210.923 101.633 209.513 114.651 211.442 127.387C215.388 121.74 219.754 116.397 224.503 111.406C235.118 100.884 248.424 93.486 262.963 90.0229C276.975 86.6615 291.579 86.6286 305.606 89.9268C291.751 89.3614 277.93 91.6824 265.02 96.7425C258.803 99.1424 252.917 102.324 247.503 106.21C242.287 110.135 237.493 114.59 233.198 119.506C227.518 126.633 222.579 134.307 218.448 142.408C220.532 151.003 226.53 158.513 229.268 161.194C239.339 169.472 251.359 175.038 264.186 177.364C276.12 179.685 288.398 179.591 300.294 177.086C367.194 162.774 376.209 73.4735 376.922 69.8221Z" fill="#DDD347"/>
<path d="M384.059 69.8855L385.082 59.4713C374.705 85.8759 332.532 90.8192 312.743 89.9903C298.888 89.4248 285.067 91.7458 272.157 96.8059C265.94 99.2058 260.053 102.387 254.64 106.273C249.424 110.198 244.629 114.654 240.334 119.569C232.04 129.979 225.323 141.553 220.401 153.92C215.282 166.292 211.313 179.108 208.543 192.207L224.772 195.376C227.844 183.745 231.731 172.343 236.405 161.258C246.476 169.535 258.495 175.101 271.323 177.427C283.256 179.749 295.534 179.655 307.43 177.15C374.33 162.837 383.346 73.5369 384.059 69.8855Z" fill="#76ACB6"/>
<path fill-rule="evenodd" clip-rule="evenodd" d="M284.313 178.996C289.673 178.833 295.021 178.196 300.294 177.086C362.494 163.779 374.657 85.6485 376.632 71.8034C360.157 87.4778 328.946 90.669 312.742 89.9903C298.887 89.4248 285.066 91.7458 272.156 96.806C265.939 99.2059 260.053 102.387 254.639 106.273C249.423 110.198 244.629 114.654 240.334 119.569C232.75 129.087 226.486 139.578 221.705 150.757C224.28 155.607 227.474 159.437 229.268 161.194C231.035 162.646 232.861 164.015 234.742 165.297C235.284 163.946 235.838 162.599 236.404 161.258C246.475 169.535 258.495 175.101 271.322 177.427C275.619 178.263 279.961 178.786 284.313 178.996Z" fill="#7CA835"/>
<path d="M447.486 49.4074C469.177 33.9443 504.142 96.7537 519.585 130.679C549.186 108.02 609.603 69.0662 621.456 92.9191C623.82 96.6723 624.768 107.743 610.007 119.243C605.786 122.935 597.459 134.132 596.269 154.723C594.965 159.937 587.784 166.961 567.655 152.431C576.665 162.599 592.035 188.183 574.517 202.792C558.181 215.324 524.615 226.586 517.291 178.751L512.715 158.148L498.979 174.17C470.002 212.927 445.686 187.188 437.173 168.441C428.595 147.305 454.204 131.97 466.936 127.24C442.336 130.583 439.308 121.006 440.612 115.791C449.255 97.065 447.185 83.267 445.194 78.0213C437.59 60.9275 443.638 51.6068 447.486 49.4074Z" fill="#CE6C9E"/>
<path fill-rule="evenodd" clip-rule="evenodd" d="M497.392 28.6712L504.165 30.6066C511.842 32.8 517.034 40.0228 520.501 47.1529C524.17 54.7001 526.889 64.1731 528.653 73.964C529.673 79.6281 530.391 85.5028 530.779 91.3162C534.179 86.585 537.893 81.9768 541.752 77.7066C548.421 70.3252 555.735 63.7187 562.838 59.2494C569.548 55.0272 577.772 51.6375 585.449 53.8309L592.222 55.7662L588.352 69.3135L581.578 67.3781C580.027 66.935 576.389 67.3694 570.341 71.1746C564.686 74.7328 558.346 80.357 552.205 87.1526C546.097 93.9123 540.397 101.598 535.957 109.081C534.468 111.589 533.148 114.029 532.012 116.365C545.496 107.622 561.458 98.3422 576.285 91.9267C586.741 87.403 597.055 84.1134 605.716 83.6782C614.38 83.2429 622.685 85.7108 626.633 94.1209C630.332 100.786 629.088 114.166 613.018 125.912C609.664 128.71 601.656 138.432 599.905 157.63C599.878 157.923 599.824 158.212 599.743 158.494C598.592 162.522 595.037 167.222 588.236 167.892C585.846 168.127 583.215 167.841 580.318 166.969C581.746 170.075 582.979 173.371 583.845 176.74C586.558 187.297 585.826 199.621 574.778 208.229C574.727 208.268 574.676 208.306 574.624 208.344C565.84 214.629 551.87 220.991 538.755 218.699C531.983 217.515 525.615 214.038 520.624 207.435C517.27 202.999 514.628 197.274 512.814 190.102C509.585 192.63 505.62 193.673 501.842 192.593C497.974 191.488 495.114 188.389 493.744 184.403C488.347 189.64 483.012 193.167 477.756 195.187C470.03 198.157 462.787 197.744 456.411 195.172C444.064 190.189 435.563 177.407 431.425 167.429C431.401 167.37 431.378 167.31 431.356 167.251C426.523 154.104 432.413 143.255 440.295 135.725C442.81 133.322 445.598 131.175 448.451 129.292C445.53 128.502 443.144 127.355 441.239 125.892C435.819 121.73 435.283 115.861 436.434 111.833C436.515 111.551 436.621 111.277 436.753 111.015C445.411 93.7847 443.749 81.3013 442.378 77.1575C434.94 58.6918 440.957 46.6769 447.611 42.9717C455.408 37.9166 463.764 40.2089 470.891 45.1561C478.016 50.1016 485.035 58.3439 491.522 67.7083C500.835 81.1516 509.583 97.7008 516.451 112.381C516.748 109.671 516.933 106.75 516.997 103.664C517.18 94.965 516.401 85.4275 514.786 76.4612C513.163 67.4474 510.751 59.3226 507.83 53.3139C504.705 46.8881 501.846 44.597 500.294 44.1539L493.521 42.2185L497.392 28.6712ZM519.607 175.037C519.548 173.208 519.213 171.454 518.634 169.85L518.325 168.203C521.496 166.09 524.088 162.602 525.324 158.274C526.6 153.809 526.179 149.341 524.475 145.82C527.782 143.73 530.5 140.159 531.775 135.695C532.584 132.866 532.711 130.035 532.262 127.445C546.375 118.017 563.997 107.478 580.015 100.547C590.153 96.1608 599.227 93.409 606.187 93.0593C613.076 92.7132 616.563 94.6745 618.18 98.2197C618.246 98.3635 618.319 98.5039 618.399 98.6404C619.016 99.6971 621.28 108.291 607.375 118.401C607.303 118.453 607.233 118.507 607.164 118.564C601.821 122.932 592.681 134.878 590.6 156.248C590.201 157.291 589.286 158.35 587.316 158.544C584.638 158.808 579.097 157.611 569.579 150.248C567.686 148.783 564.994 148.977 563.33 150.698C561.665 152.418 561.562 155.115 563.089 156.959C567.138 161.846 572.51 170.372 574.748 179.078C576.951 187.651 575.957 195.354 569.078 200.762C561.122 206.432 549.804 211.095 540.372 209.446C535.854 208.656 531.621 206.407 528.117 201.771C524.534 197.031 521.531 189.542 520.159 178.039C520.147 177.935 520.131 177.832 520.112 177.729L519.607 175.037ZM506.487 128.47C505.212 132.934 505.632 137.402 507.336 140.923C504.029 143.013 501.312 146.584 500.036 151.048C498.832 155.261 499.139 159.477 500.609 162.898L493.883 170.236C493.813 170.313 493.745 170.392 493.679 170.473C486.438 179.516 479.933 184.288 474.386 186.42C468.962 188.504 464.18 188.178 459.926 186.461C451.046 182.878 443.899 172.939 440.14 163.922C437.157 155.696 440.383 148.632 446.783 142.517C453.284 136.306 462.349 131.906 468.367 129.894C470.638 129.136 471.974 126.791 471.47 124.451C470.966 122.111 468.782 120.525 466.401 120.768C454.43 121.991 449.093 120.08 446.959 118.441C445.389 117.236 445.171 115.853 445.383 114.757C454.907 95.5148 453.463 80.5431 451.228 74.0068C451.199 73.9241 451.169 73.8423 451.136 73.7613C444.676 57.8336 451.136 51.7292 452.219 51.1572C452.357 51.084 452.492 51.0039 452.623 50.9172C455.87 48.7612 459.868 48.9387 465.535 52.8723C471.26 56.8465 477.511 63.9768 483.801 73.0571C493.8 87.4914 503.248 105.883 510.261 121.403C508.592 123.333 507.269 125.733 506.487 128.47Z" fill="#DDD347"/>
<path fill-rule="evenodd" clip-rule="evenodd" d="M518.635 169.85C519.213 171.454 519.548 173.207 519.607 175.036L520.112 177.729C520.131 177.832 520.147 177.935 520.159 178.038C521.531 189.542 524.534 197.031 528.117 201.771C531.621 206.407 535.855 208.656 540.373 209.446C549.805 211.094 561.122 206.432 569.078 200.762C575.957 195.353 576.951 187.651 574.748 179.078C572.51 170.371 567.139 161.846 563.089 156.958C561.562 155.115 561.666 152.418 563.33 150.697C564.994 148.976 567.686 148.783 569.58 150.247C579.097 157.611 584.639 158.807 587.316 158.543C589.286 158.349 590.202 157.291 590.601 156.248C592.681 134.877 601.822 122.931 607.165 118.563C607.233 118.507 607.304 118.453 607.375 118.401C621.281 108.29 619.017 99.6966 618.399 98.6399C618.319 98.5034 618.246 98.363 618.181 98.2192C616.564 94.674 613.077 92.7127 606.188 93.0588C599.227 93.4085 590.154 96.1603 580.016 100.547C563.997 107.478 546.375 118.016 532.262 127.444C532.711 130.034 532.584 132.865 531.776 135.694C530.5 140.159 527.782 143.73 524.476 145.82C526.179 149.341 526.6 153.809 525.325 158.273C524.088 162.601 521.496 166.09 518.326 168.203L518.635 169.85ZM507.336 140.923C505.633 137.401 505.212 132.934 506.488 128.469C507.269 125.733 508.593 123.332 510.262 121.403C503.248 105.883 493.801 87.4909 483.802 73.0566C477.511 63.9763 471.261 56.846 465.535 52.8718C459.869 48.9382 455.871 48.7607 452.623 50.9167C452.493 51.0034 452.358 51.0835 452.219 51.1567C451.136 51.7287 444.676 57.8331 451.136 73.7608C451.169 73.8418 451.2 73.9236 451.228 74.0063C453.463 80.5426 454.907 95.5143 445.384 114.757C445.171 115.853 445.389 117.235 446.96 118.441C449.093 120.079 454.431 121.991 466.402 120.767C468.783 120.524 470.966 122.111 471.47 124.451C471.974 126.791 470.638 129.135 468.368 129.894C462.349 131.905 453.284 136.306 446.784 142.516C440.383 148.631 437.157 155.696 440.14 163.922C443.899 172.939 451.047 182.877 459.927 186.461C464.18 188.177 468.963 188.504 474.387 186.419C479.933 184.287 486.439 179.515 493.68 170.473C493.745 170.391 493.813 170.312 493.884 170.235L500.61 162.898C499.14 159.477 498.833 155.261 500.036 151.048C501.312 146.583 504.03 143.012 507.336 140.923ZM519.585 130.679C504.142 96.7537 469.177 33.9443 447.486 49.4074C443.638 51.6068 437.59 60.9275 445.194 78.0213C447.185 83.267 449.255 97.065 440.612 115.791C439.308 121.006 442.336 130.583 466.936 127.24C454.204 131.97 428.595 147.305 437.173 168.441C445.686 187.188 470.002 212.927 498.979 174.17L512.715 158.148L517.291 178.751C524.615 226.586 558.181 215.324 574.517 202.792C592.035 188.183 576.665 162.599 567.655 152.431C587.784 166.961 594.965 159.937 596.269 154.723C597.459 134.132 605.786 122.935 610.007 119.243C624.768 107.743 623.82 96.6723 621.456 92.9191C609.603 69.0662 549.186 108.02 519.585 130.679Z" fill="#D3592C"/>
<path d="M787.836 217.645L765.13 194.517L733.166 199.882L728.391 167.824L699.378 153.377L714.358 124.635L699.378 95.8934L728.391 81.4459L733.166 49.3885L765.13 54.7535L787.836 31.6251L810.542 54.7535L842.506 49.3885L847.281 81.4459L876.293 95.8934L861.314 124.635L876.293 153.377L847.281 167.824L842.506 199.882L810.542 194.517L787.836 217.645Z" fill="#DDD347"/>
<ellipse cx="721.966" cy="140.493" rx="66.1743" ry="66.1743" transform="rotate(-180 721.966 140.493)" fill="#76ACB6"/>
<path fill-rule="evenodd" clip-rule="evenodd" d="M758.595 195.614L733.166 199.882L728.391 167.824L699.378 153.377L714.358 124.635L699.378 95.8936L728.391 81.446L729.391 74.7305C762.443 78.4208 788.141 106.456 788.141 140.493C788.141 163.494 776.405 183.755 758.595 195.614Z" fill="#7CA835"/>
<path d="M1040.85 127.18C1040.24 126.826 1039.57 126.488 1038.88 126.157C1039.57 125.827 1040.24 125.488 1040.85 125.135C1044.3 123.175 1047.32 120.552 1049.75 117.418C1052.18 114.284 1053.97 110.7 1055.01 106.873C1056.05 103.046 1056.32 99.0516 1055.81 95.1191C1055.29 91.1866 1054.01 87.3941 1052.03 83.9598C1050.05 80.5255 1047.4 77.5174 1044.25 75.1085C1041.1 72.6997 1037.51 70.9378 1033.67 69.9242C1029.84 68.9105 1025.84 68.6653 1021.91 69.2025C1017.98 69.7397 1014.2 71.0488 1010.78 73.0544C1010.17 73.4077 1009.54 73.8061 1008.92 74.2496C1008.98 73.4979 1009.01 72.7462 1009.01 71.9944C1009.01 64.0195 1005.85 56.3711 1000.21 50.732C994.567 45.0928 986.918 41.9248 978.943 41.9248C970.968 41.9248 963.32 45.0928 957.681 50.732C952.042 56.3711 948.874 64.0195 948.874 71.9944C948.874 72.7011 948.874 73.4528 948.972 74.2496C948.348 73.8211 947.716 73.4077 947.107 73.0544C943.686 71.0488 939.902 69.7397 935.973 69.2025C932.044 68.6653 928.048 68.9105 924.214 69.9242C920.38 70.9378 916.784 72.6997 913.634 75.1085C910.484 77.5174 907.842 80.5255 905.859 83.9598C903.876 87.3941 902.592 91.1866 902.081 95.1191C901.57 99.0516 901.842 103.046 902.881 106.873C903.92 110.7 905.705 114.284 908.135 117.418C910.565 120.552 913.59 123.175 917.038 125.135C917.647 125.488 918.316 125.827 919.007 126.157C918.316 126.488 917.647 126.826 917.038 127.18C913.59 129.14 910.565 131.762 908.135 134.896C905.705 138.03 903.92 141.614 902.881 145.441C901.842 149.268 901.57 153.263 902.081 157.196C902.592 161.128 903.876 164.921 905.859 168.355C907.842 171.789 910.484 174.797 913.634 177.206C916.784 179.615 920.38 181.377 924.214 182.39C928.048 183.404 932.044 183.649 935.973 183.112C939.902 182.575 943.686 181.266 947.107 179.26C947.716 178.907 948.348 178.509 948.972 178.065C948.911 178.817 948.874 179.568 948.874 180.283C948.874 188.258 952.042 195.906 957.681 201.545C963.32 207.184 970.968 210.352 978.943 210.352C986.918 210.352 994.567 207.184 1000.21 201.545C1005.85 195.906 1009.01 188.258 1009.01 180.283C1009.01 179.576 1008.98 178.824 1008.92 178.065C1009.54 178.493 1010.17 178.907 1010.78 179.26C1015.33 181.899 1020.51 183.289 1025.77 183.29C1028.41 183.286 1031.05 182.938 1033.6 182.252C1039.35 180.712 1044.51 177.504 1048.43 173.032C1052.35 168.56 1054.85 163.026 1055.63 157.13C1056.41 151.233 1055.42 145.239 1052.78 139.905C1050.15 134.571 1046 130.138 1040.85 127.165V127.18ZM960.902 126.157C960.902 122.589 961.96 119.101 963.942 116.134C965.925 113.167 968.742 110.854 972.039 109.489C975.336 108.123 978.963 107.766 982.463 108.462C985.963 109.158 989.178 110.877 991.701 113.4C994.224 115.923 995.942 119.138 996.639 122.638C997.335 126.137 996.977 129.765 995.612 133.062C994.246 136.358 991.934 139.176 988.967 141.159C986 143.141 982.512 144.199 978.943 144.199C974.158 144.199 969.569 142.298 966.186 138.915C962.802 135.531 960.902 130.942 960.902 126.157Z" fill="#76ACB6"/>
<path d="M1042.94 119.943C1042.3 119.648 1041.6 119.373 1040.88 119.107C1041.54 118.714 1042.17 118.315 1042.75 117.907C1046 115.636 1048.77 112.745 1050.9 109.4C1053.03 106.054 1054.47 102.321 1055.15 98.4138C1055.83 94.507 1055.73 90.5042 1054.86 86.6359C1053.99 82.7676 1052.36 79.1101 1050.07 75.874C1047.77 72.638 1044.86 69.8873 1041.51 67.7803C1038.15 65.6734 1034.4 64.2517 1030.49 63.5972C1026.58 62.9428 1022.58 63.0684 1018.72 63.9669C1014.85 64.8654 1011.21 66.5191 1007.99 68.8326C1007.41 69.2408 1006.82 69.6959 1006.24 70.1953C1006.23 69.4412 1006.2 68.6892 1006.13 67.9407C1005.39 59.9999 1001.53 52.6776 995.392 47.5845C989.255 42.4914 981.346 40.0448 973.405 40.7828C965.465 41.5208 958.142 45.383 953.049 51.5198C947.956 57.6566 945.51 65.5653 946.248 73.506C946.313 74.2096 946.383 74.9582 946.554 75.7425C945.893 75.3736 945.226 75.0204 944.587 74.7249C940.995 73.0445 937.106 72.0913 933.144 71.9199C929.182 71.7486 925.225 72.3627 921.502 73.7267C917.778 75.0908 914.361 77.1779 911.448 79.8679C908.534 82.5579 906.181 85.7977 904.524 89.4007C902.868 93.0037 901.94 96.8989 901.795 100.862C901.65 104.825 902.291 108.777 903.679 112.492C905.068 116.206 907.178 119.609 909.887 122.505C912.596 125.401 915.852 127.732 919.466 129.365C920.105 129.66 920.802 129.935 921.521 130.2C920.863 130.594 920.229 130.993 919.655 131.401C916.404 133.671 913.634 136.563 911.505 139.908C909.375 143.254 907.929 146.987 907.249 150.894C906.568 154.801 906.667 158.803 907.54 162.672C908.413 166.54 910.042 170.198 912.335 173.434C914.627 176.67 917.536 179.42 920.896 181.527C924.255 183.634 927.998 185.056 931.91 185.71C935.821 186.365 939.823 186.239 943.685 185.341C947.548 184.442 951.194 182.789 954.415 180.475C954.989 180.067 955.581 179.612 956.161 179.112C956.17 179.866 956.203 180.618 956.269 181.33C957.007 189.27 960.869 196.593 967.006 201.686C973.143 206.779 981.051 209.225 988.992 208.487C996.933 207.749 1004.26 203.887 1009.35 197.75C1014.44 191.614 1016.89 183.705 1016.15 175.764C1016.08 175.061 1015.98 174.316 1015.85 173.565C1016.51 173.934 1017.18 174.287 1017.81 174.583C1022.59 176.788 1027.87 177.694 1033.11 177.208C1035.75 176.96 1038.34 176.369 1040.82 175.45C1046.39 173.385 1051.23 169.713 1054.72 164.897C1058.21 160.082 1060.2 154.339 1060.42 148.396C1060.65 142.453 1059.11 136.577 1056 131.509C1052.88 126.442 1048.34 122.412 1042.93 119.928L1042.94 119.943ZM1014.94 78.643C1016.87 77.2735 1019.06 76.2983 1021.37 75.773C1023.68 75.2478 1026.07 75.1827 1028.4 75.5815C1030.74 75.9803 1032.97 76.8352 1034.98 78.0975C1036.98 79.3597 1038.72 81.0045 1040.09 82.9379C1041.46 84.8714 1042.43 87.0557 1042.96 89.366C1043.48 91.6764 1043.55 94.0675 1043.15 96.4031C1042.75 98.7386 1041.9 100.973 1040.63 102.978C1039.37 104.983 1037.73 106.72 1035.79 108.089C1031.35 111.242 1022.29 113.972 1009.98 115.917C1008.08 109.701 1004.22 104.267 998.979 100.428C1004.9 89.4431 1010.5 81.7963 1014.94 78.643ZM974.522 52.7964C979.286 52.3536 984.032 53.8216 987.714 56.8775C991.396 59.9333 993.713 64.3267 994.156 69.0912C994.66 74.5104 992.497 83.7334 988.022 95.3759C981.691 93.8901 975.049 94.5075 969.1 97.1345C962.556 86.5161 958.731 77.8496 958.227 72.4304C957.785 67.666 959.252 62.9207 962.308 59.2387C965.364 55.5566 969.758 53.2392 974.522 52.7964ZM915.63 94.5089C916.619 92.3554 918.023 90.4179 919.761 88.807C921.499 87.1962 923.538 85.9436 925.76 85.1208C927.983 84.2979 930.346 83.921 932.714 84.0116C935.082 84.1021 937.409 84.6583 939.562 85.6484C944.508 87.9293 951.415 94.4144 959.262 104.119C954.813 108.865 952.022 114.926 951.31 121.392C938.848 121.75 929.437 120.737 924.492 118.464C922.336 117.475 920.396 116.07 918.783 114.33C917.17 112.59 915.916 110.55 915.093 108.325C914.269 106.099 913.893 103.734 913.985 101.363C914.077 98.9926 914.636 96.6634 915.63 94.5089ZM947.463 170.665C943.559 173.43 938.715 174.532 933.998 173.726C929.282 172.921 925.078 170.275 922.312 166.37C919.547 162.465 918.445 157.621 919.251 152.905C920.056 148.188 922.702 143.984 926.607 141.219C931.048 138.065 940.111 135.335 952.425 133.391C954.321 139.607 958.179 145.041 963.422 148.88C957.498 159.865 951.904 167.511 947.463 170.665ZM987.879 196.511C983.114 196.954 978.369 195.486 974.687 192.43C971.005 189.374 968.688 184.981 968.245 180.216C967.741 174.797 969.904 165.574 974.379 153.932C980.71 155.418 987.352 154.8 993.301 152.173C999.845 162.792 1003.67 171.458 1004.17 176.877C1004.62 181.642 1003.15 186.387 1000.09 190.069C997.037 193.751 992.643 196.068 987.879 196.511ZM1046.77 154.799C1045.78 156.952 1044.38 158.89 1042.64 160.501C1040.9 162.111 1038.86 163.364 1036.64 164.187C1034.42 165.01 1032.06 165.387 1029.69 165.296C1027.32 165.206 1024.99 164.649 1022.84 163.659C1017.89 161.378 1010.99 154.893 1003.14 145.189C1007.59 140.443 1010.38 134.382 1011.09 127.916C1023.55 127.558 1032.96 128.571 1037.91 130.844C1040.07 131.833 1042.01 133.238 1043.62 134.977C1045.23 136.717 1046.49 138.758 1047.31 140.983C1048.13 143.208 1048.51 145.574 1048.42 147.944C1048.32 150.315 1047.76 152.644 1046.77 154.799Z" fill="#AD6095"/>
<path fill-rule="evenodd" clip-rule="evenodd" d="M1040.88 119.107C1041.6 119.373 1042.3 119.648 1042.94 119.943L1042.93 119.928C1043.96 120.4 1044.96 120.928 1045.92 121.509C1044.36 122.887 1042.67 124.103 1040.85 125.135C1040.24 125.488 1039.57 125.827 1038.88 126.157C1039.57 126.488 1040.24 126.826 1040.85 127.18V127.165C1046 130.138 1050.15 134.571 1052.79 139.905C1055.42 145.239 1056.41 151.233 1055.63 157.13C1055.11 161.111 1053.79 164.926 1051.79 168.362C1048.71 171.487 1044.97 173.913 1040.82 175.45C1038.34 176.369 1035.75 176.96 1033.11 177.208C1027.87 177.694 1022.59 176.788 1017.81 174.583C1017.18 174.287 1016.51 173.934 1015.85 173.565C1015.98 174.316 1016.08 175.061 1016.15 175.764C1016.33 177.75 1016.32 179.733 1016.12 181.687C1014.27 181.057 1012.48 180.246 1010.78 179.26C1010.17 178.907 1009.54 178.493 1008.92 178.065C1008.98 178.824 1009.01 179.576 1009.01 180.283C1009.01 188.258 1005.85 195.906 1000.21 201.545C997.143 204.608 993.488 206.942 989.509 208.435C989.337 208.454 989.165 208.471 988.992 208.488C981.052 209.226 973.143 206.779 967.006 201.686C960.869 196.593 957.007 189.27 956.269 181.33C956.203 180.619 956.171 179.867 956.161 179.112C955.581 179.612 954.989 180.067 954.416 180.475C952.734 181.683 950.936 182.711 949.052 183.546C948.934 182.467 948.874 181.378 948.874 180.283C948.874 179.568 948.912 178.817 948.972 178.065C948.348 178.509 947.716 178.907 947.107 179.26C943.686 181.266 939.902 182.575 935.973 183.112C932.044 183.649 928.048 183.404 924.214 182.39C922.76 182.006 921.34 181.514 919.966 180.92C916.998 178.902 914.413 176.367 912.335 173.434C910.043 170.198 908.413 166.54 907.541 162.672C906.668 158.804 906.569 154.801 907.249 150.894C907.929 146.987 909.376 143.254 911.505 139.908C913.634 136.563 916.404 133.671 919.655 131.401C920.229 130.993 920.864 130.594 921.522 130.2C920.803 129.935 920.105 129.66 919.466 129.365C918.351 128.861 917.269 128.29 916.228 127.657C916.495 127.494 916.765 127.335 917.038 127.18C917.647 126.826 918.316 126.488 919.007 126.157C918.316 125.827 917.647 125.488 917.038 125.135C913.59 123.175 910.565 120.552 908.135 117.418C905.706 114.284 903.92 110.7 902.881 106.873C902.264 104.601 901.917 102.269 901.845 99.9262C902.092 96.2868 902.999 92.7198 904.525 89.4008C906.181 85.7977 908.534 82.558 911.448 79.868C914.362 77.1779 917.779 75.0908 921.502 73.7268C925.226 72.3627 929.183 71.7487 933.144 71.92C937.106 72.0913 940.995 73.0446 944.587 74.725C945.226 75.0204 945.893 75.3737 946.554 75.7426C946.383 74.9582 946.313 74.2097 946.248 73.5061C946.218 73.1802 946.193 72.8544 946.173 72.5288C946.487 72.6983 946.799 72.8735 947.107 73.0544C947.716 73.4077 948.348 73.8211 948.972 74.2496C948.874 73.4528 948.874 72.7011 948.874 71.9944C948.874 64.0195 952.042 56.3711 957.681 50.732C963.32 45.0928 970.969 41.9248 978.944 41.9248C982.82 41.9248 986.619 42.6732 990.147 44.09C991.999 45.0605 993.759 46.2288 995.392 47.5846C1001.53 52.6777 1005.39 60 1006.13 67.9407C1006.2 68.6892 1006.23 69.4412 1006.24 70.1953C1006.82 69.696 1007.41 69.2408 1007.99 68.8327C1008.25 68.6439 1008.51 68.4595 1008.78 68.2796C1008.94 69.5056 1009.01 70.746 1009.01 71.9944C1009.01 72.7462 1008.98 73.4979 1008.92 74.2496C1009.54 73.8061 1010.17 73.4077 1010.78 73.0544C1014.2 71.0488 1017.98 69.7397 1021.91 69.2025C1025.84 68.6653 1029.84 68.9105 1033.67 69.9242C1037.51 70.9378 1041.1 72.6997 1044.25 75.1085C1047.4 77.5174 1050.05 80.5255 1052.03 83.9598C1053.78 86.9916 1054.98 90.3027 1055.59 93.7427C1055.57 95.3053 1055.42 96.8671 1055.15 98.4138C1054.47 102.321 1053.03 106.054 1050.9 109.4C1048.77 112.745 1046 115.636 1042.75 117.907C1042.17 118.315 1041.54 118.714 1040.88 119.107ZM1021.37 75.7731C1019.06 76.2984 1016.87 77.2736 1014.94 78.643C1010.5 81.7963 1004.9 89.4432 998.979 100.428C1004.22 104.267 1008.08 109.701 1009.98 115.917C1022.29 113.972 1031.35 111.242 1035.79 108.089C1037.73 106.72 1039.37 104.983 1040.63 102.978C1041.9 100.973 1042.75 98.7386 1043.15 96.4031C1043.55 94.0676 1043.48 91.6764 1042.96 89.3661C1042.43 87.0557 1041.46 84.8715 1040.09 82.938C1038.72 81.0045 1036.98 79.3597 1034.98 78.0975C1032.97 76.8353 1030.74 75.9804 1028.4 75.5815C1026.07 75.1827 1023.68 75.2478 1021.37 75.7731ZM987.714 56.8775C984.032 53.8217 979.287 52.3537 974.522 52.7965C969.758 53.2393 965.365 55.5566 962.309 59.2387C959.253 62.9208 957.785 67.666 958.228 72.4304C958.731 77.8497 962.557 86.5162 969.1 97.1346C975.049 94.5075 981.692 93.8901 988.023 95.3759C992.497 83.7335 994.66 74.5105 994.156 69.0912C993.714 64.3268 991.396 59.9334 987.714 56.8775ZM919.762 88.8071C918.023 90.4179 916.619 92.3555 915.63 94.509C914.637 96.6634 914.078 98.9926 913.986 101.363C913.893 103.734 914.27 106.1 915.093 108.325C915.916 110.55 917.17 112.591 918.783 114.33C920.396 116.07 922.336 117.475 924.493 118.464C929.438 120.737 938.848 121.75 951.31 121.392C952.023 114.926 954.813 108.865 959.263 104.119C951.415 94.4145 944.508 87.9294 939.562 85.6484C937.409 84.6583 935.082 84.1021 932.714 84.0116C930.346 83.9211 927.983 84.298 925.761 85.1208C923.538 85.9436 921.5 87.1962 919.762 88.8071ZM933.999 173.726C938.716 174.532 943.559 173.43 947.464 170.665C951.905 167.511 957.498 159.865 963.423 148.88C958.18 145.041 954.321 139.607 952.425 133.391C940.111 135.336 931.048 138.065 926.608 141.219C922.703 143.984 920.057 148.188 919.251 152.905C918.446 157.621 919.547 162.465 922.313 166.37C925.078 170.275 929.282 172.921 933.999 173.726ZM974.688 192.43C978.37 195.486 983.115 196.954 987.879 196.511C992.644 196.068 997.037 193.751 1000.09 190.069C1003.15 186.387 1004.62 181.642 1004.17 176.877C1003.67 171.458 999.845 162.792 993.301 152.173C987.353 154.8 980.71 155.418 974.379 153.932C969.904 165.574 967.742 174.797 968.245 180.217C968.688 184.981 971.006 189.374 974.688 192.43ZM1042.64 160.501C1044.38 158.89 1045.78 156.952 1046.77 154.799C1047.77 152.644 1048.32 150.315 1048.42 147.944C1048.51 145.574 1048.13 143.208 1047.31 140.983C1046.49 138.758 1045.23 136.717 1043.62 134.977C1042.01 133.238 1040.07 131.833 1037.91 130.844C1032.96 128.571 1023.55 127.558 1011.09 127.916C1010.38 134.382 1007.59 140.443 1003.14 145.189C1010.99 154.893 1017.89 161.378 1022.84 163.659C1024.99 164.649 1027.32 165.206 1029.69 165.296C1032.06 165.387 1034.42 165.01 1036.64 164.187C1038.86 163.364 1040.9 162.112 1042.64 160.501ZM963.942 116.134C961.96 119.101 960.902 122.589 960.902 126.157C960.902 130.942 962.803 135.531 966.186 138.915C969.57 142.298 974.159 144.199 978.944 144.199C982.512 144.199 986 143.141 988.967 141.159C991.934 139.176 994.247 136.358 995.612 133.062C996.978 129.765 997.335 126.137 996.639 122.638C995.943 119.138 994.224 115.923 991.701 113.4C989.178 110.877 985.963 109.158 982.463 108.462C978.964 107.766 975.336 108.123 972.039 109.489C968.743 110.854 965.925 113.167 963.942 116.134Z" fill="#715A95"/>
<path fill-rule="evenodd" clip-rule="evenodd" d="M1081.55 38.4677V210.803H1253.89V192.172C1244.88 185.301 1237.83 165.824 1235.54 141.253C1232.66 172.05 1222.32 194.846 1210.01 194.846C1197.69 194.846 1187.35 172.051 1184.47 141.255C1181.59 172.051 1171.26 194.846 1158.94 194.846C1146.63 194.846 1136.29 172.05 1133.41 141.254C1130.53 172.05 1120.19 194.846 1107.88 194.846C1093.34 194.846 1081.55 163.054 1081.55 123.837C1081.55 84.6204 1093.34 52.8288 1107.88 52.8288C1120.19 52.8288 1130.53 75.624 1133.41 106.42C1136.29 75.624 1146.63 52.8288 1158.94 52.8288C1171.26 52.8288 1181.59 75.6235 1184.47 106.419C1187.35 75.6235 1197.69 52.8288 1210.01 52.8288C1222.32 52.8288 1232.66 75.6244 1235.54 106.421C1237.83 81.8509 1244.88 62.3735 1253.89 55.502V38.4677H1081.55Z" fill="#76ACB6"/>
<path fill-rule="evenodd" clip-rule="evenodd" d="M1101.5 46.446C1113.81 46.446 1124.15 69.2406 1127.03 100.036C1129.91 69.2405 1140.25 46.4458 1152.56 46.4458C1164.87 46.4458 1175.21 69.2408 1178.09 100.037C1180.97 69.2408 1191.31 46.4458 1203.62 46.4458C1215.94 46.4458 1226.27 69.2409 1229.15 100.037C1231.97 69.9083 1241.93 47.4376 1253.89 46.4778V188.431C1241.93 187.471 1231.97 165 1229.15 134.871C1226.27 165.668 1215.94 188.463 1203.62 188.463C1191.31 188.463 1180.97 165.668 1178.09 134.872C1175.21 165.668 1164.87 188.463 1152.56 188.463C1140.25 188.463 1129.91 165.668 1127.03 134.872C1124.15 165.668 1113.81 188.463 1101.5 188.463C1093.53 188.463 1086.38 178.906 1081.55 163.807V71.1018C1086.38 56.0034 1093.53 46.446 1101.5 46.446Z" fill="#DDD347"/>
<path fill-rule="evenodd" clip-rule="evenodd" d="M1253.89 46.4789C1244.28 47.2497 1235.97 61.8942 1231.61 83.237C1233.4 90.1636 1234.75 97.9927 1235.54 106.421C1237.83 81.8512 1244.88 62.374 1253.89 55.5026V46.4789ZM1248.8 186.684C1242.28 177.408 1237.38 160.971 1235.54 141.255C1234.98 147.187 1234.15 152.823 1233.08 158.056C1236.76 172.28 1242.33 182.698 1248.8 186.684ZM1197.74 186.684C1191.22 177.408 1186.32 160.972 1184.47 141.255C1183.92 147.188 1183.09 152.824 1182.02 158.056C1185.7 172.281 1191.27 182.698 1197.74 186.684ZM1146.68 186.684C1140.16 177.408 1135.26 160.971 1133.41 141.255C1132.86 147.187 1132.03 152.823 1130.96 158.056C1134.64 172.28 1140.2 182.698 1146.68 186.684ZM1095.61 186.683C1087.25 174.786 1081.55 151.107 1081.55 123.838C1081.55 84.621 1093.34 52.8295 1107.88 52.8295C1109.9 52.8295 1111.87 53.4449 1113.77 54.61C1110.1 49.3975 1105.93 46.4467 1101.5 46.4467C1093.53 46.4467 1086.38 56.0041 1081.55 71.1025V163.808C1085.15 175.075 1090.05 183.256 1095.61 186.683ZM1129.48 83.237C1131.28 90.1635 1132.62 97.9926 1133.41 106.421C1136.29 75.6246 1146.63 52.8294 1158.94 52.8294C1160.97 52.8294 1162.94 53.4447 1164.83 54.6096C1161.16 49.3974 1156.99 46.4469 1152.56 46.4469C1142.62 46.4469 1133.96 61.3054 1129.48 83.237ZM1180.55 83.2368C1182.34 90.1632 1183.69 97.9921 1184.47 106.42C1187.35 75.6243 1197.69 52.8294 1210.01 52.8294C1212.03 52.8294 1214 53.4447 1215.89 54.6097C1212.23 49.3975 1208.05 46.4469 1203.62 46.4469C1193.68 46.4469 1185.03 61.3053 1180.55 83.2368Z" fill="#7CA835"/>
<ellipse cx="1355.83" cy="124.635" rx="86.1675" ry="86.1675" transform="rotate(-90 1355.83 124.635)" fill="#AD6095"/>
<path d="M1269.67 38.4677L1442 210.803V38.4677H1269.67Z" fill="#76ACB6"/>
<path fill-rule="evenodd" clip-rule="evenodd" d="M1416.76 185.565C1432.36 169.972 1442 148.43 1442 124.635C1442 77.0463 1403.42 38.4678 1355.83 38.4678C1332.04 38.4678 1310.5 48.1124 1294.9 63.7056L1416.76 185.565Z" fill="#715A95"/>
</svg>
