<svg width="350" height="208" viewBox="0 0 350 208" fill="none" xmlns="http://www.w3.org/2000/svg">
<path d="M57.0606 42.3863C56.82 42.2467 56.5557 42.1131 56.2825 41.9824C56.5557 41.8517 56.82 41.7181 57.0606 41.5785C58.4226 40.8041 59.618 39.768 60.5779 38.5297C61.5379 37.2915 62.2434 35.8756 62.6539 34.3636C63.0644 32.8516 63.1718 31.2733 62.9698 29.7196C62.7679 28.1659 62.2606 26.6675 61.4772 25.3107C60.6938 23.9538 59.6498 22.7653 58.4052 21.8136C57.1606 20.8619 55.7401 20.1658 54.2254 19.7653C52.7107 19.3649 51.1317 19.268 49.5794 19.4802C48.0271 19.6925 46.5321 20.2097 45.1805 21.0021C44.9399 21.1416 44.6904 21.2991 44.4439 21.4743C44.4676 21.1773 44.4825 20.8803 44.4825 20.5833C44.4825 17.4325 43.2308 14.4107 41.0029 12.1827C38.7749 9.95478 35.7532 8.70313 32.6023 8.70312C29.4515 8.70313 26.4298 9.95478 24.2018 12.1827C21.9738 14.4107 20.7222 17.4325 20.7222 20.5833C20.7222 20.8625 20.7222 21.1595 20.7608 21.4743C20.5143 21.305 20.2648 21.1416 20.0242 21.0021C18.6726 20.2097 17.1776 19.6925 15.6253 19.4802C14.073 19.268 12.494 19.3649 10.9793 19.7653C9.4646 20.1658 8.04406 20.8619 6.79948 21.8136C5.5549 22.7653 4.51085 23.9538 3.72746 25.3107C2.94406 26.6675 2.43679 28.1659 2.23484 29.7196C2.0329 31.2733 2.14027 32.8516 2.55077 34.3636C2.96127 35.8756 3.6668 37.2915 4.62674 38.5297C5.58668 39.768 6.78206 40.8041 8.14407 41.5785C8.38464 41.7181 8.64897 41.8517 8.92222 41.9824C8.64897 42.1131 8.38464 42.2467 8.14407 42.3863C6.78206 43.1607 5.58668 44.1968 4.62674 45.4351C3.6668 46.6733 2.96127 48.0892 2.55077 49.6012C2.14027 51.1133 2.0329 52.6916 2.23484 54.2452C2.43679 55.7989 2.94406 57.2973 3.72746 58.6542C4.51085 60.011 5.5549 61.1995 6.79948 62.1512C8.04406 63.1029 9.4646 63.799 10.9793 64.1995C12.494 64.5999 14.073 64.6968 15.6253 64.4846C17.1776 64.2723 18.6726 63.7551 20.0242 62.9628C20.2648 62.8232 20.5143 62.6658 20.7608 62.4905C20.737 62.7875 20.7222 63.0845 20.7222 63.3667C20.7222 66.5175 21.9738 69.5393 24.2018 71.7672C26.4298 73.9952 29.4515 75.2468 32.6023 75.2468C35.7532 75.2468 38.7749 73.9952 41.0029 71.7672C43.2308 69.5393 44.4825 66.5175 44.4825 63.3667C44.4825 63.0875 44.4676 62.7905 44.4439 62.4905C44.6904 62.6598 44.9399 62.8232 45.1805 62.9628C46.9801 64.0052 49.023 64.5543 51.1027 64.5547C52.1478 64.5534 53.1882 64.4156 54.1975 64.1448C56.4671 63.5365 58.5054 62.2688 60.0545 60.5021C61.6037 58.7353 62.5941 56.5489 62.9006 54.2192C63.207 51.8895 62.8158 49.5213 61.7763 47.414C60.7368 45.3067 59.0957 43.555 57.0606 42.3804V42.3863ZM25.4742 41.9824C25.4742 40.5726 25.8923 39.1945 26.6755 38.0223C27.4588 36.85 28.572 35.9364 29.8745 35.3969C31.177 34.8574 32.6102 34.7162 33.993 34.9913C35.3757 35.2663 36.6458 35.9452 37.6427 36.9421C38.6395 37.939 39.3184 39.2091 39.5935 40.5918C39.8685 41.9745 39.7273 43.4077 39.1878 44.7102C38.6483 46.0127 37.7347 47.126 36.5625 47.9092C35.3903 48.6925 34.0121 49.1105 32.6023 49.1105C30.7118 49.1105 28.8988 48.3595 27.562 47.0227C26.2252 45.686 25.4742 43.8729 25.4742 41.9824Z" fill="#76ACB6"/>
<path d="M57.8844 39.5271C57.6319 39.4104 57.3564 39.3018 57.0722 39.197C57.3322 39.0416 57.583 38.884 57.8096 38.7228C59.0941 37.8257 60.1885 36.6834 61.0297 35.3616C61.871 34.0398 62.4424 32.5647 62.7112 31.0212C62.9801 29.4777 62.9409 27.8962 62.5961 26.3679C62.2512 24.8396 61.6074 23.3945 60.7018 22.116C59.7962 20.8375 58.6467 19.7507 57.3194 18.9183C55.9921 18.0859 54.5132 17.5242 52.9679 17.2656C51.4227 17.007 49.8415 17.0567 48.3155 17.4117C46.7895 17.7666 45.3488 18.42 44.0763 19.334C43.8497 19.4953 43.6158 19.6751 43.3866 19.8724C43.3827 19.5745 43.37 19.2774 43.3426 18.9816C43.051 15.8444 41.5251 12.9514 39.1005 10.9392C36.6759 8.92694 33.5513 7.96029 30.414 8.25187C27.2767 8.54345 24.3837 10.0694 22.3715 12.494C20.3593 14.9185 19.3926 18.0432 19.6842 21.1805C19.71 21.4584 19.7375 21.7542 19.8051 22.0641C19.544 21.9183 19.2805 21.7788 19.028 21.662C17.6089 20.9981 16.0724 20.6215 14.5071 20.5538C12.9418 20.4861 11.3786 20.7287 9.90746 21.2676C8.4363 21.8066 7.08628 22.6312 5.93511 23.694C4.78394 24.7567 3.85436 26.0367 3.19989 27.4603C2.54542 28.8838 2.17899 30.4227 2.12169 31.9884C2.06439 33.5541 2.31736 35.1157 2.86602 36.5832C3.41469 38.0508 4.24822 39.3953 5.31862 40.5394C6.38903 41.6835 7.67517 42.6045 9.10299 43.2496C9.35545 43.3663 9.63102 43.4749 9.91518 43.5797C9.65521 43.7351 9.40438 43.8927 9.17775 44.0539C7.89325 44.951 6.79888 46.0934 5.95766 47.4151C5.11643 48.7369 4.54495 50.212 4.27614 51.7555C4.00732 53.299 4.04646 54.8805 4.39132 56.4088C4.73618 57.9371 5.37994 59.3822 6.28554 60.6607C7.19114 61.9392 8.34068 63.026 9.668 63.8584C10.9953 64.6909 12.4742 65.2525 14.0194 65.5111C15.5647 65.7697 17.1459 65.72 18.6719 65.3651C20.1979 65.0101 21.6386 64.3567 22.9111 63.4427C23.1377 63.2814 23.3716 63.1016 23.6008 62.9043C23.6046 63.2022 23.6173 63.4993 23.6434 63.7803C23.935 66.9176 25.4609 69.8105 27.8855 71.8228C30.3101 73.835 33.4347 74.8016 36.572 74.51C39.7093 74.2185 42.6023 72.6925 44.6145 70.268C46.6267 67.8434 47.5934 64.7188 47.3018 61.5815C47.276 61.3035 47.2337 61.0091 47.1823 60.7126C47.4434 60.8584 47.7069 60.998 47.9594 61.1147C49.8478 61.9861 51.9327 62.3438 54.0035 62.1517C55.044 62.0538 56.0672 61.8203 57.0471 61.4572C59.2507 60.6415 61.1629 59.1906 62.5419 57.2881C63.9209 55.3856 64.7048 53.1168 64.7943 50.7688C64.8839 48.4208 64.2751 46.0989 63.0451 44.0968C61.815 42.0948 60.0189 40.5025 57.8838 39.5212L57.8844 39.5271ZM46.8228 23.21C47.5867 22.669 48.4496 22.2837 49.3624 22.0761C50.2752 21.8686 51.22 21.8429 52.1427 22.0004C53.0654 22.158 53.9481 22.4958 54.7403 22.9945C55.5325 23.4932 56.2187 24.143 56.7597 24.9069C57.3008 25.6708 57.6861 26.5338 57.8936 27.4465C58.1011 28.3593 58.1269 29.3041 57.9693 30.2268C57.8117 31.1495 57.474 32.0322 56.9753 32.8244C56.4766 33.6166 55.8267 34.3028 55.0629 34.8438C53.3084 36.0897 49.7278 37.1682 44.8626 37.9365C44.1136 35.4807 42.5892 33.3336 40.5176 31.8169C42.8585 27.477 45.0683 24.4558 46.8228 23.21ZM30.8551 12.9983C32.7375 12.8234 34.6123 13.4034 36.067 14.6107C37.5218 15.818 38.4373 17.5538 38.6123 19.4362C38.8113 21.5773 37.9568 25.2212 36.1889 29.821C33.6876 29.234 31.0632 29.4779 28.7129 30.5158C26.1276 26.3206 24.6162 22.8966 24.4173 20.7555C24.2423 18.8731 24.8223 16.9983 26.0296 15.5436C27.237 14.0888 28.9727 13.1733 30.8551 12.9983ZM7.58746 29.4785C7.97831 28.6276 8.53295 27.8621 9.2197 27.2257C9.90646 26.5893 10.7119 26.0944 11.5899 25.7693C12.468 25.4442 13.4015 25.2953 14.3371 25.3311C15.2727 25.3668 16.1922 25.5866 17.0428 25.9778C18.9968 26.8789 21.7256 29.4411 24.8262 33.2752C23.0682 35.1503 21.9657 37.5449 21.6842 40.0997C16.7607 40.2411 13.0427 39.8409 11.089 38.9427C10.237 38.552 9.4704 37.997 8.83314 37.3096C8.19588 36.6223 7.70045 35.8159 7.3752 34.9368C7.04996 34.0577 6.9013 33.1231 6.93772 32.1865C6.97414 31.2499 7.19493 30.3296 7.58746 29.4785ZM20.1646 59.5667C18.6219 60.6594 16.7082 61.0945 14.8447 60.7763C12.9811 60.458 11.3203 59.4126 10.2276 57.8698C9.13495 56.3271 8.69985 54.4134 9.01808 52.5499C9.33631 50.6864 10.3818 49.0256 11.9245 47.9329C13.679 46.687 17.2596 45.6086 22.1248 44.8402C22.8738 47.296 24.3982 49.4431 26.4698 50.9598C24.1289 55.2997 21.919 58.3209 20.1646 59.5667ZM36.1323 69.7784C34.2499 69.9533 32.3751 69.3733 30.9204 68.166C29.4656 66.9587 28.5501 65.2229 28.3751 63.3405C28.1761 61.1994 29.0306 57.5555 30.7985 52.9557C33.2998 53.5428 35.9242 53.2988 38.2745 52.2609C40.8598 56.4561 42.3711 59.8801 42.5701 62.0212C42.7451 63.9036 42.1651 65.7784 40.9577 67.2331C39.7504 68.6879 38.0146 69.6034 36.1323 69.7784ZM59.3999 53.2983C59.0091 54.1491 58.4544 54.9146 57.7677 55.551C57.0809 56.1874 56.2755 56.6823 55.3974 57.0074C54.5194 57.3325 53.5859 57.4814 52.6503 57.4456C51.7146 57.4099 50.7952 57.1901 49.9445 56.7989C47.9906 55.8978 45.2617 53.3356 42.1612 49.5015C43.9192 47.6264 45.0217 45.2319 45.3032 42.677C50.2267 42.5356 53.9447 42.9358 55.8984 43.834C56.7504 44.2247 57.517 44.7797 58.1542 45.4671C58.7915 46.1545 59.2869 46.9608 59.6122 47.8399C59.9374 48.719 60.0861 49.6536 60.0497 50.5902C60.0132 51.5268 59.7924 52.4471 59.3999 53.2983Z" fill="#AD6095"/>
<path fill-rule="evenodd" clip-rule="evenodd" d="M57.0727 39.1965C57.3569 39.3013 57.6324 39.41 57.8849 39.5267L57.8843 39.5208C58.2905 39.7074 58.6843 39.9162 59.0643 40.1456C58.4494 40.6901 57.7783 41.1706 57.0608 41.5785C56.8203 41.7181 56.5559 41.8517 56.2827 41.9824C56.5559 42.1131 56.8203 42.2467 57.0608 42.3863V42.3804C59.0959 43.555 60.737 45.3067 61.7765 47.414C62.816 49.5213 63.2073 51.8895 62.9008 54.2192C62.694 55.7914 62.1756 57.2984 61.3843 58.6551C60.1667 59.8905 58.6879 60.8496 57.0476 61.4568C56.0677 61.8198 55.0445 62.0533 54.0041 62.1513C51.9332 62.3433 49.8483 61.9856 47.9599 61.1142C47.7074 60.9975 47.4439 60.8579 47.1828 60.7122C47.2342 61.0087 47.2765 61.303 47.3023 61.581C47.3752 62.3655 47.3695 63.1493 47.2883 63.9215C46.559 63.6727 45.8529 63.3521 45.1807 62.9628C44.9401 62.8232 44.6906 62.6598 44.4441 62.4905C44.4679 62.7905 44.4827 63.0875 44.4827 63.3667C44.4827 66.5175 43.2311 69.5393 41.0031 71.7672C39.7935 72.9768 38.35 73.8986 36.7789 74.4886C36.7102 74.4962 36.6414 74.5032 36.5725 74.5096C33.4352 74.8012 30.3106 73.8345 27.886 71.8223C25.4615 69.8101 23.9355 66.9171 23.644 63.7798C23.6178 63.4989 23.6051 63.2018 23.6013 62.9038C23.3721 63.1011 23.1382 63.281 22.9116 63.4422C22.2472 63.9195 21.5369 64.3257 20.7925 64.6554C20.746 64.2294 20.7224 63.7993 20.7224 63.3667C20.7224 63.0845 20.7373 62.7875 20.761 62.4905C20.5145 62.6658 20.265 62.8232 20.0244 62.9628C18.6728 63.7551 17.1778 64.2723 15.6255 64.4846C14.0732 64.6968 12.4942 64.5999 10.9795 64.1995C10.4056 64.0478 9.84527 63.8536 9.30287 63.6192C8.1295 62.8217 7.10743 61.8198 6.28605 60.6602C5.38045 59.3817 4.7367 57.9367 4.39184 56.4083C4.04698 54.88 4.00783 53.2986 4.27665 51.755C4.54546 50.2115 5.11694 48.7364 5.95817 47.4146C6.7994 46.0929 7.89376 44.9506 9.17826 44.0535C9.40489 43.8922 9.65572 43.7347 9.9157 43.5793C9.63153 43.4744 9.35596 43.3658 9.1035 43.2491C8.66298 43.0501 8.23593 42.8248 7.82455 42.5748C7.93007 42.5104 8.03666 42.4475 8.14429 42.3863C8.38486 42.2467 8.6492 42.1131 8.92244 41.9824C8.6492 41.8517 8.38486 41.7181 8.14429 41.5785C6.78228 40.8041 5.5869 39.768 4.62696 38.5297C3.66703 37.2915 2.9615 35.8756 2.55099 34.3636C2.30704 33.465 2.17014 32.5431 2.1416 31.6168C2.2393 30.1794 2.59772 28.7707 3.2004 27.4598C3.85487 26.0363 4.78445 24.7563 5.93562 23.6935C7.08679 22.6307 8.43682 21.8061 9.90797 21.2672C11.3791 20.7283 12.9423 20.4857 14.5076 20.5533C16.0729 20.621 17.6094 20.9977 19.0285 21.6616C19.281 21.7783 19.5445 21.9179 19.8056 22.0636C19.738 21.7537 19.7106 21.458 19.6847 21.18C19.6728 21.0514 19.6629 20.9228 19.6552 20.7943C19.7794 20.8613 19.9025 20.9306 20.0244 21.0021C20.265 21.1416 20.5145 21.305 20.761 21.4743C20.7224 21.1595 20.7224 20.8625 20.7224 20.5833V20.5833C20.7224 17.4325 21.9741 14.4107 24.202 12.1827C26.43 9.95478 29.4517 8.70312 32.6026 8.70312C34.1353 8.70312 35.6376 8.99933 37.0327 9.56004C37.763 9.9431 38.4567 10.404 39.101 10.9387C41.5256 12.9509 43.0515 15.8439 43.3431 18.9812C43.3706 19.2769 43.3833 19.574 43.3871 19.8719C43.6163 19.6747 43.8502 19.4948 44.0768 19.3336C44.1807 19.259 44.2856 19.1861 44.3917 19.115C44.452 19.5996 44.4827 20.0898 44.4827 20.5833C44.4827 20.8803 44.4679 21.1773 44.4441 21.4743C44.6906 21.2991 44.9401 21.1416 45.1807 21.0021C46.5323 20.2097 48.0273 19.6925 49.5796 19.4802C51.1319 19.268 52.7109 19.3649 54.2256 19.7653C55.7403 20.1658 57.1608 20.8619 58.4054 21.8136C59.65 22.7653 60.694 23.9538 61.4774 25.3107C62.1689 26.5082 62.6452 27.8161 62.8864 29.1749C62.8764 29.7924 62.8182 30.4095 62.7118 31.0207C62.4429 32.5643 61.8715 34.0394 61.0302 35.3611C60.189 36.6829 59.0946 37.8252 57.8101 38.7223C57.5835 38.8836 57.3327 39.0411 57.0727 39.1965ZM49.363 22.0757C48.4502 22.2832 47.5872 22.6685 46.8233 23.2095C45.0688 24.4554 42.859 27.4766 40.5181 31.8164C42.5897 33.3332 44.1141 35.4802 44.8631 37.936C49.7283 37.1677 53.3089 36.0892 55.0634 34.8434C55.8273 34.3023 56.4771 33.6161 56.9758 32.8239C57.4745 32.0317 57.8122 31.1491 57.9698 30.2263C58.1274 29.3036 58.1017 28.3589 57.8941 27.4461C57.6866 26.5333 57.3013 25.6703 56.7602 24.9064C56.2192 24.1425 55.533 23.4927 54.7408 22.994C53.9486 22.4953 53.0659 22.1575 52.1432 22C51.2205 21.8424 50.2757 21.8681 49.363 22.0757ZM36.0675 14.6102C34.6128 13.4029 32.738 12.8229 30.8556 12.9979C28.9733 13.1728 27.2375 14.0884 26.0301 15.5431C24.8228 16.9979 24.2428 18.8726 24.4178 20.755C24.6168 22.8961 26.1281 26.3201 28.7134 30.5153C31.0637 29.4774 33.6881 29.2335 36.1894 29.8205C37.9573 25.2207 38.8118 21.5768 38.6128 19.4357C38.4378 17.5534 37.5223 15.8176 36.0675 14.6102ZM9.22021 27.2252C8.53346 27.8617 7.97882 28.6272 7.58797 29.478C7.19545 30.3292 6.97465 31.2494 6.93823 32.186C6.90181 33.1227 7.05047 34.0573 7.37572 34.9364C7.70096 35.8155 8.19639 36.6218 8.83365 37.3092C9.47091 37.9965 10.2375 38.5515 11.0895 38.9422C13.0432 39.8404 16.7612 40.2406 21.6847 40.0992C21.9662 37.5444 23.0687 35.1498 24.8267 33.2748C21.7261 29.4406 18.9973 26.8785 17.0433 25.9773C16.1927 25.5861 15.2733 25.3664 14.3376 25.3306C13.402 25.2948 12.4685 25.4437 11.5904 25.7688C10.7124 26.0939 9.90697 26.5888 9.22021 27.2252ZM14.8452 60.7758C16.7087 61.094 18.6224 60.6589 20.1651 59.5662C21.9196 58.3204 24.1294 55.2992 26.4703 50.9594C24.3987 49.4426 22.8743 47.2955 22.1253 44.8397C17.2601 45.6081 13.6795 46.6866 11.925 47.9324C10.3823 49.0251 9.33682 50.6859 9.01859 52.5494C8.70036 54.413 9.13546 56.3266 10.2282 57.8694C11.3209 59.4121 12.9817 60.4576 14.8452 60.7758ZM30.9209 68.1655C32.3756 69.3729 34.2504 69.9529 36.1328 69.7779C38.0151 69.603 39.7509 68.6874 40.9583 67.2327C42.1656 65.7779 42.7456 63.9031 42.5706 62.0208C42.3716 59.8797 40.8603 56.4557 38.275 52.2605C35.9247 53.2984 33.3003 53.5423 30.799 52.9553C29.0311 57.5551 28.1766 61.199 28.3756 63.34C28.5506 65.2224 29.4661 66.9582 30.9209 68.1655ZM57.7682 55.5505C58.4549 54.9141 59.0096 54.1486 59.4004 53.2978C59.793 52.4466 60.0137 51.5264 60.0502 50.5897C60.0866 49.6531 59.9379 48.7185 59.6127 47.8394C59.2874 46.9603 58.792 46.154 58.1547 45.4666C57.5175 44.7792 56.7509 44.2243 55.8989 43.8335C53.9452 42.9353 50.2272 42.5352 45.3037 42.6766C45.0222 45.2314 43.9197 47.626 42.1617 49.501C45.2623 53.3351 47.9911 55.8973 49.9451 56.7985C50.7957 57.1897 51.7151 57.4094 52.6508 57.4452C53.5864 57.4809 54.5199 57.332 55.398 57.0069C56.276 56.6819 57.0814 56.187 57.7682 55.5505ZM26.6758 38.0223C25.8925 39.1945 25.4745 40.5726 25.4745 41.9824C25.4745 43.8729 26.2255 45.686 27.5622 47.0227C28.899 48.3595 30.7121 49.1105 32.6026 49.1105C34.0124 49.1105 35.3905 48.6925 36.5627 47.9092C37.7349 47.126 38.6486 46.0127 39.1881 44.7102C39.7276 43.4077 39.8687 41.9745 39.5937 40.5918C39.3186 39.2091 38.6398 37.939 37.6429 36.9421C36.646 35.9452 35.3759 35.2663 33.9932 34.9913C32.6105 34.7162 31.1772 34.8574 29.8748 35.3969C28.5723 35.9364 27.459 36.85 26.6758 38.0223Z" fill="#715A95"/>
<path d="M131.821 82.709L121.732 72.4322L107.53 74.8161L105.408 60.5717L92.5163 54.1521L99.1724 41.3811L92.5163 28.61L105.408 22.1904L107.53 7.94608L121.732 10.33L131.821 0.0531464L141.911 10.33L156.113 7.94608L158.235 22.1904L171.127 28.61L164.471 41.3811L171.127 54.1521L158.235 60.5717L156.113 74.8161L141.911 72.4322L131.821 82.709Z" fill="#DDD347"/>
<ellipse cx="102.553" cy="48.4273" rx="29.4038" ry="29.4038" transform="rotate(-180 102.553 48.4273)" fill="#76ACB6"/>
<path fill-rule="evenodd" clip-rule="evenodd" d="M118.829 72.9194L107.53 74.8159L105.408 60.5716L92.5163 54.152L99.1725 41.3809L92.5163 28.6099L105.408 22.1903L105.852 19.2062C120.539 20.8459 131.957 33.303 131.957 48.4269C131.957 58.6475 126.742 67.6501 118.829 72.9194Z" fill="#7CA835"/>
<path d="M195.977 13.8392C203.919 8.17794 216.72 31.1735 222.374 43.5941C233.211 35.2982 255.331 21.0366 259.67 29.7695C260.536 31.1437 260.883 35.1967 255.479 39.4071C253.933 40.7588 250.885 44.8584 250.449 52.3969C249.972 54.306 247.343 56.8774 239.973 51.5577C243.272 55.2805 248.899 64.6471 242.485 69.9959C236.504 74.5838 224.215 78.7072 221.534 61.1938L219.859 53.6509L214.83 59.5169C204.221 73.7063 195.318 64.2828 192.202 57.4194C189.061 49.681 198.437 44.0668 203.098 42.3349C194.092 43.5589 192.983 40.0526 193.461 38.1435C196.625 31.2874 195.867 26.2358 195.138 24.3152C192.354 18.0569 194.569 14.6445 195.977 13.8392Z" fill="#CE6C9E"/>
<path fill-rule="evenodd" clip-rule="evenodd" d="M214.249 6.24717L216.729 6.95573C219.539 7.75876 221.44 10.4032 222.709 13.0136C224.053 15.7767 225.048 19.245 225.694 22.8295C226.067 24.9033 226.331 27.0541 226.472 29.1825C227.717 27.4503 229.077 25.7632 230.49 24.1998C232.932 21.4973 235.609 19.0786 238.21 17.4423C240.666 15.8965 243.677 14.6555 246.488 15.4585L248.968 16.1671L247.551 21.1269L245.071 20.4184C244.503 20.2561 243.171 20.4152 240.957 21.8083C238.886 23.111 236.565 25.1701 234.317 27.6581C232.081 30.133 229.994 32.947 228.368 35.6864C227.823 36.6048 227.34 37.4981 226.924 38.3531C231.861 35.1523 237.705 31.7548 243.133 29.406C246.961 27.7498 250.737 26.5454 253.908 26.3861C257.08 26.2267 260.121 27.1302 261.566 30.2093C262.92 32.6494 262.465 37.5481 256.581 41.8484C255.353 42.873 252.422 46.4322 251.78 53.4612C251.771 53.5682 251.751 53.674 251.721 53.7773C251.3 55.252 249.998 56.9727 247.509 57.2179C246.633 57.3042 245.67 57.1994 244.61 56.8801C245.132 58.0173 245.584 59.224 245.901 60.4575C246.894 64.3226 246.626 68.8344 242.581 71.9861C242.563 72.0005 242.544 72.0144 242.525 72.028C239.309 74.3293 234.194 76.6586 229.393 75.8192C226.913 75.3858 224.582 74.113 222.755 71.6956C221.527 70.0712 220.559 67.9752 219.895 65.3497C218.713 66.275 217.261 66.6568 215.878 66.2616C214.462 65.857 213.415 64.7224 212.913 63.2631C210.938 65.1803 208.984 66.4717 207.06 67.2113C204.231 68.2985 201.579 68.1475 199.245 67.2056C194.725 65.3814 191.612 60.7015 190.098 57.0485C190.089 57.027 190.08 57.0052 190.072 56.9832C188.303 52.1702 190.459 48.1979 193.345 45.4412C194.266 44.5614 195.286 43.7754 196.331 43.086C195.262 42.7968 194.388 42.3767 193.69 41.8411C191.706 40.3174 191.51 38.1689 191.931 36.6942C191.961 36.5908 192 36.4905 192.048 36.3945C195.218 30.0862 194.609 25.5159 194.107 23.9987C191.384 17.2382 193.587 12.8393 196.023 11.4828C198.878 9.63205 201.937 10.4713 204.547 12.2825C207.155 14.0931 209.725 17.1108 212.1 20.5393C215.51 25.4611 218.712 31.52 221.227 36.8947C221.335 35.9024 221.403 34.833 221.427 33.7031C221.494 30.5183 221.209 27.0265 220.617 23.7438C220.023 20.4437 219.14 17.4691 218.07 15.2692C216.926 12.9166 215.88 12.0779 215.312 11.9156L212.832 11.207L214.249 6.24717ZM222.382 59.8339C222.361 59.1642 222.238 58.5223 222.026 57.935L221.913 57.3321C223.074 56.5584 224.023 55.2813 224.475 53.6967C224.942 52.0621 224.788 50.4264 224.165 49.1372C225.375 48.3722 226.37 47.0647 226.837 45.4302C227.133 44.3943 227.18 43.358 227.015 42.4096C232.182 38.9579 238.634 35.0996 244.499 32.5621C248.21 30.9562 251.532 29.9487 254.081 29.8206C256.603 29.6939 257.879 30.412 258.472 31.7099C258.496 31.7626 258.522 31.814 258.551 31.864C258.778 32.2508 259.606 35.3972 254.516 39.0987C254.489 39.1178 254.464 39.1376 254.438 39.1582C252.482 40.7575 249.136 45.131 248.374 52.9552C248.228 53.3371 247.893 53.7245 247.171 53.7956C246.191 53.8922 244.162 53.4541 240.678 50.7583C239.985 50.222 238.999 50.2929 238.39 50.9229C237.781 51.5529 237.743 52.5404 238.302 53.2153C239.784 55.0046 241.751 58.1259 242.57 61.3135C243.377 64.4523 243.013 67.2722 240.494 69.2524C237.582 71.3284 233.438 73.0354 229.985 72.4317C228.331 72.1426 226.781 71.3192 225.498 69.6219C224.186 67.8864 223.087 65.1446 222.584 60.933C222.58 60.8951 222.574 60.8573 222.567 60.8197L222.382 59.8339ZM217.579 42.7849C217.112 44.4194 217.266 46.0552 217.89 47.3444C216.679 48.1094 215.684 49.4168 215.217 51.0514C214.776 52.5938 214.889 54.1373 215.427 55.3897L212.964 58.0761C212.939 58.1043 212.914 58.1333 212.89 58.1632C210.239 61.4738 207.857 63.2209 205.826 64.0014C203.84 64.7646 202.089 64.645 200.532 64.0166C197.281 62.7046 194.664 59.066 193.288 55.7646C192.196 52.753 193.377 50.1666 195.72 47.9277C198.1 45.6541 201.419 44.0429 203.623 43.3066C204.454 43.0288 204.943 42.1704 204.758 41.3137C204.574 40.457 203.775 39.8761 202.903 39.9652C198.52 40.4132 196.566 39.7133 195.785 39.1135C195.21 38.672 195.13 38.166 195.208 37.7645C198.694 30.7196 198.166 25.2383 197.348 22.8452C197.337 22.815 197.326 22.785 197.314 22.7554C194.949 16.924 197.314 14.689 197.71 14.4796C197.761 14.4528 197.811 14.4235 197.858 14.3918C199.047 13.6024 200.511 13.6674 202.586 15.1076C204.682 16.5626 206.97 19.1731 209.273 22.4975C212.934 27.7822 216.393 34.5158 218.961 40.1978C218.35 40.9042 217.865 41.7831 217.579 42.7849Z" fill="#DDD347"/>
<path fill-rule="evenodd" clip-rule="evenodd" d="M222.026 57.9352C222.238 58.5224 222.361 59.1644 222.382 59.8341L222.567 60.8199C222.574 60.8574 222.58 60.8952 222.584 60.9331C223.087 65.1448 224.186 67.8866 225.498 69.6221C226.781 71.3193 228.331 72.1427 229.985 72.4319C233.438 73.0355 237.581 71.3285 240.494 69.2526C243.013 67.2724 243.377 64.4524 242.57 61.3137C241.751 58.126 239.784 55.0048 238.302 53.2154C237.743 52.5405 237.78 51.5531 238.39 50.9231C238.999 50.2931 239.985 50.2222 240.678 50.7585C244.162 53.4542 246.191 53.8923 247.171 53.7958C247.893 53.7247 248.228 53.3372 248.374 52.9553C249.136 45.1311 252.482 40.7576 254.438 39.1583C254.463 39.1378 254.489 39.1179 254.515 39.0988C259.606 35.3974 258.777 32.251 258.551 31.8641C258.522 31.8142 258.496 31.7628 258.471 31.7101C257.879 30.4121 256.603 29.6941 254.081 29.8208C251.532 29.9488 248.21 30.9563 244.499 32.5623C238.634 35.0997 232.182 38.958 227.015 42.4098C227.18 43.3581 227.133 44.3945 226.837 45.4304C226.37 47.0649 225.375 48.3723 224.165 49.1374C224.788 50.4266 224.942 52.0623 224.475 53.6968C224.023 55.2814 223.074 56.5586 221.913 57.3322L222.026 57.9352ZM217.89 47.3445C217.266 46.0553 217.112 44.4196 217.579 42.7851C217.865 41.7833 218.35 40.9044 218.961 40.1979C216.393 34.5159 212.934 27.7823 209.273 22.4977C206.97 19.1732 204.682 16.5627 202.586 15.1077C200.511 13.6676 199.047 13.6026 197.858 14.3919C197.81 14.4237 197.761 14.453 197.71 14.4798C197.314 14.6892 194.949 16.9241 197.314 22.7555C197.326 22.7851 197.337 22.8151 197.347 22.8454C198.166 25.2384 198.694 30.7198 195.208 37.7647C195.13 38.1661 195.21 38.6721 195.785 39.1136C196.566 39.7134 198.52 40.4133 202.903 39.9654C203.775 39.8763 204.574 40.4571 204.758 41.3138C204.943 42.1705 204.454 43.029 203.623 43.3067C201.419 44.0431 198.1 45.6542 195.72 47.9279C193.377 50.1667 192.196 52.7532 193.288 55.7648C194.664 59.0662 197.281 62.7048 200.532 64.0167C202.089 64.6451 203.84 64.7648 205.826 64.0015C207.857 63.2211 210.239 61.474 212.89 58.1633C212.914 58.1335 212.938 58.1044 212.964 58.0762L215.427 55.3899C214.889 54.1375 214.776 52.594 215.217 51.0515C215.684 49.417 216.679 48.1096 217.89 47.3445ZM222.374 43.5941C216.72 31.1735 203.919 8.17794 195.977 13.8392C194.569 14.6445 192.354 18.0569 195.138 24.3152C195.867 26.2358 196.625 31.2874 193.461 38.1435C192.983 40.0526 194.092 43.5589 203.098 42.3349C198.437 44.0668 189.061 49.681 192.202 57.4194C195.318 64.2828 204.221 73.7063 214.83 59.5169L219.859 53.6509L221.534 61.1938C224.215 78.7072 236.504 74.5838 242.485 69.9959C248.899 64.6471 243.272 55.2805 239.973 51.5577C247.343 56.8774 249.972 54.306 250.449 52.3969C250.885 44.8584 253.933 40.7588 255.479 39.4071C260.883 35.1967 260.536 31.1437 259.67 29.7695C255.331 21.0366 233.211 35.2982 222.374 43.5941Z" fill="#D3592C"/>
<path d="M272.707 4.36572H287.862V19.5202H272.707V4.36572Z" fill="#76ACB6"/>
<path d="M287.862 19.5202H303.016V34.6747H287.862V19.5202Z" fill="#76ACB6"/>
<path d="M318.17 19.5202H333.325V34.6747H318.17V19.5202Z" fill="#76ACB6"/>
<path d="M333.325 4.36572H348.479V19.5202H333.325V4.36572Z" fill="#76ACB6"/>
<path d="M303.016 4.36572H318.17V19.5202H303.016V4.36572Z" fill="#76ACB6"/>
<path d="M272.707 34.6747H287.862V49.8292H272.707V34.6747Z" fill="#76ACB6"/>
<path d="M287.862 49.8292H303.016V64.9837H287.862V49.8292Z" fill="#76ACB6"/>
<path d="M318.17 49.8292H333.325V64.9837H318.17V49.8292Z" fill="#76ACB6"/>
<path d="M333.325 34.6747H348.479V49.8292H333.325V34.6747Z" fill="#76ACB6"/>
<path d="M303.016 34.6747H318.17V49.8292H303.016V34.6747Z" fill="#76ACB6"/>
<path d="M272.707 64.9837H287.862V80.1382H272.707V64.9837Z" fill="#76ACB6"/>
<path d="M333.325 64.9837H348.479V80.1382H333.325V64.9837Z" fill="#76ACB6"/>
<path d="M303.016 64.9837H318.17V80.1382H303.016V64.9837Z" fill="#76ACB6"/>
<path d="M289.304 2.62402H304.458V17.7785H289.304V2.62402Z" fill="#DDD347"/>
<path d="M319.613 2.62402H334.767V17.7785H319.613V2.62402Z" fill="#DDD347"/>
<path d="M304.458 17.7785H319.613V32.933H304.458V17.7785Z" fill="#DDD347"/>
<path d="M289.304 32.933H304.458V48.0875H289.304V32.933Z" fill="#DDD347"/>
<path d="M274.149 17.7785H289.304V32.933H274.149V17.7785Z" fill="#DDD347"/>
<path d="M304.458 48.0875H319.613V63.242H304.458V48.0875Z" fill="#DDD347"/>
<path d="M319.613 32.933H334.767V48.0875H319.613V32.933Z" fill="#DDD347"/>
<path d="M334.767 17.7785H349.922V32.933H334.767V17.7785Z" fill="#DDD347"/>
<path d="M334.767 48.0875H349.922V63.242H334.767V48.0875Z" fill="#DDD347"/>
<path d="M319.613 63.242H334.767V78.3965H319.613V63.242Z" fill="#DDD347"/>
<path d="M289.304 63.242H304.458V78.3965H289.304V63.242Z" fill="#DDD347"/>
<path d="M274.149 48.0875H289.304V63.242H274.149V48.0875Z" fill="#DDD347"/>
<path fill-rule="evenodd" clip-rule="evenodd" d="M274.149 19.5202V17.7784H287.861V19.5202H274.149ZM287.861 32.9329V19.5202H289.304V32.9329H287.861ZM334.767 64.9837V78.3963H333.325V64.9837H334.767ZM304.458 4.36572H303.016V17.7784H304.458V19.5202H318.17V32.9329H319.613V34.6747H333.325V48.0874H334.767V49.8292H348.479V48.0874H334.767V34.6747H333.325V32.9329H319.613V19.5202H318.17V17.7784H304.458V4.36572ZM334.767 19.5202H348.479V17.7784H334.767V4.36572H333.325V17.7784H334.767V19.5202ZM319.613 49.8292V63.2419H318.17V49.8292H319.613ZM304.458 49.8292H318.17V48.0874H304.458V34.6747H303.016V32.9329H289.304V34.6747H303.016V48.0874H304.458V49.8292ZM303.016 63.2419V64.9837H289.304V63.2419H303.016ZM289.304 49.8292V63.2419H287.861V49.8292H289.304ZM287.861 48.0874H274.149V49.8292H287.861V48.0874ZM304.458 64.9837V78.3963H303.016V64.9837H304.458ZM333.325 63.2419V64.9837H319.613V63.2419H333.325Z" fill="#7CA835"/>
<path fill-rule="evenodd" clip-rule="evenodd" d="M0 152.896L0 190.948H75.407V182.797C71.4657 179.79 68.383 171.268 67.3779 160.517C66.1179 173.992 61.5941 183.966 56.2065 183.966C50.8187 183.966 46.2948 173.992 45.035 160.516C43.7752 173.992 39.2513 183.966 33.8635 183.966C28.4757 183.966 23.9518 173.992 22.692 160.516C21.4322 173.992 16.9083 183.966 11.5205 183.966C5.15791 183.966 0 170.056 0 152.896ZM0 152.896L0 115.541H75.407V122.995C71.4657 126.002 68.383 134.524 67.3779 145.275C66.1179 131.8 61.5941 121.826 56.2065 121.826C50.8187 121.826 46.2948 131.8 45.035 145.276C43.7752 131.8 39.2513 121.826 33.8635 121.826C28.4757 121.826 23.9518 131.8 22.692 145.276C21.4322 131.8 16.9083 121.825 11.5205 121.825C5.15791 121.825 0 135.736 0 152.896Z" fill="#76ACB6"/>
<path fill-rule="evenodd" clip-rule="evenodd" d="M8.72818 119.033C14.1157 119.033 18.6395 129.007 19.8995 142.482C21.1595 129.007 25.6833 119.033 31.0708 119.033C36.458 119.033 40.9815 129.006 42.2419 142.479C43.5023 129.006 48.0258 119.033 53.4129 119.033C58.801 119.033 63.3252 129.009 64.5846 142.486C65.8168 129.302 70.1735 119.468 75.407 119.047V181.16C70.1735 180.74 65.8168 170.906 64.5846 157.722C63.3252 171.198 58.801 181.174 53.4129 181.174C48.0258 181.174 43.5023 171.202 42.2419 157.729C40.9815 171.202 36.458 181.174 31.0708 181.174C25.6833 181.174 21.1595 171.201 19.8995 157.726C18.6395 171.2 14.1157 181.174 8.72818 181.174C5.2393 181.174 2.11264 176.992 0 170.384L0 129.823C2.11264 123.216 5.2393 119.033 8.72818 119.033Z" fill="#DDD347"/>
<path fill-rule="evenodd" clip-rule="evenodd" d="M14.0973 122.606C13.2688 122.095 12.4063 121.825 11.5205 121.825C5.16404 121.825 0.00994424 135.709 0 152.846L0 129.823C2.11265 123.215 5.2394 119.032 8.72841 119.032C10.6672 119.032 12.4941 120.324 14.0973 122.606ZM20.9735 135.131C21.758 138.162 22.3472 141.588 22.692 145.276C23.9518 131.8 28.4757 121.826 33.8635 121.826C34.749 121.826 35.6112 122.095 36.4394 122.605C34.8362 120.324 33.0094 119.032 31.0708 119.032C26.7209 119.032 22.934 125.534 20.9735 135.131ZM43.3161 135.13C44.1008 138.161 44.6901 141.587 45.035 145.276C46.2947 131.8 50.8187 121.826 56.2064 121.826C57.0915 121.826 57.9533 122.095 58.7811 122.604C57.1781 120.324 55.3515 119.032 53.4131 119.032C49.0634 119.032 45.2767 125.534 43.3161 135.13ZM65.6593 135.131C66.4438 138.162 67.033 141.587 67.3778 145.275C68.383 134.524 71.4657 126.002 75.407 122.995V119.046C71.2044 119.384 67.5671 125.792 65.6593 135.131ZM0 170.382C1.57625 175.313 3.71703 178.893 6.1516 180.393C2.49852 175.194 0.00691117 164.856 0 152.946L0 170.382ZM73.1807 180.394C70.3286 176.335 68.1844 169.144 67.3778 160.517C67.1351 163.113 66.7714 165.578 66.3037 167.868C67.9146 174.091 70.349 178.65 73.1807 180.394ZM50.8384 180.395C47.986 176.336 45.8415 169.144 45.035 160.516C44.7922 163.112 44.4284 165.579 43.9605 167.869C45.5717 174.093 48.0064 178.651 50.8384 180.395ZM28.4949 180.394C25.6427 176.335 23.4985 169.143 22.692 160.516C22.4493 163.112 22.0855 165.578 21.6178 167.867C23.2288 174.091 25.6631 178.649 28.4949 180.394Z" fill="#7CA835"/>
<path d="M129.648 129.411L163.583 188.188H95.7126L129.648 129.411Z" fill="#CE6C9E"/>
<path d="M129.647 177.078L95.7124 118.301H163.582L129.647 177.078Z" fill="#DDD347"/>
<path fill-rule="evenodd" clip-rule="evenodd" d="M115.888 153.245L129.648 177.078L143.408 153.245L129.648 129.411L115.888 153.245Z" fill="#D3592C"/>
<path d="M257.302 131.375L257.714 127.174L253.531 127.716C246.343 128.741 239.014 128.054 232.141 125.714C224.946 123.113 217.152 122.653 209.701 124.39C205.767 125.227 202.106 127.035 199.049 129.649C195.993 132.262 193.638 135.599 192.201 139.355C190.341 144.207 189.772 149.458 190.55 154.596C192.142 152.318 193.903 150.163 195.819 148.149C200.1 143.905 205.468 140.921 211.333 139.524C216.985 138.168 222.876 138.154 228.534 139.485C222.945 139.257 217.37 140.193 212.163 142.234C209.655 143.202 207.28 144.486 205.097 146.053C202.992 147.636 201.059 149.434 199.326 151.416C197.035 154.292 195.042 157.387 193.376 160.655C194.217 164.122 196.636 167.151 197.741 168.233C201.803 171.572 206.652 173.817 211.826 174.755C216.64 175.692 221.593 175.654 226.391 174.643C253.378 168.87 257.014 132.848 257.302 131.375Z" fill="#DDD347"/>
<path d="M258.589 131.003L259.002 126.802C254.816 137.453 237.804 139.447 229.821 139.113C224.233 138.885 218.657 139.821 213.45 141.862C210.942 142.83 208.568 144.114 206.384 145.681C204.28 147.264 202.346 149.062 200.613 151.044C197.267 155.244 194.558 159.913 192.572 164.901C190.508 169.892 188.907 175.061 187.789 180.345L194.336 181.624C195.575 176.932 197.143 172.333 199.028 167.861C203.091 171.2 207.939 173.445 213.113 174.383C217.927 175.32 222.88 175.282 227.679 174.271C254.665 168.498 258.301 132.476 258.589 131.003Z" fill="#76ACB6"/>
<path fill-rule="evenodd" clip-rule="evenodd" d="M229.251 173.894C252.313 166.702 256.594 136.357 257.226 131.881C257.262 131.624 257.286 131.452 257.302 131.375L257.474 129.617C251.655 137.812 237.043 139.415 229.821 139.113C228.786 139.071 227.751 139.068 226.72 139.106C227.327 139.217 227.932 139.343 228.534 139.485C224.412 139.317 220.298 139.782 216.333 140.856C215.361 141.155 214.399 141.49 213.449 141.862C210.942 142.83 208.567 144.114 206.383 145.681C204.279 147.264 202.345 149.062 200.613 151.045C197.913 154.433 195.627 158.127 193.802 162.049C194.854 164.914 196.787 167.299 197.741 168.233C198.021 168.463 198.305 168.688 198.593 168.908C198.736 168.558 198.881 168.209 199.028 167.861C203.09 171.2 207.939 173.445 213.113 174.383C217.927 175.32 222.879 175.282 227.678 174.271C228.212 174.157 228.736 174.031 229.251 173.894Z" fill="#7CA835"/>
<circle cx="312.296" cy="153.245" r="37.7035" transform="rotate(-90 312.296 153.245)" fill="#AD6095"/>
<path d="M274.593 115.541L350 190.948V115.541H274.593Z" fill="#76ACB6"/>
<path fill-rule="evenodd" clip-rule="evenodd" d="M338.957 179.905C345.78 173.082 350.001 163.656 350.001 153.245C350.001 132.422 333.12 115.541 312.297 115.541C301.886 115.541 292.46 119.762 285.637 126.584L338.957 179.905Z" fill="#715A95"/>
</svg>
