<svg width="360" height="221" viewBox="0 0 360 221" fill="none" xmlns="http://www.w3.org/2000/svg">
<path fill-rule="evenodd" clip-rule="evenodd" d="M83.8148 8.35645H5.30957V86.8617H13.7972C16.9285 82.7586 25.8014 79.5496 36.9939 78.5035C22.9638 77.1921 12.5786 72.4822 12.5786 66.8728C12.5786 61.2639 22.9624 56.5541 36.9912 55.2424C22.9624 53.9307 12.5786 49.221 12.5786 43.6121C12.5786 38.0026 22.9644 33.2925 36.9951 31.9813C22.9643 30.6701 12.5783 25.9601 12.5783 20.3505C12.5783 13.7265 27.0606 8.35669 44.9254 8.35669C62.7902 8.35669 77.2725 13.7265 77.2725 20.3505C77.2725 25.96 66.8867 30.6701 52.856 31.9813C66.8868 33.2925 77.2727 38.0025 77.2727 43.6121C77.2727 49.221 66.8888 53.9307 52.8601 55.2424C66.8888 56.5541 77.2727 61.2639 77.2727 66.8728C77.2727 72.4822 66.8875 77.1921 52.8574 78.5035C64.0499 79.5496 72.9227 82.7586 76.054 86.8617H83.8148V8.35645Z" fill="#AD6095"/>
<path fill-rule="evenodd" clip-rule="evenodd" d="M80.1805 17.4436C80.1805 23.0529 69.7952 27.7629 55.7651 29.0742C69.7952 30.3856 80.1805 35.0955 80.1805 40.7048C80.1805 46.3135 69.7979 51.0229 55.7705 52.335C69.7979 53.647 80.1805 58.3565 80.1805 63.9651C80.1805 69.5748 69.7939 74.285 55.7625 75.596C69.4887 76.8785 79.7269 81.4139 80.1658 86.8622H15.501C15.9399 81.4139 26.178 76.8785 39.9043 75.596C25.8729 74.285 15.4863 69.5748 15.4863 63.9651C15.4863 58.3565 25.8689 53.647 39.8962 52.335C25.8689 51.0229 15.4863 46.3135 15.4863 40.7048C15.4863 35.0955 25.8715 30.3856 39.9016 29.0742C25.8715 27.7629 15.4863 23.0529 15.4863 17.4436C15.4863 13.8114 19.8406 10.5564 26.7193 8.35693H68.9475C75.8261 10.5564 80.1805 13.8114 80.1805 17.4436Z" fill="#76ACB6"/>
<path fill-rule="evenodd" clip-rule="evenodd" d="M76.4623 23.0329C78.8377 21.3638 80.1824 19.4618 80.1824 17.4434C80.1824 13.8113 75.8283 10.5564 68.9501 8.35693H45.2134C62.9465 8.41388 77.2745 13.7617 77.2745 20.3503C77.2745 21.2725 76.9938 22.1704 76.4623 23.0329ZM63.4202 30.1921C60.2649 31.0088 56.6985 31.6221 52.8592 31.981C66.8893 33.2923 77.2745 38.0023 77.2745 43.6116C77.2745 44.5338 76.9938 45.4317 76.4623 46.2941C78.8377 44.625 80.1824 42.7231 80.1824 40.7046C80.1824 36.1757 73.4125 32.2331 63.4202 30.1921ZM63.4224 53.4528C60.2673 54.2696 56.7011 54.883 52.8619 55.242C66.8906 56.5537 77.2745 61.2634 77.2745 66.8724C77.2745 67.7942 76.994 68.6918 76.4629 69.554C78.8379 67.885 80.1824 65.9832 80.1824 63.9649C80.1824 59.4363 73.4134 55.4939 63.4224 53.4528ZM63.4202 76.7142C60.2649 77.5308 56.6985 78.1442 52.8591 78.503C64.0523 79.5492 72.9256 82.7585 76.0563 86.8619H80.1677C79.8152 82.4867 73.1432 78.7001 63.4202 76.7142ZM26.7205 8.35693C21.5887 9.99793 17.862 12.2265 16.3004 14.7608C21.6787 10.9816 32.3409 8.39643 44.6414 8.35693H26.7205ZM16.3004 84.5442C20.5262 81.5748 28.0141 79.3425 36.9957 78.503C34.2934 78.2504 31.7262 77.8718 29.3425 77.3849C22.863 79.0619 18.1169 81.5961 16.3004 84.5442ZM16.2998 61.2833C20.5251 58.314 28.0122 56.0817 36.9929 55.242C34.2908 54.9893 31.7239 54.6106 29.3403 54.1237C22.8612 55.8008 18.1157 58.3352 16.2998 61.2833ZM16.3004 38.0221C20.5262 35.0527 28.0141 32.8204 36.9957 31.981C34.2933 31.7284 31.7262 31.3497 29.3425 30.8628C22.8629 32.5398 18.1169 35.0741 16.3004 38.0221Z" fill="#715A95"/>
<path d="M156.833 48.7685C156.556 48.6076 156.251 48.4535 155.936 48.3028C156.251 48.1521 156.556 47.998 156.833 47.8371C158.404 46.9442 159.782 45.7495 160.889 44.3218C161.996 42.8941 162.809 41.2616 163.283 39.5182C163.756 37.7749 163.88 35.9551 163.647 34.1637C163.414 32.3723 162.829 30.6446 161.926 29.0802C161.023 27.5157 159.819 26.1454 158.384 25.0481C156.949 23.9508 155.311 23.1482 153.564 22.6864C151.818 22.2247 149.997 22.113 148.208 22.3577C146.418 22.6024 144.694 23.1987 143.136 24.1124C142.858 24.2733 142.571 24.4548 142.286 24.6568C142.314 24.3144 142.331 23.972 142.331 23.6295C142.331 19.9966 140.888 16.5125 138.319 13.9437C135.75 11.3748 132.266 9.93164 128.633 9.93164C125 9.93164 121.516 11.3748 118.947 13.9437C116.378 16.5125 114.935 19.9966 114.935 23.6295C114.935 23.9514 114.935 24.2939 114.98 24.6568C114.695 24.4617 114.408 24.2733 114.13 24.1124C112.572 23.1987 110.848 22.6024 109.058 22.3577C107.269 22.113 105.448 22.2247 103.702 22.6864C101.955 23.1482 100.317 23.9508 98.8822 25.0481C97.4472 26.1454 96.2434 27.5157 95.3401 29.0802C94.4369 30.6446 93.852 32.3723 93.6191 34.1637C93.3863 35.9551 93.5101 37.7749 93.9834 39.5182C94.4567 41.2616 95.2702 42.8941 96.377 44.3218C97.4838 45.7495 98.8621 46.9442 100.433 47.8371C100.71 47.998 101.015 48.1521 101.33 48.3028C101.015 48.4535 100.71 48.6076 100.433 48.7685C98.8621 49.6614 97.4838 50.856 96.377 52.2837C95.2702 53.7114 94.4567 55.344 93.9834 57.0873C93.5101 58.8307 93.3863 60.6505 93.6191 62.4419C93.852 64.2333 94.4369 65.9609 95.3401 67.5254C96.2434 69.0898 97.4472 70.4601 98.8822 71.5575C100.317 72.6548 101.955 73.4574 103.702 73.9191C105.448 74.3809 107.269 74.4926 109.058 74.2479C110.848 74.0032 112.572 73.4068 114.13 72.4932C114.408 72.3323 114.695 72.1508 114.98 71.9487C114.952 72.2912 114.935 72.6336 114.935 72.9589C114.935 76.5918 116.378 80.076 118.947 82.6448C121.516 85.2136 125 86.6568 128.633 86.6568C132.266 86.6568 135.75 85.2136 138.319 82.6448C140.888 80.076 142.331 76.5918 142.331 72.9589C142.331 72.637 142.314 72.2946 142.286 71.9487C142.571 72.1439 142.858 72.3323 143.136 72.4932C145.211 73.6951 147.566 74.3282 149.964 74.3287C151.169 74.3273 152.368 74.1684 153.532 73.8562C156.149 73.1548 158.499 71.6931 160.285 69.656C162.072 67.619 163.214 65.0979 163.567 62.4118C163.92 59.7257 163.469 56.9951 162.271 54.5654C161.072 52.1357 159.18 50.116 156.833 48.7617V48.7685ZM120.414 48.3028C120.414 46.6773 120.896 45.0883 121.799 43.7367C122.702 42.3851 123.986 41.3317 125.488 40.7097C126.99 40.0876 128.642 39.9249 130.236 40.242C131.831 40.5591 133.295 41.3419 134.444 42.4913C135.594 43.6407 136.377 45.1051 136.694 46.6994C137.011 48.2937 136.848 49.9462 136.226 51.448C135.604 52.9497 134.551 54.2333 133.199 55.1364C131.847 56.0395 130.258 56.5215 128.633 56.5215C126.453 56.5215 124.363 55.6556 122.821 54.1143C121.28 52.573 120.414 50.4825 120.414 48.3028Z" fill="#CE6C9E"/>
<path d="M157.784 45.4718C157.493 45.3372 157.175 45.212 156.847 45.0911C157.147 44.9119 157.436 44.7303 157.697 44.5444C159.178 43.51 160.44 42.1929 161.41 40.6689C162.38 39.1449 163.039 37.4441 163.349 35.6644C163.659 33.8848 163.614 32.0613 163.216 30.2992C162.819 28.537 162.076 26.8709 161.032 25.3967C159.988 23.9226 158.663 22.6695 157.132 21.7097C155.602 20.7499 153.897 20.1023 152.115 19.8042C150.333 19.506 148.51 19.5633 146.751 19.9726C144.991 20.3819 143.33 21.1352 141.863 22.1891C141.602 22.375 141.332 22.5824 141.068 22.8098C141.063 22.4663 141.049 22.1238 141.017 21.7828C140.681 18.1655 138.921 14.8299 136.126 12.5098C133.33 10.1897 129.727 9.07512 126.11 9.41131C122.493 9.74751 119.157 11.5069 116.837 14.3024C114.517 17.098 113.403 20.7007 113.739 24.318C113.768 24.6385 113.8 24.9795 113.878 25.3368C113.577 25.1688 113.273 25.0079 112.982 24.8733C111.346 24.1078 109.574 23.6735 107.769 23.5955C105.965 23.5174 104.162 23.7972 102.466 24.4185C100.77 25.0399 99.2132 25.9907 97.8859 27.2161C96.5586 28.4415 95.4868 29.9173 94.7322 31.5587C93.9776 33.2 93.5551 34.9743 93.4891 36.7796C93.423 38.5849 93.7147 40.3854 94.3473 42.0775C94.9799 43.7695 95.9409 45.3198 97.1751 46.6389C98.4093 47.9581 99.8922 49.0201 101.539 49.7638C101.83 49.8984 102.147 50.0236 102.475 50.1445C102.175 50.3237 101.886 50.5053 101.625 50.6912C100.144 51.7256 98.8819 53.0427 97.9119 54.5667C96.942 56.0907 96.2831 57.7915 95.9731 59.5712C95.6632 61.3509 95.7083 63.1743 96.1059 64.9364C96.5036 66.6986 97.2458 68.3647 98.29 69.8389C99.3341 71.313 100.66 72.566 102.19 73.5259C103.72 74.4857 105.426 75.1333 107.207 75.4314C108.989 75.7296 110.812 75.6723 112.571 75.263C114.331 74.8537 115.992 74.1004 117.459 73.0465C117.721 72.8606 117.99 72.6532 118.255 72.4258C118.259 72.7693 118.274 73.1118 118.304 73.4358C118.64 77.0531 120.399 80.3887 123.195 82.7088C125.99 85.0289 129.593 86.1434 133.21 85.8072C136.828 85.471 140.163 83.7117 142.483 80.9161C144.804 78.1206 145.918 74.5178 145.582 70.9005C145.552 70.58 145.503 70.2406 145.444 69.8988C145.745 70.0668 146.049 70.2277 146.34 70.3623C148.517 71.367 150.921 71.7795 153.309 71.5581C154.509 71.4451 155.688 71.1759 156.818 70.7573C159.359 69.8168 161.564 68.1439 163.154 65.9503C164.744 63.7566 165.648 61.1408 165.751 58.4335C165.854 55.7262 165.152 53.0491 163.734 50.7407C162.316 48.4323 160.245 46.5964 157.783 45.465L157.784 45.4718ZM145.03 26.6581C145.91 26.0343 146.905 25.59 147.958 25.3507C149.01 25.1114 150.1 25.0818 151.163 25.2635C152.227 25.4451 153.245 25.8346 154.158 26.4096C155.072 26.9846 155.863 27.7338 156.487 28.6146C157.111 29.4954 157.555 30.4904 157.794 31.5428C158.034 32.5953 158.063 33.6846 157.882 34.7485C157.7 35.8124 157.31 36.8301 156.735 37.7435C156.16 38.6569 155.411 39.4481 154.53 40.0719C152.508 41.5084 148.379 42.7519 142.769 43.6378C141.906 40.8063 140.148 38.3307 137.76 36.5818C140.459 31.578 143.007 28.0945 145.03 26.6581ZM126.619 14.884C128.789 14.6823 130.951 15.351 132.628 16.7431C134.305 18.1351 135.361 20.1365 135.563 22.3069C135.792 24.7755 134.807 28.977 132.769 34.2806C129.885 33.6037 126.859 33.885 124.149 35.0817C121.168 30.2446 119.425 26.2967 119.196 23.828C118.994 21.6576 119.663 19.496 121.055 17.8187C122.447 16.1413 124.448 15.0857 126.619 14.884ZM99.7911 33.8856C100.242 32.9046 100.881 32.022 101.673 31.2882C102.465 30.5544 103.394 29.9838 104.406 29.609C105.418 29.2341 106.495 29.0624 107.573 29.1037C108.652 29.1449 109.712 29.3983 110.693 29.8493C112.946 30.8884 116.092 33.8426 119.667 38.2633C117.64 40.4252 116.369 43.1862 116.045 46.1319C110.368 46.295 106.081 45.8336 103.828 44.798C102.846 44.3474 101.962 43.7076 101.227 42.915C100.493 42.1225 99.9214 41.1928 99.5464 40.1792C99.1714 39.1656 99 38.088 99.0419 37.008C99.0839 35.9281 99.3385 34.8671 99.7911 33.8856ZM114.293 68.5775C112.514 69.8374 110.307 70.3391 108.159 69.9721C106.01 69.6052 104.095 68.3998 102.835 66.621C101.575 64.8422 101.074 62.6358 101.441 60.4871C101.808 58.3384 103.013 56.4235 104.792 55.1637C106.815 53.7272 110.943 52.4837 116.553 51.5978C117.416 54.4293 119.174 56.9049 121.562 58.6538C118.863 63.6576 116.315 67.1411 114.293 68.5775ZM132.703 80.3516C130.533 80.5533 128.371 79.8846 126.694 78.4925C125.017 77.1005 123.961 75.0991 123.759 72.9287C123.53 70.46 124.515 66.2586 126.553 60.955C129.437 61.6319 132.463 61.3506 135.173 60.1539C138.154 64.991 139.897 68.9389 140.126 71.4076C140.328 73.578 139.659 75.7396 138.267 77.4169C136.875 79.0943 134.874 80.1499 132.703 80.3516ZM159.531 61.35C159.08 62.331 158.441 63.2136 157.649 63.9474C156.857 64.6812 155.929 65.2518 154.916 65.6266C153.904 66.0015 152.827 66.1732 151.749 66.1319C150.67 66.0907 149.61 65.8373 148.629 65.3863C146.376 64.3472 143.23 61.393 139.655 56.9723C141.682 54.8103 142.953 52.0494 143.277 49.1037C148.954 48.9406 153.241 49.402 155.494 50.4376C156.476 50.8882 157.36 51.528 158.095 52.3206C158.83 53.1131 159.401 54.0428 159.776 55.0564C160.151 56.07 160.322 57.1476 160.28 58.2276C160.238 59.3075 159.984 60.3685 159.531 61.35Z" fill="#DDD347"/>
<path fill-rule="evenodd" clip-rule="evenodd" d="M156.847 45.0916C157.174 45.2124 157.492 45.3377 157.783 45.4723L157.783 45.4654C158.251 45.6806 158.705 45.9213 159.143 46.1859C158.434 46.8132 157.661 47.367 156.834 47.8371C156.557 47.998 156.252 48.1521 155.937 48.3028C156.252 48.4535 156.557 48.6076 156.834 48.7685V48.7617C159.181 50.116 161.073 52.1357 162.271 54.5654C163.47 56.9951 163.921 59.7257 163.568 62.4118C163.329 64.2245 162.731 65.9621 161.819 67.5264C160.415 68.9513 158.71 70.0575 156.818 70.7577C155.688 71.1763 154.508 71.4455 153.309 71.5585C150.921 71.7799 148.517 71.3675 146.34 70.3628C146.049 70.2282 145.745 70.0673 145.444 69.8992C145.503 70.2411 145.552 70.5805 145.581 70.901C145.666 71.8051 145.659 72.7084 145.566 73.5983C144.725 73.3115 143.911 72.942 143.136 72.4932C142.859 72.3323 142.571 72.1439 142.287 71.9487C142.314 72.2946 142.331 72.637 142.331 72.9589C142.331 76.5918 140.888 80.0759 138.319 82.6448C136.924 84.0402 135.258 85.1035 133.446 85.7837C133.367 85.7924 133.289 85.8004 133.21 85.8077C129.593 86.1439 125.99 85.0293 123.194 82.7092C120.399 80.3891 118.64 77.0535 118.303 73.4362C118.273 73.1123 118.259 72.7697 118.254 72.4262C117.99 72.6537 117.72 72.861 117.459 73.047C116.693 73.5971 115.874 74.0652 115.017 74.4454C114.963 73.954 114.936 73.4579 114.936 72.9589C114.936 72.6336 114.953 72.2912 114.98 71.9487C114.696 72.1508 114.408 72.3323 114.131 72.4932C112.573 73.4068 110.849 74.0032 109.059 74.2479C107.269 74.4926 105.449 74.3809 103.702 73.9191C103.038 73.7436 102.39 73.5188 101.762 73.2472C100.412 72.3284 99.2354 71.1745 98.2896 69.8393C97.2454 68.3652 96.5032 66.6991 96.1056 64.9369C95.7079 63.1747 95.6628 61.3513 95.9727 59.5716C96.2827 57.7919 96.9416 56.0911 97.9115 54.5671C98.8815 53.0431 100.143 51.726 101.624 50.6917C101.886 50.5058 102.175 50.3241 102.475 50.1449C102.147 50.0241 101.829 49.8988 101.538 49.7642C101.03 49.5347 100.538 49.2749 100.063 48.9866C100.185 48.912 100.309 48.8393 100.433 48.7685C100.71 48.6076 101.015 48.4535 101.33 48.3028C101.015 48.1521 100.71 47.998 100.433 47.8371C98.8627 46.9442 97.4844 45.7495 96.3776 44.3218C95.2708 42.8941 94.4573 41.2616 93.984 39.5182C93.7019 38.4793 93.544 37.4131 93.5117 36.342C93.6254 34.6882 94.0383 33.0675 94.7318 31.5591C95.4864 29.9178 96.5582 28.4419 97.8856 27.2165C99.2129 25.9911 100.769 25.0404 102.466 24.419C104.162 23.7976 105.964 23.5179 107.769 23.5959C109.574 23.674 111.345 24.1082 112.982 24.8737C113.273 25.0083 113.577 25.1692 113.878 25.3373C113.8 24.98 113.768 24.639 113.738 24.3185C113.724 24.1697 113.713 24.021 113.704 23.8723C113.848 23.9497 113.99 24.0297 114.131 24.1124C114.408 24.2733 114.696 24.4617 114.98 24.6568C114.936 24.2939 114.936 23.9514 114.936 23.6295V23.6295C114.936 19.9966 116.379 16.5125 118.948 13.9437C121.517 11.3748 125.001 9.93164 128.634 9.93164C130.397 9.93164 132.124 10.2715 133.73 10.9149C134.576 11.3577 135.379 11.891 136.125 12.5102C138.921 14.8303 140.68 18.1659 141.016 21.7832C141.048 22.1242 141.063 22.4668 141.067 22.8103C141.332 22.5828 141.601 22.3755 141.862 22.1895C141.983 22.1033 142.104 22.019 142.227 21.9368C142.296 22.4955 142.331 23.0607 142.331 23.6295C142.331 23.972 142.314 24.3144 142.287 24.6568C142.571 24.4548 142.859 24.2733 143.136 24.1124C144.695 23.1987 146.418 22.6024 148.208 22.3577C149.998 22.113 151.819 22.2247 153.565 22.6864C155.311 23.1482 156.949 23.9508 158.384 25.0481C159.819 26.1454 161.023 27.5157 161.926 29.0802C162.723 30.4596 163.272 31.9658 163.55 33.5308C163.539 34.2447 163.472 34.9582 163.349 35.6649C163.039 37.4446 162.38 39.1454 161.41 40.6694C160.44 42.1934 159.178 43.5105 157.697 44.5448C157.436 44.7307 157.147 44.9124 156.847 45.0916ZM147.957 25.3512C146.905 25.5905 145.91 26.0347 145.029 26.6585C143.006 28.095 140.458 31.5784 137.759 36.5823C140.148 38.3311 141.905 40.8067 142.769 43.6383C148.379 42.7523 152.507 41.5088 154.53 40.0724C155.411 39.4486 156.16 38.6574 156.735 37.744C157.31 36.8306 157.699 35.8128 157.881 34.7489C158.063 33.685 158.033 32.5957 157.794 31.5433C157.555 30.4908 157.11 29.4958 156.487 28.6151C155.863 27.7343 155.071 26.985 154.158 26.41C153.245 25.835 152.227 25.4456 151.163 25.2639C150.099 25.0822 149.01 25.1119 147.957 25.3512ZM132.628 16.7435C130.95 15.3515 128.789 14.6827 126.618 14.8844C124.448 15.0862 122.447 16.1418 121.055 17.8191C119.663 19.4965 118.994 21.6581 119.196 23.8285C119.425 26.2971 121.168 30.2451 124.148 35.0821C126.858 33.8854 129.884 33.6042 132.768 34.281C134.807 28.9774 135.792 24.776 135.562 22.3073C135.361 20.1369 134.305 18.1356 132.628 16.7435ZM101.673 31.2887C100.881 32.0225 100.241 32.9051 99.7907 33.8861C99.3381 34.8675 99.0836 35.9286 99.0416 37.0085C98.9996 38.0884 99.171 39.166 99.546 40.1796C99.921 41.1932 100.492 42.1229 101.227 42.9155C101.962 43.708 102.846 44.3479 103.828 44.7984C106.081 45.834 110.368 46.2954 116.044 46.1324C116.369 43.1867 117.64 40.4257 119.667 38.2638C116.092 33.843 112.946 30.8888 110.693 29.8498C109.712 29.3987 108.652 29.1454 107.573 29.1041C106.494 29.0629 105.418 29.2346 104.406 29.6094C103.393 29.9842 102.465 30.5549 101.673 31.2887ZM108.158 69.9726C110.307 70.3395 112.513 69.8378 114.292 68.5779C116.315 67.1415 118.863 63.6581 121.562 58.6542C119.174 56.9054 117.416 54.4298 116.552 51.5982C110.943 52.4842 106.814 53.7277 104.791 55.1641C103.013 56.424 101.807 58.3389 101.44 60.4876C101.073 62.6362 101.575 64.8427 102.835 66.6214C104.095 68.4002 106.01 69.6057 108.158 69.9726ZM126.694 78.493C128.371 79.885 130.533 80.5538 132.703 80.3521C134.873 80.1503 136.875 79.0947 138.267 77.4174C139.659 75.74 140.328 73.5784 140.126 71.408C139.896 68.9394 138.154 64.9914 135.173 60.1544C132.463 61.3511 129.437 61.6323 126.553 60.9555C124.515 66.2591 123.53 70.4605 123.759 72.9292C123.961 75.0996 125.016 77.1009 126.694 78.493ZM157.649 63.9478C158.441 63.214 159.08 62.3314 159.531 61.3504C159.983 60.369 160.238 59.3079 160.28 58.228C160.322 57.1481 160.15 56.0705 159.775 55.0569C159.4 54.0433 158.829 53.1136 158.094 52.321C157.36 51.5285 156.476 50.8886 155.493 50.4381C153.241 49.4025 148.954 48.9411 143.277 49.1041C142.953 52.0498 141.681 54.8108 139.654 56.9727C143.229 61.3935 146.376 64.3477 148.629 65.3867C149.609 65.8377 150.67 66.0911 151.748 66.1324C152.827 66.1736 153.903 66.0019 154.916 65.6271C155.928 65.2523 156.857 64.6816 157.649 63.9478ZM121.8 43.7367C120.897 45.0883 120.415 46.6773 120.415 48.3028C120.415 50.4825 121.281 52.573 122.822 54.1143C124.363 55.6556 126.454 56.5215 128.634 56.5215C130.259 56.5215 131.848 56.0395 133.2 55.1364C134.551 54.2333 135.605 52.9497 136.227 51.448C136.849 49.9462 137.012 48.2937 136.694 46.6994C136.377 45.1051 135.595 43.6407 134.445 42.4913C133.296 41.3419 131.831 40.5591 130.237 40.242C128.643 39.9249 126.99 40.0876 125.488 40.7097C123.987 41.3317 122.703 42.3851 121.8 43.7367Z" fill="#D3592C"/>
<circle cx="214.759" cy="47.6091" r="39.2526" fill="#76ACB6"/>
<path d="M254.012 8.35645L175.507 86.8617H254.012V8.35645Z" fill="#DDD347"/>
<path fill-rule="evenodd" clip-rule="evenodd" d="M187.003 75.3661C194.106 82.4694 203.919 86.8629 214.759 86.8629C236.437 86.8629 254.011 69.2889 254.011 47.6103C254.011 36.771 249.618 26.9578 242.515 19.8545L187.003 75.3661Z" fill="#7CA835"/>
<path d="M293.545 32.8851C295.414 30.9213 297.459 29.2728 299.682 27.9395C301.904 26.6063 304.22 25.5998 306.629 24.9201C309.037 24.2405 311.509 23.8601 314.046 23.7789C316.582 23.6978 319.071 23.9563 321.512 24.5544C323.952 25.1526 326.326 26.0532 328.631 27.2563C330.937 28.4595 333.072 29.9959 335.037 31.8655C337.195 33.9184 338.983 36.2061 340.401 38.7285C341.818 41.2508 342.835 43.9053 343.451 46.6918C344.067 49.4784 344.279 52.3218 344.09 55.2221C343.9 58.1225 343.257 60.9587 342.161 63.7309L337.137 61.3724C336.689 62.9628 336.068 64.4635 335.277 65.8744C334.485 67.2853 333.522 68.6064 332.387 69.8377C331.252 71.0314 329.999 72.0587 328.629 72.9197C327.26 73.7807 325.773 74.4753 324.169 75.0036L326.775 79.9036C324.061 81.1361 321.26 81.9194 318.373 82.2536C315.486 82.5878 312.644 82.5072 309.849 82.0118C307.053 81.5164 304.352 80.6333 301.743 79.3623C299.135 78.0914 296.752 76.4295 294.594 74.3766C292.629 72.507 290.979 70.4604 289.644 68.2368C288.309 66.0132 287.301 63.697 286.62 61.2882C285.938 58.8793 285.556 56.4067 285.473 53.8703C285.39 51.3339 285.647 48.8456 286.244 46.4053C286.84 43.9651 287.739 41.5926 288.94 39.2879C290.142 36.9832 291.677 34.8489 293.545 32.8851ZM310.739 70.3696C311.234 69.8498 311.595 69.2768 311.824 68.6507C312.053 68.0246 312.159 67.3921 312.143 66.7532C312.126 66.1143 311.988 65.469 311.727 64.8173C311.466 64.1656 311.076 63.6111 310.557 63.1537C310.037 62.6588 309.463 62.2969 308.837 62.0678C308.211 61.8388 307.578 61.7321 306.939 61.7478C306.3 61.7635 305.655 61.9016 305.003 62.162C304.352 62.4225 303.798 62.8122 303.341 63.3311C302.846 63.8509 302.485 64.4239 302.256 65.05C302.027 65.6761 301.921 66.3086 301.937 66.9475C301.953 67.5864 302.092 68.2317 302.353 68.8834C302.614 69.5351 303.004 70.0897 303.523 70.547C304.043 71.0419 304.617 71.4038 305.243 71.6329C305.869 71.8619 306.502 71.9686 307.141 71.9529C307.78 71.9372 308.425 71.7991 309.076 71.5387C309.728 71.2782 310.282 70.8886 310.739 70.3696ZM303.158 56.1152C303.653 55.5953 304.014 55.0223 304.243 54.3962C304.472 53.7701 304.578 53.1376 304.562 52.4987C304.546 51.8598 304.407 51.2145 304.146 50.5628C303.885 49.9111 303.495 49.3566 302.976 48.8993C302.456 48.4044 301.882 48.0424 301.256 47.8133C300.63 47.5843 299.997 47.4776 299.358 47.4933C298.719 47.509 298.074 47.6471 297.423 47.9075C296.771 48.168 296.217 48.5577 295.76 49.0766C295.265 49.5964 294.904 50.1694 294.675 50.7955C294.446 51.4216 294.34 52.0541 294.356 52.6931C294.372 53.332 294.511 53.9773 294.772 54.629C295.033 55.2807 295.423 55.8352 295.942 56.2925C296.462 56.7874 297.036 57.1494 297.662 57.3784C298.288 57.6075 298.921 57.7141 299.56 57.6984C300.199 57.6827 300.844 57.5447 301.495 57.2842C302.147 57.0238 302.701 56.6341 303.158 56.1152ZM328.688 66.3184C329.64 65.3172 330.431 64.2166 331.058 63.0166C331.686 61.8166 332.152 60.5359 332.456 59.1746L310.192 48.7219L321.741 70.4377C323.066 70.0479 324.312 69.5096 325.48 68.8228C326.647 68.136 327.716 67.3012 328.688 66.3184ZM310.009 41.506C310.53 42.0009 311.103 42.3629 311.729 42.5919C312.355 42.821 312.988 42.9277 313.627 42.912C314.266 42.8963 314.911 42.7582 315.563 42.4977C316.214 42.2373 316.768 41.8476 317.225 41.3287C317.72 40.8089 318.082 40.2359 318.31 39.6098C318.539 38.9836 318.645 38.3511 318.629 37.7122C318.613 37.0733 318.474 36.428 318.213 35.7763C317.952 35.1246 317.562 34.5701 317.043 34.1128C316.523 33.6179 315.95 33.2559 315.323 33.0269C314.697 32.7978 314.064 32.6911 313.425 32.7068C312.786 32.7225 312.141 32.8606 311.49 33.1211C310.838 33.3815 310.284 33.7712 309.827 34.2901C309.332 34.8099 308.971 35.3829 308.742 36.009C308.514 36.6352 308.407 37.2677 308.424 37.9066C308.44 38.5455 308.578 39.1908 308.839 39.8425C309.1 40.4942 309.49 41.0487 310.009 41.506ZM331.84 48.1899C332.334 47.6701 332.696 47.0971 332.925 46.471C333.153 45.8449 333.26 45.2124 333.243 44.5735C333.227 43.9346 333.089 43.2893 332.828 42.6376C332.567 41.9859 332.177 41.4314 331.658 40.974C331.137 40.4791 330.564 40.1172 329.938 39.8881C329.311 39.6591 328.679 39.5524 328.04 39.5681C327.401 39.5838 326.756 39.7219 326.104 39.9823C325.453 40.2428 324.898 40.6325 324.441 41.1514C323.947 41.6712 323.585 42.2442 323.357 42.8703C323.128 43.4964 323.022 44.1289 323.038 44.7678C323.054 45.4068 323.193 46.0521 323.454 46.7038C323.715 47.3554 324.105 47.91 324.624 48.3673C325.144 48.8622 325.717 49.2241 326.344 49.4532C326.97 49.6822 327.603 49.7889 328.242 49.7732C328.88 49.7575 329.526 49.6194 330.177 49.359C330.829 49.0985 331.383 48.7089 331.84 48.1899ZM283.171 40.8963C281.784 39.5766 280.758 38.0506 280.094 36.3182L272.229 36.4833L272.1 31.4096L279.204 31.235C279.276 29.6538 279.605 28.1509 280.19 26.7263C280.774 25.3017 281.616 24.0118 282.715 22.8566C283.814 21.7014 285.06 20.7964 286.454 20.1417C287.848 19.4869 289.332 19.0838 290.908 18.9322L290.728 11.8291L295.802 11.7044L296.029 19.5679C297.792 20.1451 299.368 21.0935 300.755 22.4133C301.005 22.6515 301.237 22.8903 301.45 23.1295C301.663 23.3687 301.867 23.6363 302.063 23.9324C300.072 24.7898 298.19 25.8232 296.415 27.0326C294.641 28.242 293.002 29.6361 291.5 31.2149C290.017 32.7744 288.715 34.4705 287.596 36.3031C286.476 38.1357 285.529 40.0769 284.753 42.1267C284.485 41.9452 284.227 41.7541 283.977 41.5534C283.728 41.3527 283.459 41.1337 283.171 40.8963Z" fill="#DDD347"/>
<path fill-rule="evenodd" clip-rule="evenodd" d="M293.466 33.6257C295.454 31.7837 297.6 30.2675 299.902 29.0772C302.205 27.8869 304.579 27.0285 307.026 26.5022C309.472 25.9758 311.964 25.7522 314.5 25.8312C317.037 25.9103 319.504 26.3253 321.902 27.0762C324.3 27.8272 326.612 28.8758 328.837 30.222C331.062 31.5682 333.096 33.2363 334.94 35.2262C336.964 37.4112 338.604 39.8071 339.859 42.4139C341.115 45.0207 341.962 47.734 342.401 50.5539C342.839 53.3737 342.873 56.2249 342.5 59.1075C342.127 61.9901 341.307 64.7801 340.038 67.4776L309.08 50.4813L323.663 82.6473C320.876 83.706 318.032 84.3111 315.129 84.4625C312.226 84.6138 309.396 84.3541 306.637 83.6833C303.879 83.0125 301.238 81.9606 298.715 80.5276C296.192 79.0947 293.919 77.2857 291.895 75.1007C290.051 73.1108 288.534 70.9642 287.342 68.6608C286.15 66.3575 285.29 63.9822 284.762 61.5352C284.234 59.0881 284.009 56.5963 284.086 54.0598C284.163 51.5232 284.576 49.0561 285.326 46.6583C286.075 44.2605 287.122 41.9495 288.466 39.7252C289.811 37.5009 291.477 35.4678 293.466 33.6257ZM309.451 70.4734C309.184 71.0838 308.787 71.6329 308.26 72.1205C307.771 72.6095 307.194 72.9634 306.527 73.1823C305.86 73.4011 305.208 73.4982 304.569 73.4735C303.93 73.4489 303.306 73.3025 302.695 73.0344C302.085 72.7663 301.535 72.3689 301.047 71.8421C300.558 71.353 300.204 70.7749 299.984 70.1081C299.765 69.4412 299.668 68.7885 299.692 68.1498C299.716 67.5111 299.862 66.8866 300.13 66.2761C300.397 65.6657 300.794 65.1167 301.321 64.6291C301.809 64.14 302.387 63.7861 303.054 63.5673C303.721 63.3485 304.373 63.2514 305.012 63.276C305.65 63.3007 306.275 63.447 306.886 63.7152C307.496 63.9833 308.046 64.3807 308.533 64.9074C309.023 65.3966 309.377 65.9746 309.596 66.6415C309.816 67.3083 309.913 67.9611 309.889 68.5997C309.865 69.2384 309.719 69.863 309.451 70.4734ZM302.785 55.769C302.517 56.3794 302.12 56.9284 301.594 57.416C301.105 57.9051 300.527 58.259 299.861 58.4778C299.194 58.6967 298.541 58.7938 297.903 58.7691C297.264 58.7445 296.639 58.5981 296.029 58.33C295.418 58.0619 294.869 57.6644 294.381 57.1377C293.892 56.6485 293.537 56.0705 293.318 55.4037C293.099 54.7368 293.001 54.084 293.025 53.4454C293.05 52.8067 293.196 52.1822 293.463 51.5717C293.731 50.9613 294.128 50.4123 294.654 49.9247C295.143 49.4356 295.721 49.0817 296.387 48.8629C297.054 48.644 297.707 48.5469 298.345 48.5716C298.984 48.5962 299.609 48.7426 300.219 49.0107C300.83 49.2788 301.379 49.6763 301.867 50.203C302.356 50.6922 302.711 51.2702 302.93 51.9371C303.149 52.6039 303.247 53.2567 303.223 53.8953C303.199 54.534 303.053 55.1585 302.785 55.769ZM311.001 44.4606C310.39 44.1925 309.841 43.795 309.353 43.2683C308.864 42.7791 308.509 42.2011 308.29 41.5343C308.071 40.8674 307.973 40.2146 307.998 39.576C308.022 38.9373 308.168 38.3128 308.435 37.7023C308.703 37.0919 309.1 36.5429 309.626 36.0553C310.115 35.5662 310.693 35.2123 311.36 34.9935C312.026 34.7746 312.679 34.6776 313.318 34.7022C313.956 34.7268 314.581 34.8732 315.191 35.1413C315.802 35.4094 316.351 35.8069 316.839 36.3336C317.329 36.8228 317.683 37.4008 317.902 38.0677C318.122 38.7345 318.219 39.3873 318.195 40.0259C318.171 40.6646 318.025 41.2891 317.757 41.8996C317.489 42.51 317.092 43.0591 316.566 43.5466C316.077 44.0357 315.499 44.3896 314.833 44.6084C314.166 44.8273 313.514 44.9244 312.875 44.8997C312.236 44.8751 311.612 44.7287 311.001 44.4606ZM331.91 49.6693C331.642 50.2798 331.245 50.8288 330.718 51.3164C330.23 51.8054 329.652 52.1594 328.985 52.3782C328.319 52.597 327.666 52.6941 327.027 52.6694C326.389 52.6448 325.764 52.4984 325.153 52.2303C324.543 51.9622 323.994 51.5648 323.506 51.038C323.016 50.5489 322.662 49.9708 322.443 49.304C322.223 48.6371 322.126 47.9844 322.15 47.3457C322.174 46.7071 322.32 46.0825 322.588 45.4721C322.855 44.8616 323.253 44.3126 323.779 43.825C324.268 43.3359 324.845 42.982 325.512 42.7632C326.179 42.5444 326.831 42.4473 327.47 42.4719C328.109 42.4966 328.733 42.6429 329.344 42.9111C329.955 43.1792 330.504 43.5766 330.992 44.1033C331.481 44.5925 331.835 45.1705 332.055 45.8374C332.274 46.5042 332.372 47.157 332.347 47.7957C332.323 48.4343 332.177 49.0589 331.91 49.6693Z" fill="#CE6C9E"/>
<path fill-rule="evenodd" clip-rule="evenodd" d="M323.051 81.2969C321.518 81.7511 319.959 82.07 318.374 82.2535C315.486 82.5877 312.645 82.5071 309.85 82.0117C307.054 81.5163 304.352 80.6331 301.744 79.3622C299.136 78.0913 296.753 76.4294 294.595 74.3764C292.63 72.5068 290.98 70.4602 289.645 68.2367C288.31 66.0131 287.302 63.6969 286.621 61.288C285.939 58.8792 285.557 56.4066 285.474 53.8702C285.391 51.3338 285.648 48.8455 286.244 46.4052C286.841 43.965 287.74 41.5925 288.941 39.2878C289.252 38.6923 289.584 38.1082 289.939 37.5355C290.974 36.1481 292.149 34.8445 293.466 33.6248C295.455 31.7828 297.6 30.2666 299.902 29.0763C302.205 27.8859 304.579 27.0276 307.026 26.5012C309.472 25.9749 311.964 25.7512 314.5 25.8303C317.037 25.9094 319.504 26.3244 321.902 27.0753C324.301 27.8262 326.612 28.8748 328.837 30.2211C331.062 31.5673 333.097 33.2354 334.94 35.2253C336.964 37.4103 338.604 39.8061 339.859 42.413C341.115 45.0198 341.962 47.7331 342.401 50.5529C342.84 53.3727 342.873 56.2239 342.5 59.1065C342.31 60.5807 342.002 62.0306 341.577 63.4563L337.138 61.3722C336.771 62.672 336.29 63.9118 335.694 65.0917L331.245 62.649C331.78 61.5559 332.184 60.3978 332.457 59.1745L310.193 48.7218L311.972 52.0682L309.08 50.4804L323.051 81.2969ZM311.825 68.6506C311.596 69.2767 311.234 69.8497 310.74 70.3695C310.283 70.8884 309.729 71.2781 309.077 71.5386C308.946 71.5909 308.815 71.6383 308.685 71.6808C308.554 71.8322 308.413 71.9784 308.261 72.1195C307.772 72.6086 307.194 72.9625 306.527 73.1813C305.861 73.4001 305.208 73.4972 304.569 73.4726C303.931 73.4479 303.306 73.3016 302.696 73.0335C302.085 72.7653 301.536 72.3679 301.048 71.8412C300.558 71.352 300.204 70.774 299.985 70.1071C299.765 69.4403 299.668 68.7875 299.692 68.1489C299.716 67.5102 299.862 66.8857 300.13 66.2752C300.398 65.6648 300.795 65.1157 301.321 64.6281C301.81 64.1391 302.387 63.7852 303.054 63.5663C303.089 63.555 303.123 63.5439 303.158 63.5332C303.217 63.4649 303.278 63.3975 303.341 63.3309C303.798 62.812 304.353 62.4223 305.004 62.1619C305.656 61.9014 306.301 61.7634 306.94 61.7477C307.579 61.732 308.211 61.8386 308.838 62.0677C309.464 62.2967 310.037 62.6587 310.558 63.1536C311.077 63.6109 311.467 64.1654 311.728 64.8171C311.989 65.4688 312.127 66.1141 312.143 66.753C312.16 67.3919 312.053 68.0245 311.825 68.6506ZM304.244 54.3961C304.015 55.0222 303.654 55.5952 303.159 56.115C302.804 56.5185 302.39 56.8438 301.917 57.0911C301.815 57.2019 301.708 57.3099 301.594 57.4151C301.105 57.9041 300.528 58.2581 299.861 58.4769C299.194 58.6957 298.542 58.7928 297.903 58.7682C297.264 58.7435 296.64 58.5971 296.029 58.329C295.419 58.0609 294.869 57.6635 294.381 57.1368C293.892 56.6476 293.538 56.0696 293.318 55.4027C293.099 54.7359 293.002 54.0831 293.026 53.4444C293.05 52.8058 293.196 52.1812 293.463 51.5708C293.731 50.9603 294.128 50.4113 294.655 49.9237C294.961 49.6166 295.303 49.3628 295.681 49.1623C295.707 49.1335 295.733 49.1049 295.761 49.0764C296.218 48.5575 296.772 48.1678 297.423 47.9074C298.075 47.6469 298.72 47.5089 299.359 47.4932C299.998 47.4775 300.631 47.5841 301.257 47.8132C301.883 48.0422 302.456 48.4042 302.977 48.8991C303.496 49.3564 303.886 49.9109 304.147 50.5626C304.408 51.2143 304.546 51.8596 304.562 52.4985C304.579 53.1375 304.472 53.77 304.244 54.3961ZM308.423 37.7305C308.163 38.3317 308.022 38.9465 307.998 39.575C307.974 40.2137 308.071 40.8665 308.29 41.5333C308.51 42.2002 308.864 42.7782 309.353 43.2674C309.841 43.7941 310.391 44.1915 311.001 44.4596C311.612 44.7278 312.237 44.8741 312.875 44.8988C313.514 44.9234 314.166 44.8263 314.833 44.6075C315.5 44.3887 316.078 44.0348 316.566 43.5457C317.093 43.0581 317.49 42.5091 317.757 41.8986C318.025 41.2882 318.171 40.6636 318.195 40.025C318.197 39.9798 318.198 39.9346 318.198 39.8893C318.239 39.7973 318.276 39.7041 318.311 39.6096C318.54 38.9835 318.646 38.351 318.63 37.7121C318.614 37.0732 318.475 36.4279 318.214 35.7762C317.953 35.1245 317.563 34.57 317.044 34.1127C316.524 33.6178 315.95 33.2558 315.324 33.0267C314.698 32.7977 314.065 32.691 313.426 32.7067C312.787 32.7224 312.142 32.8605 311.49 33.1209C310.839 33.3814 310.285 33.7711 309.828 34.29C309.333 34.8098 308.972 35.3828 308.743 36.0089C308.535 36.5775 308.429 37.1514 308.423 37.7305ZM332.351 47.5682C332.593 47.2226 332.785 46.8569 332.925 46.4709C333.154 45.8448 333.26 45.2122 333.244 44.5733C333.228 43.9344 333.089 43.2891 332.829 42.6374C332.568 41.9857 332.178 41.4312 331.658 40.9739C331.138 40.479 330.565 40.117 329.939 39.888C329.312 39.6589 328.68 39.5523 328.041 39.568C327.402 39.5837 326.757 39.7217 326.105 39.9822C325.453 40.2426 324.899 40.6323 324.442 41.1512C323.948 41.6711 323.586 42.244 323.358 42.8702C323.14 43.4647 323.034 44.0649 323.037 44.671C322.86 44.9248 322.711 45.1915 322.588 45.4711C322.32 46.0816 322.175 46.7061 322.15 47.3448C322.126 47.9834 322.224 48.6362 322.443 49.303C322.662 49.9699 323.017 50.5479 323.506 51.0371C323.994 51.5638 324.543 51.9613 325.154 52.2294C325.764 52.4975 326.389 52.6439 327.028 52.6685C327.666 52.6931 328.319 52.5961 328.986 52.3772C329.652 52.1584 330.23 51.8045 330.719 51.3154C331.245 50.8278 331.642 50.2788 331.91 49.6684C332.177 49.0579 332.323 48.4334 332.348 47.7947C332.35 47.7194 332.352 47.6439 332.351 47.5682Z" fill="#D3592C"/>
<path d="M44.9049 122.281L50.0732 150.162L70.6421 130.644L58.4357 156.237L86.5485 152.537L61.6299 166.068L86.5485 179.599L58.4357 175.899L70.6421 201.492L50.0732 181.974L44.9049 209.855L39.7366 181.974L19.1677 201.492L31.374 175.899L3.26124 179.599L28.1798 166.068L3.26124 152.537L31.374 156.237L19.1677 130.644L39.7366 150.162L44.9049 122.281Z" fill="#AD6095"/>
<path d="M43.7544 121.783L49.9894 149.444L69.7937 129.151L58.5791 155.194L86.5291 150.417L62.1484 164.895L87.5681 177.459L59.334 174.841L72.5141 199.947L51.2109 181.233L47.1169 209.291L40.8819 181.63L21.0776 201.923L32.2923 175.88L4.34229 180.657L28.723 166.179L3.30322 153.615L31.5374 156.233L18.3573 131.127L39.6604 149.841L43.7544 121.783Z" fill="#76ACB6"/>
<path fill-rule="evenodd" clip-rule="evenodd" d="M20.1486 132.701L36.1326 146.742L39.7363 150.161L44.4362 124.808L49.7116 148.212L50.073 150.161L68.1203 133.036L58.5789 155.194L58.9645 155.128L58.4355 156.237L81.9367 153.144L62.1482 164.895L63.0077 165.32L61.6297 166.068L81.586 176.904L59.3338 174.841L59.997 176.104L58.4355 175.899L68.0236 196.002L51.2107 181.233L50.9774 182.833L50.073 181.974L45.9602 204.16L40.8817 181.63L39.8655 182.671L39.7363 181.974L22.7111 198.13L32.2921 175.88L31.302 176.049L31.3738 175.899L6.93914 179.115L28.7228 166.179L24.9539 164.316L5.64648 153.832L30.878 156.172L31.3738 156.237L31.3642 156.217L31.5371 156.233L29.7308 152.792L20.1486 132.701Z" fill="#715A95"/>
<path d="M98.4121 129.669H113.097V144.354H98.4121V129.669Z" fill="#AD6095"/>
<path d="M113.097 144.354H127.782V159.039H113.097V144.354Z" fill="#AD6095"/>
<path d="M142.467 144.354H157.152V159.039H142.467V144.354Z" fill="#AD6095"/>
<path d="M157.152 129.669H171.837V144.354H157.152V129.669Z" fill="#AD6095"/>
<path d="M127.782 129.669H142.467V144.354H127.782V129.669Z" fill="#AD6095"/>
<path d="M98.4121 159.039H113.097V173.724H98.4121V159.039Z" fill="#AD6095"/>
<path d="M113.097 173.724H127.782V188.408H113.097V173.724Z" fill="#AD6095"/>
<path d="M142.467 173.724H157.152V188.408H142.467V173.724Z" fill="#AD6095"/>
<path d="M157.152 159.039H171.837V173.724H157.152V159.039Z" fill="#AD6095"/>
<path d="M127.782 159.039H142.467V173.724H127.782V159.039Z" fill="#AD6095"/>
<path d="M98.4121 188.408H113.097V203.093H98.4121V188.408Z" fill="#AD6095"/>
<path d="M157.152 188.408H171.837V203.093H157.152V188.408Z" fill="#AD6095"/>
<path d="M127.782 188.408H142.467V203.093H127.782V188.408Z" fill="#AD6095"/>
<path d="M114.495 127.98H129.18V142.665H114.495V127.98Z" fill="#76ACB6"/>
<path d="M143.865 127.98H158.55V142.665H143.865V127.98Z" fill="#76ACB6"/>
<path d="M129.18 142.665H143.865V157.35H129.18V142.665Z" fill="#76ACB6"/>
<path d="M114.495 157.35H129.18V172.035H114.495V157.35Z" fill="#76ACB6"/>
<path d="M99.8105 142.665H114.495V157.35H99.8105V142.665Z" fill="#76ACB6"/>
<path d="M129.18 172.035H143.865V186.72H129.18V172.035Z" fill="#76ACB6"/>
<path d="M143.865 157.35H158.55V172.035H143.865V157.35Z" fill="#76ACB6"/>
<path d="M158.55 142.665H173.235V157.35H158.55V142.665Z" fill="#76ACB6"/>
<path d="M158.55 172.035H173.235V186.72H158.55V172.035Z" fill="#76ACB6"/>
<path d="M143.865 186.72H158.55V201.405H143.865V186.72Z" fill="#76ACB6"/>
<path d="M114.495 186.72H129.18V201.405H114.495V186.72Z" fill="#76ACB6"/>
<path d="M99.8105 172.035H114.495V186.72H99.8105V172.035Z" fill="#76ACB6"/>
<path fill-rule="evenodd" clip-rule="evenodd" d="M99.8105 144.354V142.666H113.097V144.354H99.8105ZM113.097 157.351V144.354H114.495V157.351H113.097ZM158.55 188.408V201.406H157.152V188.408H158.55ZM129.18 129.669H127.782V142.666H129.18V144.354H142.467V157.351H143.865V159.039H157.152V172.036H158.55V173.724H171.837V172.036H158.55V159.039H157.152V157.351H143.865V144.354H142.467V142.666H129.18V129.669ZM158.55 144.354H171.837V142.666H158.55V129.669H157.152V142.666H158.55V144.354ZM143.865 173.724V186.721H142.467V173.724H143.865ZM129.18 173.724H142.467V172.036H129.18V159.039H127.782V157.351H114.495V159.039H127.782V172.036H129.18V173.724ZM127.782 186.721V188.408H114.495V186.721H127.782ZM114.495 173.724V186.721H113.097V173.724H114.495ZM113.097 172.036H99.8105V173.724H113.097V172.036ZM129.18 188.408V201.406H127.782V188.408H129.18ZM157.152 186.721V188.408H143.865V186.721H157.152Z" fill="#715A95"/>
<path fill-rule="evenodd" clip-rule="evenodd" d="M226.709 212.048C252.078 212.048 272.643 191.483 272.643 166.114C272.643 140.746 252.078 120.181 226.709 120.181C201.341 120.181 180.775 140.746 180.775 166.114C180.775 191.483 201.341 212.048 226.709 212.048ZM226.709 206.559C249.046 206.559 267.154 188.452 267.154 166.114C267.154 143.777 249.046 125.67 226.709 125.67C204.372 125.67 186.264 143.777 186.264 166.114C186.264 188.452 204.372 206.559 226.709 206.559Z" fill="#DDD347"/>
<path fill-rule="evenodd" clip-rule="evenodd" d="M226.854 203.382C247.356 203.382 263.976 186.761 263.976 166.259C263.976 145.757 247.356 129.136 226.854 129.136C206.351 129.136 189.731 145.757 189.731 166.259C189.731 186.761 206.351 203.382 226.854 203.382ZM226.998 198.759C244.868 198.759 259.354 184.273 259.354 166.403C259.354 148.534 244.868 134.047 226.998 134.047C209.128 134.047 194.642 148.534 194.642 166.403C194.642 184.273 209.128 198.759 226.998 198.759Z" fill="#DDD347"/>
<path fill-rule="evenodd" clip-rule="evenodd" d="M226.709 193.848C242.026 193.848 254.443 181.431 254.443 166.114C254.443 150.798 242.026 138.381 226.709 138.381C211.392 138.381 198.976 150.798 198.976 166.114C198.976 181.431 211.392 193.848 226.709 193.848ZM226.709 189.226C239.473 189.226 249.821 178.879 249.821 166.114C249.821 153.35 239.473 143.003 226.709 143.003C213.945 143.003 203.598 153.35 203.598 166.114C203.598 178.879 213.945 189.226 226.709 189.226Z" fill="#DDD347"/>
<path fill-rule="evenodd" clip-rule="evenodd" d="M226.709 184.604C236.92 184.604 245.198 176.326 245.198 166.114C245.198 155.903 236.92 147.625 226.709 147.625C216.498 147.625 208.22 155.903 208.22 166.114C208.22 176.326 216.498 184.604 226.709 184.604ZM226.709 181.137C235.006 181.137 241.732 174.346 241.732 165.97C241.732 157.594 235.006 150.803 226.709 150.803C218.413 150.803 211.687 157.594 211.687 165.97C211.687 174.346 218.413 181.137 226.709 181.137Z" fill="#DDD347"/>
<path fill-rule="evenodd" clip-rule="evenodd" d="M228.154 210.894C253.522 210.894 274.087 190.328 274.087 164.96C274.087 139.591 253.522 119.026 228.154 119.026C202.785 119.026 182.22 139.591 182.22 164.96C182.22 190.328 202.785 210.894 228.154 210.894ZM228.154 205.405C250.491 205.405 268.598 187.297 268.598 164.96C268.598 142.623 250.491 124.515 228.154 124.515C205.816 124.515 187.709 142.623 187.709 164.96C187.709 187.297 205.816 205.405 228.154 205.405Z" fill="#76ACB6"/>
<path fill-rule="evenodd" clip-rule="evenodd" d="M228.298 202.227C248.8 202.227 265.421 185.606 265.421 165.104C265.421 144.602 248.8 127.982 228.298 127.982C207.796 127.982 191.175 144.602 191.175 165.104C191.175 185.606 207.796 202.227 228.298 202.227ZM228.442 197.604C246.312 197.604 260.798 183.118 260.798 165.249C260.798 147.379 246.312 132.893 228.442 132.893C210.573 132.893 196.087 147.379 196.087 165.249C196.087 183.118 210.573 197.604 228.442 197.604Z" fill="#76ACB6"/>
<path fill-rule="evenodd" clip-rule="evenodd" d="M228.154 192.693C243.47 192.693 255.887 180.277 255.887 164.96C255.887 149.643 243.47 137.226 228.154 137.226C212.837 137.226 200.42 149.643 200.42 164.96C200.42 180.277 212.837 192.693 228.154 192.693ZM228.154 188.071C240.918 188.071 251.265 177.724 251.265 164.96C251.265 152.196 240.918 141.848 228.154 141.848C215.39 141.848 205.042 152.196 205.042 164.96C205.042 177.724 215.39 188.071 228.154 188.071Z" fill="#76ACB6"/>
<path fill-rule="evenodd" clip-rule="evenodd" d="M228.154 183.449C238.365 183.449 246.643 175.171 246.643 164.96C246.643 154.748 238.365 146.471 228.154 146.471C217.942 146.471 209.664 154.748 209.664 164.96C209.664 175.171 217.942 183.449 228.154 183.449ZM228.154 179.982C236.45 179.982 243.176 173.192 243.176 164.815C243.176 156.439 236.45 149.648 228.154 149.648C219.857 149.648 213.131 156.439 213.131 164.815C213.131 173.192 219.857 179.982 228.154 179.982Z" fill="#76ACB6"/>
<path fill-rule="evenodd" clip-rule="evenodd" d="M256.102 201.415C248.359 207.359 238.669 210.893 228.154 210.893C202.785 210.893 182.22 190.327 182.22 164.959C182.22 150.77 188.653 138.085 198.761 129.659C206.504 123.714 216.194 120.181 226.709 120.181C252.078 120.181 272.643 140.746 272.643 166.114C272.643 180.303 266.21 192.989 256.102 201.415ZM202.189 133.948C192.509 141.338 186.264 152.997 186.264 166.114C186.264 188.452 204.372 206.559 226.709 206.559C236.593 206.559 245.649 203.014 252.674 197.126C262.353 189.736 268.598 178.077 268.598 164.959C268.598 142.622 250.491 124.514 228.154 124.514C218.27 124.514 209.214 128.059 202.189 133.948ZM250.744 194.674C244.51 199.413 236.733 202.226 228.298 202.226C207.796 202.226 191.175 185.606 191.175 165.103C191.175 153.7 196.317 143.498 204.408 136.688C210.641 131.949 218.419 129.136 226.854 129.136C247.356 129.136 263.976 145.757 263.976 166.259C263.976 177.662 258.835 187.864 250.744 194.674ZM207.529 140.558C199.702 146.464 194.642 155.843 194.642 166.403C194.642 184.273 209.129 198.759 226.998 198.759C234.972 198.759 242.272 195.875 247.912 191.093C255.739 185.187 260.798 175.808 260.798 165.248C260.798 147.378 246.312 132.892 228.442 132.892C220.469 132.892 213.169 135.776 207.529 140.558ZM210.127 143.882C214.752 140.427 220.492 138.381 226.709 138.381C242.026 138.381 254.443 150.798 254.443 166.114C254.443 174.549 250.677 182.105 244.736 187.191C240.111 190.647 234.371 192.693 228.154 192.693C212.837 192.693 200.42 180.276 200.42 164.959C200.42 156.524 204.185 148.969 210.127 143.882ZM241.848 183.578C247.56 179.37 251.265 172.597 251.265 164.959C251.265 152.195 240.918 141.848 228.154 141.848C222.363 141.848 217.07 143.977 213.015 147.496C207.303 151.704 203.598 158.476 203.598 166.114C203.598 178.879 213.945 189.226 226.709 189.226C232.5 189.226 237.793 187.096 241.848 183.578ZM238.96 179.963C235.92 182.156 232.188 183.448 228.154 183.448C217.942 183.448 209.664 175.17 209.664 164.959C209.664 159.447 212.077 154.498 215.903 151.11C218.943 148.917 222.675 147.625 226.709 147.625C236.921 147.625 245.198 155.903 245.198 166.114C245.198 171.627 242.786 176.576 238.96 179.963ZM218.125 153.521C214.233 156.262 211.687 160.816 211.687 165.97C211.687 174.346 218.413 181.137 226.709 181.137C230.563 181.137 234.078 179.672 236.737 177.263C240.629 174.522 243.176 169.969 243.176 164.814C243.176 156.438 236.45 149.648 228.154 149.648C224.3 149.648 220.785 151.113 218.125 153.521Z" fill="#7CA835"/>
<path d="M320.814 141.702L354.75 200.481H286.878L320.814 141.702Z" fill="#CE6C9E"/>
<path d="M320.814 189.372L286.878 130.593H354.75L320.814 189.372Z" fill="#DDD347"/>
<path fill-rule="evenodd" clip-rule="evenodd" d="M307.054 165.537L320.815 189.372L334.576 165.538L320.815 141.702L307.054 165.537Z" fill="#D3592C"/>
</svg>
