<svg width="50" height="40" viewBox="0 0 50 40" fill="none" xmlns="http://www.w3.org/2000/svg">
<path fill-rule="evenodd" clip-rule="evenodd" d="M0 4C0 1.79086 1.79086 0 4 0H46C48.2091 0 50 1.79086 50 4C50 6.20914 48.2091 8 46 8H4C1.79086 8 0 6.20914 0 4ZM0 20C0 17.7909 1.79086 16 4 16H46C48.2091 16 50 17.7909 50 20C50 22.2091 48.2091 24 46 24H4C1.79086 24 0 22.2091 0 20ZM0 36C0 33.7909 1.79086 32 4 32H46C48.2091 32 50 33.7909 50 36C50 38.2091 48.2091 40 46 40H4C1.79086 40 0 38.2091 0 36Z" fill="#D3592C"/>
</svg>
