<svg width="41" height="41" viewBox="0 0 41 41" fill="none" xmlns="http://www.w3.org/2000/svg">
<path d="M11.975 0.398438H28.775C35.175 0.398438 40.375 5.59844 40.375 11.9984V28.7984C40.375 31.875 39.1529 34.8255 36.9774 37.0009C34.802 39.1763 31.8515 40.3984 28.775 40.3984H11.975C5.575 40.3984 0.375 35.1984 0.375 28.7984V11.9984C0.375 8.92193 1.59714 5.97142 3.77256 3.796C5.94798 1.62058 8.89849 0.398438 11.975 0.398438ZM11.575 4.39844C9.66544 4.39844 7.83409 5.15701 6.48383 6.50727C5.13357 7.85753 4.375 9.68888 4.375 11.5984V29.1984C4.375 33.1784 7.595 36.3984 11.575 36.3984H29.175C31.0846 36.3984 32.9159 35.6399 34.2662 34.2896C35.6164 32.9393 36.375 31.108 36.375 29.1984V11.5984C36.375 7.61844 33.155 4.39844 29.175 4.39844H11.575ZM30.875 7.39844C31.538 7.39844 32.1739 7.66183 32.6428 8.13067C33.1116 8.59951 33.375 9.2354 33.375 9.89844C33.375 10.5615 33.1116 11.1974 32.6428 11.6662C32.1739 12.135 31.538 12.3984 30.875 12.3984C30.212 12.3984 29.5761 12.135 29.1072 11.6662C28.6384 11.1974 28.375 10.5615 28.375 9.89844C28.375 9.2354 28.6384 8.59951 29.1072 8.13067C29.5761 7.66183 30.212 7.39844 30.875 7.39844ZM20.375 10.3984C23.0272 10.3984 25.5707 11.452 27.4461 13.3274C29.3214 15.2027 30.375 17.7463 30.375 20.3984C30.375 23.0506 29.3214 25.5941 27.4461 27.4695C25.5707 29.3449 23.0272 30.3984 20.375 30.3984C17.7228 30.3984 15.1793 29.3449 13.3039 27.4695C11.4286 25.5941 10.375 23.0506 10.375 20.3984C10.375 17.7463 11.4286 15.2027 13.3039 13.3274C15.1793 11.452 17.7228 10.3984 20.375 10.3984ZM20.375 14.3984C18.7837 14.3984 17.2576 15.0306 16.1324 16.1558C15.0071 17.281 14.375 18.8071 14.375 20.3984C14.375 21.9897 15.0071 23.5159 16.1324 24.6411C17.2576 25.7663 18.7837 26.3984 20.375 26.3984C21.9663 26.3984 23.4924 25.7663 24.6176 24.6411C25.7429 23.5159 26.375 21.9897 26.375 20.3984C26.375 18.8071 25.7429 17.281 24.6176 16.1558C23.4924 15.0306 21.9663 14.3984 20.375 14.3984Z" fill="#FFF9EE"/>
</svg>
