<svg width="344" height="80" viewBox="0 0 344 80" fill="none" xmlns="http://www.w3.org/2000/svg">
<path d="M27.1916 27.5722C28.7686 25.9147 30.4951 24.5232 32.3712 23.3979C34.2473 22.2725 36.2018 21.423 38.2347 20.8493C40.2675 20.2756 42.3544 19.9545 44.4953 19.8861C46.6362 19.8176 48.7367 20.0358 50.7969 20.5406C52.857 21.0455 54.8602 21.8057 56.8063 22.8212C58.7524 23.8367 60.5548 25.1335 62.2135 26.7116C64.0349 28.4444 65.5439 30.3753 66.7405 32.5044C67.937 34.6334 68.7952 36.874 69.3149 39.226C69.8346 41.578 70.0144 43.978 69.854 46.4261C69.6937 48.8741 69.1512 51.2681 68.2263 53.608L63.986 51.6172C63.6073 52.9597 63.0838 54.2264 62.4156 55.4172C61.7473 56.6081 60.9344 57.7232 59.9766 58.7625C59.0181 59.77 57.9607 60.6372 56.8046 61.3639C55.6486 62.0906 54.3937 62.6769 53.04 63.1229L55.2396 67.2587C52.9487 68.299 50.5847 68.9602 48.1477 69.2423C45.7106 69.5244 43.3124 69.4564 40.9529 69.0382C38.5933 68.6201 36.3128 67.8746 34.1114 66.8019C31.9099 65.7291 29.8984 64.3264 28.077 62.5936C26.4183 61.0155 25.0255 59.2881 23.8988 57.4112C22.7722 55.5344 21.9212 53.5794 21.3461 51.5462C20.7709 49.5129 20.4483 47.4259 20.3783 45.285C20.3083 43.1442 20.525 41.0439 21.0285 38.9841C21.5319 36.9244 22.2907 34.9219 23.3049 32.9766C24.3191 31.0313 25.6146 29.2298 27.1916 27.5722ZM41.7043 59.2115C42.1217 58.7727 42.4269 58.2891 42.6199 57.7606C42.8128 57.2321 42.9025 56.6982 42.8889 56.159C42.8752 55.6197 42.7583 55.075 42.5381 54.5249C42.3178 53.9749 41.9886 53.5068 41.5503 53.1208C41.1112 52.7031 40.6273 52.3976 40.0987 52.2042C39.5701 52.0109 39.0361 51.9209 38.4968 51.9341C37.9575 51.9474 37.4129 52.0639 36.863 52.2837C36.3131 52.5036 35.8452 52.8325 35.4595 53.2705C35.0421 53.7093 34.7369 54.1929 34.5439 54.7214C34.351 55.2499 34.2613 55.7837 34.2749 56.323C34.2886 56.8623 34.4055 57.407 34.6257 57.957C34.846 58.5071 35.1752 58.9752 35.6135 59.3612C36.0526 59.7789 36.5365 60.0844 37.0651 60.2777C37.5937 60.4711 38.1277 60.5611 38.667 60.5479C39.2063 60.5346 39.7509 60.4181 40.3008 60.1982C40.8508 59.9784 41.3186 59.6495 41.7043 59.2115ZM35.3055 47.1798C35.723 46.741 36.0282 46.2574 36.2211 45.7289C36.4141 45.2005 36.5038 44.6666 36.4901 44.1273C36.4765 43.588 36.3596 43.0433 36.1393 42.4933C35.9191 41.9432 35.5898 41.4752 35.1515 41.0892C34.7125 40.6714 34.2286 40.3659 33.7 40.1726C33.1713 39.9792 32.6374 39.8892 32.0981 39.9024C31.5588 39.9157 31.0142 40.0322 30.4642 40.2521C29.9143 40.4719 29.4465 40.8008 29.0608 41.2388C28.6433 41.6776 28.3381 42.1612 28.1452 42.6897C27.9522 43.2182 27.8625 43.7521 27.8762 44.2914C27.8898 44.8306 28.0068 45.3753 28.227 45.9254C28.4472 46.4755 28.7765 46.9435 29.2148 47.3295C29.6538 47.7472 30.1377 48.0528 30.6663 48.2461C31.195 48.4394 31.7289 48.5295 32.2682 48.5162C32.8075 48.503 33.3521 48.3864 33.9021 48.1666C34.452 47.9467 34.9198 47.6178 35.3055 47.1798ZM56.8542 55.792C57.6582 54.9469 58.3251 54.018 58.855 53.0051C59.3849 51.9922 59.7781 50.9112 60.0347 49.7622L41.2423 40.9395L50.9904 59.269C52.109 58.9399 53.1608 58.4856 54.1461 57.9059C55.1313 57.3262 56.034 56.6215 56.8542 55.792ZM41.0883 34.8488C41.5274 35.2665 42.0113 35.5721 42.5399 35.7654C43.0686 35.9587 43.6025 36.0488 44.1418 36.0355C44.6811 36.0223 45.2257 35.9057 45.7756 35.6859C46.3256 35.4661 46.7934 35.1371 47.1791 34.6991C47.5965 34.2604 47.9017 33.7767 48.0947 33.2483C48.2877 32.7198 48.3773 32.1859 48.3637 31.6466C48.3501 31.1073 48.2331 30.5627 48.0129 30.0126C47.7927 29.4625 47.4634 28.9945 47.0251 28.6085C46.586 28.1908 46.1022 27.8852 45.5735 27.6919C45.0449 27.4986 44.5109 27.4085 43.9716 27.4218C43.4323 27.435 42.8877 27.5516 42.3378 27.7714C41.7879 27.9912 41.32 28.3202 40.9343 28.7582C40.5169 29.1969 40.2117 29.6806 40.0187 30.209C39.8258 30.7375 39.7361 31.2714 39.7498 31.8107C39.7634 32.35 39.8803 32.8946 40.1006 33.4447C40.3208 33.9948 40.65 34.4628 41.0883 34.8488ZM59.5146 40.4905C59.9321 40.0517 60.2373 39.5681 60.4302 39.0396C60.6232 38.5111 60.7129 37.9772 60.6992 37.4379C60.6856 36.8987 60.5687 36.354 60.3484 35.8039C60.1282 35.2538 59.7989 34.7858 59.3607 34.3998C58.9216 33.9821 58.4377 33.6765 57.9091 33.4832C57.3804 33.2899 56.8465 33.1998 56.3072 33.2131C55.7679 33.2263 55.2233 33.3429 54.6733 33.5627C54.1234 33.7826 53.6556 34.1115 53.2699 34.5495C52.8524 34.9882 52.5473 35.4719 52.3543 36.0004C52.1613 36.5288 52.0717 37.0627 52.0853 37.602C52.0989 38.1413 52.2159 38.6859 52.4361 39.236C52.6563 39.7861 52.9856 40.2541 53.4239 40.6401C53.863 41.0579 54.3468 41.3634 54.8755 41.5567C55.4041 41.7501 55.9381 41.8401 56.4773 41.8268C57.0166 41.8136 57.5612 41.697 58.1112 41.4772C58.6611 41.2574 59.1289 40.9285 59.5146 40.4905ZM18.435 34.3342C17.2641 33.2203 16.3983 31.9322 15.8376 30.47L9.19898 30.6093L9.09071 26.3268L15.0863 26.1795C15.1478 24.8448 15.4252 23.5762 15.9186 22.3738C16.4119 21.1714 17.1224 20.0826 18.05 19.1075C18.9776 18.1325 20.0296 17.3686 21.206 16.816C22.3824 16.2633 23.6355 15.9231 24.9655 15.7952L24.8139 9.79966L29.0965 9.69442L29.2881 16.3317C30.7764 16.8189 32.1061 17.6194 33.277 18.7334C33.4884 18.9345 33.6839 19.136 33.8636 19.3379C34.0433 19.5398 34.2157 19.7657 34.3807 20.0156C32.7008 20.7393 31.1119 21.6116 29.614 22.6324C28.1162 23.6532 26.7334 24.8299 25.4657 26.1625C24.2134 27.4788 23.1148 28.9104 22.1699 30.4572C21.225 32.004 20.4252 33.6425 19.7706 35.3727C19.5446 35.2195 19.3262 35.0582 19.1156 34.8888C18.905 34.7194 18.6781 34.5346 18.435 34.3342Z" fill="#DDD347"/>
<path fill-rule="evenodd" clip-rule="evenodd" d="M27.1243 28.1966C28.8027 26.6419 30.6136 25.3621 32.5569 24.3574C34.5003 23.3527 36.5045 22.6282 38.5695 22.1839C40.6346 21.7396 42.7376 21.5509 44.8785 21.6176C47.0194 21.6843 49.102 22.0346 51.1262 22.6685C53.1504 23.3023 55.1016 24.1874 56.9797 25.3237C58.8579 26.46 60.5749 27.8679 62.1308 29.5475C63.8392 31.3918 65.2233 33.4141 66.2831 35.6144C67.343 37.8147 68.058 40.1049 68.4283 42.485C68.7986 44.8651 68.8265 47.2717 68.5121 49.7048C68.1976 52.1379 67.5051 54.4928 66.4344 56.7697L40.3036 42.4238L52.6123 69.5738C50.2603 70.4675 47.8593 70.9782 45.4093 71.1059C42.9593 71.2337 40.5701 71.0145 38.2417 70.4483C35.9133 69.8821 33.6844 68.9942 31.555 67.7847C29.4255 66.5752 27.5066 65.0483 25.7982 63.2041C24.2423 61.5245 22.9614 59.7126 21.9553 57.7684C20.9493 55.8242 20.2234 53.8194 19.7777 51.7539C19.332 49.6885 19.1417 47.5852 19.207 45.4442C19.2722 43.3032 19.621 41.2208 20.2534 39.1969C20.8857 37.1731 21.7694 35.2224 22.9043 33.345C24.0392 31.4675 25.4459 29.7514 27.1243 28.1966ZM40.617 59.2983C40.3911 59.8136 40.056 60.277 39.6117 60.6885C39.1991 61.1013 38.7115 61.4001 38.1488 61.5848C37.5861 61.7695 37.0352 61.8514 36.4961 61.8306C35.9571 61.8098 35.4299 61.6863 34.9145 61.46C34.3991 61.2337 33.9355 60.8982 33.5236 60.4536C33.1106 60.0407 32.8115 59.5528 32.6264 58.99C32.4413 58.4271 32.359 57.8761 32.3794 57.3371C32.3998 56.798 32.523 56.2708 32.7489 55.7556C32.9748 55.2403 33.31 54.7769 33.7542 54.3654C34.1668 53.9526 34.6545 53.6538 35.2172 53.4691C35.7799 53.2844 36.3308 53.2025 36.8698 53.2233C37.4089 53.2441 37.9361 53.3676 38.4515 53.5939C38.9668 53.8202 39.4305 54.1557 39.8423 54.6003C40.2554 55.0132 40.5544 55.5011 40.7395 56.0639C40.9246 56.6268 41.0069 57.1778 40.9865 57.7168C40.9661 58.2559 40.8429 58.7831 40.617 59.2983ZM34.9902 46.8869C34.7642 47.4021 34.4291 47.8656 33.9849 48.2771C33.5723 48.6899 33.0846 48.9886 32.5219 49.1733C31.9592 49.358 31.4083 49.44 30.8693 49.4192C30.3302 49.3984 29.803 49.2748 29.2876 49.0485C28.7723 48.8222 28.3086 48.4868 27.8968 48.0422C27.4837 47.6293 27.1847 47.1414 26.9996 46.5785C26.8145 46.0157 26.7321 45.4647 26.7526 44.9256C26.773 44.3866 26.8962 43.8594 27.1221 43.3442C27.348 42.8289 27.6831 42.3655 28.1274 41.9539C28.54 41.5411 29.0276 41.2424 29.5903 41.0577C30.153 40.873 30.7039 40.7911 31.243 40.8119C31.782 40.8327 32.3092 40.9562 32.8246 41.1825C33.34 41.4088 33.8036 41.7443 34.2155 42.1889C34.6285 42.6018 34.9276 43.0896 35.1127 43.6525C35.2978 44.2154 35.3801 44.7664 35.3597 45.3054C35.3393 45.8445 35.2161 46.3716 34.9902 46.8869ZM41.925 37.3419C41.4097 37.1156 40.946 36.7802 40.5342 36.3356C40.1211 35.9227 39.8221 35.4348 39.637 34.8719C39.4519 34.309 39.3696 33.7581 39.39 33.219C39.4104 32.68 39.5336 32.1528 39.7595 31.6375C39.9854 31.1223 40.3205 30.6589 40.7648 30.2473C41.1774 29.8345 41.665 29.5358 42.2277 29.3511C42.7905 29.1664 43.3413 29.0844 43.8804 29.1052C44.4194 29.126 44.9466 29.2496 45.462 29.4759C45.9774 29.7022 46.441 30.0377 46.8529 30.4823C47.2659 30.8951 47.565 31.383 47.7501 31.9459C47.9352 32.5088 48.0175 33.0597 47.9971 33.5988C47.9767 34.1379 47.8535 34.665 47.6276 35.1803C47.4017 35.6955 47.0666 36.1589 46.6223 36.5705C46.2097 36.9833 45.7221 37.282 45.1593 37.4667C44.5966 37.6514 44.0457 37.7334 43.5067 37.7126C42.9677 37.6918 42.4404 37.5682 41.925 37.3419ZM59.5731 41.7384C59.3472 42.2537 59.0121 42.7171 58.5678 43.1286C58.1552 43.5414 57.6676 43.8401 57.1049 44.0248C56.5422 44.2095 55.9913 44.2915 55.4522 44.2707C54.9132 44.2499 54.386 44.1263 53.8706 43.9C53.3552 43.6737 52.8916 43.3383 52.4797 42.8937C52.0667 42.4808 51.7676 41.9929 51.5825 41.43C51.3974 40.8672 51.3151 40.3162 51.3355 39.7771C51.3559 39.2381 51.4791 38.7109 51.705 38.1957C51.931 37.6804 52.2661 37.217 52.7104 36.8054C53.1229 36.3927 53.6106 36.0939 54.1733 35.9092C54.736 35.7245 55.2869 35.6426 55.8259 35.6634C56.365 35.6842 56.8922 35.8077 57.4076 36.034C57.923 36.2603 58.3866 36.5958 58.7984 37.0404C59.2115 37.4533 59.5106 37.9411 59.6956 38.504C59.8807 39.0669 59.9631 39.6179 59.9426 40.1569C59.9222 40.696 59.799 41.2231 59.5731 41.7384Z" fill="#CE6C9E"/>
<path fill-rule="evenodd" clip-rule="evenodd" d="M52.096 68.4347C50.8018 68.8182 49.4857 69.0874 48.1475 69.2423C45.7104 69.5244 43.3122 69.4564 40.9526 69.0382C38.5931 68.6201 36.3126 67.8746 34.1112 66.8019C31.9097 65.7292 29.8982 64.3264 28.0768 62.5936C26.4181 61.0155 25.0253 59.2881 23.8986 57.4112C22.772 55.5344 21.921 53.5794 21.3459 51.5462C20.7707 49.5129 20.4481 47.4259 20.3781 45.285C20.3081 43.1442 20.5248 41.0439 21.0283 38.9842C21.5317 36.9244 22.2905 34.9219 23.3047 32.9766C23.5655 32.4764 23.8449 31.9856 24.1429 31.5044C25.0172 30.3309 26.0111 29.2285 27.1246 28.197C28.803 26.6422 30.6139 25.3625 32.5572 24.3577C34.5006 23.353 36.5048 22.6285 38.5698 22.1843C40.6349 21.74 42.7378 21.5512 44.8788 21.6179C47.0197 21.6847 49.1023 22.035 51.1265 22.6688C53.1507 23.3027 55.1019 24.1877 56.98 25.324C58.8581 26.4603 60.5752 27.8683 62.131 29.5479C63.8395 31.3921 65.2236 33.4144 66.2834 35.6147C67.3433 37.815 68.0583 40.1052 68.4286 42.4854C68.7989 44.8655 68.8268 47.2721 68.5124 49.7051C68.3516 50.9494 68.0919 52.1732 67.7333 53.3766L63.9858 51.6172C63.6763 52.7143 63.2701 53.7608 62.7673 54.7566L59.0118 52.6948C59.463 51.7722 59.8039 50.7947 60.0345 49.7622L41.2421 40.9395L42.7442 43.7639L40.3038 42.4242L52.096 68.4347ZM42.6197 57.7606C42.4267 58.2891 42.1215 58.7727 41.7041 59.2115C41.3184 59.6495 40.8506 59.9784 40.3006 60.1982C40.1905 60.2423 40.0805 60.2822 39.9708 60.3179C39.8604 60.4459 39.7408 60.5696 39.612 60.6889C39.1994 61.1017 38.7118 61.4004 38.149 61.5851C37.5863 61.7698 37.0355 61.8518 36.4964 61.831C35.9574 61.8102 35.4301 61.6866 34.9148 61.4603C34.3994 61.234 33.9357 60.8986 33.5239 60.454C33.1108 60.0411 32.8118 59.5532 32.6267 58.9903C32.4416 58.4274 32.3593 57.8765 32.3797 57.3374C32.4001 56.7983 32.5233 56.2712 32.7492 55.7559C32.9751 55.2407 33.3102 54.7773 33.7545 54.3657C34.1671 53.9529 34.6547 53.6542 35.2174 53.4695C35.2463 53.46 35.2752 53.4508 35.304 53.4419C35.3539 53.384 35.4057 53.3269 35.4593 53.2705C35.845 52.8325 36.3129 52.5036 36.8628 52.2838C37.4127 52.0639 37.9573 51.9474 38.4966 51.9341C39.0359 51.9209 39.5699 52.0109 40.0985 52.2042C40.6271 52.3976 41.111 52.7031 41.5501 53.1208C41.9884 53.5068 42.3176 53.9749 42.5379 54.5249C42.7581 55.075 42.875 55.6197 42.8887 56.159C42.9023 56.6982 42.8126 57.2321 42.6197 57.7606ZM36.2209 45.729C36.028 46.2574 35.7228 46.7411 35.3053 47.1798C35.0059 47.5199 34.6569 47.7942 34.2584 48.0028C34.1725 48.0968 34.0814 48.1883 33.9851 48.2775C33.5726 48.6902 33.0849 48.989 32.5222 49.1737C31.9595 49.3584 31.4086 49.4403 30.8696 49.4195C30.3305 49.3987 29.8033 49.2752 29.2879 49.0489C28.7725 48.8226 28.3089 48.4871 27.8971 48.0425C27.484 47.6296 27.1849 47.1418 26.9998 46.5789C26.8148 46.016 26.7324 45.465 26.7528 44.926C26.7733 44.3869 26.8964 43.8598 27.1224 43.3445C27.3483 42.8292 27.6834 42.3658 28.1277 41.9543C28.3863 41.6956 28.6744 41.4816 28.9919 41.3125C29.0145 41.2878 29.0373 41.2633 29.0606 41.2388C29.4463 40.8009 29.9141 40.4719 30.464 40.2521C31.014 40.0323 31.5586 39.9157 32.0979 39.9025C32.6372 39.8892 33.1711 39.9793 33.6998 40.1726C34.2284 40.3659 34.7123 40.6714 35.1513 41.0892C35.5896 41.4752 35.9189 41.9432 36.1391 42.4933C36.3594 43.0434 36.4763 43.588 36.4899 44.1273C36.5036 44.6666 36.4139 45.2005 36.2209 45.729ZM39.7484 31.6641C39.5297 32.171 39.4103 32.6894 39.3903 33.2194C39.3698 33.7584 39.4522 34.3094 39.6373 34.8723C39.8223 35.4351 40.1214 35.923 40.5345 36.3359C40.9463 36.7805 41.4099 37.116 41.9253 37.3423C42.4407 37.5686 42.9679 37.6921 43.507 37.7129C44.046 37.7337 44.5969 37.6518 45.1596 37.4671C45.7223 37.2824 46.21 36.9836 46.6226 36.5708C47.0668 36.1593 47.4019 35.6959 47.6279 35.1806C47.8538 34.6654 47.977 34.1382 47.9974 33.5991C47.9989 33.5604 47.9998 33.5217 48.0002 33.4828C48.0341 33.4056 48.0656 33.3275 48.0945 33.2483C48.2875 32.7198 48.3771 32.1859 48.3635 31.6466C48.3499 31.1074 48.2329 30.5627 48.0127 30.0126C47.7925 29.4625 47.4632 28.9945 47.0249 28.6085C46.5858 28.1908 46.102 27.8852 45.5733 27.6919C45.0447 27.4986 44.5107 27.4085 43.9714 27.4218C43.4321 27.435 42.8875 27.5516 42.3376 27.7714C41.7877 27.9913 41.3198 28.3202 40.9341 28.7582C40.5167 29.1969 40.2115 29.6806 40.0185 30.2091C39.8431 30.6896 39.753 31.1746 39.7484 31.6641ZM59.9459 39.9649C60.1498 39.6735 60.3112 39.365 60.43 39.0396C60.623 38.5111 60.7127 37.9772 60.699 37.438C60.6854 36.8987 60.5685 36.354 60.3482 35.8039C60.128 35.2539 59.7987 34.7858 59.3605 34.3998C58.9214 33.9821 58.4375 33.6766 57.9089 33.4832C57.3802 33.2899 56.8463 33.1999 56.307 33.2131C55.7677 33.2264 55.2231 33.3429 54.6731 33.5627C54.1232 33.7826 53.6554 34.1115 53.2697 34.5495C52.8522 34.9883 52.547 35.4719 52.3541 36.0004C52.1707 36.5026 52.0806 37.0096 52.0838 37.5216C51.9348 37.7356 51.8087 37.9604 51.7053 38.196C51.4794 38.7113 51.3562 39.2384 51.3358 39.7775C51.3154 40.3165 51.3977 40.8675 51.5828 41.4304C51.7679 41.9933 52.067 42.4811 52.48 42.894C52.8919 43.3386 53.3555 43.6741 53.8709 43.9004C54.3863 44.1267 54.9135 44.2502 55.4525 44.271C55.9916 44.2918 56.5425 44.2099 57.1052 44.0252C57.6679 43.8405 58.1555 43.5418 58.5681 43.129C59.0124 42.7174 59.3475 42.254 59.5734 41.7387C59.7993 41.2235 59.9225 40.6963 59.9429 40.1573C59.9454 40.0933 59.9463 40.0292 59.9459 39.9649Z" fill="#D3592C"/>
<path d="M78.8008 29.8002H88.9008V64.8002H78.8008V29.8002ZM100.251 29.8002H111.551L97.6508 46.2002L112.301 64.8002H100.551L86.1008 46.5002L100.251 29.8002Z" fill="#D3592C"/>
<path d="M139.214 29.8002H148.514V66.5502L125.064 47.0002V64.8002H115.764V28.0502L139.214 47.6002V29.8002Z" fill="#D3592C"/>
<path d="M162.305 64.8002V56.9502H179.955V64.8002H162.305ZM162.305 37.6502V29.8002H179.955V37.6502H162.305ZM162.305 50.4002V42.8002H178.955V50.4002H162.305ZM155.705 29.8002H165.005V64.8002H155.705V29.8002Z" fill="#D3592C"/>
<path d="M191.262 52.0002C191.962 53.2335 192.745 54.3002 193.612 55.2002C194.479 56.0669 195.429 56.7335 196.462 57.2002C197.495 57.6669 198.562 57.9002 199.662 57.9002C200.729 57.9002 201.612 57.6669 202.312 57.2002C203.012 56.7002 203.362 55.9835 203.362 55.0502C203.362 54.3835 203.162 53.8335 202.762 53.4002C202.362 52.9335 201.662 52.4669 200.662 52.0002C199.695 51.5335 198.329 50.9669 196.562 50.3002C195.695 49.9669 194.729 49.5335 193.662 49.0002C192.595 48.4335 191.562 47.7169 190.562 46.8502C189.595 45.9835 188.779 44.9169 188.112 43.6502C187.479 42.3835 187.162 40.8835 187.162 39.1502C187.162 36.9502 187.745 35.1002 188.912 33.6002C190.079 32.0669 191.629 30.9002 193.562 30.1002C195.495 29.3002 197.645 28.9002 200.012 28.9002C202.479 28.9002 204.612 29.3002 206.412 30.1002C208.212 30.8669 209.695 31.8502 210.862 33.0502C212.029 34.2169 212.929 35.4002 213.562 36.6002L206.262 40.6502C205.762 39.8169 205.179 39.1335 204.512 38.6002C203.879 38.0335 203.195 37.6002 202.462 37.3002C201.729 37.0002 200.979 36.8502 200.212 36.8502C199.245 36.8502 198.479 37.0502 197.912 37.4502C197.345 37.8502 197.062 38.3835 197.062 39.0502C197.062 39.8169 197.379 40.4669 198.012 41.0002C198.679 41.5002 199.579 41.9835 200.712 42.4502C201.879 42.8835 203.212 43.3669 204.712 43.9002C206.012 44.3669 207.195 44.9335 208.262 45.6002C209.362 46.2335 210.312 47.0002 211.112 47.9002C211.912 48.7669 212.529 49.7669 212.962 50.9002C213.395 52.0335 213.612 53.3002 213.612 54.7002C213.612 56.5669 213.229 58.2169 212.462 59.6502C211.729 61.0835 210.712 62.2835 209.412 63.2502C208.145 64.1835 206.695 64.8835 205.062 65.3502C203.429 65.8502 201.762 66.1002 200.062 66.1002C197.662 66.1002 195.429 65.6835 193.362 64.8502C191.329 64.0502 189.562 62.9502 188.062 61.5502C186.562 60.1169 185.429 58.5335 184.662 56.8002L191.262 52.0002Z" fill="#D3592C"/>
<path d="M215.584 38.4502V29.8002H244.884V38.4502H235.084V64.8002H225.384V38.4502H215.584Z" fill="#D3592C"/>
<path d="M249.746 59.1502L250.046 52.0002H267.996L268.246 59.1502H249.746ZM258.896 44.1502L254.296 54.6502L254.896 56.8002L250.846 64.8002H239.846L258.896 27.4502L277.996 64.8002H266.996L262.996 57.1502L263.546 54.6502L258.896 44.1502Z" fill="#D3592C"/>
<path d="M281.188 29.8002H290.887V52.5002C290.887 54.1002 291.304 55.4002 292.137 56.4002C292.971 57.3669 294.221 57.8502 295.887 57.8502C297.587 57.8502 298.854 57.3669 299.688 56.4002C300.521 55.4002 300.938 54.1002 300.938 52.5002V29.8002H310.637V53.3002C310.637 55.6669 310.254 57.6835 309.488 59.3502C308.721 61.0169 307.654 62.3835 306.288 63.4502C304.921 64.4835 303.354 65.2502 301.587 65.7502C299.821 66.2502 297.921 66.5002 295.887 66.5002C293.887 66.5002 291.988 66.2502 290.188 65.7502C288.421 65.2502 286.854 64.4835 285.488 63.4502C284.154 62.3835 283.104 61.0169 282.337 59.3502C281.571 57.6835 281.188 55.6669 281.188 53.3002V29.8002Z" fill="#D3592C"/>
<path d="M314.07 38.4502V29.8002H343.37V38.4502H333.57V64.8002H323.87V38.4502H314.07Z" fill="#D3592C"/>
</svg>
