<svg width="69" height="68" viewBox="0 0 69 68" fill="none" xmlns="http://www.w3.org/2000/svg">
<path fill-rule="evenodd" clip-rule="evenodd" d="M34.9283 0.0292969C16.152 0.0292969 0.973145 15.5668 0.973145 34.7888C0.973145 50.154 10.6987 63.1603 24.1907 67.7636C25.8776 68.1097 26.4954 67.0157 26.4954 66.0954C26.4954 65.2896 26.4398 62.5275 26.4398 59.6495C16.9943 61.7216 15.0274 55.5059 15.0274 55.5059C13.5095 51.4775 11.2603 50.4421 11.2603 50.4421C8.16882 48.3128 11.4855 48.3128 11.4855 48.3128C14.9148 48.543 16.7142 51.8808 16.7142 51.8808C19.7495 57.1748 24.6404 55.679 26.608 54.758C26.8888 52.5136 27.7889 50.9598 28.7446 50.0968C21.2111 49.2909 13.285 46.2986 13.285 32.9469C13.285 29.1487 14.6333 26.0412 16.7698 23.6244C16.4328 22.7614 15.2519 19.1927 17.1076 14.4163C17.1076 14.4163 19.9746 13.4954 26.4391 17.9843C29.2068 17.2234 32.0611 16.8364 34.9283 16.8331C37.7953 16.8331 40.7179 17.2364 43.4167 17.9843C49.8819 13.4954 52.7489 14.4163 52.7489 14.4163C54.6047 19.1927 53.4231 22.7614 53.086 23.6244C55.2788 26.0412 56.5716 29.1487 56.5716 32.9469C56.5716 46.2986 48.6454 49.233 41.0557 50.0968C42.2928 51.19 43.3604 53.2615 43.3604 56.542C43.3604 61.2033 43.3048 64.9443 43.3048 66.0947C43.3048 67.0157 43.9234 68.1097 45.6095 67.7643C59.1015 63.1596 68.8271 50.154 68.8271 34.7888C68.8827 15.5668 53.6483 0.0292969 34.9283 0.0292969Z" fill="#76ACB6"/>
</svg>
