<svg width="68" height="68" viewBox="0 0 68 68" fill="none" xmlns="http://www.w3.org/2000/svg">
<path fill-rule="evenodd" clip-rule="evenodd" d="M33.9551 0C15.1788 0 0 15.5375 0 34.7595C0 50.1247 9.72559 63.131 23.2176 67.7343C24.9044 68.0804 25.5223 66.9864 25.5223 66.0661C25.5223 65.2603 25.4667 62.4982 25.4667 59.6202C16.0212 61.6923 14.0543 55.4766 14.0543 55.4766C12.5363 51.4482 10.2872 50.4128 10.2872 50.4128C7.19567 48.2835 10.5124 48.2835 10.5124 48.2835C13.9417 48.5137 15.7411 51.8515 15.7411 51.8515C18.7763 57.1455 23.6673 55.6497 25.6349 54.7287C25.9157 52.4843 26.8158 50.9305 27.7714 50.0675C20.238 49.2616 12.3118 46.2693 12.3118 32.9176C12.3118 29.1194 13.6602 26.0119 15.7967 23.5951C15.4596 22.7321 14.2788 19.1634 16.1345 14.387C16.1345 14.387 19.0015 13.4661 25.466 17.955C28.2337 17.1941 31.0879 16.8071 33.9551 16.8038C36.8221 16.8038 39.7448 17.2071 42.4436 17.955C48.9088 13.4661 51.7758 14.387 51.7758 14.387C53.6315 19.1634 52.45 22.7321 52.1129 23.5951C54.3057 26.0119 55.5985 29.1194 55.5985 32.9176C55.5985 46.2693 47.6723 49.2037 40.0825 50.0675C41.3197 51.1607 42.3873 53.2322 42.3873 56.5127C42.3873 61.174 42.3317 64.915 42.3317 66.0654C42.3317 66.9864 42.9502 68.0804 44.6364 67.735C58.1284 63.1303 67.854 50.1247 67.854 34.7595C67.9096 15.5375 52.6751 0 33.9551 0Z" fill="#5099AA"/>
</svg>
