<svg width="68" height="68" viewBox="0 0 68 68" fill="none" xmlns="http://www.w3.org/2000/svg">
<path d="M19.6621 0H48.1382C58.9862 0 67.8003 8.81404 67.8003 19.6621V48.1382C67.8003 53.3529 65.7287 58.354 62.0414 62.0414C58.354 65.7287 53.3529 67.8003 48.1382 67.8003H19.6621C8.81404 67.8003 0 58.9862 0 48.1382V19.6621C0 14.4474 2.07154 9.44625 5.75889 5.75889C9.44625 2.07154 14.4474 0 19.6621 0ZM18.9841 6.78003C15.7474 6.78003 12.6432 8.06581 10.3545 10.3545C8.06581 12.6432 6.78003 15.7474 6.78003 18.9841V48.8162C6.78003 55.5623 12.2379 61.0203 18.9841 61.0203H48.8162C52.0529 61.0203 55.1571 59.7345 57.4458 57.4458C59.7345 55.1571 61.0203 52.0529 61.0203 48.8162V18.9841C61.0203 12.2379 55.5623 6.78003 48.8162 6.78003H18.9841ZM51.6977 11.865C52.8216 11.865 53.8994 12.3115 54.6941 13.1062C55.4888 13.9009 55.9352 14.9787 55.9352 16.1026C55.9352 17.2264 55.4888 18.3043 54.6941 19.0989C53.8994 19.8936 52.8216 20.3401 51.6977 20.3401C50.5739 20.3401 49.496 19.8936 48.7013 19.0989C47.9066 18.3043 47.4602 17.2264 47.4602 16.1026C47.4602 14.9787 47.9066 13.9009 48.7013 13.1062C49.496 12.3115 50.5739 11.865 51.6977 11.865ZM33.9001 16.9501C38.3956 16.9501 42.7069 18.7359 45.8856 21.9146C49.0644 25.0934 50.8502 29.4047 50.8502 33.9001C50.8502 38.3956 49.0644 42.7069 45.8856 45.8856C42.7069 49.0644 38.3956 50.8502 33.9001 50.8502C29.4047 50.8502 25.0934 49.0644 21.9146 45.8856C18.7359 42.7069 16.9501 38.3956 16.9501 33.9001C16.9501 29.4047 18.7359 25.0934 21.9146 21.9146C25.0934 18.7359 29.4047 16.9501 33.9001 16.9501ZM33.9001 23.7301C31.2029 23.7301 28.6161 24.8016 26.7088 26.7088C24.8016 28.6161 23.7301 31.2029 23.7301 33.9001C23.7301 36.5974 24.8016 39.1842 26.7088 41.0914C28.6161 42.9987 31.2029 44.0702 33.9001 44.0702C36.5974 44.0702 39.1842 42.9987 41.0914 41.0914C42.9987 39.1842 44.0702 36.5974 44.0702 33.9001C44.0702 31.2029 42.9987 28.6161 41.0914 26.7088C39.1842 24.8016 36.5974 23.7301 33.9001 23.7301Z" fill="#5099AA"/>
</svg>
