<svg width="69" height="68" viewBox="0 0 69 68" fill="none" xmlns="http://www.w3.org/2000/svg">
<path d="M20.0346 0.0292969H48.5108C59.3588 0.0292969 68.1728 8.84333 68.1728 19.6914V48.1675C68.1728 53.3822 66.1013 58.3833 62.4139 62.0707C58.7266 65.758 53.7255 67.8296 48.5108 67.8296H20.0346C9.18659 67.8296 0.372559 59.0155 0.372559 48.1675V19.6914C0.372559 14.4767 2.44409 9.47554 6.13145 5.78819C9.8188 2.10083 14.8199 0.0292969 20.0346 0.0292969ZM19.3566 6.80932C16.1199 6.80932 13.0158 8.09511 10.7271 10.3838C8.43837 12.6725 7.15259 15.7767 7.15259 19.0134V48.8455C7.15259 55.5916 12.6105 61.0495 19.3566 61.0495H49.1888C52.4255 61.0495 55.5296 59.7638 57.8183 57.4751C60.107 55.1864 61.3928 52.0822 61.3928 48.8455V19.0134C61.3928 12.2672 55.9349 6.80932 49.1888 6.80932H19.3566ZM52.0703 11.8943C53.1941 11.8943 54.272 12.3408 55.0667 13.1355C55.8613 13.9302 56.3078 15.008 56.3078 16.1319C56.3078 17.2557 55.8613 18.3336 55.0667 19.1282C54.272 19.9229 53.1941 20.3694 52.0703 20.3694C50.9464 20.3694 49.8686 19.9229 49.0739 19.1282C48.2792 18.3336 47.8328 17.2557 47.8328 16.1319C47.8328 15.008 48.2792 13.9302 49.0739 13.1355C49.8686 12.3408 50.9464 11.8943 52.0703 11.8943ZM34.2727 16.9794C38.7681 16.9794 43.0795 18.7652 46.2582 21.9439C49.437 25.1227 51.2228 29.434 51.2228 33.9294C51.2228 38.4249 49.437 42.7362 46.2582 45.9149C43.0795 49.0937 38.7681 50.8795 34.2727 50.8795C29.7773 50.8795 25.4659 49.0937 22.2872 45.9149C19.1084 42.7362 17.3226 38.4249 17.3226 33.9294C17.3226 29.434 19.1084 25.1227 22.2872 21.9439C25.4659 18.7652 29.7773 16.9794 34.2727 16.9794ZM34.2727 23.7594C31.5754 23.7594 28.9886 24.8309 27.0814 26.7381C25.1741 28.6454 24.1027 31.2322 24.1027 33.9294C24.1027 36.6267 25.1741 39.2135 27.0814 41.1207C28.9886 43.028 31.5754 44.0995 34.2727 44.0995C36.97 44.0995 39.5568 43.028 41.464 41.1207C43.3713 39.2135 44.4427 36.6267 44.4427 33.9294C44.4427 31.2322 43.3713 28.6454 41.464 26.7381C39.5568 24.8309 36.97 23.7594 34.2727 23.7594Z" fill="#76ACB6"/>
</svg>
