<svg width="68" height="68" viewBox="0 0 68 68" fill="none" xmlns="http://www.w3.org/2000/svg">
<path d="M62.7815 0H5.00557C2.23794 0 0 2.18497 0 4.88639V62.9006C0 65.6021 2.23794 67.8003 5.00557 67.8003H62.7815C65.5491 67.8003 67.8003 65.6021 67.8003 62.9139V4.88639C67.8003 2.18497 65.5491 0 62.7815 0ZM20.115 57.7759H10.0509V25.4119H20.115V57.7759ZM15.0829 21.0022C11.8518 21.0022 9.24308 18.3935 9.24308 15.1756C9.24308 11.9577 11.8518 9.34902 15.0829 9.34902C18.3008 9.34902 20.9095 11.9577 20.9095 15.1756C20.9095 18.3802 18.3008 21.0022 15.0829 21.0022ZM57.7759 57.7759H47.725V42.0441C47.725 38.2966 47.6588 33.4631 42.4944 33.4631C37.2637 33.4631 36.4691 37.555 36.4691 41.7793V57.7759H26.4315V25.4119H36.0719V29.8348H36.2043C37.5418 27.2923 40.8258 24.6041 45.7122 24.6041C55.8955 24.6041 57.7759 31.3047 57.7759 40.0181V57.7759Z" fill="#5099AA"/>
</svg>
