<svg width="69" height="68" viewBox="0 0 69 68" fill="none" xmlns="http://www.w3.org/2000/svg">
<path d="M63.6086 0.0292969H5.83272C3.06509 0.0292969 0.827148 2.21427 0.827148 4.91568V62.9299C0.827148 65.6314 3.06509 67.8296 5.83272 67.8296H63.6086C66.3762 67.8296 68.6274 65.6314 68.6274 62.9432V4.91568C68.6274 2.21427 66.3762 0.0292969 63.6086 0.0292969ZM20.9421 57.8052H10.878V25.4412H20.9421V57.8052ZM15.9101 21.0315C12.679 21.0315 10.0702 18.4228 10.0702 15.2049C10.0702 11.987 12.679 9.37832 15.9101 9.37832C19.1279 9.37832 21.7366 11.987 21.7366 15.2049C21.7366 18.4095 19.1279 21.0315 15.9101 21.0315ZM58.603 57.8052H48.5522V42.0734C48.5522 38.3259 48.486 33.4924 43.3215 33.4924C38.0908 33.4924 37.2963 37.5843 37.2963 41.8086V57.8052H27.2587V25.4412H36.899V29.8641H37.0314C38.3689 27.3216 41.653 24.6334 46.5394 24.6334C56.7227 24.6334 58.603 31.334 58.603 40.0474V57.8052Z" fill="#76ACB6"/>
</svg>
