<svg width="36" height="45" viewBox="0 0 36 45" fill="none" xmlns="http://www.w3.org/2000/svg">
<path d="M17.6787 0C12.9917 0.00531715 8.49811 1.8696 5.18386 5.18386C1.8696 8.49811 0.00531715 12.9917 0 17.6787C0 32.8061 16.0716 44.231 16.7566 44.7092C17.0269 44.8985 17.3488 45 17.6787 45C18.0087 45 18.3306 44.8985 18.6009 44.7092C19.2859 44.231 35.3575 32.8061 35.3575 17.6787C35.3522 12.9917 33.4879 8.49811 30.1736 5.18386C26.8594 1.8696 22.3658 0.00531715 17.6787 0ZM17.6787 11.2501C18.9502 11.2501 20.1931 11.6271 21.2503 12.3335C22.3075 13.0399 23.1315 14.0439 23.618 15.2186C24.1046 16.3933 24.2319 17.6859 23.9839 18.9329C23.7358 20.1799 23.1235 21.3254 22.2245 22.2245C21.3254 23.1235 20.1799 23.7358 18.9329 23.9839C17.6859 24.2319 16.3933 24.1046 15.2186 23.618C14.0439 23.1315 13.0399 22.3075 12.3335 21.2503C11.6271 20.1931 11.2501 18.9502 11.2501 17.6787C11.2501 15.9738 11.9274 14.3386 13.133 13.133C14.3386 11.9274 15.9738 11.2501 17.6787 11.2501Z" fill="#715790"/>
</svg>
