<svg width="36" height="46" viewBox="0 0 36 46" fill="none" xmlns="http://www.w3.org/2000/svg">
<path d="M17.6787 0.529297C12.9917 0.534614 8.49811 2.3989 5.18386 5.71316C1.8696 9.02741 0.00531715 13.521 0 18.208C0 33.3354 16.0716 44.7603 16.7566 45.2384C17.0269 45.4277 17.3488 45.5293 17.6787 45.5293C18.0087 45.5293 18.3306 45.4277 18.6009 45.2384C19.2859 44.7603 35.3575 33.3354 35.3575 18.208C35.3522 13.521 33.4879 9.02741 30.1736 5.71316C26.8594 2.3989 22.3658 0.534614 17.6787 0.529297ZM17.6787 11.7794C18.9502 11.7794 20.1931 12.1564 21.2503 12.8628C22.3075 13.5692 23.1315 14.5732 23.618 15.7479C24.1046 16.9226 24.2319 18.2152 23.9839 19.4622C23.7358 20.7092 23.1235 21.8547 22.2245 22.7538C21.3254 23.6528 20.1799 24.2651 18.9329 24.5132C17.6859 24.7612 16.3933 24.6339 15.2186 24.1473C14.0439 23.6608 13.0399 22.8368 12.3335 21.7796C11.6271 20.7224 11.2501 19.4795 11.2501 18.208C11.2501 16.5031 11.9274 14.8679 13.133 13.6623C14.3386 12.4567 15.9738 11.7794 17.6787 11.7794Z" fill="#CE6C9E"/>
</svg>
