<svg width="68" height="56" viewBox="0 0 68 56" fill="none" xmlns="http://www.w3.org/2000/svg">
<path d="M0.172852 7.58911C0.172852 5.79094 0.887174 4.06641 2.15868 2.79491C3.43018 1.5234 5.1547 0.809082 6.95288 0.809082H61.1931C62.9913 0.809082 64.7158 1.5234 65.9873 2.79491C67.2588 4.06641 67.9731 5.79094 67.9731 7.58911V48.2693C67.9731 50.0675 67.2588 51.792 65.9873 53.0635C64.7158 54.335 62.9913 55.0493 61.1931 55.0493H6.95288C5.1547 55.0493 3.43018 54.335 2.15868 53.0635C0.887174 51.792 0.172852 50.0675 0.172852 48.2693V7.58911ZM12.1023 7.58911L34.073 26.8139L56.0437 7.58911H12.1023ZM61.1931 12.0944L36.307 33.8719C35.6888 34.4135 34.8949 34.7121 34.073 34.7121C33.2511 34.7121 32.4572 34.4135 31.839 33.8719L6.95288 12.0944V48.2693H61.1931V12.0944Z" fill="#76ACB6"/>
</svg>
