<svg width="68" height="55" viewBox="0 0 68 55" fill="none" xmlns="http://www.w3.org/2000/svg">
<path d="M0 6.78003C0 4.98185 0.714322 3.25733 1.98582 1.98582C3.25733 0.714322 4.98185 0 6.78003 0H61.0203C62.8184 0 64.543 0.714322 65.8145 1.98582C67.086 3.25733 67.8003 4.98185 67.8003 6.78003V47.4602C67.8003 49.2584 67.086 50.9829 65.8145 52.2544C64.543 53.5259 62.8184 54.2402 61.0203 54.2402H6.78003C4.98185 54.2402 3.25733 53.5259 1.98582 52.2544C0.714322 50.9829 0 49.2584 0 47.4602V6.78003ZM11.9295 6.78003L33.9001 26.0048L55.8708 6.78003H11.9295ZM61.0203 11.2854L36.1342 33.0628C35.516 33.6044 34.722 33.903 33.9001 33.903C33.0782 33.903 32.2843 33.6044 31.6661 33.0628L6.78003 11.2854V47.4602H61.0203V11.2854Z" fill="#5099AA"/>
</svg>
