<svg width="160" height="160" viewBox="0 0 160 160" fill="none" xmlns="http://www.w3.org/2000/svg">
<path d="M8 11.2539H36.3183V39.5722H8V11.2539Z" fill="#A75B79"/>
<path d="M36.3183 39.5722H64.6366V67.8905H36.3183V39.5722Z" fill="#A75B79"/>
<path d="M92.9549 39.5722H121.273V67.8905H92.9549V39.5722Z" fill="#A75B79"/>
<path d="M121.273 11.2539H149.592V39.5722H121.273V11.2539Z" fill="#A75B79"/>
<path d="M64.6366 11.2539H92.9549V39.5722H64.6366V11.2539Z" fill="#A75B79"/>
<path d="M8 67.8905H36.3183V96.2088H8V67.8905Z" fill="#A75B79"/>
<path d="M36.3183 96.2088H64.6366V124.527H36.3183V96.2088Z" fill="#A75B79"/>
<path d="M92.9549 96.2088H121.273V124.527H92.9549V96.2088Z" fill="#A75B79"/>
<path d="M121.273 67.8905H149.592V96.2088H121.273V67.8905Z" fill="#A75B79"/>
<path d="M64.6366 67.8905H92.9549V96.2088H64.6366V67.8905Z" fill="#A75B79"/>
<path d="M8 124.527H36.3183V152.845H8V124.527Z" fill="#A75B79"/>
<path d="M121.273 124.527H149.592V152.845H121.273V124.527Z" fill="#A75B79"/>
<path d="M64.6366 124.527H92.9549V152.845H64.6366V124.527Z" fill="#A75B79"/>
<path d="M39.0173 8H67.3356V36.3183H39.0173V8Z" fill="#5099AA"/>
<path d="M95.6539 8H123.972V36.3183H95.6539V8Z" fill="#5099AA"/>
<path d="M67.3356 36.3183H95.6539V64.6366H67.3356V36.3183Z" fill="#5099AA"/>
<path d="M39.0173 64.6366H67.3356V92.9549H39.0173V64.6366Z" fill="#5099AA"/>
<path d="M10.699 36.3183H39.0173V64.6366H10.699V36.3183Z" fill="#5099AA"/>
<path d="M67.3356 92.9549H95.6539V121.273H67.3356V92.9549Z" fill="#5099AA"/>
<path d="M95.6539 64.6366H123.972V92.9549H95.6539V64.6366Z" fill="#5099AA"/>
<path d="M123.972 36.3183H152.291V64.6366H123.972V36.3183Z" fill="#5099AA"/>
<path d="M123.972 92.9549H152.291V121.273H123.972V92.9549Z" fill="#5099AA"/>
<path d="M95.6539 121.273H123.972V149.592H95.6539V121.273Z" fill="#5099AA"/>
<path d="M39.0173 121.273H67.3356V149.592H39.0173V121.273Z" fill="#5099AA"/>
<path d="M10.699 92.9549H39.0173V121.273H10.699V92.9549Z" fill="#5099AA"/>
<path d="M123.969 149.591H121.27V124.527H123.969V149.591ZM67.3323 149.591H64.6331V124.527H67.3323V149.591ZM121.27 124.527H95.6506V121.273H121.27V124.527ZM64.6331 124.527H39.0139V121.273H64.6331V124.527ZM95.6506 121.273H92.9514V96.2085H95.6506V121.273ZM39.0139 121.273H36.3147V96.2085H39.0139V121.273ZM149.588 96.2085H123.969V92.9546H149.588V96.2085ZM92.9514 96.2085H67.3323V92.9546H92.9514V96.2085ZM36.3147 96.2085H10.6956V92.9546H36.3147V96.2085ZM123.969 92.9546H121.27V67.8901H123.969V92.9546ZM67.3323 92.9546H64.6331V67.8901H67.3323V92.9546ZM121.27 67.8901H95.6506V64.6362H121.27V67.8901ZM64.6331 67.8901H39.0139V64.6362H64.6331V67.8901ZM95.6506 64.6362H92.9514V39.5718H95.6506V64.6362ZM39.0139 64.6362H36.3147V39.5718H39.0139V64.6362ZM149.588 39.5718H123.969V36.3179H149.588V39.5718ZM92.9514 39.5718H67.3323V36.3179H92.9514V39.5718ZM36.3147 39.5718H10.6956V36.3179H36.3147V39.5718ZM123.969 36.3179H121.27V11.2534H123.969V36.3179ZM67.3323 36.3179H64.6331V11.2534H67.3323V36.3179Z" fill="#715A95"/>
</svg>
