<svg width="160" height="160" viewBox="0 0 160 160" fill="none" xmlns="http://www.w3.org/2000/svg">
<g clip-path="url(#clip0_2089_4)">
<path d="M133.546 82.6609C132.994 82.3411 132.389 82.0349 131.763 81.7355C132.389 81.4361 132.994 81.1299 133.546 80.8101C136.666 79.036 139.405 76.6622 141.604 73.8254C143.803 70.9887 145.419 67.7449 146.36 64.2809C147.3 60.8168 147.546 57.201 147.084 53.6415C146.621 50.0821 145.459 46.6493 143.664 43.5408C141.869 40.4323 139.477 37.7095 136.626 35.5291C133.775 33.3488 130.52 31.754 127.05 30.8365C123.58 29.9191 119.963 29.6971 116.406 30.1833C112.85 30.6696 109.425 31.8545 106.328 33.6698C105.777 33.9896 105.206 34.3503 104.641 34.7517C104.695 34.0713 104.729 33.3908 104.729 32.7104C104.729 25.492 101.862 18.5691 96.7576 13.4649C91.6534 8.36069 84.7306 5.49316 77.5121 5.49316C70.2937 5.49316 63.3708 8.36069 58.2666 13.4649C53.1624 18.5691 50.2949 25.492 50.2949 32.7104C50.2949 33.35 50.2949 34.0305 50.3833 34.7517C49.8186 34.3639 49.247 33.9896 48.6959 33.6698C45.5993 31.8545 42.1743 30.6696 38.618 30.1833C35.0617 29.6971 31.4443 29.9191 27.9741 30.8365C24.5039 31.754 21.2495 33.3488 18.3982 35.5291C15.5468 37.7095 13.155 40.4323 11.3602 43.5408C9.56547 46.6493 8.40332 50.0821 7.94066 53.6415C7.47801 57.201 7.72399 60.8168 8.66445 64.2809C9.60491 67.7449 11.2213 70.9887 13.4205 73.8254C15.6197 76.6622 18.3583 79.036 21.4786 80.8101C22.0298 81.1299 22.6353 81.4361 23.2613 81.7355C22.6353 82.0349 22.0298 82.3411 21.4786 82.6609C18.3583 84.435 15.6197 86.8087 13.4205 89.6455C11.2213 92.4823 9.60491 95.7261 8.66445 99.1901C7.72399 102.654 7.47801 106.27 7.94066 109.829C8.40332 113.389 9.56547 116.822 11.3602 119.93C13.155 123.039 15.5468 125.761 18.3982 127.942C21.2495 130.122 24.5039 131.717 27.9741 132.634C31.4443 133.552 35.0617 133.774 38.618 133.288C42.1743 132.801 45.5993 131.616 48.6959 129.801C49.247 129.481 49.8186 129.121 50.3833 128.719C50.3289 129.4 50.2949 130.08 50.2949 130.727C50.2949 137.945 53.1624 144.868 58.2666 149.972C63.3708 155.076 70.2937 157.944 77.5121 157.944C84.7306 157.944 91.6534 155.076 96.7576 149.972C101.862 144.868 104.729 137.945 104.729 130.727C104.729 130.087 104.695 129.407 104.641 128.719C105.206 129.107 105.777 129.481 106.328 129.801C110.451 132.189 115.131 133.447 119.896 133.448C122.29 133.445 124.674 133.13 126.986 132.509C132.186 131.116 136.856 128.211 140.405 124.164C143.954 120.116 146.223 115.107 146.925 109.77C147.627 104.433 146.731 99.007 144.349 94.1792C141.968 89.3514 138.208 85.3382 133.546 82.6473V82.6609ZM61.1818 81.7355C61.1818 78.5056 62.1395 75.3483 63.9339 72.6628C65.7283 69.9773 68.2788 67.8842 71.2628 66.6482C74.2467 65.4122 77.5302 65.0888 80.698 65.7189C83.8658 66.349 86.7756 67.9043 89.0594 70.1882C91.3433 72.472 92.8986 75.3818 93.5287 78.5496C94.1588 81.7174 93.8354 85.0009 92.5994 87.9848C91.3634 90.9688 89.2703 93.5193 86.5848 95.3137C83.8993 97.1081 80.742 98.0658 77.5121 98.0658C73.181 98.0658 69.0273 96.3453 65.9648 93.2828C62.9023 90.2203 61.1818 86.0666 61.1818 81.7355Z" fill="#CE6C9E"/>
<path d="M135.433 76.1104C134.855 75.843 134.224 75.5941 133.573 75.3539C134.168 74.9979 134.743 74.637 135.262 74.2675C138.205 72.2123 140.712 69.5953 142.639 66.5672C144.566 63.539 145.876 60.1596 146.492 56.6234C147.107 53.0872 147.018 49.4641 146.228 45.9628C145.438 42.4614 143.963 39.1508 141.888 36.2218C139.813 33.2927 137.18 30.8029 134.139 28.8958C131.098 26.9887 127.71 25.7019 124.17 25.1095C120.63 24.5171 117.007 24.6309 113.511 25.4441C110.015 26.2574 106.714 27.7542 103.799 29.8483C103.28 30.2177 102.744 30.6297 102.219 31.0817C102.21 30.3991 102.181 29.7185 102.118 29.041C101.45 21.8535 97.9543 15.2257 92.3996 10.6158C86.8449 6.00579 79.6865 3.79121 72.499 4.45922C65.3115 5.12722 58.6837 8.62309 54.0738 14.1778C49.4638 19.7324 47.2492 26.8909 47.9172 34.0784C47.9764 34.7153 48.0394 35.3928 48.1942 36.1027C47.596 35.7688 46.9922 35.4491 46.4139 35.1817C43.1626 33.6607 39.6427 32.7978 36.0566 32.6428C32.4705 32.4877 28.8892 33.0435 25.5188 34.2781C22.1485 35.5128 19.0556 37.4019 16.4183 39.8368C13.7809 42.2716 11.6513 45.2041 10.1519 48.4653C8.65254 51.7266 7.81305 55.2522 7.68177 58.8392C7.5505 62.4262 8.13004 66.0038 9.38703 69.3659C10.644 72.728 12.5536 75.8083 15.0059 78.4294C17.4582 81.0505 20.4047 83.1607 23.6758 84.6384C24.2542 84.9058 24.8855 85.1546 25.5365 85.3948C24.9409 85.7508 24.3663 86.1118 23.8471 86.4812C20.9043 88.5364 18.3972 91.1535 16.4699 94.1816C14.5427 97.2097 13.2334 100.589 12.6176 104.125C12.0017 107.662 12.0914 111.285 12.8815 114.786C13.6715 118.287 15.1464 121.598 17.2211 124.527C19.2958 127.456 21.9294 129.946 24.9702 131.853C28.0111 133.76 31.3992 135.047 34.9393 135.639C38.4795 136.232 42.1019 136.118 45.598 135.305C49.0941 134.491 52.3947 132.995 55.31 130.9C55.8292 130.531 56.3649 130.119 56.8901 129.667C56.8989 130.35 56.9279 131.03 56.9878 131.674C57.6558 138.861 61.1516 145.489 66.7063 150.099C72.261 154.709 79.4195 156.924 86.6069 156.256C93.7944 155.588 100.422 152.092 105.032 146.537C109.642 140.982 111.857 133.824 111.189 126.636C111.13 126 111.033 125.325 110.915 124.646C111.513 124.98 112.117 125.3 112.695 125.567C117.022 127.563 121.798 128.383 126.542 127.943C128.926 127.719 131.27 127.184 133.515 126.352C138.563 124.483 142.944 121.159 146.104 116.8C149.263 112.442 151.059 107.244 151.264 101.865C151.469 96.4855 150.074 91.1662 147.256 86.5795C144.438 81.9928 140.323 78.3448 135.432 76.0968L135.433 76.1104ZM110.091 38.7281C111.841 37.4885 113.818 36.6058 115.91 36.1304C118.001 35.6549 120.165 35.596 122.279 35.957C124.393 36.318 126.415 37.0918 128.23 38.2343C130.045 39.3768 131.617 40.8655 132.857 42.6156C134.096 44.3657 134.979 46.3427 135.454 48.4339C135.93 50.5251 135.989 52.6895 135.628 54.8034C135.267 56.9174 134.493 58.9395 133.35 60.7544C132.208 62.5693 130.719 64.1414 128.969 65.381C124.95 68.2352 116.747 70.706 105.601 72.4662C103.885 66.84 100.392 61.9211 95.6462 58.4462C101.009 48.5037 106.072 41.5822 110.091 38.7281ZM73.5096 15.3333C77.8221 14.9325 82.1172 16.2612 85.45 19.0272C88.7828 21.7932 90.8803 25.7698 91.2811 30.0823C91.737 34.9875 89.7794 43.3356 85.7293 53.8737C79.9988 52.5288 73.9862 53.0877 68.6018 55.4655C62.679 45.8544 59.2165 38.01 58.7606 33.1048C58.3598 28.7923 59.6885 24.4972 62.4545 21.1644C65.2205 17.8316 69.1971 15.7341 73.5096 15.3333ZM20.2038 53.089C21.0992 51.1397 22.3699 49.386 23.9432 47.928C25.5166 46.4699 27.3617 45.3361 29.3734 44.5914C31.385 43.8466 33.5236 43.5054 35.6671 43.5874C37.8106 43.6693 39.917 44.1728 41.8659 45.0689C46.3425 47.1335 52.5941 53.0034 59.6974 61.7873C55.6699 66.083 53.1441 71.569 52.4991 77.422C41.2196 77.746 32.7016 76.8292 28.2257 74.7714C26.2738 73.8762 24.5176 72.6049 23.0576 71.0301C21.5977 69.4553 20.4626 67.6081 19.7175 65.5941C18.9724 63.5801 18.6318 61.4389 18.7152 59.2931C18.7987 57.1473 19.3045 55.039 20.2038 53.089ZM49.0178 122.021C45.4834 124.524 41.0993 125.521 36.83 124.792C32.5606 124.063 28.7558 121.668 26.2524 118.133C23.749 114.599 22.7522 110.215 23.4813 105.945C24.2104 101.676 26.6055 97.8711 30.1399 95.3678C34.1594 92.5136 42.3624 90.0428 53.5085 88.2825C55.2245 93.9087 58.717 98.8276 63.4629 102.302C58.1 112.245 53.0372 119.167 49.0178 122.021ZM85.5995 145.415C81.287 145.816 76.9919 144.488 73.6591 141.722C70.3263 138.956 68.2288 134.979 67.828 130.666C67.3721 125.761 69.3296 117.413 73.3798 106.875C79.1102 108.22 85.1228 107.661 90.5073 105.283C96.4301 114.894 99.8926 122.739 100.349 127.644C100.749 131.956 99.4206 136.252 96.6546 139.584C93.8886 142.917 89.9119 145.015 85.5995 145.415ZM138.905 107.66C138.01 109.609 136.739 111.363 135.166 112.821C133.593 114.279 131.747 115.413 129.736 116.157C127.724 116.902 125.585 117.243 123.442 117.161C121.298 117.079 119.192 116.576 117.243 115.68C112.767 113.615 106.515 107.745 99.4117 98.9614C103.439 94.6658 105.965 89.1798 106.61 83.3268C117.89 83.0028 126.407 83.9195 130.883 85.9773C132.835 86.8725 134.592 88.1439 136.051 89.7186C137.511 91.2934 138.646 93.1407 139.392 95.1547C140.137 97.1687 140.477 99.3099 140.394 101.456C140.31 103.601 139.805 105.71 138.905 107.66Z" fill="#DDD347"/>
<path d="M77.5132 5.49292C81.0239 5.49298 84.4641 6.17276 87.6597 7.45679C89.3332 8.33449 90.9234 9.38965 92.3999 10.615C97.9546 15.225 101.451 21.8533 102.119 29.0408C102.182 29.7181 102.21 30.3985 102.219 31.0808C102.744 30.6289 103.28 30.2168 103.799 29.8474C104.037 29.6767 104.278 29.5111 104.521 29.3484C104.659 30.4577 104.73 31.5801 104.73 32.7097C104.73 33.3901 104.696 34.0713 104.641 34.7517C105.206 34.3503 105.778 33.9894 106.329 33.6697C109.425 31.8544 112.85 30.6696 116.407 30.1833C119.963 29.6971 123.58 29.9193 127.05 30.8367C130.52 31.7541 133.775 33.3487 136.626 35.5291C139.478 37.7094 141.87 40.4323 143.665 43.5408C145.247 46.2814 146.337 49.2742 146.89 52.3835C146.868 53.8016 146.736 55.2191 146.492 56.6228C145.876 60.1588 144.567 63.5382 142.64 66.5662C140.713 69.5943 138.205 72.2121 135.262 74.2673C134.743 74.6367 134.168 74.9973 133.573 75.3533C134.224 75.5934 134.856 75.8427 135.434 76.1101L135.432 76.0964C136.361 76.5235 137.263 77.0012 138.132 77.5261C136.724 78.7728 135.189 79.8762 133.546 80.8103C132.995 81.1301 132.389 81.4357 131.763 81.7351C132.389 82.0345 132.995 82.3411 133.546 82.6609V82.6472C138.209 85.3382 141.969 89.3509 144.35 94.1785C146.732 99.0062 147.627 104.432 146.925 109.769C146.452 113.371 145.264 116.822 143.452 119.93C140.662 122.761 137.274 124.96 133.515 126.351C131.27 127.183 128.926 127.718 126.542 127.942C121.798 128.382 117.022 127.562 112.696 125.566C112.117 125.299 111.514 124.979 110.916 124.645C111.033 125.324 111.13 125.999 111.189 126.635C111.356 128.432 111.343 130.227 111.158 131.996C109.487 131.426 107.869 130.692 106.329 129.801C105.778 129.481 105.206 129.107 104.641 128.719C104.696 129.407 104.73 130.087 104.73 130.726C104.73 137.945 101.862 144.867 96.7583 149.971C93.9862 152.744 90.6766 154.853 87.0757 156.205C86.92 156.222 86.7642 156.24 86.6079 156.255C79.4204 156.923 72.2612 154.708 66.7065 150.098C61.1521 145.489 57.6569 138.861 56.9888 131.674C56.929 131.03 56.8999 130.349 56.8911 129.667C56.3659 130.119 55.8292 130.531 55.3101 130.9C53.7886 131.993 52.1609 132.92 50.4565 133.676C50.3503 132.701 50.2954 131.716 50.2954 130.726C50.2954 130.08 50.3299 129.4 50.3843 128.719C49.8196 129.121 49.2478 129.481 48.6968 129.801C45.6003 131.616 42.175 132.802 38.6187 133.288C35.0625 133.774 31.4451 133.552 27.9751 132.635C26.6619 132.287 25.3794 131.843 24.1382 131.306C21.4483 129.479 19.1039 127.184 17.2212 124.526C15.1466 121.597 13.6724 118.286 12.8823 114.785C12.0923 111.284 12.0019 107.661 12.6177 104.125C13.2335 100.589 14.5431 97.2094 16.4702 94.1814C18.3974 91.1533 20.9045 88.5354 23.8472 86.4802C24.3662 86.1109 24.9412 85.7502 25.5366 85.3943C24.8857 85.1542 24.2545 84.9048 23.6763 84.6375C22.6675 84.1817 21.6896 83.6659 20.7476 83.0935C20.9892 82.946 21.2326 82.801 21.479 82.6609C22.0302 82.3411 22.6362 82.0345 23.2622 81.7351C22.6362 81.4357 22.0301 81.1301 21.479 80.8103C18.3587 79.0362 15.6206 76.6617 13.4214 73.825C11.2223 70.9883 9.606 67.7448 8.66553 64.281C8.10607 62.2203 7.79396 60.1055 7.729 57.9812C7.95353 54.6906 8.7731 51.4656 10.1528 48.4646C11.6522 45.2034 13.7812 42.2705 16.4185 39.8357C19.0557 37.4009 22.1487 35.5118 25.519 34.2771C28.8894 33.0424 32.4711 32.4873 36.0571 32.6423C39.6432 32.7974 43.1633 33.6604 46.4146 35.1814C46.9929 35.4488 47.5967 35.7684 48.1948 36.1023C48.04 35.3924 47.9767 34.7147 47.9175 34.0779C47.8902 33.7843 47.8698 33.4904 47.8521 33.197C48.1357 33.3501 48.4183 33.5064 48.6968 33.6697C49.2478 33.9894 49.8196 34.3639 50.3843 34.7517C50.2958 34.0305 50.2954 33.3493 50.2954 32.7097C50.2955 25.4914 53.163 18.5687 58.2671 13.4646C63.3713 8.36037 70.2947 5.49292 77.5132 5.49292ZM90.5083 105.283C85.1239 107.661 79.1108 108.22 73.3804 106.875C69.3303 117.413 67.3727 125.761 67.8286 130.666C68.2294 134.978 70.327 138.954 73.6597 141.72C76.9925 144.486 81.2876 145.816 85.6001 145.415C89.9125 145.014 93.8888 142.916 96.6548 139.584C99.4208 136.251 100.75 131.956 100.349 127.643C99.8932 122.738 96.4309 114.894 90.5083 105.283ZM53.5093 88.282C42.3632 90.0423 34.1596 92.5128 30.1401 95.3669C26.6058 97.8703 24.211 101.676 23.4819 105.945C22.753 110.214 23.7501 114.598 26.2534 118.133C28.7568 121.667 32.5613 124.062 36.8306 124.791C41.0998 125.52 45.4837 124.523 49.0181 122.02C53.0375 119.166 58.1005 112.244 63.4634 102.302C58.7176 98.8267 55.2253 93.908 53.5093 88.282ZM130.884 85.9763C126.408 83.9186 117.89 83.002 106.611 83.3259C105.966 89.1788 103.44 94.6651 99.4126 98.9607C106.516 107.745 112.767 113.615 117.244 115.679C119.193 116.576 121.299 117.079 123.443 117.161C125.586 117.243 127.724 116.902 129.736 116.157C131.747 115.412 133.593 114.278 135.167 112.82C136.74 111.362 138.01 109.608 138.906 107.659C139.805 105.709 140.311 103.601 140.394 101.455C140.477 99.3091 140.137 97.168 139.392 95.1541C138.647 93.1401 137.512 91.2923 136.052 89.7175C134.592 88.1429 132.836 86.8715 130.884 85.9763ZM80.6987 65.7185C77.531 65.0884 74.2472 65.4122 71.2632 66.6482C68.2793 67.8842 65.7284 69.9774 63.9341 72.6628C62.1399 75.3482 61.1822 78.5055 61.1821 81.7351C61.1821 86.0662 62.9028 90.2204 65.9653 93.283C69.0279 96.3454 73.1822 98.0652 77.5132 98.0652C80.7429 98.0651 83.9001 97.1076 86.5854 95.3132C89.2709 93.5188 91.3641 90.9681 92.6001 87.9841C93.8359 85.0004 94.1598 81.7171 93.5298 78.5496C92.8997 75.3819 91.3438 72.4721 89.0601 70.1882C86.7762 67.9044 83.8665 66.3486 80.6987 65.7185ZM35.6675 43.5867C33.524 43.5048 31.3851 43.8458 29.3735 44.5906C27.362 45.3354 25.5171 46.4695 23.9438 47.9275C22.3705 49.3855 21.1 51.1394 20.2046 53.0886C19.3054 55.0386 18.7988 57.147 18.7153 59.2927C18.6319 61.4384 18.9732 63.5796 19.7183 65.5935C20.4634 67.6073 21.5983 69.4544 23.0581 71.0291C24.5181 72.6038 26.2741 73.8761 28.2261 74.7712C32.702 76.829 41.2201 77.7456 52.4995 77.4216C53.1445 71.5687 55.6703 66.0825 59.6978 61.7869C52.5945 53.0031 46.3433 47.1327 41.8667 45.0681C39.9178 44.1719 37.811 43.6686 35.6675 43.5867ZM122.28 35.9568C120.166 35.5958 118.001 35.6542 115.91 36.1296C113.819 36.6051 111.842 37.488 110.092 38.7273C106.073 41.5815 101.01 48.5035 95.647 58.446C100.393 61.9209 103.885 66.8395 105.601 72.4656C116.747 70.7054 124.95 68.2347 128.969 65.3806C130.719 64.1411 132.209 62.5686 133.351 60.7537C134.494 58.9388 135.267 56.9164 135.628 54.8025C135.989 52.6886 135.93 50.5244 135.455 48.4333C134.979 46.3422 134.096 44.365 132.857 42.615C131.617 40.865 130.046 39.3756 128.231 38.2332C126.416 37.0907 124.394 36.3178 122.28 35.9568ZM85.4507 19.0261C82.1179 16.2602 77.8227 14.932 73.5103 15.3328C69.1978 15.7336 65.2206 17.831 62.4546 21.1638C59.6888 24.4966 58.3604 28.7919 58.7612 33.1042C59.2172 38.0094 62.6794 45.8537 68.6021 55.4646C73.9865 53.0867 79.9995 52.528 85.73 53.8728C89.78 43.335 91.7376 34.987 91.2817 30.0818C90.8809 25.7693 88.7835 21.7921 85.4507 19.0261Z" fill="#D3592C"/>
</g>
<defs>
<clipPath id="clip0_2089_4">
<rect width="160" height="160" fill="white"/>
</clipPath>
</defs>
</svg>
