<svg width="1216" height="211" viewBox="0 0 1216 211" fill="none" xmlns="http://www.w3.org/2000/svg">
<path d="M75.5174 59.1682L140.917 172.444H10.1174L75.5174 59.1682Z" fill="#CE6C9E"/>
<path d="M75.5173 151.035L10.1173 37.7587L140.917 37.7587L75.5173 151.035Z" fill="#DDD347"/>
<path d="M102.037 105.102L75.5173 151.035L48.9978 105.102L75.5173 59.1682L102.037 105.102Z" fill="#D3592C"/>
<path d="M317.849 58.8788L318.711 50.0968L309.966 51.2303C294.938 53.3715 279.618 51.9372 265.249 47.044C250.208 41.6078 233.914 40.6463 218.338 44.2761C210.115 46.0262 202.46 49.8054 196.07 55.2697C189.681 60.734 184.759 67.7097 181.754 75.5618C177.866 85.7041 176.676 96.6822 178.303 107.422C181.631 102.66 185.313 98.1545 189.317 93.9451C198.268 85.0722 209.489 78.834 221.75 75.9137C233.565 73.0791 245.881 73.0513 257.709 75.8326C246.026 75.3558 234.371 77.313 223.484 81.5801C218.242 83.6039 213.278 86.2866 208.713 89.5638C204.314 92.8732 200.271 96.6307 196.649 100.776C191.86 106.786 187.695 113.257 184.212 120.088C185.969 127.336 191.027 133.67 193.336 135.93C201.828 142.911 211.964 147.605 222.781 149.566C232.844 151.524 243.198 151.444 253.23 149.332C309.645 137.262 317.247 61.9579 317.849 58.8788Z" fill="#DDD347"/>
<path d="M323.866 58.9325L324.729 50.1505C315.978 72.4168 280.415 76.5853 263.727 75.8863C252.044 75.4095 240.389 77.3667 229.502 81.6338C224.26 83.6576 219.296 86.3403 214.73 89.6175C210.332 92.9269 206.289 96.6844 202.667 100.829C195.672 109.608 190.008 119.368 185.858 129.797C181.541 140.229 178.194 151.037 175.859 162.083L189.544 164.756C192.134 154.947 195.412 145.332 199.354 135.984C207.846 142.965 217.982 147.658 228.799 149.619C238.862 151.577 249.216 151.498 259.247 149.386C315.662 137.316 323.265 62.0116 323.866 58.9325Z" fill="#5CA7B5"/>
<path d="M317.603 60.5499C315.937 72.2248 305.682 138.111 253.229 149.332C248.786 150.268 244.28 150.803 239.763 150.94C236.09 150.764 232.425 150.326 228.798 149.62C217.982 147.659 207.846 142.965 199.353 135.984C198.876 137.115 198.409 138.25 197.952 139.389C196.366 138.308 194.826 137.155 193.336 135.93C191.823 134.449 189.13 131.22 186.958 127.13C190.989 117.702 196.272 108.856 202.667 100.83C206.289 96.6849 210.332 92.9271 214.73 89.6177C219.296 86.3406 224.26 83.6577 229.502 81.6339C240.389 77.367 252.043 75.4101 263.727 75.8869C277.391 76.4592 303.71 73.7674 317.603 60.5499Z" fill="#7CA835"/>
<path d="M377.354 41.664C395.645 28.6244 425.13 81.5899 438.153 110.198C463.114 91.0903 514.062 58.2418 524.057 78.3563C526.051 81.5213 526.85 90.8566 514.403 100.554C510.843 103.668 503.822 113.11 502.818 130.474C501.718 134.871 495.663 140.794 478.689 128.541C486.286 137.115 499.248 158.69 484.475 171.01C470.699 181.577 442.394 191.074 436.218 150.736L432.359 133.362L420.776 146.873C396.341 179.556 375.836 157.85 368.656 142.042C361.423 124.218 383.019 111.287 393.755 107.298C373.011 110.117 370.457 102.041 371.557 97.6439C378.845 81.8524 377.1 70.2169 375.421 65.7933C369.009 51.3786 374.108 43.5187 377.354 41.664Z" fill="#CE6C9E"/>
<path fill-rule="evenodd" clip-rule="evenodd" d="M419.437 24.1776L425.15 25.8097C431.623 27.6593 436.001 33.7501 438.925 39.7627C442.019 46.1271 444.312 54.1154 445.799 62.3718C446.659 67.1482 447.265 72.1022 447.592 77.0044C450.459 73.0148 453.591 69.1288 456.845 65.5278C462.469 59.3033 468.637 53.7322 474.626 49.9634C480.285 46.4029 487.22 43.5445 493.694 45.3941L499.406 47.0261L496.142 58.4502L490.43 56.8181C489.122 56.4444 486.054 56.8107 480.954 60.0196C476.185 63.0201 470.839 67.7629 465.661 73.4934C460.51 79.1937 455.703 85.6752 451.959 91.9848C450.703 94.1004 449.59 96.1579 448.632 98.1272C460.003 90.7547 473.463 82.9293 485.967 77.5193C494.783 73.7046 503.481 70.9305 510.785 70.5635C518.091 70.1965 525.094 72.2776 528.424 79.3696C531.543 84.9898 530.494 96.273 516.942 106.178C514.114 108.538 507.361 116.736 505.884 132.925C505.862 133.172 505.816 133.416 505.748 133.654C504.777 137.05 501.779 141.013 496.045 141.578C494.029 141.777 491.81 141.536 489.367 140.8C490.571 143.42 491.611 146.199 492.341 149.04C494.629 157.943 494.012 168.335 484.695 175.594C484.653 175.627 484.61 175.659 484.566 175.691C477.159 180.991 465.378 186.356 454.318 184.423C448.608 183.425 443.238 180.493 439.029 174.925C436.201 171.183 433.973 166.356 432.442 160.308C429.72 162.439 426.376 163.319 423.191 162.409C419.928 161.477 417.517 158.864 416.362 155.502C411.811 159.918 407.312 162.893 402.88 164.596C396.364 167.1 390.256 166.752 384.88 164.583C374.468 160.381 367.299 149.602 363.81 141.188C363.789 141.139 363.77 141.088 363.751 141.038C359.676 129.952 364.643 120.803 371.289 114.453C373.411 112.427 375.762 110.616 378.168 109.028C375.704 108.362 373.692 107.395 372.086 106.161C367.515 102.652 367.063 97.7027 368.034 94.3061C368.102 94.0681 368.192 93.837 368.303 93.6159C375.604 79.0861 374.202 68.5591 373.046 65.0648C366.774 49.4932 371.848 39.3613 377.459 36.2368C384.034 31.974 391.08 33.907 397.09 38.0789C403.098 42.2493 409.018 49.1998 414.488 57.0966C422.341 68.433 429.719 82.3884 435.51 94.768C435.76 92.4824 435.916 90.0193 435.971 87.4168C436.125 80.0814 435.468 72.0387 434.106 64.4776C432.737 56.8766 430.703 50.0251 428.24 44.9581C425.605 39.5394 423.193 37.6074 421.885 37.2337L416.173 35.6017L419.437 24.1776ZM438.171 147.604C438.121 146.061 437.839 144.583 437.351 143.23L437.09 141.841C439.764 140.059 441.95 137.118 442.992 133.468C444.068 129.703 443.713 125.936 442.276 122.966C445.065 121.204 447.357 118.193 448.432 114.428C449.114 112.042 449.221 109.655 448.843 107.471C460.744 99.5201 475.604 90.6333 489.112 84.7888C497.661 81.0898 505.313 78.7692 511.182 78.4744C516.991 78.1825 519.932 79.8364 521.296 82.826C521.351 82.9473 521.412 83.0657 521.48 83.1807C522 84.0718 523.91 91.3188 512.184 99.8444C512.123 99.8884 512.064 99.9341 512.006 99.9815C507.5 103.665 499.792 113.739 498.038 131.76C497.702 132.64 496.93 133.532 495.268 133.696C493.01 133.918 488.337 132.909 480.311 126.7C478.715 125.465 476.445 125.628 475.041 127.079C473.638 128.53 473.551 130.805 474.838 132.359C478.253 136.481 482.783 143.67 484.67 151.012C486.528 158.241 485.69 164.736 479.889 169.297C473.18 174.079 463.636 178.011 455.682 176.62C451.872 175.954 448.302 174.058 445.347 170.148C442.326 166.151 439.794 159.836 438.637 150.135C438.626 150.048 438.613 149.961 438.597 149.874L438.171 147.604ZM427.108 108.335C426.032 112.1 426.387 115.867 427.823 118.837C425.035 120.599 422.743 123.61 421.667 127.375C420.652 130.928 420.911 134.483 422.151 137.368L416.479 143.555C416.419 143.62 416.362 143.687 416.307 143.756C410.201 151.381 404.715 155.405 400.038 157.203C395.464 158.961 391.431 158.685 387.844 157.238C380.356 154.216 374.329 145.835 371.159 138.231C368.643 131.294 371.363 125.337 376.761 120.18C382.243 114.943 389.887 111.232 394.962 109.536C396.877 108.897 398.004 106.919 397.578 104.946C397.153 102.973 395.312 101.635 393.304 101.84C383.209 102.872 378.709 101.26 376.909 99.8785C375.585 98.8616 375.401 97.6961 375.58 96.7715C383.611 80.545 382.394 67.9198 380.509 62.4079C380.485 62.3382 380.459 62.2692 380.431 62.2009C374.984 48.7695 380.432 43.6218 381.345 43.1394C381.461 43.0777 381.575 43.0102 381.685 42.9371C384.424 41.119 387.795 41.2687 392.574 44.5857C397.402 47.9371 402.673 53.9499 407.977 61.6071C416.409 73.7791 424.376 89.2886 430.29 102.376C428.883 104.003 427.767 106.028 427.108 108.335Z" fill="#DDD347"/>
<path d="M438.153 110.198C463.114 91.0905 514.062 58.2418 524.057 78.3562C526.051 81.5212 526.85 90.8562 514.403 100.554C510.843 103.667 503.821 113.111 502.818 130.474C501.718 134.871 495.662 140.793 478.689 128.541C486.287 137.116 499.247 158.689 484.475 171.009C470.699 181.576 442.394 191.074 436.218 150.735L432.359 133.362L420.776 146.873C396.341 179.555 375.835 157.85 368.656 142.042C361.423 124.218 383.019 111.287 393.755 107.298C373.012 110.117 370.457 102.041 371.556 97.6441C378.845 81.8525 377.099 70.2166 375.421 65.793C369.009 51.3788 374.108 43.5189 377.353 41.6639C395.645 28.6243 425.129 81.5901 438.153 110.198ZM521.295 82.8255C519.932 79.836 516.991 78.1821 511.182 78.474C505.313 78.7689 497.661 81.0894 489.112 84.7882C475.604 90.6328 460.744 99.5202 448.843 107.471C449.221 109.655 449.114 112.042 448.433 114.428C447.357 118.192 445.065 121.203 442.277 122.965C443.713 125.935 444.068 129.703 442.992 133.467C441.949 137.117 439.764 140.059 437.091 141.84L437.351 143.229C437.839 144.582 438.122 146.061 438.171 147.603L438.597 149.874C438.613 149.96 438.627 150.047 438.637 150.134C439.794 159.835 442.326 166.151 445.348 170.148C448.303 174.057 451.872 175.954 455.682 176.62C463.636 178.011 473.179 174.079 479.888 169.297C485.689 164.736 486.528 158.241 484.67 151.012C482.783 143.67 478.253 136.48 474.839 132.359C473.551 130.804 473.639 128.53 475.042 127.078C476.445 125.628 478.716 125.464 480.312 126.699C488.338 132.908 493.011 133.918 495.268 133.696C496.93 133.532 497.701 132.639 498.038 131.76C499.792 113.738 507.5 103.664 512.006 99.9806C512.064 99.9333 512.123 99.888 512.184 99.844C523.909 91.3187 522 84.0721 521.479 83.1806C521.412 83.0655 521.351 82.9468 521.295 82.8255ZM392.574 44.585C387.796 41.268 384.424 41.1188 381.686 42.9368C381.576 43.0098 381.462 43.0778 381.345 43.1395C380.432 43.6218 374.984 48.769 380.431 62.2002C380.459 62.2685 380.485 62.3382 380.509 62.4079C382.394 67.9201 383.611 80.5453 375.581 96.7712C375.402 97.6958 375.585 98.8611 376.91 99.8779C378.709 101.259 383.21 102.872 393.304 101.84C395.312 101.635 397.154 102.973 397.579 104.946C398.004 106.919 396.877 108.896 394.962 109.536C389.887 111.232 382.243 114.943 376.761 120.18C371.364 125.337 368.643 131.294 371.159 138.23C374.329 145.834 380.356 154.216 387.844 157.237C391.431 158.685 395.465 158.96 400.039 157.202C404.715 155.404 410.201 151.38 416.307 143.755C416.362 143.686 416.419 143.619 416.479 143.555L422.151 137.367C420.911 134.483 420.652 130.927 421.667 127.375C422.743 123.61 425.035 120.598 427.823 118.836C426.387 115.867 426.032 112.099 427.108 108.334C427.767 106.027 428.883 104.003 430.29 102.375C424.376 89.2881 416.41 73.7785 407.978 61.6065C402.673 53.9493 397.402 47.9363 392.574 44.585Z" fill="#D3592C"/>
<path d="M664.36 183.534L645.213 164.031L618.259 168.555L614.232 141.522L589.766 129.338L602.399 105.101L589.766 80.8643L614.232 68.6811L618.259 41.6479L645.213 46.1721L664.36 26.6686L683.508 46.1721L710.462 41.6479L714.489 68.6811L738.954 80.8643L726.322 105.101L738.954 129.338L714.489 141.522L710.462 168.555L683.508 164.031L664.36 183.534Z" fill="#DDD347"/>
<ellipse cx="608.814" cy="118.474" rx="55.803" ry="55.803" transform="rotate(-180 608.814 118.474)" fill="#5CA7B5"/>
<path d="M614.233 141.522L589.767 129.339L602.399 105.102L589.767 80.8645L614.233 68.6809L615.076 63.0188C642.948 66.1311 664.617 89.7717 664.617 118.474C664.617 137.871 654.721 154.956 639.701 164.956L618.259 168.555L614.233 141.522Z" fill="#7CA835"/>
<path d="M877.72 107.247C877.207 106.949 876.643 106.664 876.059 106.385C876.643 106.106 877.207 105.821 877.72 105.523C880.627 103.87 883.179 101.659 885.228 99.0158C887.277 96.3729 888.782 93.3508 889.659 90.1236C890.535 86.8963 890.764 83.5276 890.333 80.2115C889.902 76.8953 888.819 73.6971 887.147 70.8011C885.475 67.9051 883.247 65.3684 880.59 63.3371C877.934 61.3058 874.902 59.82 871.669 58.9652C868.436 58.1105 865.066 57.9037 861.752 58.3567C858.439 58.8097 855.248 59.9136 852.363 61.6049C851.85 61.9028 851.317 62.2388 850.791 62.6128C850.842 61.9789 850.874 61.345 850.874 60.711C850.874 53.986 848.202 47.5363 843.447 42.781C838.691 38.0256 832.242 35.3541 825.517 35.3541C818.792 35.3541 812.342 38.0256 807.587 42.781C802.831 47.5363 800.16 53.986 800.16 60.711C800.16 61.3069 800.16 61.9408 800.242 62.6128C799.716 62.2515 799.184 61.9028 798.67 61.6049C795.785 59.9136 792.594 58.8097 789.281 58.3567C785.968 57.9037 782.598 58.1105 779.365 58.9652C776.132 59.82 773.1 61.3058 770.443 63.3371C767.787 65.3684 765.559 67.9051 763.886 70.8011C762.214 73.6971 761.132 76.8953 760.701 80.2115C760.27 83.5276 760.499 86.8963 761.375 90.1236C762.251 93.3508 763.757 96.3729 765.806 99.0158C767.855 101.659 770.406 103.87 773.313 105.523C773.827 105.821 774.391 106.106 774.974 106.385C774.391 106.664 773.827 106.949 773.313 107.247C770.406 108.9 767.855 111.112 765.806 113.755C763.757 116.397 762.251 119.419 761.375 122.647C760.499 125.874 760.27 129.243 760.701 132.559C761.132 135.875 762.214 139.073 763.886 141.969C765.559 144.865 767.787 147.402 770.443 149.433C773.1 151.465 776.132 152.95 779.365 153.805C782.598 154.66 785.968 154.867 789.281 154.414C792.594 153.961 795.785 152.857 798.67 151.165C799.184 150.867 799.716 150.532 800.242 150.158C800.192 150.791 800.16 151.425 800.16 152.028C800.16 158.753 802.831 165.202 807.587 169.958C812.342 174.713 818.792 177.384 825.517 177.384C832.242 177.384 838.691 174.713 843.447 169.958C848.202 165.202 850.874 158.753 850.874 152.028C850.874 151.432 850.842 150.798 850.791 150.158C851.317 150.519 851.85 150.867 852.363 151.165C856.205 153.39 860.565 154.562 865.004 154.563C867.234 154.561 869.455 154.266 871.609 153.688C876.454 152.39 880.804 149.684 884.11 145.913C887.417 142.142 889.531 137.476 890.185 132.503C890.839 127.531 890.004 122.476 887.785 117.978C885.567 113.48 882.064 109.742 877.72 107.235V107.247ZM810.303 106.385C810.303 103.376 811.195 100.435 812.867 97.9326C814.538 95.4307 816.915 93.4806 819.695 92.3291C822.475 91.1776 825.534 90.8763 828.485 91.4633C831.436 92.0504 834.147 93.4994 836.275 95.6271C838.403 97.7549 839.852 100.466 840.439 103.417C841.026 106.368 840.724 109.427 839.573 112.207C838.421 114.987 836.471 117.364 833.969 119.035C831.467 120.707 828.526 121.599 825.517 121.599C821.482 121.599 817.612 119.996 814.759 117.143C811.906 114.29 810.303 110.42 810.303 106.385Z" fill="#5CA7B5"/>
<path d="M879.479 101.145C878.94 100.896 878.352 100.664 877.746 100.44C878.301 100.108 878.836 99.7721 879.32 99.4279C882.061 97.5131 884.397 95.075 886.193 92.2538C887.988 89.4327 889.208 86.2842 889.782 82.9897C890.355 79.6953 890.272 76.3198 889.536 73.0578C888.8 69.7957 887.426 66.7115 885.493 63.9826C883.56 61.2537 881.106 58.9342 878.273 57.1574C875.44 55.3806 872.284 54.1818 868.986 53.6299C865.687 53.078 862.313 53.1839 859.055 53.9416C855.798 54.6993 852.723 56.0938 850.007 58.0447C849.524 58.3889 849.024 58.7727 848.535 59.1938C848.527 58.5579 848.5 57.9238 848.441 57.2926C847.819 50.5964 844.562 44.4217 839.387 40.1268C834.212 35.8319 827.543 33.7687 820.847 34.3911C814.15 35.0134 807.976 38.2703 803.681 43.4453C799.386 48.6203 797.323 55.2895 797.945 61.9857C798 62.5791 798.059 63.2103 798.203 63.8717C797.646 63.5606 797.083 63.2627 796.544 63.0136C793.515 61.5966 790.236 60.7927 786.895 60.6482C783.554 60.5038 780.218 61.0216 777.078 62.1718C773.938 63.3221 771.056 65.0821 768.599 67.3505C766.142 69.6189 764.158 72.351 762.761 75.3893C761.364 78.4276 760.582 81.7123 760.46 85.0541C760.337 88.3959 760.877 91.7289 762.048 94.8613C763.22 97.9936 764.999 100.863 767.283 103.305C769.568 105.747 772.313 107.713 775.361 109.09C775.899 109.339 776.488 109.571 777.094 109.795C776.539 110.126 776.004 110.463 775.52 110.807C772.779 112.721 770.443 115.16 768.647 117.981C766.852 120.802 765.632 123.95 765.058 127.245C764.484 130.539 764.568 133.915 765.304 137.177C766.04 140.439 767.414 143.523 769.347 146.252C771.28 148.981 773.734 151.3 776.567 153.077C779.4 154.854 782.556 156.053 785.854 156.605C789.152 157.157 792.527 157.051 795.784 156.293C799.041 155.535 802.117 154.141 804.833 152.19C805.316 151.846 805.815 151.462 806.305 151.041C806.313 151.677 806.34 152.311 806.396 152.91C807.018 159.607 810.275 165.781 815.45 170.076C820.625 174.371 827.294 176.434 833.99 175.812C840.686 175.19 846.861 171.933 851.156 166.758C855.451 161.583 857.514 154.914 856.892 148.217C856.837 147.624 856.746 146.996 856.637 146.363C857.194 146.674 857.757 146.972 858.295 147.221C862.326 149.081 866.776 149.844 871.196 149.434C873.417 149.225 875.601 148.727 877.692 147.952C882.395 146.211 886.477 143.114 889.42 139.054C892.364 134.993 894.037 130.15 894.228 125.139C894.419 120.127 893.12 115.171 890.494 110.898C887.869 106.625 884.035 103.226 879.478 101.132L879.479 101.145ZM855.869 66.3176C857.5 65.1628 859.342 64.3404 861.29 63.8974C863.238 63.4545 865.255 63.3996 867.224 63.7359C869.194 64.0722 871.078 64.7931 872.768 65.8575C874.459 66.9219 875.924 68.309 877.079 69.9394C878.234 71.5698 879.056 73.4118 879.499 75.36C879.942 77.3083 879.997 79.3247 879.66 81.2942C879.324 83.2636 878.603 85.1476 877.539 86.8384C876.474 88.5293 875.087 89.9939 873.457 91.1487C869.712 93.8078 862.07 96.1097 851.686 97.7497C850.087 92.5081 846.833 87.9254 842.412 84.688C847.408 75.4251 852.125 68.9767 855.869 66.3176ZM821.788 44.5219C825.806 44.1485 829.807 45.3864 832.912 47.9633C836.017 50.5402 837.972 54.2451 838.345 58.2628C838.77 62.8327 836.946 70.6102 833.173 80.428C827.834 79.1751 822.232 79.6957 817.216 81.911C811.698 72.9568 808.472 65.6486 808.047 61.0787C807.674 57.0609 808.912 53.0594 811.489 49.9544C814.066 46.8494 817.77 44.8953 821.788 44.5219ZM772.126 79.6969C772.96 77.8809 774.144 76.247 775.61 74.8887C777.076 73.5303 778.795 72.474 780.669 71.7801C782.543 71.0862 784.535 70.7684 786.532 70.8447C788.529 70.9211 790.492 71.3901 792.307 72.225C796.478 74.1485 802.302 79.6172 808.92 87.8007C805.168 91.8028 802.815 96.9138 802.214 102.367C791.705 102.669 783.77 101.814 779.6 99.8973C777.781 99.0633 776.145 97.8788 774.785 96.4117C773.424 94.9446 772.367 93.2236 771.673 91.3472C770.979 89.4709 770.661 87.4761 770.739 85.477C770.817 83.4778 771.288 81.5137 772.126 79.6969ZM798.97 143.917C795.678 146.249 791.593 147.178 787.616 146.499C783.638 145.819 780.093 143.588 777.761 140.295C775.429 137.002 774.5 132.918 775.179 128.94C775.859 124.963 778.09 121.418 781.383 119.086C785.128 116.427 792.77 114.125 803.154 112.485C804.753 117.727 808.007 122.309 812.428 125.547C807.432 134.81 802.715 141.258 798.97 143.917ZM833.052 165.713C829.034 166.086 825.032 164.848 821.927 162.271C818.822 159.694 816.868 155.99 816.495 151.972C816.07 147.402 817.894 139.624 821.667 129.807C827.006 131.06 832.608 130.539 837.624 128.324C843.142 137.278 846.368 144.586 846.793 149.156C847.166 153.174 845.928 157.175 843.351 160.28C840.774 163.385 837.069 165.339 833.052 165.713ZM882.714 130.538C881.88 132.354 880.696 133.988 879.23 135.346C877.764 136.704 876.045 137.761 874.171 138.454C872.297 139.148 870.305 139.466 868.308 139.39C866.311 139.313 864.348 138.844 862.532 138.01C858.362 136.086 852.538 130.617 845.92 122.434C849.672 118.432 852.025 113.321 852.626 107.868C863.135 107.566 871.07 108.42 875.24 110.337C877.059 111.171 878.695 112.356 880.055 113.823C881.415 115.29 882.473 117.011 883.167 118.887C883.861 120.764 884.178 122.759 884.101 124.758C884.023 126.757 883.552 128.721 882.714 130.538Z" fill="#A75B79"/>
<path d="M825.517 35.3541C828.785 35.3542 831.987 35.9861 834.962 37.1803C836.524 37.9989 838.009 38.983 839.387 40.1266C844.562 44.4215 847.819 50.5964 848.442 57.2926C848.5 57.9237 848.527 58.5581 848.536 59.194C849.025 58.7729 849.524 58.3887 850.007 58.0446C850.228 57.8856 850.453 57.7312 850.679 57.5797C850.808 58.613 850.873 59.6584 850.873 60.7106C850.873 61.3445 850.842 61.979 850.791 62.6129C851.318 62.2389 851.85 61.903 852.364 61.6051C855.249 59.9139 858.439 58.8091 861.752 58.3561C865.065 57.9031 868.435 58.1108 871.668 58.9655C874.901 59.8202 877.934 61.3053 880.59 63.3365C883.247 65.3679 885.475 67.9054 887.147 70.8014C888.622 73.3564 889.638 76.1466 890.153 79.0455C890.132 80.3649 890.009 81.6839 889.782 82.9899C889.208 86.2842 887.988 89.4325 886.193 92.2535C884.397 95.0747 882.061 97.5126 879.32 99.4274C878.836 99.7715 878.301 100.108 877.746 100.44C878.353 100.664 878.941 100.895 879.48 101.144L879.478 101.132C880.343 101.53 881.183 101.975 881.994 102.464C880.681 103.625 879.251 104.653 877.72 105.523C877.207 105.821 876.642 106.106 876.059 106.385C876.642 106.664 877.207 106.949 877.72 107.247V107.234C882.064 109.741 885.567 113.48 887.786 117.978C890.004 122.476 890.839 127.531 890.185 132.504C889.743 135.861 888.634 139.078 886.944 141.975C884.346 144.61 881.192 146.656 877.693 147.952C875.601 148.727 873.417 149.225 871.197 149.434C866.777 149.844 862.326 149.081 858.295 147.221C857.757 146.972 857.194 146.674 856.637 146.363C856.747 146.996 856.837 147.624 856.892 148.217C857.048 149.891 857.036 151.563 856.863 153.211C855.306 152.68 853.798 151.997 852.364 151.166C851.85 150.868 851.318 150.518 850.791 150.157C850.842 150.797 850.873 151.431 850.873 152.027C850.873 158.752 848.202 165.202 843.447 169.958C840.864 172.54 837.78 174.506 834.425 175.765C834.28 175.781 834.136 175.799 833.991 175.812C827.294 176.434 820.626 174.371 815.451 170.076C810.276 165.781 807.018 159.606 806.396 152.91C806.34 152.31 806.313 151.676 806.305 151.041C805.816 151.462 805.316 151.846 804.832 152.19C803.415 153.208 801.898 154.073 800.31 154.777C800.211 153.868 800.16 152.95 800.16 152.027C800.16 151.425 800.192 150.791 800.243 150.157C799.716 150.531 799.184 150.868 798.67 151.166C795.785 152.857 792.594 153.961 789.281 154.414C785.968 154.867 782.597 154.66 779.365 153.805C778.141 153.482 776.947 153.067 775.79 152.567C773.285 150.865 771.101 148.728 769.347 146.252C767.414 143.523 766.04 140.438 765.304 137.176C764.568 133.914 764.485 130.539 765.059 127.245C765.633 123.95 766.852 120.802 768.648 117.981C770.443 115.16 772.779 112.721 775.521 110.806C776.004 110.462 776.539 110.126 777.094 109.795C776.488 109.571 775.899 109.339 775.361 109.089C774.42 108.665 773.509 108.184 772.631 107.65C772.856 107.513 773.083 107.377 773.313 107.247C773.826 106.949 774.391 106.664 774.974 106.385C774.391 106.106 773.826 105.821 773.313 105.523C770.406 103.87 767.855 101.658 765.806 99.0153C763.757 96.3725 762.252 93.3507 761.375 90.1237C760.854 88.2051 760.563 86.2362 760.502 84.2584C760.711 81.1917 761.475 78.1861 762.761 75.3893C764.158 72.351 766.142 69.6186 768.599 67.3502C771.056 65.0819 773.938 63.3218 777.078 62.1715C780.218 61.0212 783.555 60.5036 786.896 60.6481C790.237 60.7926 793.516 61.5965 796.544 63.0133C797.083 63.2625 797.646 63.5606 798.203 63.8717C798.059 63.2104 798.001 62.5792 797.946 61.986C797.92 61.7119 797.9 61.4375 797.883 61.1637C798.148 61.3063 798.411 61.4529 798.67 61.6051C799.184 61.903 799.717 62.2517 800.243 62.6129C800.16 61.941 800.16 61.3065 800.16 60.7106C800.16 53.9857 802.831 47.5361 807.586 42.7809C812.342 38.0255 818.792 35.3541 825.517 35.3541ZM837.624 128.324C832.608 130.539 827.006 131.059 821.667 129.806C817.894 139.624 816.071 147.401 816.495 151.971C816.869 155.989 818.823 159.694 821.928 162.271C825.033 164.848 829.034 166.086 833.052 165.713C837.07 165.339 840.775 163.385 843.352 160.28C845.929 157.175 847.167 153.173 846.793 149.156C846.369 144.586 843.142 137.278 837.624 128.324ZM803.155 112.485C792.77 114.125 785.128 116.426 781.383 119.086C778.09 121.418 775.859 124.963 775.18 128.94C774.501 132.917 775.429 137.002 777.761 140.295C780.093 143.587 783.638 145.819 787.616 146.499C791.593 147.178 795.678 146.249 798.971 143.917C802.716 141.257 807.432 134.809 812.428 125.547C808.007 122.309 804.753 117.726 803.155 112.485ZM875.241 110.338C871.071 108.42 863.135 107.566 852.626 107.868C852.025 113.321 849.673 118.432 845.92 122.434C852.538 130.617 858.362 136.086 862.533 138.009C864.348 138.844 866.311 139.313 868.308 139.389C870.305 139.466 872.297 139.148 874.171 138.455C876.045 137.761 877.765 136.704 879.231 135.345C880.696 133.987 881.88 132.353 882.714 130.538C883.552 128.721 884.023 126.757 884.101 124.757C884.179 122.758 883.862 120.764 883.167 118.887C882.473 117.011 881.415 115.29 880.055 113.823C878.695 112.356 877.059 111.171 875.241 110.338ZM828.485 91.4635C825.534 90.8765 822.475 91.1773 819.695 92.3287C816.915 93.4802 814.538 95.4304 812.867 97.9323C811.195 100.434 810.302 103.376 810.302 106.385C810.302 110.42 811.906 114.29 814.759 117.143C817.612 119.996 821.482 121.599 825.517 121.599C828.526 121.599 831.467 120.706 833.969 119.035C836.471 117.363 838.421 114.987 839.573 112.208C840.724 109.428 841.026 106.368 840.439 103.417C839.852 100.465 838.402 97.7543 836.275 95.6266C834.147 93.4989 831.436 92.0505 828.485 91.4635ZM786.533 70.8444C784.536 70.768 782.543 71.0861 780.669 71.7799C778.795 72.4738 777.076 73.5299 775.61 74.8883C774.144 76.2467 772.961 77.8809 772.126 79.6969C771.289 81.5136 770.817 83.4781 770.74 85.4772C770.662 87.4762 770.979 89.4711 771.673 91.3473C772.367 93.2235 773.424 94.9447 774.785 96.4117C776.145 97.8789 777.781 99.0631 779.6 99.8971C783.77 101.814 791.706 102.669 802.214 102.367C802.815 96.9139 805.168 91.8025 808.92 87.8004C802.303 79.6172 796.479 74.1488 792.308 72.2252C790.492 71.3903 788.53 70.9207 786.533 70.8444ZM867.225 63.736C865.256 63.3997 863.239 63.4541 861.29 63.8971C859.342 64.3401 857.5 65.1622 855.87 66.317C852.125 68.9761 847.408 75.4252 842.411 84.6881C846.833 87.9255 850.087 92.508 851.686 97.7496C862.07 96.1097 869.713 93.8081 873.457 91.149C875.088 89.9942 876.475 88.5293 877.539 86.8385C878.604 85.1477 879.324 83.263 879.661 81.2936C879.997 79.3243 879.942 77.3081 879.499 75.36C879.056 73.4118 878.234 71.5695 877.079 69.9391C875.925 68.3087 874.46 66.9215 872.769 65.8571C871.078 64.7928 869.194 64.0723 867.225 63.736ZM832.912 47.9635C829.807 45.3866 825.806 44.1487 821.788 44.5221C817.771 44.8955 814.066 46.8497 811.489 49.9547C808.912 53.0597 807.674 57.0612 808.047 61.0787C808.472 65.6487 811.698 72.9567 817.216 81.9108C822.233 79.6955 827.834 79.1745 833.173 80.4274C836.946 70.6099 838.77 62.8322 838.345 58.2623C837.972 54.2447 836.017 50.5404 832.912 47.9635Z" fill="#715A95"/>
<path d="M1057.37 32.4391V46.8043C1049.77 52.6002 1043.83 69.0284 1041.89 89.7516C1039.47 63.7768 1030.75 44.5494 1020.36 44.5494C1009.98 44.5496 1001.26 63.7769 998.835 89.7516C996.408 63.7768 987.69 44.5494 977.305 44.5494C966.921 44.5498 958.202 63.7785 955.776 89.7545C953.35 63.7782 944.631 44.5494 934.246 44.5494C921.984 44.5502 912.044 71.3584 912.044 104.428C912.044 137.498 921.984 164.307 934.246 164.308C944.631 164.308 953.35 145.079 955.776 119.103C958.203 145.079 966.921 164.308 977.305 164.308C987.69 164.308 996.408 145.081 998.835 119.106C1001.26 145.081 1009.98 164.308 1020.36 164.308C1030.75 164.308 1039.47 145.081 1041.89 119.106C1043.83 139.829 1049.77 156.258 1057.37 162.053V177.764H912.044V32.4391H1057.37Z" fill="#5CA7B5"/>
<path d="M912.044 59.9583C916.115 47.2264 922.14 39.1668 928.863 39.1663C939.248 39.1663 947.966 58.3932 950.393 84.3674C952.819 58.3933 961.539 39.1667 971.923 39.1663C982.307 39.1663 991.025 58.3935 993.452 84.3684C995.879 58.3938 1004.6 39.1667 1014.98 39.1663C1025.37 39.1664 1034.09 58.3956 1036.51 84.3723C1038.89 58.9589 1047.28 40.007 1057.37 39.1965V158.895C1047.28 158.084 1038.89 139.132 1036.51 113.719C1034.09 139.695 1025.37 158.925 1014.98 158.925C1004.6 158.925 995.879 139.697 993.452 113.723C991.025 139.697 982.307 158.925 971.923 158.925C961.539 158.925 952.82 139.698 950.393 113.725C947.966 139.699 939.247 158.925 928.863 158.925C922.14 158.924 916.115 150.864 912.044 138.132V59.9583Z" fill="#DDD347"/>
<path d="M1038.58 70.2015C1042.26 52.2002 1049.27 39.8494 1057.37 39.1986V46.8051C1049.77 52.6009 1043.83 69.0291 1041.89 89.7523C1041.23 82.645 1040.09 76.0429 1038.58 70.2015ZM1039.82 133.278C1040.72 128.864 1041.43 124.111 1041.89 119.107C1043.45 135.731 1047.58 149.591 1053.07 157.415C1047.62 154.051 1042.93 145.269 1039.82 133.278ZM995.523 70.2006C999.301 51.7018 1006.6 39.1677 1014.98 39.1674C1018.72 39.1674 1022.24 41.6579 1025.33 46.056C1023.73 45.0723 1022.07 44.5502 1020.37 44.5502C1009.98 44.5506 1001.26 63.7792 998.836 89.7552C998.172 82.6464 997.035 76.0429 995.523 70.2006ZM996.765 133.277C997.666 128.862 998.368 124.108 998.836 119.104C1000.39 135.732 1004.52 149.596 1010.02 157.42C1004.56 154.057 999.869 145.272 996.765 133.277ZM952.464 70.2025C956.241 51.7027 963.538 39.1679 971.923 39.1674C975.66 39.1674 979.181 41.6582 982.27 46.057C980.674 45.0728 979.013 44.5502 977.306 44.5502C966.921 44.5507 958.203 63.7793 955.776 89.7552C955.112 82.6472 953.975 76.0444 952.464 70.2025ZM953.705 133.277C954.606 128.862 955.309 124.108 955.776 119.104C957.33 135.732 961.46 149.596 966.957 157.42C961.5 154.057 956.809 145.272 953.705 133.277ZM912.044 59.9603C916.115 47.2281 922.14 39.1679 928.863 39.1674C932.6 39.1674 936.121 41.6583 939.211 46.057C937.614 45.0728 935.953 44.5502 934.246 44.5502C921.984 44.5509 912.044 71.3591 912.044 104.429C912.044 127.427 916.853 147.395 923.905 157.426C919.211 154.538 915.083 147.638 912.044 138.133V59.9603Z" fill="#7CA835"/>
<ellipse cx="1143.34" cy="105.102" rx="72.6628" ry="72.6628" transform="rotate(-90 1143.34 105.102)" fill="#A75B79"/>
<path d="M1070.67 32.4389L1216 177.764V32.4389H1070.67Z" fill="#5CA7B5"/>
<path d="M1091.96 53.7212C1105.11 40.5718 1123.27 32.439 1143.34 32.439C1183.47 32.4392 1216 64.9709 1216 105.101C1216 125.166 1207.87 143.333 1194.72 156.482L1091.96 53.7212Z" fill="#715A95"/>
</svg>
