<svg width="350" height="208" viewBox="0 0 350 208" fill="none" xmlns="http://www.w3.org/2000/svg">
<path d="M57.0604 42.333C56.8198 42.1934 56.5555 42.0597 56.2822 41.9291C56.5555 41.7984 56.8198 41.6647 57.0604 41.5251C58.4224 40.7508 59.6178 39.7146 60.5777 38.4764C61.5376 37.2381 62.2432 35.8223 62.6537 34.3102C63.0642 32.7982 63.1715 31.2199 62.9696 29.6662C62.7676 28.1126 62.2604 26.6142 61.477 25.2573C60.6936 23.9005 59.6495 22.712 58.405 21.7603C57.1604 20.8086 55.7398 20.1125 54.2251 19.712C52.7104 19.3115 51.1314 19.2146 49.5791 19.4269C48.0268 19.6391 46.5318 20.1563 45.1802 20.9487C44.9396 21.0883 44.6902 21.2457 44.4436 21.4209C44.4674 21.1239 44.4823 20.8269 44.4823 20.5299C44.4823 17.3791 43.2306 14.3574 41.0026 12.1294C38.7747 9.90144 35.7529 8.64978 32.6021 8.64978C29.4513 8.64978 26.4295 9.90144 24.2016 12.1294C21.9736 14.3574 20.7219 17.3791 20.7219 20.5299C20.7219 20.8091 20.7219 21.1061 20.7605 21.4209C20.514 21.2517 20.2646 21.0883 20.024 20.9487C18.6724 20.1563 17.1774 19.6391 15.6251 19.4269C14.0727 19.2146 12.4938 19.3115 10.9791 19.712C9.46436 20.1125 8.04382 20.8086 6.79923 21.7603C5.55465 22.712 4.51061 23.9005 3.72721 25.2573C2.94382 26.6142 2.43655 28.1126 2.2346 29.6662C2.03265 31.2199 2.14002 32.7982 2.55053 34.3102C2.96103 35.8223 3.66656 37.2381 4.6265 38.4764C5.58643 39.7146 6.78182 40.7508 8.14382 41.5251C8.3844 41.6647 8.64873 41.7984 8.92197 41.9291C8.64873 42.0597 8.3844 42.1934 8.14382 42.333C6.78182 43.1074 5.58643 44.1435 4.6265 45.3817C3.66656 46.62 2.96103 48.0359 2.55053 49.5479C2.14002 51.0599 2.03265 52.6382 2.2346 54.1919C2.43655 55.7456 2.94382 57.244 3.72721 58.6008C4.51061 59.9577 5.55465 61.1461 6.79923 62.0978C8.04382 63.0495 9.46436 63.7457 10.9791 64.1461C12.4938 64.5466 14.0727 64.6435 15.6251 64.4313C17.1774 64.219 18.6724 63.7018 20.024 62.9094C20.2646 62.7698 20.514 62.6124 20.7605 62.4372C20.7368 62.7342 20.7219 63.0312 20.7219 63.3133C20.7219 66.4642 21.9736 69.4859 24.2016 71.7139C26.4295 73.9418 29.4513 75.1935 32.6021 75.1935C35.7529 75.1935 38.7747 73.9418 41.0026 71.7139C43.2306 69.4859 44.4823 66.4642 44.4823 63.3133C44.4823 63.0342 44.4674 62.7372 44.4436 62.4372C44.6902 62.6065 44.9396 62.7698 45.1802 62.9094C46.9799 63.9518 49.0227 64.5009 51.1025 64.5014C52.1475 64.5001 53.1879 64.3623 54.1972 64.0915C56.4669 63.4832 58.5051 62.2155 60.0543 60.4487C61.6034 58.682 62.5939 56.4955 62.9003 54.1658C63.2068 51.8362 62.8155 49.468 61.776 47.3607C60.7365 45.2534 59.0955 43.5017 57.0604 42.3271V42.333ZM25.474 41.9291C25.474 40.5193 25.8921 39.1411 26.6753 37.9689C27.4585 36.7967 28.5718 35.8831 29.8743 35.3436C31.1768 34.8041 32.61 34.6629 33.9927 34.9379C35.3754 35.213 36.6455 35.8919 37.6424 36.8887C38.6393 37.8856 39.3182 39.1557 39.5932 40.5384C39.8683 41.9212 39.7271 43.3544 39.1876 44.6569C38.6481 45.9594 37.7345 47.0726 36.5622 47.8559C35.39 48.6391 34.0119 49.0572 32.6021 49.0572C30.7116 49.0572 28.8985 48.3062 27.5618 46.9694C26.225 45.6326 25.474 43.8196 25.474 41.9291Z" fill="#5CA7B5"/>
<path d="M57.8844 39.4739C57.6319 39.3572 57.3564 39.2486 57.0722 39.1437C57.3322 38.9883 57.583 38.8308 57.8096 38.6695C59.0941 37.7724 60.1885 36.6301 61.0297 35.3084C61.871 33.9866 62.4424 32.5115 62.7112 30.968C62.9801 29.4245 62.9409 27.843 62.5961 26.3147C62.2512 24.7863 61.6074 23.3413 60.7018 22.0628C59.7962 20.7843 58.6467 19.6975 57.3194 18.8651C55.9921 18.0326 54.5132 17.471 52.9679 17.2124C51.4227 16.9538 49.8415 17.0034 48.3155 17.3584C46.7895 17.7134 45.3488 18.3668 44.0763 19.2808C43.8497 19.4421 43.6158 19.6219 43.3866 19.8192C43.3827 19.5213 43.37 19.2242 43.3426 18.9284C43.051 15.7911 41.5251 12.8982 39.1005 10.8859C36.6759 8.87372 33.5513 7.90707 30.414 8.19865C27.2767 8.49023 24.3837 10.0162 22.3715 12.4407C20.3593 14.8653 19.3926 17.9899 19.6842 21.1272C19.71 21.4052 19.7375 21.7009 19.8051 22.0108C19.544 21.8651 19.2805 21.7255 19.028 21.6088C17.6089 20.9449 16.0724 20.5683 14.5071 20.5006C12.9418 20.4329 11.3786 20.6755 9.90746 21.2144C8.4363 21.7533 7.08628 22.5779 5.93511 23.6407C4.78394 24.7035 3.85436 25.9835 3.19989 27.407C2.54542 28.8305 2.17899 30.3695 2.12169 31.9352C2.06439 33.5009 2.31736 35.0625 2.86602 36.53C3.41469 37.9975 4.24822 39.3421 5.31862 40.4862C6.38903 41.6303 7.67517 42.5513 9.10299 43.1963C9.35545 43.3131 9.63102 43.4217 9.91518 43.5265C9.65521 43.6819 9.40438 43.8395 9.17775 44.0007C7.89325 44.8978 6.79888 46.0401 5.95766 47.3619C5.11643 48.6837 4.54495 50.1588 4.27614 51.7023C4.00732 53.2458 4.04646 54.8273 4.39132 56.3556C4.73618 57.8839 5.37994 59.3289 6.28554 60.6075C7.19114 61.886 8.34068 62.9727 9.668 63.8052C10.9953 64.6376 12.4742 65.1993 14.0194 65.4579C15.5647 65.7165 17.1459 65.6668 18.6719 65.3118C20.1979 64.9568 21.6386 64.3035 22.9111 63.3894C23.1377 63.2282 23.3716 63.0484 23.6008 62.8511C23.6046 63.149 23.6173 63.4461 23.6434 63.7271C23.935 66.8643 25.4609 69.7573 27.8855 71.7695C30.3101 73.7818 33.4347 74.7484 36.572 74.4568C39.7093 74.1652 42.6023 72.6393 44.6145 70.2147C46.6267 67.7902 47.5934 64.6655 47.3018 61.5282C47.276 61.2503 47.2337 60.9559 47.1823 60.6594C47.4434 60.8052 47.7069 60.9447 47.9594 61.0615C49.8478 61.9328 51.9327 62.2906 54.0035 62.0985C55.044 62.0005 56.0672 61.7671 57.0471 61.404C59.2507 60.5883 61.1629 59.1374 62.5419 57.2349C63.9209 55.3323 64.7048 53.0636 64.7943 50.7156C64.8839 48.3675 64.2751 46.0457 63.0451 44.0436C61.815 42.0416 60.0189 40.4492 57.8838 39.468L57.8844 39.4739ZM46.8228 23.1568C47.5867 22.6157 48.4496 22.2304 49.3624 22.0229C50.2752 21.8154 51.22 21.7896 52.1427 21.9472C53.0654 22.1048 53.9481 22.4426 54.7403 22.9412C55.5325 23.4399 56.2187 24.0898 56.7597 24.8537C57.3008 25.6176 57.6861 26.4805 57.8936 27.3933C58.1011 28.3061 58.1269 29.2508 57.9693 30.1736C57.8117 31.0963 57.474 31.979 56.9753 32.7712C56.4766 33.5634 55.8267 34.2496 55.0628 34.7906C53.3084 36.0364 49.7278 37.1149 44.8626 37.8833C44.1136 35.4275 42.5892 33.2804 40.5176 31.7636C42.8585 27.4238 45.0683 24.4026 46.8228 23.1568ZM30.8551 12.9451C32.7375 12.7702 34.6123 13.3501 36.067 14.5575C37.5218 15.7648 38.4373 17.5006 38.6123 19.383C38.8113 21.5241 37.9568 25.168 36.1889 29.7677C33.6876 29.1807 31.0632 29.4247 28.7129 30.4626C26.1276 26.2674 24.6162 22.8433 24.4173 20.7023C24.2423 18.8199 24.8223 16.9451 26.0296 15.4904C27.237 14.0356 28.9727 13.1201 30.8551 12.9451ZM7.58746 29.4252C7.97831 28.5744 8.53295 27.8089 9.2197 27.1725C9.90646 26.5361 10.7119 26.0412 11.5899 25.7161C12.468 25.391 13.4015 25.2421 14.3371 25.2778C15.2727 25.3136 16.1922 25.5334 17.0428 25.9245C18.9968 26.8257 21.7256 29.3879 24.8262 33.222C23.0682 35.097 21.9657 37.4916 21.6842 40.0464C16.7607 40.1878 13.0427 39.7877 11.089 38.8895C10.237 38.4987 9.4704 37.9438 8.83314 37.2564C8.19588 36.569 7.70045 35.7627 7.3752 34.8836C7.04996 34.0045 6.9013 33.0699 6.93772 32.1333C6.97414 31.1967 7.19493 30.2764 7.58746 29.4252ZM20.1646 59.5135C18.6219 60.6062 16.7082 61.0413 14.8447 60.723C12.9811 60.4048 11.3203 59.3593 10.2276 57.8166C9.13495 56.2739 8.69985 54.3602 9.01808 52.4967C9.33631 50.6331 10.3818 48.9723 11.9245 47.8796C13.679 46.6338 17.2596 45.5553 22.1248 44.787C22.8738 47.2428 24.3982 49.3898 26.4698 50.9066C24.1289 55.2465 21.919 58.2676 20.1646 59.5135ZM36.1323 69.7252C34.2499 69.9001 32.3751 69.3201 30.9204 68.1128C29.4656 66.9054 28.5501 65.1697 28.3751 63.2873C28.1761 61.1462 29.0306 57.5023 30.7985 52.9025C33.2998 53.4895 35.9242 53.2456 38.2745 52.2077C40.8598 56.4029 42.3711 59.8269 42.5701 61.968C42.7451 63.8504 42.1651 65.7252 40.9577 67.1799C39.7504 68.6347 38.0146 69.5502 36.1323 69.7252ZM59.3999 53.245C59.0091 54.0959 58.4544 54.8614 57.7677 55.4978C57.0809 56.1342 56.2755 56.6291 55.3974 56.9542C54.5194 57.2793 53.5859 57.4282 52.6503 57.3924C51.7146 57.3567 50.7952 57.1369 49.9445 56.7457C47.9906 55.8446 45.2617 53.2824 42.1612 49.4483C43.9192 47.5732 45.0217 45.1786 45.3032 42.6238C50.2267 42.4824 53.9447 42.8826 55.8984 43.7808C56.7504 44.1715 57.517 44.7265 58.1542 45.4138C58.7915 46.1012 59.2869 46.9075 59.6122 47.7866C59.9374 48.6657 60.0861 49.6004 60.0497 50.537C60.0132 51.4736 59.7924 52.3938 59.3999 53.245Z" fill="#A75B79"/>
<path d="M32.6021 8.64978C34.1335 8.6498 35.6337 8.94741 37.0278 9.5072C37.7591 9.89054 38.455 10.3497 39.1001 10.8851C41.5247 12.8974 43.0507 15.7908 43.3423 18.9281C43.3698 19.2237 43.3824 19.5209 43.3862 19.8187C43.6153 19.6216 43.8492 19.4418 44.0757 19.2806C44.1781 19.2071 44.2836 19.137 44.3882 19.0668C44.4481 19.5497 44.4819 20.0379 44.4819 20.5297C44.4819 20.8267 44.4676 21.1243 44.4438 21.4213C44.6903 21.2461 44.9396 21.0882 45.1802 20.9486C46.5316 20.1563 48.0265 19.6394 49.5786 19.4271C51.1309 19.2149 52.7104 19.3118 54.2251 19.7123C55.7397 20.1128 57.1603 20.8085 58.4048 21.7601C59.6494 22.7118 60.6937 23.9004 61.4771 25.2572C62.1665 26.4513 62.6415 27.7552 62.8833 29.1097C62.8738 29.731 62.8185 30.3522 62.7114 30.9672C62.4426 32.5107 61.871 33.9862 61.0298 35.308C60.1886 36.6297 59.0936 37.7722 57.8091 38.6693C57.5826 38.8305 57.3316 38.9876 57.0718 39.1429C57.3559 39.2478 57.6318 39.3563 57.8843 39.473L57.8833 39.4672C58.2884 39.6533 58.6819 39.8614 59.061 40.0902C58.4463 40.6345 57.7773 41.117 57.0601 41.5248C56.8195 41.6644 56.555 41.7984 56.2817 41.9291C56.555 42.0598 56.8195 42.1938 57.0601 42.3334V42.3265C59.0951 43.5011 60.7364 45.2534 61.7759 47.3607C62.8153 49.4679 63.2063 51.8359 62.8999 54.1654C62.693 55.738 62.173 57.2449 61.3813 58.6019C60.164 59.8366 58.687 60.7967 57.0474 61.4037C56.0674 61.7667 55.0438 62 54.0034 62.098C51.9326 62.2901 49.8478 61.9322 47.9595 61.0609C47.707 60.9442 47.4433 60.8043 47.1821 60.6586C47.2335 60.9551 47.2754 61.2497 47.3013 61.5277C47.3742 62.3121 47.3677 63.0955 47.2866 63.8676C46.5578 63.6188 45.852 63.2987 45.1802 62.9095C44.9397 62.77 44.6903 62.6061 44.4438 62.4369C44.4676 62.7367 44.4819 63.0338 44.4819 63.3129C44.4819 66.4637 43.2304 69.4863 41.0024 71.7142C39.793 72.9237 38.3478 73.8411 36.7769 74.431C36.7085 74.4386 36.6404 74.45 36.5718 74.4564C33.4345 74.748 30.3098 73.7811 27.8853 71.7689C25.4607 69.7567 23.9346 66.8632 23.6431 63.726C23.617 63.4452 23.6049 63.1477 23.6011 62.85C23.3718 63.0473 23.1373 63.2278 22.9106 63.389C22.247 63.8657 21.5368 64.2695 20.7935 64.599C20.7472 64.1739 20.7222 63.7445 20.7222 63.3129C20.7222 63.0308 20.7365 62.7337 20.7603 62.4369C20.5138 62.6121 20.2645 62.77 20.0239 62.9095C18.6723 63.7019 17.1768 64.2188 15.6245 64.431C14.0723 64.6432 12.4936 64.5463 10.979 64.1459C10.4081 63.9949 9.85078 63.8015 9.31104 63.5687C8.13459 62.7705 7.10874 61.7688 6.28564 60.6068C5.38005 59.3283 4.73597 57.8832 4.39111 56.3549C4.04628 54.8266 4.00707 53.245 4.27588 51.7015C4.54469 50.1582 5.11641 48.6834 5.95752 47.3617C6.79867 46.0401 7.8929 44.8974 9.17725 44.0004C9.40379 43.8392 9.65467 43.6811 9.91455 43.5258C9.6306 43.421 9.35531 43.3123 9.10303 43.1957C8.6639 42.9973 8.23976 42.7699 7.82959 42.5209C7.93367 42.4574 8.03791 42.3937 8.14404 42.3334C8.38448 42.1939 8.64831 42.0597 8.92139 41.9291C8.64831 41.7985 8.38448 41.6643 8.14404 41.5248C6.78204 40.7504 5.5864 39.7142 4.62646 38.476C3.66659 37.2377 2.96078 35.8219 2.55029 34.3099C2.3072 33.4145 2.17223 32.4957 2.14307 31.5726C2.23987 30.1322 2.59581 28.7202 3.19971 27.4066C3.85418 25.9831 4.78389 24.7028 5.93506 23.64C7.0862 22.5773 8.43661 21.7531 9.90771 21.2142C11.3788 20.6754 12.9421 20.4327 14.5073 20.5004C16.0724 20.5681 17.6089 20.944 19.0278 21.6078C19.2803 21.7245 19.5441 21.8644 19.8052 22.0101C19.7376 21.7002 19.7099 21.4043 19.6841 21.1263C19.6723 20.9994 19.6654 20.8723 19.6577 20.7455C19.7804 20.8117 19.9034 20.878 20.0239 20.9486C20.2645 21.0882 20.5138 21.252 20.7603 21.4213C20.7216 21.1064 20.7222 20.8088 20.7222 20.5297C20.7222 17.3789 21.9738 14.3572 24.2017 12.1293C26.4296 9.90144 29.4513 8.64978 32.6021 8.64978ZM38.2739 52.2074C35.9238 53.2451 33.2995 53.4887 30.7983 52.9017C29.0305 57.5014 28.1756 61.1454 28.3745 63.2865C28.5495 65.1688 29.4657 66.9044 30.9204 68.1117C32.3752 69.319 34.2499 69.8999 36.1323 69.725C38.0146 69.55 39.7502 68.6338 40.9575 67.1791C42.1648 65.7243 42.7448 63.8495 42.5698 61.9672C42.3707 59.8261 40.8591 56.4024 38.2739 52.2074ZM22.1245 44.7865C17.2594 45.5548 13.6788 46.6335 11.9243 47.8793C10.3817 48.972 9.33628 50.633 9.01807 52.4965C8.69998 54.3598 9.13459 56.2732 10.2271 57.8158C11.3197 59.3584 12.9808 60.4038 14.8442 60.722C16.7078 61.0403 18.6218 60.6058 20.1646 59.5131C21.919 58.2672 24.1284 55.2455 26.4692 50.9056C24.3979 49.3889 22.8735 47.2421 22.1245 44.7865ZM55.8979 43.7806C53.9442 42.8825 50.2265 42.482 45.3032 42.6234C45.0217 45.1781 43.9186 47.5726 42.1606 49.4476C45.2612 53.2817 47.9908 55.8443 49.9448 56.7455C50.7953 57.1365 51.7145 57.3562 52.6499 57.392C53.5854 57.4277 54.519 57.2785 55.397 56.9535C56.2749 56.6285 57.0804 56.1337 57.7671 55.4974C58.4538 54.861 59.0091 54.0953 59.3999 53.2445C59.7924 52.3934 60.0129 51.4731 60.0493 50.5365C60.0857 49.6 59.937 48.6655 59.6118 47.7865C59.2866 46.9074 58.7911 46.1008 58.1538 45.4135C57.5165 44.7261 56.75 44.1714 55.8979 43.7806ZM33.9927 34.9379C32.6101 34.6629 31.1769 34.8038 29.8745 35.3431C28.572 35.8826 27.4585 36.7969 26.6753 37.9691C25.8921 39.1413 25.4741 40.5193 25.4741 41.9291C25.4741 43.8196 26.2252 45.6323 27.562 46.9691C28.8988 48.3058 30.7116 49.057 32.6021 49.057C34.0118 49.057 35.3899 48.639 36.562 47.8558C37.7342 47.0726 38.6475 45.9591 39.187 44.6566C39.7265 43.3542 39.8683 41.9211 39.5933 40.5385C39.3182 39.1558 38.6389 37.8859 37.6421 36.889C36.6452 35.8922 35.3753 35.2129 33.9927 34.9379ZM14.3374 25.2777C13.4018 25.2419 12.4674 25.3901 11.5894 25.7152C10.7114 26.0403 9.90592 26.5359 9.21924 27.1722C8.53275 27.8085 7.97817 28.5737 7.5874 29.4242C7.19494 30.2752 6.97447 31.1957 6.93799 32.1322C6.90157 33.0688 7.05025 34.0041 7.37549 34.8832C7.70073 35.7622 8.19533 36.5689 8.83252 37.2562C9.46971 37.9435 10.2365 38.4983 11.0884 38.889C13.0421 39.7872 16.7606 40.1877 21.6841 40.0463C21.9656 37.4915 23.0677 35.0961 24.8257 33.2211C21.7252 29.3871 18.9964 26.8253 17.0425 25.9242C16.192 25.5331 15.2728 25.3135 14.3374 25.2777ZM52.1421 21.9467C51.2195 21.7892 50.2745 21.8143 49.3618 22.0219C48.4491 22.2294 47.5865 22.6156 46.8228 23.1566C45.0683 24.4025 42.8579 27.4233 40.5171 31.7631C42.5886 33.2798 44.1137 35.4265 44.8628 37.8822C49.7278 37.1139 53.3086 36.0362 55.063 34.7904C55.8268 34.2494 56.4764 33.563 56.9751 32.7709C57.4737 31.9787 57.8117 31.0959 57.9692 30.1732C58.1268 29.2505 58.1006 28.3057 57.8931 27.3929C57.6855 26.4802 57.3003 25.6168 56.7593 24.8529C56.2183 24.0891 55.5319 23.4394 54.7397 22.9408C53.9476 22.4422 53.0647 22.1042 52.1421 21.9467ZM36.0669 14.557C34.6122 13.3497 32.7374 12.7698 30.855 12.9447C28.9727 13.1196 27.2371 14.035 26.0298 15.4896C24.8225 16.9444 24.2426 18.8192 24.4175 20.7015C24.6165 22.8426 26.1271 26.2671 28.7124 30.4623C31.0627 29.4244 33.6877 29.18 36.189 29.767C37.9568 25.1673 38.8108 21.5233 38.6118 19.3822C38.4368 17.4999 37.5215 15.7643 36.0669 14.557Z" fill="#715A95"/>
<path d="M131.822 82.6559L121.733 72.3791L107.53 74.763L105.408 60.5186L92.5166 54.099L99.1727 41.328L92.5166 28.5569L105.408 22.1373L107.53 7.89297L121.733 10.2769L131.822 4.57764e-05L141.911 10.2769L156.114 7.89297L158.235 22.1373L171.127 28.5569L164.471 41.328L171.127 54.099L158.235 60.5186L156.114 74.763L141.911 72.3791L131.822 82.6559Z" fill="#DDD347"/>
<ellipse cx="102.553" cy="48.374" rx="29.4038" ry="29.4038" transform="rotate(-180 102.553 48.374)" fill="#5CA7B5"/>
<path d="M105.408 60.5187L92.5168 54.0988L99.1731 41.3282L92.5168 28.5568L105.408 22.1378L105.853 19.1564C120.539 20.7964 131.957 33.2504 131.957 48.3741C131.957 58.5958 126.741 67.5983 118.825 72.8673L107.53 74.7628L105.408 60.5187Z" fill="#7CA835"/>
<path d="M195.977 13.7858C203.919 8.12447 216.72 31.12 222.374 43.5406C233.211 35.2447 255.331 20.9832 259.67 29.7161C260.536 31.0902 260.883 35.1432 255.479 39.3536C253.933 40.7053 250.885 44.8049 250.449 52.3435C249.972 54.2526 247.343 56.824 239.973 51.5043C243.272 55.227 248.899 64.5936 242.485 69.9425C236.504 74.5304 224.215 78.6537 221.534 61.1404L219.859 53.5974L214.83 59.4635C204.221 73.6529 195.318 64.2293 192.202 57.3659C189.061 49.6275 198.437 44.0133 203.098 42.2815C194.092 43.5054 192.983 39.9991 193.461 38.09C196.625 31.234 195.867 26.1823 195.138 24.2618C192.354 18.0035 194.569 14.591 195.977 13.7858Z" fill="#CE6C9E"/>
<path fill-rule="evenodd" clip-rule="evenodd" d="M214.249 6.19395L216.729 6.90251C219.539 7.70553 221.44 10.3499 222.709 12.9604C224.053 15.7235 225.048 19.1917 225.694 22.7763C226.067 24.85 226.33 27.0009 226.472 29.1292C227.717 27.3971 229.077 25.7099 230.489 24.1466C232.931 21.4441 235.609 19.0254 238.209 17.3891C240.666 15.8433 243.677 14.6023 246.488 15.4053L248.968 16.1138L247.551 21.0737L245.071 20.3651C244.503 20.2029 243.171 20.3619 240.957 21.7551C238.886 23.0578 236.565 25.1169 234.317 27.6049C232.081 30.0797 229.994 32.8938 228.368 35.6331C227.823 36.5516 227.34 37.4449 226.924 38.2999C231.86 35.0991 237.704 31.7016 243.133 29.3528C246.961 27.6966 250.737 26.4922 253.908 26.3329C257.08 26.1735 260.121 27.077 261.566 30.1561C262.92 32.5962 262.465 37.4949 256.581 41.7952C255.353 42.8198 252.421 46.379 251.78 53.4079C251.77 53.5149 251.751 53.6208 251.721 53.7241C251.3 55.1988 249.998 56.9194 247.508 57.1647C246.633 57.2509 245.67 57.1462 244.609 56.8268C245.132 57.9641 245.583 59.1707 245.9 60.4043C246.894 64.2694 246.626 68.7812 242.581 71.9329C242.562 71.9472 242.544 71.9612 242.525 71.9748C239.309 74.2761 234.194 76.6054 229.392 75.766C226.913 75.3326 224.582 74.0598 222.754 71.6423C221.527 70.018 220.559 67.9219 219.895 65.2964C218.713 66.2218 217.261 66.6036 215.878 66.2084C214.462 65.8037 213.415 64.6692 212.913 63.2098C210.937 65.1271 208.984 66.4185 207.06 67.1581C204.231 68.2453 201.579 68.0942 199.245 67.1524C194.725 65.3282 191.612 60.6483 190.097 56.9953C190.088 56.9737 190.08 56.952 190.072 56.93C188.302 52.1169 190.459 48.1447 193.345 45.388C194.266 44.5082 195.286 43.7221 196.331 43.0327C195.261 42.7436 194.388 42.3235 193.69 41.7879C191.706 40.2642 191.51 38.1156 191.931 36.6409C191.961 36.5376 192 36.4373 192.048 36.3413C195.218 30.033 194.609 25.4626 194.107 23.9455C191.384 17.1849 193.587 12.7861 196.023 11.4296C198.878 9.57882 201.937 10.418 204.546 12.2293C207.155 14.0399 209.725 17.0576 212.1 20.486C215.509 25.4078 218.712 31.4667 221.227 36.8415C221.335 35.8492 221.403 34.7798 221.427 33.6499C221.494 30.4651 221.208 26.9733 220.617 23.6906C220.023 20.3905 219.14 17.4159 218.07 15.216C216.926 12.8634 215.879 12.0246 215.311 11.8624L212.831 11.1538L214.249 6.19395ZM222.382 59.7807C222.36 59.111 222.238 58.469 222.026 57.8818L221.913 57.2788C223.073 56.5052 224.022 55.228 224.475 53.6434C224.942 52.0089 224.788 50.3732 224.164 49.084C225.375 48.3189 226.37 47.0115 226.837 45.377C227.133 44.3411 227.18 43.3048 227.015 42.3564C232.182 38.9047 238.634 35.0464 244.498 32.5089C248.21 30.9029 251.532 29.8955 254.08 29.7674C256.603 29.6407 257.879 30.3588 258.471 31.6567C258.495 31.7094 258.522 31.7608 258.551 31.8108C258.777 32.1976 259.606 35.344 254.515 39.0454C254.489 39.0645 254.463 39.0844 254.438 39.105C252.482 40.7042 249.135 45.0777 248.374 52.9019C248.228 53.2838 247.893 53.6713 247.171 53.7424C246.191 53.8389 244.162 53.4008 240.678 50.7051C239.984 50.1688 238.999 50.2397 238.39 50.8697C237.78 51.4997 237.742 52.4871 238.301 53.162C239.784 54.9514 241.751 58.0727 242.57 61.2603C243.377 64.3991 243.013 67.219 240.494 69.1992C237.581 71.2751 233.438 72.9821 229.984 72.3785C228.33 72.0893 226.781 71.2659 225.498 69.5687C224.186 67.8332 223.086 65.0914 222.584 60.8798C222.58 60.8418 222.574 60.8041 222.567 60.7665L222.382 59.7807ZM217.579 42.7317C217.112 44.3662 217.266 46.0019 217.889 47.2911C216.679 48.0562 215.684 49.3636 215.217 50.9981C214.776 52.5406 214.888 54.0841 215.427 55.3365L212.964 58.0229C212.938 58.0511 212.913 58.0801 212.889 58.11C210.238 61.4206 207.857 63.1677 205.826 63.9481C203.84 64.7114 202.089 64.5917 200.532 63.9633C197.281 62.6514 194.664 59.0128 193.288 55.7114C192.196 52.6998 193.377 50.1134 195.72 47.8745C198.1 45.6008 201.419 43.9897 203.622 43.2534C204.454 42.9756 204.943 42.1172 204.758 41.2605C204.574 40.4037 203.774 39.8229 202.903 39.912C198.52 40.3599 196.566 39.66 195.785 39.0602C195.21 38.6188 195.13 38.1127 195.208 37.7113C198.694 30.6664 198.166 25.1851 197.347 22.792C197.337 22.7617 197.326 22.7318 197.314 22.7021C194.948 16.8707 197.314 14.6358 197.71 14.4264C197.761 14.3996 197.81 14.3703 197.858 14.3385C199.047 13.5492 200.511 13.6142 202.585 15.0543C204.682 16.5094 206.97 19.1199 209.273 22.4443C212.934 27.7289 216.393 34.4625 218.96 40.1445C218.349 40.851 217.865 41.7299 217.579 42.7317Z" fill="#DDD347"/>
<path d="M222.374 43.5407C233.212 35.2448 255.331 20.9831 259.67 29.716C260.536 31.0903 260.883 35.1431 255.479 39.3533C253.934 40.705 250.885 44.8048 250.449 52.3434C249.972 54.2525 247.342 56.8235 239.973 51.5038C243.272 55.2265 248.899 64.5929 242.485 69.9418C236.504 74.5297 224.215 78.6534 221.534 61.1401L219.859 53.5971L214.829 59.4632C204.221 73.6524 195.318 64.2286 192.201 57.3651C189.062 49.627 198.437 44.0128 203.098 42.281C194.092 43.5049 192.983 39.999 193.461 38.0899C196.625 31.2339 195.868 26.1821 195.139 24.2615C192.355 18.0037 194.568 14.5913 195.977 13.7856C203.918 8.12434 216.72 31.1201 222.374 43.5407ZM258.471 31.656C257.879 30.3582 256.603 29.6409 254.081 29.7676C251.532 29.8956 248.21 30.9029 244.498 32.5088C238.634 35.0463 232.182 38.9043 227.015 42.356C227.18 43.3043 227.133 44.3409 226.838 45.3768C226.37 47.0113 225.375 48.3191 224.165 49.0841C224.788 50.3733 224.942 52.009 224.475 53.6433C224.022 55.2278 223.073 56.5052 221.913 57.2787L222.026 57.8818C222.238 58.4689 222.361 59.1113 222.382 59.7809L222.567 60.7662C222.574 60.8037 222.58 60.8415 222.585 60.8794C223.087 65.091 224.186 67.8331 225.498 69.5686C226.781 71.2657 228.331 72.0887 229.985 72.3779C233.438 72.9815 237.581 71.2749 240.494 69.199C243.012 67.2189 243.377 64.3983 242.57 61.2595C241.751 58.0721 239.784 54.9509 238.302 53.1616C237.743 52.4867 237.781 51.4994 238.39 50.8694C238.999 50.2396 239.985 50.1685 240.678 50.7048C244.162 53.4003 246.191 53.8386 247.171 53.7421C247.893 53.671 248.228 53.2833 248.374 52.9014C249.136 45.0778 252.482 40.7045 254.438 39.105C254.463 39.0844 254.489 39.0639 254.515 39.0448C259.604 35.3447 258.778 32.1995 258.551 31.8109C258.522 31.7609 258.495 31.7086 258.471 31.656ZM202.585 15.0539C200.511 13.6138 199.047 13.5493 197.858 14.3386C197.81 14.3703 197.761 14.3998 197.71 14.4265C197.313 14.6367 194.949 16.8716 197.314 22.7016C197.326 22.7312 197.337 22.7613 197.347 22.7916C198.166 25.1846 198.694 30.6664 195.207 37.7113C195.13 38.1127 195.21 38.6184 195.785 39.0598C196.566 39.6595 198.52 40.3596 202.902 39.9118C203.774 39.8227 204.574 40.4033 204.759 41.2599C204.943 42.1166 204.453 42.9748 203.622 43.2526C201.419 43.989 198.1 45.6005 195.721 47.8739C193.377 50.1128 192.196 52.6997 193.288 55.7113C194.665 59.0125 197.281 62.6506 200.532 63.9626C202.089 64.5909 203.84 64.7108 205.826 63.9477C207.856 63.1672 210.239 61.42 212.89 58.1094C212.914 58.0796 212.938 58.0503 212.964 58.0222L215.427 55.3363C214.888 54.084 214.777 52.5401 215.217 50.9977C215.684 49.3633 216.679 48.0563 217.89 47.2912C217.266 46.0021 217.112 44.3654 217.579 42.7309C217.865 41.7293 218.35 40.8505 218.961 40.1441C216.393 34.4623 212.934 27.729 209.273 22.4444C206.97 19.12 204.682 16.509 202.585 15.0539Z" fill="#D3592C"/>
<path d="M272.707 4.31262H287.861V19.4671H272.707V4.31262Z" fill="#5CA7B5"/>
<path d="M287.861 19.4671H303.016V34.6216H287.861V19.4671Z" fill="#5CA7B5"/>
<path d="M318.17 19.4671H333.325V34.6216H318.17V19.4671Z" fill="#5CA7B5"/>
<path d="M333.325 4.31262H348.479V19.4671H333.325V4.31262Z" fill="#5CA7B5"/>
<path d="M303.016 4.31262H318.17V19.4671H303.016V4.31262Z" fill="#5CA7B5"/>
<path d="M272.707 34.6216H287.861V49.7761H272.707V34.6216Z" fill="#5CA7B5"/>
<path d="M287.861 49.7761H303.016V64.9306H287.861V49.7761Z" fill="#5CA7B5"/>
<path d="M318.17 49.7761H333.325V64.9306H318.17V49.7761Z" fill="#5CA7B5"/>
<path d="M333.325 34.6216H348.479V49.7761H333.325V34.6216Z" fill="#5CA7B5"/>
<path d="M303.016 34.6216H318.17V49.7761H303.016V34.6216Z" fill="#5CA7B5"/>
<path d="M272.707 64.9306H287.861V80.0851H272.707V64.9306Z" fill="#5CA7B5"/>
<path d="M333.325 64.9306H348.479V80.0851H333.325V64.9306Z" fill="#5CA7B5"/>
<path d="M303.016 64.9306H318.17V80.0851H303.016V64.9306Z" fill="#5CA7B5"/>
<path d="M289.304 2.5708H304.459V17.7253H289.304V2.5708Z" fill="#DDD347"/>
<path d="M319.613 2.5708H334.767V17.7253H319.613V2.5708Z" fill="#DDD347"/>
<path d="M304.459 17.7253H319.613V32.8798H304.459V17.7253Z" fill="#DDD347"/>
<path d="M289.304 32.8798H304.459V48.0343H289.304V32.8798Z" fill="#DDD347"/>
<path d="M274.15 17.7253H289.304V32.8798H274.15V17.7253Z" fill="#DDD347"/>
<path d="M304.459 48.0343H319.613V63.1888H304.459V48.0343Z" fill="#DDD347"/>
<path d="M319.613 32.8798H334.767V48.0343H319.613V32.8798Z" fill="#DDD347"/>
<path d="M334.767 17.7253H349.922V32.8798H334.767V17.7253Z" fill="#DDD347"/>
<path d="M334.767 48.0343H349.922V63.1888H334.767V48.0343Z" fill="#DDD347"/>
<path d="M319.613 63.1888H334.767V78.3432H319.613V63.1888Z" fill="#DDD347"/>
<path d="M289.304 63.1888H304.459V78.3432H289.304V63.1888Z" fill="#DDD347"/>
<path d="M274.15 48.0343H289.304V63.1888H274.15V48.0343Z" fill="#DDD347"/>
<path d="M334.768 78.3429H333.324V64.9308H334.768V78.3429ZM304.458 78.3429H303.016V64.9308H304.458V78.3429ZM333.324 64.9308H319.612V63.1886H333.324V64.9308ZM303.016 64.9308H289.304V63.1886H303.016V64.9308ZM319.612 63.1886H318.17V49.7765H319.612V63.1886ZM289.304 63.1886H287.861V49.7765H289.304V63.1886ZM348.479 49.7765H334.768V48.0343H348.479V49.7765ZM318.17 49.7765H304.458V48.0343H318.17V49.7765ZM287.861 49.7765H274.15V48.0343H287.861V49.7765ZM334.768 48.0343H333.324V34.6212H334.768V48.0343ZM304.458 48.0343H303.016V34.6212H304.458V48.0343ZM333.324 34.6212H319.612V32.88H333.324V34.6212ZM303.016 34.6212H289.304V32.88H303.016V34.6212ZM319.612 32.88H318.17V19.4669H319.612V32.88ZM289.304 32.88H287.861V19.4669H289.304V32.88ZM348.479 19.4669H334.768V17.7257H348.479V19.4669ZM318.17 19.4669H304.458V17.7257H318.17V19.4669ZM287.861 19.4669H274.15V17.7257H287.861V19.4669ZM334.768 17.7257H333.324V4.31262H334.768V17.7257ZM304.458 17.7257H303.016V4.31262H304.458V17.7257Z" fill="#7CA835"/>
<path d="M75.4072 115.488V122.943C71.4644 125.951 68.3815 134.481 67.3779 145.239C66.1202 131.755 61.5959 121.773 56.2061 121.773C50.8164 121.773 46.2929 131.756 45.0352 145.239C43.7774 131.755 39.2531 121.773 33.8633 121.773C28.4735 121.773 23.9491 131.755 22.6914 145.239C21.4337 131.755 16.9104 121.773 11.5205 121.773C5.15791 121.773 0 135.684 0 152.843C9.98577e-05 170.003 5.15797 183.914 11.5205 183.914C16.9101 183.914 21.4335 173.931 22.6914 160.449C23.9493 173.931 28.4737 183.913 33.8633 183.914C39.2529 183.914 43.7772 173.932 45.0352 160.449C46.2931 173.931 50.8166 183.913 56.2061 183.914C61.5957 183.914 66.12 173.932 67.3779 160.449C68.3816 171.207 71.4644 179.736 75.4072 182.744V190.895H0L0 115.488H75.4072Z" fill="#5CA7B5"/>
<path d="M0 129.771C2.11264 123.163 5.23964 118.98 8.72852 118.98C14.1176 118.981 18.6411 128.961 19.8994 142.441C21.1578 128.96 25.6821 118.98 31.0713 118.98C36.4609 118.981 40.9845 128.963 42.2422 142.446C43.4999 128.963 48.0233 118.981 53.4131 118.98C58.8029 118.981 63.3274 128.963 64.585 142.447C65.8153 129.256 70.172 119.417 75.4072 118.996V181.105C70.1721 180.685 65.8155 170.846 64.585 157.655C63.3272 171.138 58.8028 181.121 53.4131 181.121C48.0235 181.121 43.5001 171.139 42.2422 157.656C40.9843 171.139 36.4608 181.121 31.0713 181.121C25.6822 181.121 21.1579 171.142 19.8994 157.661C18.6409 171.141 14.1174 181.121 8.72852 181.121C5.23964 181.121 2.11264 176.938 0 170.331L0 129.771Z" fill="#DDD347"/>
<path d="M65.6584 135.093C67.5655 125.747 71.2029 119.335 75.4075 118.997V122.942C71.4644 125.95 68.3818 134.48 67.3782 145.239C67.0341 141.55 66.4423 138.124 65.6584 135.093ZM66.302 167.807C66.7699 165.515 67.1357 163.047 67.3782 160.449C68.1836 169.082 70.3296 176.279 73.1829 180.34C70.3495 178.595 67.9132 174.035 66.302 167.807ZM43.3167 135.094C45.2758 125.489 49.0613 118.98 53.4133 118.98C55.3526 118.98 57.1793 120.273 58.7825 122.555C57.9539 122.045 57.0923 121.773 56.2063 121.773C50.8166 121.774 46.2931 131.756 45.0354 145.239C44.6914 141.551 44.1004 138.125 43.3167 135.094ZM43.9602 167.802C44.4275 165.511 44.7932 163.045 45.0354 160.449C45.8408 169.081 47.9844 176.278 50.8372 180.34C48.0042 178.594 45.5706 174.031 43.9602 167.802ZM20.9729 135.094C22.9324 125.489 26.7194 118.98 31.0715 118.98C33.0106 118.98 34.8366 120.273 36.4397 122.555C35.6111 122.045 34.7496 121.773 33.8635 121.773C28.4738 121.773 23.9494 131.756 22.6917 145.239C22.3476 141.551 21.7565 138.125 20.9729 135.094ZM21.6165 167.802C22.0837 165.511 22.4494 163.045 22.6917 160.449C23.4968 169.079 25.6396 176.275 28.4915 180.337C25.6599 178.589 23.2264 174.028 21.6165 167.802ZM0.000244141 129.773C2.1129 123.164 5.23942 118.98 8.72876 118.98C10.6684 118.98 12.4954 120.273 14.0989 122.556C13.2698 122.045 12.4075 121.773 11.5208 121.773C5.15815 121.773 0.00024567 135.684 0.000244141 152.844C0.000313569 164.774 2.49459 175.133 6.15259 180.34C3.71786 178.839 1.57657 175.259 0.000244141 170.328L0.000244141 129.773Z" fill="#7CA835"/>
<path d="M129.647 129.358L163.582 188.135H95.7124L129.647 129.358Z" fill="#CE6C9E"/>
<path d="M129.647 177.025L95.7124 118.248H163.582L129.647 177.025Z" fill="#DDD347"/>
<path d="M143.408 153.191L129.648 177.025L115.887 153.191L129.648 129.358L143.408 153.191Z" fill="#D3592C"/>
<path d="M257.302 131.322L257.715 127.121L253.531 127.663C246.343 128.687 239.015 128.001 232.141 125.66C224.947 123.06 217.152 122.6 209.701 124.336C205.768 125.174 202.106 126.981 199.05 129.595C195.993 132.209 193.639 135.546 192.201 139.302C190.341 144.154 189.772 149.405 190.55 154.542C192.142 152.264 193.903 150.109 195.819 148.096C200.101 143.851 205.468 140.867 211.333 139.47C216.985 138.114 222.876 138.101 228.535 139.432C222.946 139.203 217.371 140.14 212.163 142.181C209.655 143.149 207.281 144.432 205.097 146C202.993 147.583 201.059 149.38 199.326 151.363C197.035 154.238 195.043 157.334 193.377 160.601C194.218 164.068 196.637 167.098 197.741 168.179C201.804 171.519 206.652 173.764 211.827 174.702C216.64 175.638 221.593 175.6 226.392 174.59C253.378 168.817 257.015 132.795 257.302 131.322Z" fill="#DDD347"/>
<path d="M258.59 130.95L259.003 126.749C254.817 137.4 237.805 139.394 229.822 139.06C224.234 138.832 218.658 139.768 213.451 141.809C210.943 142.777 208.569 144.06 206.385 145.628C204.281 147.211 202.347 149.008 200.614 150.991C197.268 155.19 194.559 159.859 192.573 164.848C190.509 169.838 188.908 175.008 187.79 180.292L194.337 181.57C195.576 176.878 197.144 172.279 199.029 167.808C203.091 171.147 207.94 173.392 213.114 174.33C217.928 175.267 222.881 175.229 227.679 174.218C254.666 168.445 258.302 132.423 258.59 130.95Z" fill="#5CA7B5"/>
<path d="M257.302 131.321C257.025 132.741 253.638 166.236 229.249 173.84C228.734 173.977 228.211 174.104 227.679 174.218C222.88 175.229 217.927 175.267 213.113 174.33C207.939 173.392 203.09 171.146 199.028 167.807C198.881 168.156 198.737 168.505 198.594 168.855C198.306 168.635 198.022 168.41 197.741 168.18C196.788 167.246 194.855 164.86 193.803 161.995C195.628 158.074 197.914 154.379 200.614 150.991C202.346 149.008 204.28 147.211 206.384 145.628C208.568 144.061 210.943 142.777 213.45 141.809C214.39 141.441 215.341 141.109 216.302 140.813C220.276 139.732 224.402 139.263 228.534 139.432C227.931 139.29 227.326 139.163 226.718 139.052C227.751 139.015 228.786 139.017 229.822 139.059C237.044 139.362 251.655 137.758 257.474 129.563L257.302 131.321Z" fill="#7CA835"/>
<circle cx="312.296" cy="153.192" r="37.7035" transform="rotate(-90 312.296 153.192)" fill="#A75B79"/>
<path d="M274.593 115.488L349.999 190.895V115.488H274.593Z" fill="#5CA7B5"/>
<path d="M285.636 126.532C292.459 119.709 301.885 115.488 312.297 115.488C333.12 115.488 350 132.369 350 153.192C350 163.604 345.78 173.029 338.957 179.852L285.636 126.532Z" fill="#715A95"/>
</svg>
