<svg width="350" height="95" viewBox="0 0 350 95" fill="none" xmlns="http://www.w3.org/2000/svg">
<path d="M78.5049 86.6422H70.7432C67.6109 82.539 58.7369 79.3294 47.543 78.2838C61.575 76.9731 71.9623 72.2637 71.9629 66.6539C71.9626 61.0447 61.5776 56.3344 47.5479 55.0231C61.5774 53.7117 71.9623 49.0023 71.9629 43.3932C71.9626 37.7832 61.5747 33.072 47.542 31.7614C61.5745 30.4507 71.9625 25.7414 71.9629 20.1315C71.9625 13.5076 57.4798 8.13733 39.6152 8.13733C21.7509 8.13745 7.26891 13.5076 7.26855 20.1315C7.26891 25.7412 17.6564 30.4506 31.6885 31.7614C17.6564 33.0721 7.26885 37.7834 7.26855 43.3932C7.26916 49.0021 17.6538 53.7115 31.6826 55.0231C17.6536 56.3346 7.26885 61.0449 7.26855 66.6539C7.26912 72.2636 17.6567 76.973 31.6885 78.2838C20.4946 79.3295 11.6204 82.539 8.48828 86.6422H0V8.13733H78.5049V86.6422Z" fill="#A75B79"/>
<path d="M63.6357 8.13782C70.5157 10.3373 74.8711 13.5923 74.8711 17.2247C74.8707 22.8346 64.4827 27.544 50.4502 28.8546C64.4828 30.1652 74.8708 34.8755 74.8711 40.4855C74.8711 46.0955 64.4829 50.8047 50.4502 52.1154C64.483 53.426 74.8711 58.1362 74.8711 63.7462C74.8708 69.3569 64.4799 74.0672 50.4443 75.3771C64.1743 76.6584 74.4147 81.1937 74.8545 86.6427H10.1934C10.6331 81.1939 20.8725 76.6587 34.6016 75.3771C20.5669 74.067 10.177 69.3567 10.1768 63.7462C10.1768 58.1364 20.5638 53.4262 34.5957 52.1154C20.5638 50.8045 10.1768 46.0953 10.1768 40.4855C10.1771 34.8758 20.564 30.1655 34.5957 28.8546C20.564 27.5438 10.1771 22.8344 10.1768 17.2247C10.1768 13.5924 14.5317 10.3373 21.4111 8.13782H63.6357Z" fill="#5CA7B5"/>
<path d="M58.0973 76.4952C67.8261 78.4803 74.5028 82.2659 74.8561 86.6427H70.7457C67.6134 82.5386 58.7361 79.3294 47.5387 78.2843C51.377 77.9261 54.9421 77.311 58.0973 76.4952ZM24.0387 77.1642C26.4237 77.6511 28.9921 78.0319 31.6959 78.2843C22.7101 79.1231 15.2191 81.357 10.9918 84.3273C12.8079 81.3778 17.5554 78.8414 24.0387 77.1642ZM58.1022 53.2335C68.0987 55.2739 74.8727 59.2161 74.8727 63.7462C74.8725 65.7648 73.5268 67.666 71.151 69.3351C71.6826 68.4726 71.9654 67.5757 71.9655 66.6534C71.9651 61.0436 61.5768 56.3333 47.5446 55.0226C51.3825 54.6641 54.9474 54.0494 58.1022 53.2335ZM24.0397 53.9034C26.4227 54.3899 28.9888 54.7702 31.6901 55.0226C22.7075 55.8617 15.2184 58.0941 10.9918 61.0636C12.8092 58.1148 17.557 55.5803 24.0397 53.9034ZM58.1022 29.9728C68.0986 32.0132 74.8724 35.9555 74.8727 40.4855C74.8726 42.5043 73.5264 44.4052 71.15 46.0743C71.6818 45.2117 71.9654 44.3151 71.9655 43.3927C71.9651 37.7829 61.5768 33.0726 47.5446 31.7618C51.3825 31.4033 54.9474 30.7887 58.1022 29.9728ZM24.0397 30.6427C26.4227 31.1292 28.9888 31.5095 31.6901 31.7618C22.7075 32.601 15.2184 34.8333 10.9918 37.8029C12.8093 34.8541 17.5571 32.3196 24.0397 30.6427ZM63.6373 8.13782C70.5172 10.3373 74.8727 13.5923 74.8727 17.2247C74.8725 19.2435 73.5263 21.1445 71.15 22.8136C71.6819 21.951 71.9653 21.0543 71.9655 20.132C71.9655 13.508 57.4823 8.13796 39.6178 8.13782C27.1953 8.13787 16.4091 10.7358 10.9899 14.545C12.5508 12.0094 16.2782 9.77946 21.4127 8.13782H63.6373Z" fill="#715A95"/>
<path d="M151.524 48.5492C151.247 48.3882 150.942 48.2341 150.627 48.0834C150.942 47.9327 151.247 47.7786 151.524 47.6177C153.094 46.7248 154.473 45.5302 155.579 44.1025C156.686 42.6748 157.5 41.0422 157.973 39.2989C158.446 37.5555 158.57 35.7357 158.337 33.9443C158.104 32.1529 157.52 30.4253 156.616 28.8608C155.713 27.2964 154.509 25.9261 153.074 24.8287C151.639 23.7314 150.001 22.9288 148.255 22.4671C146.508 22.0053 144.688 21.8936 142.898 22.1383C141.108 22.383 139.384 22.9794 137.826 23.893C137.549 24.0539 137.261 24.2354 136.977 24.4375C137.004 24.095 137.021 23.7526 137.021 23.4101C137.021 19.7772 135.578 16.2931 133.009 13.7243C130.44 11.1554 126.956 9.71228 123.323 9.71228C119.691 9.71228 116.206 11.1554 113.638 13.7243C111.069 16.2931 109.626 19.7772 109.626 23.4101C109.626 23.732 109.626 24.0745 109.67 24.4375C109.386 24.2423 109.098 24.0539 108.821 23.893C107.262 22.9794 105.539 22.383 103.749 22.1383C101.959 21.8936 100.138 22.0053 98.392 22.4671C96.6455 22.9288 95.0076 23.7314 93.5726 24.8287C92.1376 25.9261 90.9338 27.2964 90.0306 28.8608C89.1273 30.4253 88.5424 32.1529 88.3096 33.9443C88.0767 35.7357 88.2005 37.5555 88.6738 39.2989C89.1472 41.0422 89.9606 42.6748 91.0674 44.1025C92.1743 45.5302 93.5525 46.7248 95.1229 47.6177C95.4003 47.7786 95.7051 47.9327 96.0201 48.0834C95.7051 48.2341 95.4003 48.3882 95.1229 48.5492C93.5525 49.442 92.1743 50.6367 91.0674 52.0644C89.9606 53.4921 89.1472 55.1246 88.6738 56.868C88.2005 58.6113 88.0767 60.4311 88.3096 62.2225C88.5424 64.0139 89.1273 65.7416 90.0306 67.306C90.9338 68.8705 92.1376 70.2408 93.5726 71.3381C95.0076 72.4354 96.6455 73.238 98.392 73.6998C100.138 74.1615 101.959 74.2733 103.749 74.0285C105.539 73.7838 107.262 73.1875 108.821 72.2739C109.098 72.1129 109.386 71.9314 109.67 71.7294C109.643 72.0718 109.626 72.4143 109.626 72.7396C109.626 76.3725 111.069 79.8566 113.638 82.4254C116.206 84.9943 119.691 86.4374 123.323 86.4374C126.956 86.4374 130.44 84.9943 133.009 82.4254C135.578 79.8566 137.021 76.3725 137.021 72.7396C137.021 72.4177 137.004 72.0752 136.977 71.7294C137.261 71.9246 137.549 72.1129 137.826 72.2739C139.901 73.4757 142.256 74.1089 144.654 74.1094C145.859 74.1079 147.059 73.949 148.223 73.6368C150.84 72.9354 153.19 71.4738 154.976 69.4367C156.762 67.3996 157.904 64.8786 158.257 62.1925C158.611 59.5064 158.16 56.7758 156.961 54.3461C155.763 51.9163 153.87 49.8966 151.524 48.5423V48.5492ZM115.105 48.0834C115.105 46.4579 115.587 44.8689 116.49 43.5173C117.393 42.1658 118.676 41.1124 120.178 40.4903C121.68 39.8683 123.333 39.7055 124.927 40.0226C126.521 40.3397 127.986 41.1225 129.135 42.2719C130.284 43.4213 131.067 44.8858 131.384 46.48C131.701 48.0743 131.539 49.7268 130.917 51.2286C130.294 52.7304 129.241 54.014 127.889 54.917C126.538 55.8201 124.949 56.3021 123.323 56.3021C121.144 56.3021 119.053 55.4362 117.512 53.8949C115.971 52.3536 115.105 50.2632 115.105 48.0834Z" fill="#CE6C9E"/>
<path d="M152.474 45.2527C152.183 45.1181 151.865 44.9929 151.538 44.872C151.837 44.6928 152.127 44.5112 152.388 44.3252C153.869 43.2909 155.131 41.9738 156.101 40.4498C157.071 38.9258 157.73 37.225 158.039 35.4453C158.349 33.6656 158.304 31.8422 157.907 30.08C157.509 28.3179 156.767 26.6518 155.723 25.1776C154.678 23.7035 153.353 22.4504 151.823 21.4906C150.292 20.5308 148.587 19.8832 146.805 19.5851C145.024 19.2869 143.201 19.3442 141.441 19.7535C139.682 20.1628 138.02 20.9161 136.553 21.97C136.292 22.1559 136.022 22.3632 135.758 22.5907C135.754 22.2472 135.739 21.9046 135.707 21.5637C135.371 17.9464 133.612 14.6108 130.816 12.2907C128.021 9.97055 124.418 8.856 120.801 9.1922C117.183 9.52839 113.848 11.2878 111.528 14.0833C109.207 16.8789 108.093 20.4816 108.429 24.0989C108.459 24.4194 108.491 24.7604 108.569 25.1177C108.267 24.9497 107.964 24.7887 107.673 24.6541C106.036 23.8887 104.265 23.4544 102.46 23.3764C100.655 23.2983 98.8527 23.5781 97.1565 24.1994C95.4603 24.8208 93.9037 25.7716 92.5764 26.997C91.2491 28.2224 90.1773 29.6982 89.4227 31.3395C88.668 32.9809 88.2455 34.7552 88.1795 36.5605C88.1134 38.3658 88.4051 40.1663 89.0377 41.8583C89.6703 43.5504 90.6314 45.1007 91.8656 46.4198C93.0997 47.739 94.5827 48.801 96.2289 49.5447C96.52 49.6793 96.8378 49.8045 97.1654 49.9254C96.8657 50.1045 96.5764 50.2862 96.3151 50.4721C94.8341 51.5065 93.5723 52.8236 92.6024 54.3476C91.6324 55.8716 90.9735 57.5724 90.6636 59.352C90.3536 61.1317 90.3988 62.9552 90.7964 64.7173C91.194 66.4795 91.9363 68.1456 92.9804 69.6197C94.0246 71.0939 95.35 72.3469 96.8804 73.3067C98.4108 74.2666 100.116 74.9142 101.898 75.2123C103.679 75.5104 105.502 75.4532 107.262 75.0439C109.021 74.6346 110.683 73.8813 112.15 72.8274C112.411 72.6415 112.681 72.4341 112.945 72.2067C112.949 72.5502 112.964 72.8927 112.994 73.2167C113.33 76.834 115.09 80.1696 117.885 82.4897C120.681 84.8098 124.284 85.9243 127.901 85.5881C131.518 85.2519 134.854 83.4925 137.174 80.697C139.494 77.9014 140.608 74.2987 140.272 70.6814C140.243 70.3609 140.194 70.0215 140.134 69.6797C140.436 69.8477 140.739 70.0086 141.031 70.1432C143.208 71.1479 145.612 71.5604 147.999 71.3389C149.199 71.226 150.379 70.9568 151.509 70.5382C154.049 69.5976 156.254 67.9248 157.844 65.7311C159.434 63.5375 160.338 60.9216 160.441 58.2144C160.545 55.5071 159.843 52.83 158.424 50.5216C157.006 48.2132 154.935 46.3772 152.473 45.2459L152.474 45.2527ZM139.72 26.439C140.601 25.8151 141.596 25.3709 142.648 25.1316C143.701 24.8923 144.79 24.8627 145.854 25.0443C146.918 25.226 147.936 25.6155 148.849 26.1905C149.762 26.7655 150.554 27.5147 151.177 28.3955C151.801 29.2763 152.245 30.2713 152.485 31.3237C152.724 32.3762 152.754 33.4655 152.572 34.5294C152.39 35.5933 152.001 36.611 151.426 37.5244C150.851 38.4378 150.102 39.229 149.221 39.8528C147.198 41.2893 143.07 42.5328 137.46 43.4187C136.596 40.5871 134.839 38.1116 132.45 36.3627C135.149 31.3589 137.697 27.8754 139.72 26.439ZM121.309 14.6649C123.48 14.4632 125.641 15.1319 127.319 16.524C128.996 17.916 130.052 19.9174 130.253 22.0878C130.483 24.5564 129.497 28.7579 127.459 34.0614C124.575 33.3846 121.549 33.6659 118.839 34.8626C115.858 30.0255 114.116 26.0776 113.886 23.6089C113.685 21.4385 114.353 19.2769 115.745 17.5996C117.137 15.9222 119.139 14.8666 121.309 14.6649ZM94.4815 33.6665C94.9322 32.6855 95.5717 31.8029 96.3635 31.0691C97.1553 30.3353 98.084 29.7647 99.0964 29.3898C100.109 29.015 101.185 28.8433 102.264 28.8846C103.343 28.9258 104.403 29.1792 105.384 29.6302C107.637 30.6693 110.783 33.6235 114.358 38.0442C112.331 40.2061 111.06 42.9671 110.735 45.9128C105.058 46.0759 100.771 45.6145 98.5188 44.5788C97.5364 44.1283 96.6526 43.4885 95.9178 42.6959C95.183 41.9034 94.6118 40.9737 94.2368 39.9601C93.8618 38.9465 93.6904 37.8689 93.7324 36.7889C93.7744 35.709 94.029 34.6479 94.4815 33.6665ZM108.983 68.3584C107.204 69.6183 104.998 70.1199 102.849 69.753C100.7 69.3861 98.7856 68.1807 97.5257 66.4019C96.2658 64.6231 95.7641 62.4167 96.131 60.268C96.498 58.1193 97.7034 56.2044 99.4822 54.9445C101.505 53.5081 105.634 52.2646 111.243 51.3787C112.107 54.2102 113.864 56.6858 116.253 58.4346C113.554 63.4385 111.006 66.9219 108.983 68.3584ZM127.394 80.1325C125.223 80.3342 123.062 79.6655 121.384 78.2734C119.707 76.8814 118.651 74.88 118.45 72.7096C118.22 70.2409 119.206 66.0395 121.244 60.7359C124.128 61.4128 127.154 61.1315 129.864 59.9348C132.845 64.7719 134.587 68.7198 134.817 71.1885C135.018 73.3589 134.35 75.5205 132.958 77.1978C131.566 78.8751 129.564 79.9308 127.394 80.1325ZM154.221 61.1308C153.771 62.1119 153.131 62.9945 152.34 63.7283C151.548 64.4621 150.619 65.0327 149.607 65.4075C148.594 65.7823 147.518 65.954 146.439 65.9128C145.36 65.8716 144.3 65.6182 143.319 65.1672C141.066 64.1281 137.92 61.1739 134.345 56.7532C136.372 54.5912 137.643 51.8303 137.968 48.8846C143.645 48.7215 147.932 49.1829 150.184 50.2185C151.167 50.6691 152.05 51.3089 152.785 52.1015C153.52 52.894 154.091 53.8237 154.466 54.8373C154.841 55.8509 155.013 56.9285 154.971 58.0084C154.929 59.0884 154.674 60.1494 154.221 61.1308Z" fill="#DDD347"/>
<path d="M123.324 9.71228C125.089 9.71232 126.818 10.0541 128.424 10.6986C129.268 11.1409 130.071 11.6724 130.816 12.2904C133.611 14.6105 135.371 17.9465 135.707 21.5638C135.739 21.9048 135.754 22.2477 135.758 22.5912C136.022 22.3637 136.292 22.156 136.553 21.9701C136.673 21.884 136.794 21.8002 136.916 21.7181C136.986 22.2766 137.022 22.8419 137.022 23.4105C137.022 23.7528 137.005 24.0955 136.978 24.4379C137.262 24.2359 137.549 24.0539 137.826 23.8929C139.385 22.9793 141.109 22.3828 142.899 22.1381C144.688 21.8934 146.509 22.0055 148.255 22.4672C150.001 22.9289 151.64 23.7313 153.074 24.8285C154.509 25.9258 155.714 27.2963 156.617 28.8607C157.413 30.2387 157.961 31.7437 158.24 33.307C158.228 34.0224 158.163 34.7376 158.039 35.4457C157.729 37.2251 157.071 38.9258 156.101 40.4496C155.131 41.9735 153.869 43.2912 152.388 44.3256C152.127 44.5115 151.837 44.6933 151.537 44.8724C151.865 44.9933 152.183 45.1187 152.474 45.2533L152.473 45.2465C152.94 45.4613 153.394 45.7021 153.831 45.9662C153.123 46.5931 152.351 47.1477 151.525 47.6176C151.247 47.7785 150.942 47.9327 150.627 48.0834C150.942 48.2341 151.247 48.3882 151.525 48.5492V48.5424C153.871 49.8967 155.764 51.9164 156.962 54.3461C158.161 56.7758 158.611 59.5067 158.258 62.1927C158.019 64.0061 157.42 65.7432 156.507 67.308C155.103 68.732 153.399 69.8385 151.508 70.5385C150.378 70.957 149.199 71.2263 147.999 71.3392C145.612 71.5607 143.208 71.1476 141.031 70.1429C140.739 70.0084 140.435 69.8481 140.134 69.6801C140.193 70.0219 140.242 70.3615 140.272 70.682C140.356 71.5858 140.349 72.4887 140.256 73.3783C139.416 73.0914 138.601 72.7225 137.826 72.2738C137.549 72.113 137.262 71.9249 136.978 71.7299C137.005 72.0756 137.022 72.4179 137.022 72.7396C137.022 76.3724 135.579 79.8563 133.01 82.4252C131.614 83.8211 129.947 84.8837 128.134 85.5638C128.056 85.5724 127.979 85.581 127.901 85.5883C124.283 85.9244 120.681 84.8097 117.885 82.4896C115.09 80.1696 113.33 76.8343 112.993 73.2172C112.963 72.8932 112.949 72.5499 112.945 72.2064C112.68 72.4339 112.411 72.6416 112.15 72.8275C111.384 73.3774 110.565 73.8439 109.707 74.224C109.654 73.7333 109.626 73.2379 109.626 72.7396C109.626 72.4144 109.644 72.0722 109.671 71.7299C109.387 71.9319 109.099 72.1129 108.822 72.2738C107.263 73.1874 105.539 73.784 103.749 74.0287C101.96 74.2734 100.139 74.1613 98.3928 73.6996C97.731 73.5246 97.0847 73.301 96.4592 73.0306C95.1063 72.1112 93.9268 70.9566 92.9797 69.6195C91.9358 68.1455 91.1937 66.4791 90.7961 64.7172C90.3986 62.9551 90.3534 61.1315 90.6633 59.3519C90.9733 57.5725 91.632 55.8718 92.6018 54.348C93.5717 52.824 94.8337 51.5064 96.3147 50.472C96.576 50.2861 96.8655 50.1044 97.1653 49.9252C96.8377 49.8043 96.5198 49.6798 96.2288 49.5453C95.7208 49.3158 95.2285 49.0553 94.7542 48.767C94.876 48.6926 94.999 48.6199 95.1233 48.5492C95.4006 48.3883 95.7057 48.234 96.0208 48.0834C95.7057 47.9327 95.4006 47.7785 95.1233 47.6176C93.5532 46.7248 92.1753 45.5303 91.0686 44.1029C89.9619 42.6753 89.1484 41.0424 88.675 39.2992C88.3926 38.2589 88.2344 37.191 88.2024 36.1185C88.3164 34.4663 88.7293 32.8472 89.4221 31.3402C90.1767 29.6989 91.2491 28.2228 92.5764 26.9974C93.9037 25.7721 95.4603 24.821 97.1565 24.1996C98.8525 23.5783 100.655 23.2984 102.459 23.3763C104.264 23.4544 106.036 23.8892 107.672 24.6547C107.963 24.7893 108.268 24.9495 108.569 25.1176C108.491 24.7603 108.459 24.4194 108.429 24.099C108.415 23.9505 108.405 23.802 108.396 23.6537C108.539 23.7309 108.681 23.8105 108.822 23.8929C109.099 24.0539 109.387 24.2427 109.671 24.4379C109.627 24.075 109.626 23.7323 109.626 23.4105C109.626 19.7776 111.069 16.2928 113.638 13.724C116.207 11.1552 119.692 9.71228 123.324 9.71228ZM129.864 59.9349C127.154 61.1317 124.127 61.4125 121.243 60.7357C119.205 66.039 118.22 70.2406 118.449 72.7094C118.651 74.8797 119.707 76.8817 121.384 78.2738C123.061 79.6659 125.223 80.3349 127.394 80.1332C129.564 79.9314 131.565 78.8749 132.957 77.1976C134.349 75.5204 135.018 73.3591 134.817 71.1888C134.587 68.7202 132.844 64.772 129.864 59.9349ZM111.242 51.3793C105.633 52.2652 101.505 53.5083 99.4817 54.9447C97.7031 56.2045 96.4981 58.1195 96.1311 60.2679C95.7642 62.4166 96.2658 64.623 97.5256 66.4017C98.7855 68.1805 100.7 69.3864 102.849 69.7533C104.997 70.1202 107.204 69.6186 108.983 68.3588C111.006 66.9223 113.553 63.4387 116.252 58.4349C113.864 56.6862 112.106 54.2106 111.242 51.3793ZM150.184 50.2191C147.931 49.1835 143.645 48.7221 137.968 48.8851C137.643 51.8307 136.372 54.5915 134.345 56.7533C137.92 61.174 141.067 64.1283 143.32 65.1674C144.3 65.6183 145.36 65.8722 146.439 65.9135C147.517 65.9547 148.594 65.7824 149.607 65.4076C150.619 65.0328 151.547 64.4625 152.339 63.7289C153.131 62.9951 153.77 62.1121 154.221 61.1312C154.674 60.1498 154.928 59.0881 154.97 58.0082C155.012 56.9284 154.841 55.8507 154.466 54.8373C154.091 53.8239 153.52 52.8944 152.785 52.1019C152.051 51.3094 151.166 50.6696 150.184 50.2191ZM124.928 40.0228C123.334 39.7057 121.681 39.8685 120.179 40.4906C118.677 41.1126 117.394 42.1656 116.49 43.517C115.587 44.8685 115.106 46.4579 115.106 48.0834C115.106 50.2631 115.972 52.3536 117.513 53.8949C119.054 55.4361 121.145 56.3021 123.324 56.3021C124.95 56.3021 126.538 55.8202 127.89 54.9174C129.241 54.0143 130.295 52.7306 130.917 51.2289C131.539 49.7271 131.702 48.0741 131.385 46.4799C131.068 44.8857 130.285 43.4212 129.136 42.2719C127.987 41.1226 126.522 40.34 124.928 40.0228ZM102.264 28.8851C101.185 28.8439 100.108 29.0152 99.0959 29.39C98.0836 29.7648 97.1553 30.3359 96.3635 31.0697C95.5718 31.8034 94.9323 32.6856 94.4817 33.6664C94.0291 34.6478 93.7737 35.7095 93.7317 36.7894C93.6897 37.8693 93.8616 38.9468 94.2366 39.9603C94.6115 40.9737 95.1827 41.9032 95.9172 42.6957C96.652 43.4882 97.5364 44.1289 98.5188 44.5795C100.772 45.615 105.058 46.0765 110.735 45.9135C111.059 42.9678 112.331 40.2062 114.358 38.0443C110.783 33.6236 107.636 30.6693 105.383 29.6302C104.402 29.1793 103.342 28.9264 102.264 28.8851ZM145.854 25.0443C144.79 24.8626 143.7 24.8929 142.648 25.1322C141.596 25.3715 140.601 25.8152 139.72 26.4388C137.697 27.8753 135.148 31.3588 132.449 36.3627C134.838 38.1115 136.596 40.5878 137.459 43.4193C143.069 42.5334 147.198 41.2894 149.221 39.8529C150.102 39.2291 150.851 38.4381 151.426 37.5248C152.001 36.6114 152.39 35.5935 152.572 34.5297C152.753 33.4658 152.724 32.3761 152.485 31.3236C152.245 30.2713 151.801 29.2765 151.177 28.3959C150.553 27.5152 149.762 26.7658 148.849 26.1908C147.936 25.6158 146.918 25.226 145.854 25.0443ZM127.319 16.5238C125.641 15.1317 123.479 14.4637 121.309 14.6654C119.139 14.8672 117.137 15.9227 115.745 17.6C114.353 19.2772 113.684 21.4385 113.886 23.6088C114.115 26.0774 115.858 30.0256 118.839 34.8627C121.549 33.666 124.575 33.3851 127.459 34.0619C129.498 28.7585 130.483 24.557 130.253 22.0883C130.051 19.9179 128.996 17.9159 127.319 16.5238Z" fill="#D3592C"/>
<circle cx="209.449" cy="47.3895" r="39.2526" fill="#5CA7B5"/>
<path d="M248.702 8.13684L170.196 86.6421H248.702V8.13684Z" fill="#DDD347"/>
<path d="M237.203 19.6349C244.307 26.7382 248.7 36.5513 248.7 47.3907C248.7 69.0693 231.127 86.6435 209.448 86.6437C198.609 86.6437 188.796 82.2491 181.692 75.1456L237.203 19.6349Z" fill="#7CA835"/>
<path d="M288.235 32.6658C290.104 30.7019 292.149 29.0534 294.372 27.7202C296.594 26.3869 298.91 25.3805 301.318 24.7008C303.727 24.0211 306.199 23.6407 308.736 23.5596C311.272 23.4784 313.761 23.7369 316.202 24.3351C318.642 24.9332 321.015 25.8338 323.321 27.037C325.627 28.2401 327.762 29.7765 329.727 31.6461C331.885 33.6991 333.673 35.9867 335.091 38.5091C336.508 41.0315 337.525 43.6859 338.141 46.4725C338.756 49.259 338.969 52.1024 338.779 55.0028C338.59 57.9031 337.947 60.7394 336.851 63.5116L331.827 61.153C331.379 62.7435 330.758 64.2442 329.967 65.6551C329.175 67.0659 328.212 68.387 327.077 69.6183C325.942 70.812 324.689 71.8393 323.319 72.7003C321.95 73.5613 320.463 74.256 318.859 74.7843L321.465 79.6843C318.751 80.9167 315.95 81.7001 313.063 82.0343C310.176 82.3685 307.334 82.2879 304.539 81.7925C301.743 81.2971 299.042 80.4139 296.433 79.143C293.825 77.8721 291.442 76.2101 289.284 74.1572C287.319 72.2876 285.669 70.241 284.334 68.0174C282.999 65.7939 281.991 63.4777 281.31 61.0688C280.628 58.6599 280.246 56.1873 280.163 53.6509C280.08 51.1146 280.337 48.6262 280.933 46.186C281.53 43.7457 282.429 41.3733 283.63 39.0685C284.832 36.7638 286.367 34.6296 288.235 32.6658ZM305.429 70.1503C305.924 69.6304 306.285 69.0575 306.514 68.4313C306.742 67.8052 306.849 67.1727 306.833 66.5338C306.816 65.8949 306.678 65.2496 306.417 64.5979C306.156 63.9462 305.766 63.3917 305.247 62.9344C304.726 62.4395 304.153 62.0775 303.527 61.8485C302.901 61.6194 302.268 61.5127 301.629 61.5284C300.99 61.5441 300.345 61.6822 299.693 61.9427C299.042 62.2031 298.488 62.5928 298.031 63.1117C297.536 63.6315 297.174 64.2045 296.946 64.8306C296.717 65.4568 296.611 66.0893 296.627 66.7282C296.643 67.3671 296.782 68.0124 297.043 68.6641C297.304 69.3158 297.694 69.8703 298.213 70.3276C298.733 70.8225 299.307 71.1845 299.933 71.4135C300.559 71.6426 301.192 71.7493 301.831 71.7336C302.47 71.7179 303.115 71.5798 303.766 71.3193C304.418 71.0589 304.972 70.6692 305.429 70.1503ZM297.848 55.8958C298.343 55.376 298.704 54.803 298.933 54.1769C299.162 53.5507 299.268 52.9182 299.252 52.2793C299.235 51.6404 299.097 50.9951 298.836 50.3434C298.575 49.6917 298.185 49.1372 297.666 48.6799C297.146 48.185 296.572 47.823 295.946 47.594C295.32 47.3649 294.687 47.2582 294.048 47.2739C293.409 47.2896 292.764 47.4277 292.112 47.6882C291.461 47.9486 290.907 48.3383 290.45 48.8572C289.955 49.3771 289.594 49.95 289.365 50.5762C289.136 51.2023 289.03 51.8348 289.046 52.4737C289.062 53.1126 289.201 53.7579 289.462 54.4096C289.723 55.0613 290.113 55.6158 290.632 56.0731C291.152 56.568 291.726 56.93 292.352 57.159C292.978 57.3881 293.611 57.4948 294.25 57.4791C294.889 57.4634 295.534 57.3253 296.185 57.0648C296.837 56.8044 297.391 56.4147 297.848 55.8958ZM323.378 66.099C324.33 65.0978 325.121 63.9973 325.748 62.7972C326.376 61.5972 326.842 60.3165 327.146 58.9553L304.882 48.5026L316.431 70.2184C317.756 69.8286 319.002 69.2902 320.169 68.6035C321.337 67.9167 322.406 67.0819 323.378 66.099ZM304.699 41.2867C305.22 41.7816 305.793 42.1435 306.419 42.3726C307.045 42.6016 307.678 42.7083 308.317 42.6926C308.956 42.6769 309.601 42.5388 310.253 42.2784C310.904 42.0179 311.458 41.6282 311.915 41.1093C312.41 40.5895 312.772 40.0165 313 39.3904C313.229 38.7643 313.335 38.1318 313.319 37.4929C313.303 36.8539 313.164 36.2086 312.903 35.5569C312.642 34.9052 312.252 34.3507 311.733 33.8934C311.213 33.3985 310.639 33.0365 310.013 32.8075C309.387 32.5785 308.754 32.4718 308.115 32.4875C307.476 32.5032 306.831 32.6413 306.18 32.9017C305.528 33.1622 304.974 33.5518 304.517 34.0708C304.022 34.5906 303.661 35.1636 303.432 35.7897C303.204 36.4158 303.097 37.0483 303.113 37.6872C303.13 38.3261 303.268 38.9714 303.529 39.6231C303.79 40.2748 304.18 40.8293 304.699 41.2867ZM326.53 47.9706C327.024 47.4507 327.386 46.8778 327.615 46.2517C327.843 45.6255 327.949 44.993 327.933 44.3541C327.917 43.7152 327.779 43.0699 327.518 42.4182C327.257 41.7665 326.867 41.212 326.347 40.7547C325.827 40.2598 325.254 39.8978 324.628 39.6688C324.001 39.4397 323.369 39.333 322.73 39.3487C322.091 39.3644 321.446 39.5025 320.794 39.763C320.143 40.0234 319.588 40.4131 319.131 40.932C318.637 41.4518 318.275 42.0248 318.047 42.6509C317.818 43.2771 317.712 43.9096 317.728 44.5485C317.744 45.1874 317.883 45.8327 318.144 46.4844C318.405 47.1361 318.795 47.6906 319.314 48.1479C319.834 48.6428 320.407 49.0048 321.034 49.2338C321.66 49.4629 322.293 49.5696 322.931 49.5539C323.57 49.5382 324.216 49.4001 324.867 49.1396C325.519 48.8792 326.073 48.4895 326.53 47.9706ZM277.861 40.677C276.474 39.3572 275.448 37.8312 274.784 36.0988L266.918 36.2639L266.79 31.1902L273.893 31.0157C273.966 29.4344 274.295 27.9315 274.88 26.5069C275.464 25.0823 276.306 23.7924 277.405 22.6372C278.504 21.482 279.75 20.5771 281.144 19.9223C282.538 19.2676 284.022 18.8644 285.598 18.7129L285.418 11.6097L290.492 11.485L290.719 19.3485C292.482 19.9257 294.058 20.8742 295.445 22.1939C295.695 22.4322 295.927 22.6709 296.14 22.9101C296.353 23.1494 296.557 23.417 296.752 23.713C294.762 24.5705 292.88 25.6039 291.105 26.8133C289.331 28.0227 287.692 29.4168 286.19 30.9955C284.707 32.555 283.405 34.2511 282.286 36.0837C281.166 37.9163 280.219 39.8575 279.443 41.9073C279.175 41.7259 278.917 41.5348 278.667 41.3341C278.418 41.1334 278.149 40.9143 277.861 40.677Z" fill="#DDD347"/>
<path fill-rule="evenodd" clip-rule="evenodd" d="M288.156 33.4063C290.144 31.5642 292.29 30.048 294.592 28.8577C296.895 27.6674 299.269 26.809 301.716 26.2827C304.162 25.7563 306.654 25.5327 309.19 25.6117C311.727 25.6908 314.194 26.1058 316.592 26.8568C318.99 27.6077 321.302 28.6563 323.527 30.0025C325.752 31.3488 327.786 33.0168 329.63 35.0067C331.654 37.1917 333.294 39.5876 334.549 42.1944C335.805 44.8012 336.652 47.5145 337.091 50.3344C337.529 53.1542 337.563 56.0054 337.19 58.888C336.817 61.7706 335.997 64.5606 334.729 67.2581L303.77 50.2619L318.353 82.4278C315.566 83.4866 312.722 84.0916 309.819 84.243C306.916 84.3943 304.086 84.1346 301.327 83.4638C298.569 82.793 295.928 81.7411 293.405 80.3082C290.882 78.8752 288.609 77.0662 286.585 74.8812C284.741 72.8913 283.224 70.7447 282.032 68.4413C280.84 66.138 279.98 63.7628 279.452 61.3157C278.924 58.8687 278.699 56.3769 278.776 53.8403C278.853 51.3037 279.266 48.8366 280.016 46.4388C280.765 44.0411 281.812 41.73 283.156 39.5057C284.501 37.2814 286.167 35.2483 288.156 33.4063ZM304.141 70.2539C303.874 70.8644 303.477 71.4134 302.95 71.901C302.462 72.39 301.884 72.744 301.217 72.9628C300.55 73.1816 299.898 73.2787 299.259 73.254C298.621 73.2294 297.996 73.083 297.385 72.8149C296.775 72.5468 296.225 72.1494 295.737 71.6226C295.248 71.1335 294.894 70.5555 294.675 69.8886C294.455 69.2217 294.358 68.569 294.382 67.9303C294.406 67.2917 294.552 66.6671 294.82 66.0567C295.087 65.4462 295.484 64.8972 296.011 64.4096C296.5 63.9206 297.077 63.5666 297.744 63.3478C298.411 63.129 299.063 63.0319 299.702 63.0565C300.341 63.0812 300.965 63.2276 301.576 63.4957C302.186 63.7638 302.736 64.1612 303.224 64.6879C303.713 65.1771 304.067 65.7551 304.287 66.422C304.506 67.0889 304.603 67.7416 304.579 68.3803C304.555 69.0189 304.409 69.6435 304.141 70.2539ZM297.475 55.5495C297.207 56.1599 296.81 56.709 296.284 57.1966C295.795 57.6856 295.217 58.0395 294.551 58.2584C293.884 58.4772 293.231 58.5743 292.593 58.5496C291.954 58.525 291.33 58.3786 290.719 58.1105C290.108 57.8424 289.559 57.445 289.071 56.9182C288.582 56.429 288.227 55.851 288.008 55.1842C287.789 54.5173 287.691 53.8646 287.715 53.2259C287.74 52.5872 287.886 51.9627 288.153 51.3522C288.421 50.7418 288.818 50.1928 289.344 49.7052C289.833 49.2161 290.411 48.8622 291.078 48.6434C291.744 48.4246 292.397 48.3275 293.035 48.3521C293.674 48.3768 294.299 48.5231 294.909 48.7912C295.52 49.0594 296.069 49.4568 296.557 49.9835C297.047 50.4727 297.401 51.0507 297.62 51.7176C297.839 52.3844 297.937 53.0372 297.913 53.6758C297.889 54.3145 297.743 54.939 297.475 55.5495ZM305.691 44.2411C305.08 43.973 304.531 43.5756 304.043 43.0488C303.554 42.5597 303.2 41.9816 302.98 41.3148C302.761 40.6479 302.663 39.9952 302.688 39.3565C302.712 38.7178 302.858 38.0933 303.125 37.4828C303.393 36.8724 303.79 36.3234 304.316 35.8358C304.805 35.3467 305.383 34.9928 306.05 34.774C306.716 34.5552 307.369 34.4581 308.008 34.4827C308.646 34.5074 309.271 34.6537 309.882 34.9219C310.492 35.19 311.041 35.5874 311.529 36.1141C312.019 36.6033 312.373 37.1813 312.592 37.8482C312.812 38.515 312.909 39.1678 312.885 39.8064C312.861 40.4451 312.715 41.0697 312.447 41.6801C312.179 42.2905 311.782 42.8396 311.256 43.3272C310.767 43.8162 310.19 44.1701 309.523 44.389C308.856 44.6078 308.204 44.7049 307.565 44.6802C306.926 44.6556 306.302 44.5092 305.691 44.2411ZM326.6 49.4498C326.332 50.0603 325.935 50.6093 325.409 51.0969C324.92 51.5859 324.342 51.9399 323.675 52.1587C323.009 52.3775 322.356 52.4746 321.717 52.45C321.079 52.4253 320.454 52.2789 319.844 52.0108C319.233 51.7427 318.684 51.3453 318.196 50.8185C317.706 50.3294 317.352 49.7514 317.133 49.0845C316.913 48.4176 316.816 47.7649 316.84 47.1262C316.864 46.4876 317.01 45.863 317.278 45.2526C317.546 44.6421 317.943 44.0931 318.469 43.6055C318.958 43.1165 319.535 42.7625 320.202 42.5437C320.869 42.3249 321.521 42.2278 322.16 42.2524C322.799 42.2771 323.423 42.4235 324.034 42.6916C324.645 42.9597 325.194 43.3571 325.682 43.8839C326.171 44.373 326.525 44.951 326.745 45.6179C326.964 46.2848 327.062 46.9375 327.037 47.5762C327.013 48.2148 326.867 48.8394 326.6 49.4498Z" fill="#CE6C9E"/>
<path d="M284.627 37.3194C285.662 35.9308 286.839 34.6261 288.157 33.4054C290.145 31.5635 292.29 30.0469 294.592 28.8566C296.895 27.6663 299.27 26.8085 301.716 26.2821C304.163 25.7558 306.654 25.5312 309.191 25.6102C311.727 25.6893 314.194 26.1053 316.593 26.8562C318.991 27.6072 321.302 28.6555 323.527 30.0017C325.752 31.3479 327.787 33.0156 329.63 35.0053C331.654 37.1902 333.294 39.5863 334.55 42.1929C335.805 44.7997 336.652 47.5137 337.091 50.3336C337.529 53.1532 337.563 56.0043 337.191 58.8867C337 60.3609 336.691 61.8108 336.266 63.2366L331.828 61.1527C331.462 62.4527 330.977 63.6912 330.381 64.8712L325.933 62.429C326.467 61.3359 326.874 60.1788 327.147 58.9554L304.882 48.502L306.662 51.8485L303.77 50.2607L317.74 81.0769C316.208 81.5311 314.649 81.8507 313.064 82.0342C310.177 82.3683 307.335 82.2875 304.539 81.7922C301.744 81.2967 299.043 80.4136 296.434 79.1428C293.826 77.8719 291.443 76.2099 289.285 74.157C287.32 72.2874 285.67 70.2409 284.335 68.0174C283 65.7938 281.992 63.4773 281.311 61.0685C280.63 58.6597 280.248 56.1872 280.165 53.6508C280.082 51.1144 280.338 48.6256 280.934 46.1854C281.531 43.7452 282.43 41.3729 283.632 39.0683C283.942 38.4741 284.273 37.891 284.627 37.3194ZM319.132 40.9319C318.638 41.4517 318.276 42.0244 318.047 42.6506C317.83 43.2453 317.724 43.846 317.728 44.4524C317.551 44.7061 317.4 44.9722 317.278 45.2518C317.01 45.8621 316.864 46.4871 316.84 47.1256C316.816 47.7641 316.914 48.4168 317.133 49.0835C317.352 49.7504 317.707 50.3285 318.196 50.8177C318.684 51.3443 319.233 51.7422 319.844 52.0103C320.454 52.2784 321.079 52.4245 321.718 52.4492C322.356 52.4738 323.009 52.3767 323.676 52.1579C324.342 51.9391 324.92 51.5848 325.408 51.0959C325.935 50.6083 326.332 50.0589 326.6 49.4485C326.867 48.8381 327.014 48.2138 327.038 47.5753C327.041 47.4999 327.041 47.4244 327.041 47.3486C327.283 47.003 327.475 46.6373 327.616 46.2512C327.844 45.6251 327.95 44.9922 327.934 44.3534C327.918 43.7147 327.78 43.0694 327.519 42.4179C327.258 41.7662 326.868 41.2114 326.348 40.754C325.828 40.2593 325.255 39.8973 324.629 39.6682C324.003 39.4392 323.369 39.3331 322.73 39.3488C322.092 39.3645 321.446 39.502 320.795 39.7624C320.143 40.0229 319.589 40.413 319.132 40.9319ZM296.011 64.4086C295.484 64.8961 295.088 65.4451 294.82 66.0554C294.552 66.6658 294.407 67.2906 294.382 67.9292C294.358 68.5679 294.455 69.2209 294.674 69.8878C294.894 70.5547 295.249 71.1328 295.738 71.622C296.226 72.1487 296.776 72.5458 297.386 72.8139C297.996 73.0819 298.621 73.2288 299.259 73.2535C299.898 73.2781 300.551 73.1804 301.218 72.9615C301.884 72.7427 302.462 72.3884 302.951 71.8995C303.103 71.7584 303.244 71.6114 303.374 71.46C303.505 71.4175 303.636 71.3713 303.767 71.3189C304.419 71.0585 304.973 70.6691 305.43 70.1502C305.925 69.6304 306.286 69.0569 306.515 68.4308C306.743 67.8048 306.85 67.1718 306.834 66.533C306.817 65.8944 306.679 65.2495 306.418 64.5982C306.157 63.9465 305.767 63.391 305.248 62.9336C304.728 62.4388 304.154 62.0775 303.528 61.8485C302.901 61.6195 302.269 61.5127 301.63 61.5284C300.991 61.5441 300.346 61.6816 299.694 61.942C299.043 62.2025 298.489 62.5926 298.032 63.1114C297.968 63.1788 297.905 63.2466 297.846 63.3157C297.812 63.3261 297.778 63.3362 297.744 63.3473C297.078 63.5661 296.499 63.9197 296.011 64.4086ZM304.518 34.0709C304.023 34.5907 303.661 35.1636 303.433 35.7896C303.225 36.358 303.119 36.9318 303.114 37.5107C302.854 38.1119 302.712 38.7266 302.688 39.3552C302.664 39.9939 302.762 40.6469 302.981 41.3138C303.2 41.9805 303.554 42.5589 304.043 43.048C304.531 43.5747 305.081 43.9718 305.691 44.2399C306.302 44.508 306.927 44.6541 307.565 44.6788C308.204 44.7034 308.857 44.6063 309.523 44.3875C310.19 44.1687 310.768 43.8152 311.257 43.3261C311.783 42.8387 312.18 42.2897 312.447 41.6794C312.715 41.069 312.861 40.4442 312.885 39.8056C312.887 39.761 312.885 39.7163 312.886 39.6715C312.927 39.5788 312.966 39.4855 313.001 39.3903C313.23 38.7642 313.336 38.1314 313.32 37.4925C313.304 36.8536 313.165 36.208 312.904 35.5563C312.643 34.9048 312.253 34.3504 311.734 33.8931C311.214 33.3983 310.641 33.0364 310.014 32.8073C309.388 32.5783 308.755 32.4715 308.117 32.4871C307.478 32.5028 306.832 32.6411 306.18 32.9015C305.529 33.162 304.975 33.5521 304.518 34.0709ZM289.344 49.7044C288.818 50.1919 288.421 50.7408 288.154 51.3511C287.886 51.9615 287.74 52.5863 287.716 53.225C287.692 53.8636 287.789 54.5167 288.008 55.1835C288.227 55.8502 288.582 56.428 289.071 56.9171C289.559 57.4438 290.109 57.8415 290.72 58.1097C291.33 58.3776 291.955 58.5246 292.593 58.5492C293.232 58.5739 293.885 58.4761 294.552 58.2573C295.218 58.0384 295.796 57.6841 296.285 57.1952C296.398 57.0901 296.504 56.981 296.606 56.8702C297.079 56.6229 297.494 56.2984 297.849 55.8949C298.343 55.3753 298.705 54.8028 298.934 54.1769C299.162 53.5508 299.269 52.918 299.252 52.2791C299.236 51.6402 299.098 50.9946 298.837 50.3429C298.576 49.6914 298.186 49.137 297.666 48.6798C297.146 48.1849 296.573 47.823 295.947 47.5939C295.321 47.3649 294.688 47.2581 294.049 47.2738C293.41 47.2895 292.765 47.4277 292.113 47.6881C291.462 47.9485 290.908 48.3382 290.451 48.8569C290.425 48.8845 290.399 48.9131 290.374 48.941C289.996 49.1418 289.652 49.3964 289.344 49.7044Z" fill="#D3592C"/>
</svg>
