<svg width="2071" height="483" viewBox="0 0 2071 483" fill="none" xmlns="http://www.w3.org/2000/svg">
<path d="M163.932 166.224C173.439 156.231 183.848 147.842 195.158 141.058C206.469 134.274 218.252 129.152 230.508 125.693C242.763 122.235 255.345 120.299 268.252 119.886C281.159 119.473 293.822 120.789 306.242 123.832C318.663 126.876 330.739 131.459 342.471 137.581C354.204 143.704 365.07 151.522 375.071 161.036C386.051 171.482 395.149 183.123 402.362 195.959C409.576 208.794 414.75 222.302 417.883 236.482C421.016 250.661 422.1 265.131 421.134 279.889C420.167 294.648 416.896 309.081 411.32 323.188L385.756 311.186C383.473 319.279 380.317 326.916 376.289 334.095C372.26 341.274 367.359 347.997 361.585 354.263C355.806 360.337 349.432 365.565 342.462 369.946C335.492 374.327 327.927 377.862 319.766 380.55L333.026 405.485C319.215 411.756 304.963 415.742 290.271 417.443C275.579 419.144 261.12 418.733 246.895 416.213C232.67 413.692 218.922 409.198 205.649 402.73C192.377 396.263 180.251 387.806 169.27 377.359C159.27 367.846 150.873 357.431 144.081 346.116C137.288 334.801 132.158 323.015 128.69 310.757C125.223 298.499 123.278 285.917 122.856 273.01C122.434 260.104 123.741 247.441 126.776 235.024C129.811 222.606 134.385 210.534 140.5 198.806C146.614 187.078 154.425 176.217 163.932 166.224ZM251.425 356.97C253.942 354.324 255.782 351.409 256.945 348.223C258.109 345.036 258.649 341.818 258.567 338.567C258.485 335.315 257.78 332.032 256.452 328.715C255.124 325.399 253.139 322.578 250.497 320.25C247.85 317.732 244.933 315.89 241.746 314.725C238.559 313.559 235.34 313.016 232.088 313.096C228.837 313.176 225.554 313.879 222.238 315.204C218.923 316.529 216.102 318.512 213.777 321.153C211.261 323.798 209.421 326.714 208.257 329.9C207.094 333.086 206.553 336.305 206.636 339.556C206.718 342.807 207.423 346.091 208.75 349.407C210.078 352.723 212.063 355.545 214.706 357.872C217.353 360.39 220.27 362.232 223.457 363.398C226.644 364.563 229.863 365.106 233.114 365.026C236.365 364.946 239.649 364.244 242.964 362.918C246.28 361.593 249.1 359.61 251.425 356.97ZM212.849 284.434C215.365 281.788 217.205 278.873 218.369 275.687C219.532 272.5 220.073 269.282 219.99 266.031C219.908 262.779 219.203 259.496 217.875 256.18C216.548 252.863 214.563 250.042 211.92 247.714C209.273 245.196 206.356 243.354 203.169 242.189C199.982 241.023 196.763 240.48 193.512 240.56C190.26 240.64 186.977 241.343 183.662 242.668C180.346 243.993 177.526 245.976 175.201 248.617C172.684 251.262 170.844 254.178 169.681 257.364C168.517 260.55 167.977 263.769 168.059 267.02C168.141 270.271 168.846 273.555 170.174 276.871C171.502 280.187 173.487 283.009 176.129 285.336C178.776 287.854 181.693 289.696 184.88 290.862C188.067 292.027 191.286 292.57 194.538 292.49C197.789 292.41 201.072 291.708 204.388 290.382C207.703 289.057 210.523 287.074 212.849 284.434ZM342.761 336.354C347.607 331.26 351.628 325.659 354.823 319.553C358.017 313.446 360.388 306.929 361.935 300.002L248.64 246.812L307.409 357.316C314.153 355.332 320.494 352.593 326.434 349.098C332.374 345.604 337.816 341.355 342.761 336.354ZM247.712 210.093C250.359 212.611 253.276 214.453 256.463 215.619C259.65 216.784 262.869 217.327 266.121 217.247C269.372 217.167 272.655 216.465 275.971 215.139C279.286 213.814 282.106 211.831 284.432 209.191C286.948 206.545 288.788 203.63 289.952 200.444C291.115 197.257 291.655 194.039 291.573 190.788C291.491 187.536 290.786 184.253 289.458 180.936C288.131 177.62 286.146 174.799 283.503 172.471C280.856 169.953 277.939 168.111 274.752 166.945C271.565 165.78 268.346 165.237 265.095 165.317C261.843 165.397 258.56 166.1 255.245 167.425C251.929 168.75 249.109 170.733 246.783 173.374C244.267 176.019 242.427 178.935 241.264 182.121C240.1 185.307 239.56 188.526 239.642 191.777C239.724 195.028 240.429 198.312 241.757 201.628C243.085 204.944 245.07 207.766 247.712 210.093ZM358.8 244.105C361.316 241.46 363.156 238.544 364.32 235.358C365.483 232.172 366.023 228.953 365.941 225.702C365.859 222.451 365.154 219.167 363.826 215.851C362.499 212.535 360.514 209.713 357.871 207.386C355.224 204.867 352.307 203.026 349.12 201.86C345.933 200.694 342.714 200.152 339.463 200.231C336.211 200.311 332.928 201.014 329.613 202.339C326.297 203.665 323.477 205.648 321.151 208.288C318.635 210.933 316.795 213.849 315.632 217.035C314.468 220.221 313.928 223.44 314.01 226.691C314.092 229.942 314.797 233.226 316.125 236.542C317.453 239.859 319.438 242.68 322.08 245.007C324.727 247.526 327.644 249.368 330.831 250.533C334.018 251.699 337.237 252.242 340.489 252.162C343.74 252.082 347.023 251.379 350.339 250.054C353.654 248.729 356.474 246.746 358.8 244.105ZM111.14 206.99C104.081 200.275 98.8615 192.509 95.4811 183.694L55.4586 184.534L54.8058 158.716L90.9519 157.827C91.3226 149.781 92.995 142.133 95.9693 134.884C98.9436 127.635 103.227 121.071 108.819 115.193C114.412 109.314 120.754 104.709 127.846 101.377C134.938 98.0455 142.493 95.9941 150.511 95.2229L149.597 59.0775L175.416 58.443L176.571 98.4577C185.544 101.395 193.56 106.221 200.619 112.937C201.893 114.149 203.072 115.364 204.156 116.581C205.239 117.799 206.278 119.16 207.273 120.667C197.145 125.03 187.566 130.289 178.536 136.443C169.506 142.597 161.17 149.691 153.527 157.725C145.977 165.661 139.354 174.291 133.657 183.617C127.96 192.942 123.139 202.82 119.193 213.251C117.83 212.328 116.513 211.356 115.244 210.334C113.974 209.313 112.606 208.198 111.14 206.99Z" fill="#DDD347"/>
<path fill-rule="evenodd" clip-rule="evenodd" d="M163.528 169.989C173.646 160.616 184.564 152.901 196.28 146.843C207.996 140.786 220.079 136.418 232.528 133.74C244.978 131.062 257.657 129.923 270.564 130.326C283.471 130.728 296.026 132.84 308.23 136.661C320.433 140.483 332.196 145.818 343.519 152.669C354.842 159.519 365.193 168.008 374.573 178.134C384.873 189.252 393.218 201.444 399.607 214.709C405.997 227.974 410.308 241.781 412.54 256.13C414.772 270.48 414.941 284.988 413.045 299.657C411.149 314.325 406.974 328.523 400.519 342.249L242.983 255.761L317.189 419.442C303.009 424.83 288.534 427.909 273.764 428.679C258.994 429.449 244.59 428.128 230.552 424.714C216.515 421.301 203.077 415.948 190.239 408.656C177.402 401.365 165.833 392.159 155.533 381.041C146.153 370.915 138.43 359.991 132.365 348.27C126.3 336.549 121.924 324.463 119.237 312.011C116.55 299.558 115.403 286.879 115.796 273.971C116.189 261.063 118.292 248.509 122.105 236.307C125.917 224.106 131.244 212.346 138.087 201.027C144.929 189.709 153.409 179.363 163.528 169.989ZM244.872 357.494C243.51 360.6 241.49 363.394 238.811 365.875C236.324 368.364 233.384 370.165 229.992 371.278C226.599 372.392 223.278 372.886 220.028 372.761C216.779 372.635 213.6 371.89 210.493 370.526C207.386 369.162 204.591 367.139 202.108 364.459C199.618 361.97 197.815 359.028 196.699 355.635C195.583 352.241 195.087 348.92 195.21 345.67C195.333 342.42 196.075 339.242 197.437 336.136C198.799 333.029 200.82 330.235 203.498 327.754C205.985 325.266 208.925 323.465 212.318 322.351C215.71 321.238 219.031 320.744 222.281 320.869C225.531 320.994 228.709 321.739 231.817 323.104C234.924 324.468 237.719 326.49 240.202 329.171C242.692 331.66 244.495 334.601 245.611 337.995C246.727 341.388 247.223 344.71 247.1 347.96C246.977 351.209 246.234 354.388 244.872 357.494ZM210.949 282.668C209.587 285.775 207.567 288.568 204.889 291.05C202.401 293.538 199.461 295.339 196.069 296.453C192.676 297.566 189.355 298.06 186.106 297.935C182.856 297.81 179.677 297.065 176.57 295.7C173.463 294.336 170.668 292.314 168.185 289.633C165.695 287.144 163.892 284.203 162.776 280.809C161.66 277.416 161.164 274.094 161.287 270.844C161.41 267.595 162.152 264.416 163.515 261.31C164.877 258.204 166.897 255.41 169.575 252.929C172.063 250.44 175.003 248.639 178.395 247.526C181.787 246.412 185.109 245.918 188.358 246.043C191.608 246.169 194.787 246.914 197.894 248.278C201.001 249.642 203.796 251.665 206.279 254.345C208.769 256.834 210.572 259.776 211.688 263.169C212.804 266.562 213.3 269.884 213.177 273.134C213.054 276.384 212.311 279.562 210.949 282.668ZM252.758 225.124C249.651 223.76 246.856 221.737 244.373 219.057C241.883 216.568 240.08 213.626 238.964 210.233C237.848 206.84 237.352 203.518 237.475 200.268C237.598 197.018 238.34 193.84 239.702 190.734C241.065 187.627 243.085 184.834 245.763 182.352C248.251 179.864 251.19 178.063 254.583 176.949C257.975 175.836 261.296 175.342 264.546 175.467C267.796 175.592 270.975 176.337 274.082 177.702C277.189 179.066 279.984 181.088 282.467 183.769C284.957 186.258 286.76 189.199 287.876 192.593C288.992 195.986 289.488 199.308 289.365 202.558C289.242 205.807 288.499 208.986 287.137 212.092C285.775 215.198 283.755 217.992 281.076 220.473C278.589 222.962 275.649 224.763 272.257 225.876C268.864 226.99 265.543 227.484 262.293 227.359C259.044 227.233 255.865 226.488 252.758 225.124ZM359.154 251.629C357.792 254.736 355.772 257.529 353.093 260.011C350.606 262.499 347.666 264.3 344.274 265.414C340.881 266.527 337.56 267.021 334.31 266.896C331.06 266.771 327.882 266.026 324.775 264.661C321.668 263.297 318.873 261.275 316.39 258.594C313.899 256.105 312.096 253.164 310.981 249.77C309.865 246.377 309.368 243.055 309.492 239.805C309.615 236.555 310.357 233.377 311.719 230.271C313.081 227.165 315.102 224.371 317.78 221.89C320.267 219.401 323.207 217.6 326.6 216.487C329.992 215.373 333.313 214.879 336.563 215.004C339.813 215.13 342.991 215.875 346.098 217.239C349.206 218.603 352.001 220.626 354.484 223.306C356.974 225.795 358.777 228.737 359.893 232.13C361.009 235.523 361.505 238.845 361.382 242.095C361.259 245.345 360.516 248.523 359.154 251.629Z" fill="#CE6C9E"/>
<path fill-rule="evenodd" clip-rule="evenodd" d="M145.553 189.928C150.824 182.854 156.815 176.207 163.527 169.989C173.646 160.616 184.564 152.901 196.281 146.843C207.997 140.786 220.079 136.418 232.529 133.74C244.978 131.061 257.657 129.923 270.564 130.326C283.471 130.728 296.026 132.84 308.23 136.661C320.433 140.482 332.196 145.819 343.519 152.669C354.842 159.52 365.194 168.007 374.574 178.133C384.874 189.252 393.218 201.444 399.607 214.709C405.997 227.974 410.308 241.781 412.54 256.13C414.772 270.479 414.941 284.988 413.046 299.656C412.076 307.158 410.508 314.535 408.346 321.79L385.755 311.185C383.889 317.799 381.439 324.107 378.407 330.111L355.766 317.68C358.486 312.118 360.544 306.226 361.934 300.001L248.639 246.812L257.694 263.838L242.983 255.761L314.073 412.572C306.271 414.883 298.337 416.508 290.27 417.442C275.577 419.143 261.119 418.732 246.894 416.211C232.669 413.69 218.92 409.196 205.648 402.729C192.376 396.262 180.25 387.804 169.269 377.358C159.269 367.844 150.872 357.43 144.08 346.115C137.287 334.8 132.156 323.014 128.689 310.756C125.222 298.498 123.277 285.916 122.855 273.009C122.433 260.103 123.74 247.441 126.775 235.023C129.81 222.606 134.384 210.532 140.499 198.804C142.071 195.788 143.756 192.829 145.553 189.928ZM321.15 208.287C318.634 210.932 316.794 213.848 315.631 217.034C314.525 220.062 313.983 223.119 314.002 226.206C313.104 227.496 312.343 228.851 311.72 230.271C310.358 233.377 309.614 236.555 309.491 239.805C309.368 243.055 309.865 246.377 310.98 249.77C312.096 253.163 313.9 256.104 316.39 258.594C318.873 261.274 321.668 263.296 324.775 264.661C327.882 266.025 331.061 266.77 334.31 266.896C337.56 267.021 340.882 266.527 344.274 265.414C347.666 264.3 350.606 262.499 353.093 260.011C355.771 257.529 357.792 254.736 359.154 251.629C360.516 248.523 361.259 245.345 361.382 242.095C361.397 241.709 361.402 241.322 361.399 240.934C362.628 239.178 363.602 237.318 364.318 235.356C365.482 232.17 366.022 228.952 365.94 225.701C365.858 222.45 365.153 219.166 363.825 215.849C362.498 212.534 360.513 209.712 357.871 207.385C355.224 204.867 352.306 203.024 349.119 201.859C345.932 200.693 342.713 200.151 339.462 200.23C336.211 200.31 332.927 201.013 329.612 202.338C326.297 203.664 323.476 205.647 321.15 208.287ZM203.498 327.754C200.82 330.235 198.799 333.029 197.437 336.136C196.075 339.242 195.333 342.42 195.21 345.67C195.087 348.919 195.583 352.241 196.699 355.634C197.815 359.028 199.618 361.969 202.108 364.459C204.591 367.139 207.386 369.161 210.493 370.526C213.6 371.89 216.779 372.635 220.029 372.761C223.278 372.886 226.599 372.392 229.992 371.278C233.384 370.165 236.324 368.364 238.812 365.875C239.588 365.156 240.306 364.41 240.972 363.638C241.634 363.423 242.298 363.183 242.963 362.917C246.278 361.592 249.099 359.609 251.424 356.968C253.941 354.323 255.78 351.407 256.944 348.221C258.107 345.035 258.648 341.817 258.565 338.566C258.483 335.314 257.778 332.031 256.451 328.714C255.123 325.398 253.138 322.577 250.496 320.25C247.849 317.731 244.932 315.889 241.745 314.724C238.558 313.558 235.339 313.015 232.087 313.095C228.836 313.175 225.553 313.878 222.237 315.203C218.922 316.528 216.101 318.511 213.776 321.151C213.453 321.491 213.141 321.836 212.84 322.185C212.666 322.239 212.492 322.294 212.318 322.351C208.926 323.464 205.985 325.266 203.498 327.754ZM246.783 173.373C244.266 176.018 242.425 178.934 241.262 182.12C240.204 185.017 239.662 187.941 239.634 190.892C238.316 193.948 237.596 197.073 237.475 200.267C237.352 203.517 237.849 206.84 238.964 210.233C240.08 213.626 241.883 216.568 244.373 219.057C246.856 221.737 249.651 223.76 252.758 225.124C255.865 226.489 259.044 227.233 262.294 227.358C265.544 227.484 268.865 226.99 272.257 225.876C275.65 224.763 278.589 222.961 281.076 220.473C283.755 217.992 285.775 215.198 287.137 212.092C288.499 208.985 289.242 205.807 289.366 202.558C289.374 202.323 289.379 202.088 289.381 201.853C289.585 201.388 289.776 200.919 289.95 200.442C291.114 197.256 291.654 194.038 291.572 190.787C291.49 187.536 290.785 184.252 289.457 180.935C288.129 177.619 286.144 174.797 283.502 172.47C280.855 169.952 277.938 168.11 274.751 166.945C271.564 165.779 268.345 165.236 265.093 165.316C261.842 165.396 258.559 166.098 255.243 167.424C251.928 168.749 249.108 170.732 246.783 173.373ZM169.575 252.928C166.897 255.41 164.877 258.204 163.515 261.31C162.153 264.417 161.41 267.595 161.287 270.844C161.163 274.094 161.66 277.416 162.776 280.809C163.891 284.203 165.695 287.144 168.185 289.633C170.668 292.313 173.463 294.336 176.57 295.7C179.677 297.064 182.856 297.81 186.106 297.935C189.355 298.06 192.677 297.567 196.069 296.453C199.462 295.339 202.402 293.538 204.889 291.049C205.469 290.512 206.016 289.958 206.534 289.392C208.937 288.134 211.042 286.483 212.848 284.433C215.364 281.788 217.204 278.871 218.368 275.685C219.531 272.499 220.071 269.281 219.989 266.03C219.907 262.778 219.202 259.494 217.875 256.178C216.547 252.862 214.562 250.04 211.919 247.713C209.272 245.195 206.355 243.353 203.169 242.188C199.982 241.022 196.762 240.479 193.511 240.559C190.259 240.638 186.976 241.341 183.661 242.666C180.345 243.992 177.525 245.975 175.199 248.616C175.06 248.763 174.923 248.91 174.788 249.059C172.872 250.078 171.135 251.368 169.575 252.928Z" fill="#D3592C"/>
<path d="M475.071 179.657H535.962V390.663H475.071V179.657ZM604.388 179.657H672.513L588.713 278.528L677.035 390.663H606.197L519.081 280.337L604.388 179.657Z" fill="#B5512A"/>
<path d="M839.286 179.657H895.354V401.214L753.979 283.351V390.663H697.912V169.106L839.286 286.969V179.657Z" fill="#B5512A"/>
<path d="M978.499 390.663V343.338H1084.91V390.663H978.499ZM978.499 226.983V179.657H1084.91V226.983H978.499ZM978.499 303.849V258.031H1078.88V303.849H978.499ZM938.709 179.657H994.776V390.663H938.709V179.657Z" fill="#B5512A"/>
<path d="M1153.07 313.495C1157.29 320.931 1162.02 327.361 1167.24 332.787C1172.47 338.012 1178.19 342.031 1184.42 344.845C1190.65 347.658 1197.08 349.065 1203.72 349.065C1210.15 349.065 1215.47 347.658 1219.69 344.845C1223.91 341.83 1226.02 337.51 1226.02 331.883C1226.02 327.864 1224.82 324.548 1222.4 321.936C1219.99 319.122 1215.77 316.309 1209.74 313.495C1203.92 310.682 1195.68 307.266 1185.03 303.246C1179.8 301.237 1173.97 298.624 1167.54 295.409C1161.11 291.993 1154.88 287.672 1148.85 282.447C1143.03 277.222 1138.1 270.792 1134.08 263.155C1130.26 255.519 1128.36 246.476 1128.36 236.026C1128.36 222.762 1131.87 211.609 1138.91 202.566C1145.94 193.322 1155.28 186.288 1166.94 181.465C1178.6 176.642 1191.56 174.231 1205.83 174.231C1220.7 174.231 1233.56 176.642 1244.41 181.465C1255.26 186.087 1264.2 192.016 1271.24 199.25C1278.27 206.284 1283.7 213.418 1287.52 220.652L1243.51 245.069C1240.49 240.045 1236.97 235.925 1232.95 232.71C1229.14 229.294 1225.02 226.681 1220.6 224.872C1216.17 223.064 1211.65 222.16 1207.03 222.16C1201.2 222.16 1196.58 223.365 1193.17 225.777C1189.75 228.188 1188.04 231.404 1188.04 235.423C1188.04 240.045 1189.95 243.964 1193.77 247.179C1197.79 250.193 1203.21 253.107 1210.05 255.921C1217.08 258.533 1225.12 261.447 1234.16 264.662C1242 267.476 1249.13 270.892 1255.56 274.911C1262.19 278.729 1267.92 283.351 1272.74 288.777C1277.57 294.002 1281.29 300.031 1283.9 306.864C1286.51 313.696 1287.82 321.333 1287.82 329.773C1287.82 341.027 1285.51 350.974 1280.88 359.615C1276.46 368.257 1270.33 375.491 1262.5 381.319C1254.86 386.946 1246.12 391.166 1236.27 393.979C1226.42 396.994 1216.38 398.501 1206.13 398.501C1191.66 398.501 1178.19 395.989 1165.73 390.965C1153.48 386.142 1142.82 379.51 1133.78 371.07C1124.74 362.429 1117.91 352.883 1113.28 342.433L1153.07 313.495Z" fill="#B5512A"/>
<path d="M1299.7 231.806V179.657H1476.35V231.806H1417.27V390.663H1358.79V231.806H1299.7Z" fill="#B5512A"/>
<path d="M1505.66 356.601L1507.47 313.495H1615.68L1617.19 356.601H1505.66ZM1560.82 266.169L1533.09 329.471L1536.71 342.433L1512.29 390.663H1445.97L1560.82 165.489L1675.97 390.663H1609.65L1585.54 344.543L1588.85 329.471L1560.82 266.169Z" fill="#B5512A"/>
<path d="M1695.21 179.657H1753.69V316.51C1753.69 326.156 1756.2 333.993 1761.23 340.022C1766.25 345.85 1773.79 348.764 1783.84 348.764C1794.08 348.764 1801.72 345.85 1806.74 340.022C1811.77 333.993 1814.28 326.156 1814.28 316.51V179.657H1872.76V321.333C1872.76 335.601 1870.45 347.759 1865.83 357.807C1861.2 367.855 1854.77 376.094 1846.53 382.525C1838.3 388.754 1828.85 393.376 1818.2 396.391C1807.55 399.405 1796.09 400.912 1783.84 400.912C1771.78 400.912 1760.32 399.405 1749.47 396.391C1738.82 393.376 1729.38 388.754 1721.14 382.525C1713.1 376.094 1706.77 367.855 1702.15 357.807C1697.52 347.759 1695.21 335.601 1695.21 321.333V179.657Z" fill="#B5512A"/>
<path d="M1893.46 231.806V179.657H2070.1V231.806H2011.02V390.663H1952.54V231.806H1893.46Z" fill="#B5512A"/>
</svg>
