<svg width="747" height="121" viewBox="0 0 747 121" fill="none" xmlns="http://www.w3.org/2000/svg">
<path d="M91.6787 106.337H82.6152C78.9587 101.544 68.5953 97.7955 55.5215 96.5742C71.9084 95.0435 84.0391 89.5434 84.0391 82.9922C84.0383 76.4417 71.9099 70.9413 55.5254 69.4102C71.9099 67.8789 84.0385 62.3796 84.0391 55.8291C84.0388 49.2784 71.9102 43.7773 55.5254 42.2461C71.9099 40.7149 84.0386 35.2156 84.0391 28.665C84.0388 20.9297 67.1266 14.6584 46.2646 14.6582C25.4023 14.6582 8.48954 20.9296 8.48926 28.665C8.48975 35.2155 20.6177 40.7148 37.002 42.2461C20.6176 43.7774 8.48949 49.2785 8.48926 55.8291C8.48983 62.3795 20.6178 67.8788 37.002 69.4102C20.6179 70.9415 8.49003 76.4418 8.48926 82.9922C8.48926 89.5435 20.6199 95.0435 37.0068 96.5742C23.9329 97.7955 13.5687 101.544 9.91211 106.337H0V14.6582H91.6787V106.337Z" fill="#A75B79"/>
<path d="M74.3149 14.6584C82.3485 17.2271 87.434 21.028 87.4341 25.2698C87.4336 31.8204 75.3052 37.3197 58.9204 38.8508C75.3051 40.382 87.4334 45.8823 87.4341 52.4329C87.4341 58.9836 75.3055 64.4837 58.9204 66.0149C75.3052 67.5461 87.4335 73.0463 87.4341 79.5969C87.4341 86.1482 75.3036 91.6483 58.9165 93.179C74.9485 94.6765 86.9048 99.9737 87.4155 106.337H11.9028C12.4136 99.9739 24.3694 94.6766 40.4009 93.179C24.0144 91.6481 11.8843 86.1481 11.8843 79.5969C11.8848 73.0465 24.0128 67.5462 40.397 66.0149C24.0124 64.4835 11.8843 58.9835 11.8843 52.4329C11.8849 45.8824 24.0128 40.3821 40.397 38.8508C24.0128 37.3195 11.8848 31.8202 11.8843 25.2698C11.8843 21.0279 16.9704 17.2271 25.0044 14.6584H74.3149Z" fill="#5CA7B5"/>
<path d="M67.8477 94.4846C79.2092 96.8034 87.0057 101.225 87.416 106.337H82.6162C78.9603 101.545 68.5969 97.7961 55.5244 96.5745C60.0041 96.1558 64.1651 95.437 67.8477 94.4846ZM28.0684 95.2678C30.8509 95.836 33.8469 96.2796 37.001 96.5745C26.5118 97.5549 17.7686 100.164 12.834 103.632C14.9543 100.188 20.4979 97.2267 28.0684 95.2678ZM67.8506 67.3206C79.524 69.7034 87.434 74.3069 87.4346 79.5969C87.4346 81.9547 85.8631 84.1759 83.0879 86.1252C83.7089 85.1177 84.0381 84.0698 84.0381 82.9924C84.0374 76.4419 71.9091 70.9416 55.5244 69.4104C60.0053 68.9917 64.1674 68.2732 67.8506 67.3206ZM28.0713 68.1038C30.853 68.6716 33.8479 69.1157 37.001 69.4104C26.5138 70.3906 17.7703 72.9971 12.835 76.4641C14.9576 73.0209 20.5018 70.0619 28.0713 68.1038ZM67.8506 40.1565C79.5243 42.5396 87.4345 47.1437 87.4346 52.4338C87.4344 54.7918 85.8619 57.0127 83.0859 58.9622C83.7074 57.9544 84.038 56.9069 84.0381 55.8293C84.038 49.2786 71.9095 43.7775 55.5244 42.2463C60.0053 41.8276 64.1674 41.1091 67.8506 40.1565ZM28.0713 40.9397C30.853 41.5075 33.8479 41.9516 37.001 42.2463C26.5155 43.2264 17.7727 45.8318 12.8369 49.2981C14.9607 45.8559 20.5037 42.8975 28.0713 40.9397ZM74.3154 14.6584C82.3489 17.2271 87.4345 21.028 87.4346 25.2698C87.4344 27.6278 85.862 29.8486 83.0859 31.7981C83.7074 30.7904 84.038 29.7429 84.0381 28.6653C84.038 20.9298 67.1259 14.6585 46.2637 14.6584C31.7582 14.6586 19.1624 17.6911 12.833 22.1389C14.6566 19.1786 19.0097 16.5752 25.0049 14.6584H74.3154Z" fill="#715A95"/>
<path d="M176.939 61.8513C176.615 61.6633 176.259 61.4834 175.891 61.3074C176.259 61.1315 176.615 60.9515 176.939 60.7635C178.772 59.7209 180.382 58.3257 181.675 56.6585C182.967 54.9912 183.917 53.0847 184.47 51.0488C185.023 49.0129 185.167 46.8878 184.895 44.7958C184.623 42.7038 183.94 40.6862 182.885 38.8593C181.831 37.0323 180.425 35.432 178.749 34.1506C177.073 32.8691 175.161 31.9318 173.121 31.3926C171.081 30.8534 168.955 30.7229 166.865 31.0087C164.775 31.2945 162.762 31.9909 160.942 33.0578C160.618 33.2458 160.282 33.4577 159.95 33.6937C159.982 33.2938 160.002 32.8938 160.002 32.4939C160.002 28.2514 158.317 24.1827 155.317 21.1828C152.317 18.1829 148.249 16.4976 144.006 16.4976C139.764 16.4976 135.695 18.1829 132.695 21.1828C129.695 24.1827 128.01 28.2514 128.01 32.4939C128.01 32.8699 128.01 33.2698 128.062 33.6937C127.73 33.4657 127.394 33.2458 127.07 33.0578C125.25 31.9909 123.237 31.2945 121.147 31.0087C119.057 30.7229 116.931 30.8534 114.891 31.3926C112.852 31.9318 110.939 32.8691 109.263 34.1506C107.587 35.432 106.181 37.0323 105.127 38.8593C104.072 40.6862 103.389 42.7038 103.117 44.7958C102.845 46.8878 102.989 49.0129 103.542 51.0488C104.095 53.0847 105.045 54.9912 106.337 56.6585C107.63 58.3257 109.24 59.7209 111.073 60.7635C111.397 60.9515 111.753 61.1315 112.121 61.3074C111.753 61.4834 111.397 61.6633 111.073 61.8513C109.24 62.894 107.63 64.2891 106.337 65.9564C105.045 67.6237 104.095 69.5301 103.542 71.566C102.989 73.6019 102.845 75.7271 103.117 77.8191C103.389 79.9111 104.072 81.9286 105.127 83.7556C106.181 85.5825 107.587 87.1828 109.263 88.4643C110.939 89.7457 112.852 90.683 114.891 91.2222C116.931 91.7615 119.057 91.8919 121.147 91.6061C123.237 91.3204 125.25 90.624 127.07 89.557C127.394 89.3691 127.73 89.1571 128.062 88.9212C128.03 89.3211 128.01 89.721 128.01 90.1009C128.01 94.3434 129.695 98.4122 132.695 101.412C135.695 104.412 139.764 106.097 144.006 106.097C148.249 106.097 152.317 104.412 155.317 101.412C158.317 98.4122 160.002 94.3434 160.002 90.1009C160.002 89.725 159.982 89.3251 159.95 88.9212C160.282 89.1491 160.618 89.3691 160.942 89.557C163.365 90.9606 166.116 91.7 168.916 91.7005C170.324 91.6988 171.724 91.5133 173.083 91.1487C176.139 90.3296 178.884 88.6227 180.97 86.2438C183.056 83.8649 184.389 80.9208 184.802 77.784C185.215 74.6471 184.688 71.4584 183.288 68.6209C181.888 65.7835 179.679 63.4249 176.939 61.8433V61.8513ZM134.408 61.3074C134.408 59.4092 134.971 57.5535 136.026 55.9752C137.08 54.3968 138.579 53.1666 140.333 52.4402C142.087 51.7137 144.017 51.5237 145.878 51.894C147.74 52.2643 149.45 53.1785 150.793 54.5207C152.135 55.863 153.049 57.5732 153.419 59.435C153.79 61.2968 153.6 63.2266 152.873 64.9804C152.147 66.7341 150.917 68.2331 149.338 69.2877C147.76 70.3424 145.904 70.9053 144.006 70.9053C141.461 70.9053 139.019 69.8941 137.219 68.0941C135.419 66.2942 134.408 63.8529 134.408 61.3074Z" fill="#CE6C9E"/>
<path d="M178.048 58.0014C177.708 57.8442 177.337 57.698 176.954 57.5568C177.305 57.3475 177.642 57.1354 177.947 56.9183C179.677 55.7104 181.15 54.1723 182.283 52.3925C183.416 50.6128 184.185 48.6266 184.547 46.5483C184.909 44.47 184.857 42.3406 184.392 40.2827C183.928 38.2249 183.061 36.2792 181.842 34.5577C180.622 32.8362 179.074 31.3729 177.287 30.252C175.5 29.1311 173.509 28.3748 171.428 28.0267C169.347 27.6785 167.218 27.7453 165.164 28.2233C163.109 28.7013 161.169 29.581 159.456 30.8118C159.151 31.0289 158.836 31.271 158.527 31.5367C158.522 31.1355 158.505 30.7355 158.468 30.3373C158.075 26.113 156.021 22.2177 152.756 19.5083C149.491 16.7988 145.284 15.4973 141.06 15.8899C136.835 16.2825 132.94 18.3371 130.231 21.6017C127.521 24.8664 126.22 29.0736 126.612 33.2979C126.647 33.6722 126.684 34.0704 126.775 34.4877C126.424 34.2915 126.069 34.1035 125.729 33.9464C123.818 33.0524 121.749 32.5453 119.641 32.4542C117.534 32.363 115.429 32.6897 113.448 33.4153C111.467 34.141 109.649 35.2513 108.099 36.6823C106.549 38.1133 105.298 39.8368 104.417 41.7536C103.535 43.6703 103.042 45.7424 102.965 47.8506C102.888 49.9588 103.228 52.0614 103.967 54.0374C104.706 56.0135 105.828 57.8238 107.269 59.3643C108.711 60.9048 110.442 62.145 112.365 63.0135C112.705 63.1707 113.076 63.3169 113.459 63.4581C113.108 63.6674 112.771 63.8795 112.466 64.0966C110.736 65.3045 109.262 66.8426 108.13 68.6224C106.997 70.4021 106.228 72.3883 105.866 74.4666C105.504 76.5449 105.556 78.6743 106.021 80.7322C106.485 82.79 107.352 84.7357 108.571 86.4572C109.791 88.1787 111.338 89.642 113.126 90.7629C114.913 91.8838 116.904 92.6401 118.985 92.9882C121.066 93.3364 123.194 93.2696 125.249 92.7916C127.304 92.3136 129.244 91.4339 130.957 90.2031C131.262 89.986 131.577 89.7439 131.886 89.4782C131.891 89.8794 131.908 90.2794 131.943 90.6577C132.336 94.882 134.391 98.7773 137.655 101.487C140.92 104.196 145.127 105.498 149.351 105.105C153.576 104.713 157.471 102.658 160.18 99.3932C162.89 96.1286 164.191 91.9214 163.799 87.6971C163.764 87.3228 163.707 86.9264 163.638 86.5272C163.989 86.7234 164.344 86.9114 164.684 87.0685C167.227 88.2418 170.034 88.7235 172.823 88.4649C174.224 88.333 175.601 88.0186 176.921 87.5298C179.888 86.4314 182.463 84.4778 184.319 81.9161C186.176 79.3544 187.232 76.2996 187.352 73.138C187.473 69.9764 186.653 66.8501 184.997 64.1544C183.341 61.4586 180.922 59.3146 178.047 57.9934L178.048 58.0014ZM163.154 36.0307C164.182 35.3022 165.344 34.7834 166.573 34.5039C167.802 34.2245 169.075 34.1899 170.317 34.402C171.559 34.6142 172.748 35.069 173.815 35.7405C174.881 36.4119 175.805 37.2869 176.534 38.3155C177.262 39.3441 177.781 40.506 178.06 41.7351C178.34 42.9641 178.375 44.2362 178.162 45.4786C177.95 46.7211 177.495 47.9096 176.824 48.9762C176.152 50.0429 175.277 50.9669 174.249 51.6954C171.887 53.3729 167.065 54.825 160.515 55.8596C159.506 52.5529 157.453 49.6619 154.664 47.6196C157.816 41.7761 160.792 37.7082 163.154 36.0307ZM141.654 22.2809C144.188 22.0453 146.713 22.8263 148.671 24.4519C150.63 26.0776 151.863 28.4147 152.099 30.9493C152.366 33.8322 151.216 38.7387 148.836 44.9322C145.468 44.1418 141.934 44.4702 138.769 45.8678C135.288 40.219 133.253 35.6086 132.985 32.7257C132.75 30.1911 133.531 27.6668 135.156 25.708C136.782 23.7492 139.119 22.5164 141.654 22.2809ZM110.324 44.471C110.851 43.3254 111.597 42.2947 112.522 41.4377C113.447 40.5808 114.531 39.9144 115.714 39.4767C116.896 39.039 118.153 38.8385 119.413 38.8866C120.672 38.9348 121.91 39.2307 123.056 39.7574C125.687 40.9708 129.361 44.4207 133.536 49.5833C131.169 52.108 129.684 55.3323 129.305 58.7723C122.676 58.9626 117.67 58.4238 115.039 57.2144C113.892 56.6883 112.86 55.9411 112.002 55.0155C111.144 54.09 110.476 53.0043 110.038 51.8206C109.601 50.6369 109.4 49.3785 109.449 48.1174C109.498 46.8562 109.796 45.6171 110.324 44.471ZM127.259 84.9842C125.182 86.4555 122.605 87.0414 120.096 86.6129C117.587 86.1844 115.351 84.7767 113.879 82.6994C112.408 80.6221 111.822 78.0455 112.251 75.5362C112.679 73.027 114.087 70.7908 116.164 69.3195C118.526 67.642 123.348 66.1899 129.898 65.1553C130.907 68.462 132.96 71.353 135.749 73.3953C132.597 79.2388 129.621 83.3067 127.259 84.9842ZM148.759 98.734C146.225 98.9696 143.7 98.1886 141.742 96.563C139.783 94.9373 138.55 92.6002 138.314 90.0656C138.046 87.1827 139.197 82.2762 141.577 76.0827C144.945 76.8731 148.479 76.5447 151.644 75.1471C155.125 80.7959 157.16 85.4063 157.428 88.2892C157.663 90.8238 156.882 93.3481 155.257 95.3069C153.631 97.2657 151.294 98.4985 148.759 98.734ZM180.089 76.5439C179.562 77.6895 178.816 78.7202 177.891 79.5772C176.966 80.4341 175.882 81.1005 174.699 81.5382C173.517 81.9759 172.26 82.1764 171 82.1283C169.741 82.0801 168.503 81.7842 167.357 81.2575C164.726 80.0441 161.052 76.5942 156.877 71.4316C159.244 68.9069 160.729 65.6826 161.108 62.2426C167.737 62.0522 172.743 62.591 175.374 63.8005C176.521 64.3266 177.553 65.0738 178.411 65.9994C179.269 66.9249 179.937 68.0106 180.374 69.1943C180.812 70.378 181.013 71.6364 180.964 72.8975C180.915 74.1587 180.617 75.3978 180.089 76.5439Z" fill="#DDD347"/>
<path d="M144.006 16.4976C146.066 16.4976 148.086 16.8961 149.963 17.6489C150.949 18.1655 151.886 18.7865 152.756 19.5083C156.02 22.2177 158.075 26.1131 158.468 30.3374C158.505 30.7356 158.522 31.1355 158.527 31.5366C158.836 31.271 159.151 31.0291 159.456 30.812C159.596 30.7117 159.737 30.6137 159.88 30.5181C159.961 31.1701 160.003 31.8297 160.003 32.4937C160.003 32.8936 159.983 33.2939 159.951 33.6938C160.283 33.458 160.618 33.246 160.942 33.0581C162.762 31.9912 164.775 31.2941 166.865 31.0083C168.955 30.7225 171.081 30.8529 173.121 31.3921C175.16 31.9313 177.073 32.8694 178.749 34.1509C180.425 35.4323 181.831 37.032 182.885 38.8589C183.816 40.4704 184.456 42.2307 184.781 44.0591C184.768 44.8918 184.691 45.7241 184.548 46.5483C184.186 48.6267 183.416 50.6133 182.283 52.3931C181.15 54.1726 179.676 55.7106 177.947 56.9185C177.642 57.1355 177.305 57.348 176.955 57.5571C177.337 57.6982 177.709 57.8443 178.049 58.0015L178.048 57.9937C178.593 58.2445 179.123 58.5252 179.634 58.8335C178.806 59.5661 177.904 60.2142 176.938 60.7632C176.614 60.9511 176.258 61.1312 175.89 61.3071C176.258 61.483 176.614 61.6632 176.938 61.8511V61.8433C179.678 63.4248 181.888 65.7833 183.288 68.6206C184.687 71.458 185.214 74.6469 184.802 77.7837C184.523 79.9024 183.823 81.9322 182.756 83.7603C181.117 85.4219 179.128 86.7128 176.921 87.5298C175.601 88.0186 174.224 88.3334 172.823 88.4653C170.035 88.7239 167.227 88.2421 164.684 87.0688C164.344 86.9117 163.99 86.7231 163.638 86.5269C163.708 86.9259 163.764 87.3226 163.799 87.6968C163.897 88.7527 163.888 89.8078 163.779 90.8472C162.797 90.5122 161.847 90.0812 160.942 89.5571C160.618 89.3693 160.283 89.1492 159.951 88.9214C159.983 89.3252 160.003 89.7253 160.003 90.1011C160.003 94.3434 158.317 98.4118 155.317 101.412C153.688 103.041 151.742 104.281 149.626 105.076C149.534 105.086 149.443 105.096 149.351 105.105C145.127 105.498 140.92 104.196 137.655 101.487C134.39 98.7774 132.336 94.8819 131.943 90.6577C131.908 90.2794 131.892 89.8792 131.886 89.478C131.578 89.7437 131.263 89.9865 130.958 90.2036C130.063 90.846 129.106 91.3905 128.104 91.8345C128.042 91.2615 128.01 90.6829 128.01 90.1011C128.01 89.7213 128.029 89.3212 128.061 88.9214C127.73 89.1572 127.394 89.3693 127.07 89.5571C125.25 90.624 123.237 91.3201 121.147 91.606C119.057 91.8917 116.931 91.7613 114.891 91.2222C114.12 91.0181 113.366 90.757 112.636 90.4419C111.056 89.3679 109.678 88.0197 108.571 86.4575C107.352 84.736 106.486 82.7898 106.021 80.7319C105.557 78.6741 105.504 76.5446 105.866 74.4663C106.228 72.3882 106.997 70.4021 108.13 68.6226C109.262 66.8428 110.736 65.3041 112.466 64.0962C112.771 63.8791 113.109 63.6677 113.459 63.4585C113.076 63.3173 112.705 63.1704 112.365 63.0132C111.772 62.7452 111.197 62.4416 110.643 62.105C110.785 62.0183 110.929 61.9334 111.074 61.8511C111.398 61.6632 111.753 61.483 112.121 61.3071C111.753 61.1313 111.398 60.951 111.074 60.7632C109.24 59.7206 107.63 58.3258 106.338 56.6587C105.045 54.9914 104.095 53.0842 103.543 51.0483C103.214 49.8372 103.03 48.5947 102.992 47.3462C103.124 45.4124 103.606 43.517 104.417 41.7534C105.298 39.8368 106.549 38.1131 108.099 36.6821C109.649 35.2512 111.467 34.1412 113.448 33.4155C115.429 32.6899 117.534 32.3635 119.641 32.4546C121.749 32.5457 123.818 33.0529 125.729 33.9468C126.069 34.1039 126.424 34.2916 126.775 34.4878C126.684 34.0706 126.647 33.6725 126.612 33.2983C126.596 33.1256 126.583 32.9524 126.573 32.7798C126.74 32.8698 126.906 32.962 127.07 33.0581C127.394 33.246 127.73 33.466 128.061 33.6938C128.009 33.2699 128.01 32.8696 128.01 32.4937C128.01 28.2513 129.695 24.183 132.695 21.1831C135.695 18.1833 139.763 16.4977 144.006 16.4976ZM151.644 75.147C148.48 76.5445 144.946 76.8728 141.578 76.0825C139.197 82.276 138.046 87.183 138.314 90.0659C138.55 92.6004 139.783 94.9374 141.742 96.563C143.701 98.1886 146.225 98.9694 148.76 98.7339C151.294 98.4983 153.631 97.2657 155.257 95.3071C156.882 93.3484 157.663 90.824 157.427 88.2896C157.16 85.4066 155.125 80.7957 151.644 75.147ZM129.898 65.1558C123.348 66.1903 118.526 67.6424 116.164 69.3198C114.087 70.7911 112.679 73.0276 112.251 75.5366C111.822 78.0457 112.408 80.6225 113.88 82.6997C115.351 84.7768 117.587 86.1843 120.096 86.6128C122.606 87.0412 125.182 86.4551 127.26 84.9839C129.622 83.3063 132.597 79.2382 135.749 73.395C132.96 71.3528 130.907 68.4622 129.898 65.1558ZM175.374 63.8003C172.743 62.591 167.737 62.0523 161.108 62.2427C160.729 65.6827 159.245 68.9074 156.878 71.4321C161.052 76.5943 164.726 80.0439 167.357 81.2573C168.503 81.784 169.741 82.0803 171.001 82.1284C172.26 82.1765 173.518 81.9763 174.7 81.5386C175.882 81.1009 176.967 80.4345 177.891 79.5776C178.816 78.7207 179.562 77.6891 180.089 76.5435C180.617 75.3976 180.915 74.1589 180.964 72.8979C181.013 71.6368 180.813 70.3775 180.375 69.1938C179.937 68.0104 179.27 66.9249 178.412 65.9995C177.554 65.074 176.521 64.3264 175.374 63.8003ZM145.879 51.894C144.017 51.5237 142.087 51.7135 140.333 52.4399C138.579 53.1664 137.081 54.3969 136.026 55.9751C134.972 57.5534 134.408 59.4089 134.408 61.3071C134.408 63.8526 135.42 66.2943 137.219 68.0942C139.019 69.894 141.46 70.9047 144.006 70.9048C145.904 70.9048 147.76 70.3422 149.339 69.2876C150.917 68.233 152.146 66.7337 152.873 64.98C153.599 63.2263 153.79 61.2968 153.42 59.4351C153.049 57.5733 152.135 55.8632 150.793 54.521C149.45 53.1788 147.74 52.2644 145.879 51.894ZM119.413 38.8862C118.153 38.8381 116.896 39.0393 115.714 39.4771C114.531 39.9148 113.447 40.5811 112.522 41.438C111.598 42.2949 110.85 43.3256 110.324 44.4712C109.796 45.6172 109.499 46.8566 109.45 48.1177C109.401 49.3787 109.601 50.6372 110.039 51.8208C110.477 53.0043 111.144 54.0897 112.002 55.0151C112.86 55.9406 113.892 56.6882 115.039 57.2144C117.669 58.4238 122.676 58.9624 129.305 58.772C129.685 55.3322 131.169 52.1081 133.536 49.5835C129.361 44.4209 125.686 40.9707 123.055 39.7573C121.91 39.2308 120.672 38.9344 119.413 38.8862ZM170.317 34.4019C169.075 34.1897 167.803 34.225 166.574 34.5044C165.345 34.7838 164.183 35.3023 163.154 36.0308C160.792 37.7082 157.816 41.7761 154.664 47.6196C157.453 49.6619 159.506 52.5532 160.514 55.8599C167.065 54.8253 171.886 53.3732 174.249 51.6958C175.277 50.9673 176.152 50.0427 176.824 48.9761C177.495 47.9095 177.951 46.7213 178.163 45.479C178.375 44.2366 178.34 42.9639 178.06 41.7349C177.781 40.506 177.262 39.3443 176.534 38.3159C175.805 37.2874 174.881 36.4122 173.814 35.7407C172.748 35.0693 171.559 34.614 170.317 34.4019ZM148.672 24.4517C146.713 22.8261 144.189 22.0453 141.654 22.2808C139.119 22.5163 136.782 23.7497 135.156 25.7085C133.531 27.6672 132.75 30.1917 132.985 32.7261C133.253 35.609 135.288 40.2192 138.769 45.8677C141.934 44.4701 145.468 44.1417 148.836 44.9321C151.216 38.7389 152.366 33.8327 152.098 30.9497C151.863 28.4151 150.63 26.0773 148.672 24.4517Z" fill="#D3592C"/>
<circle cx="244.573" cy="60.4973" r="45.8393" fill="#5CA7B5"/>
<path d="M290.412 14.6581L198.733 106.337H290.412V14.6581Z" fill="#DDD347"/>
<path d="M276.986 28.0841C285.281 36.3793 290.412 47.839 290.412 60.4972C290.412 85.8135 269.889 106.337 244.573 106.337C231.914 106.337 220.455 101.206 212.159 92.9103L276.986 28.0841Z" fill="#7CA835"/>
<path d="M340.073 41.7008C342.458 39.1938 345.069 37.0893 347.907 35.3873C350.744 33.6853 353.7 32.4005 356.775 31.5328C359.85 30.6651 363.006 30.1795 366.244 30.0759C369.482 29.9723 372.659 30.3023 375.775 31.0659C378.89 31.8295 381.92 32.9792 384.863 34.5151C387.807 36.0511 390.533 38.0124 393.042 40.3992C395.796 43.0199 398.079 45.9403 399.888 49.1604C401.698 52.3804 402.996 55.7691 403.782 59.3263C404.568 62.8836 404.84 66.5135 404.597 70.216C404.355 73.9186 403.534 77.5393 402.136 81.0783L395.722 78.0674C395.15 80.0978 394.358 82.0135 393.347 83.8147C392.336 85.6158 391.107 87.3023 389.658 88.8741C388.209 90.398 386.609 91.7095 384.861 92.8086C383.112 93.9077 381.215 94.7945 379.167 95.4689L382.494 101.724C379.029 103.298 375.454 104.298 371.768 104.724C368.082 105.151 364.455 105.048 360.886 104.416C357.317 103.783 353.868 102.656 350.539 101.033C347.209 99.4108 344.167 97.2892 341.412 94.6684C338.903 92.2817 336.797 89.669 335.093 86.8304C333.389 83.9919 332.102 81.035 331.232 77.9599C330.362 74.8848 329.874 71.7282 329.768 68.4903C329.663 65.2524 329.99 62.0758 330.752 58.9606C331.513 55.8454 332.661 52.8167 334.195 49.8745C335.728 46.9324 337.688 44.2078 340.073 41.7008ZM362.023 89.5532C362.654 88.8896 363.116 88.1581 363.407 87.3588C363.699 86.5595 363.835 85.7521 363.814 84.9365C363.794 84.1208 363.617 83.297 363.284 82.4651C362.951 81.6331 362.453 80.9253 361.79 80.3415C361.126 79.7097 360.394 79.2476 359.594 78.9552C358.795 78.6628 357.987 78.5266 357.171 78.5466C356.356 78.5667 355.532 78.743 354.7 79.0754C353.869 79.4079 353.161 79.9054 352.578 80.5678C351.946 81.2314 351.485 81.9629 351.193 82.7622C350.901 83.5615 350.766 84.369 350.786 85.1846C350.807 86.0002 350.984 86.824 351.317 87.656C351.65 88.4879 352.148 89.1958 352.811 89.7796C353.475 90.4114 354.207 90.8735 355.006 91.1659C355.806 91.4583 356.613 91.5945 357.429 91.5744C358.245 91.5544 359.068 91.3781 359.9 91.0456C360.732 90.7131 361.439 90.2157 362.023 89.5532ZM352.345 71.3561C352.976 70.6924 353.438 69.961 353.73 69.1617C354.021 68.3624 354.157 67.5549 354.136 66.7393C354.116 65.9237 353.939 65.0999 353.606 64.2679C353.273 63.436 352.775 62.7281 352.112 62.1443C351.448 61.5125 350.716 61.0504 349.917 60.758C349.117 60.4656 348.309 60.3294 347.494 60.3495C346.678 60.3695 345.854 60.5458 345.023 60.8783C344.191 61.2108 343.483 61.7082 342.9 62.3707C342.269 63.0343 341.807 63.7658 341.515 64.5651C341.223 65.3644 341.088 66.1718 341.108 66.9874C341.129 67.8031 341.306 68.6269 341.639 69.4588C341.972 70.2908 342.47 70.9986 343.133 71.5824C343.797 72.2142 344.529 72.6763 345.328 72.9687C346.128 73.2611 346.935 73.3973 347.751 73.3773C348.567 73.3572 349.39 73.181 350.222 72.8485C351.054 72.516 351.762 72.0185 352.345 71.3561ZM384.936 84.3814C386.152 83.1033 387.161 81.6983 387.962 80.1664C388.763 78.6344 389.358 76.9996 389.746 75.2617L361.324 61.9179L376.067 89.6402C377.759 89.1425 379.35 88.4553 380.84 87.5786C382.33 86.7018 383.695 85.6361 384.936 84.3814ZM361.091 52.7062C361.755 53.338 362.487 53.8 363.286 54.0925C364.086 54.3849 364.894 54.521 365.709 54.501C366.525 54.4809 367.349 54.3047 368.18 53.9722C369.012 53.6397 369.72 53.1422 370.303 52.4798C370.934 51.8162 371.396 51.0847 371.688 50.2854C371.98 49.4861 372.115 48.6787 372.095 47.863C372.074 47.0474 371.897 46.2236 371.564 45.3917C371.231 44.5597 370.733 43.8518 370.07 43.268C369.406 42.6362 368.674 42.1742 367.875 41.8817C367.075 41.5893 366.267 41.4532 365.452 41.4732C364.636 41.4933 363.812 41.6695 362.981 42.002C362.149 42.3345 361.441 42.832 360.858 43.4944C360.227 44.158 359.765 44.8895 359.473 45.6888C359.181 46.4881 359.046 47.2955 359.066 48.1112C359.087 48.9268 359.264 49.7506 359.597 50.5825C359.93 51.4145 360.428 52.1224 361.091 52.7062ZM388.96 61.2388C389.591 60.5752 390.053 59.8437 390.344 59.0444C390.636 58.2451 390.772 57.4377 390.751 56.6221C390.731 55.8064 390.554 54.9826 390.221 54.1507C389.888 53.3187 389.39 52.6109 388.727 52.027C388.063 51.3953 387.331 50.9332 386.531 50.6408C385.732 50.3484 384.924 50.2122 384.109 50.2322C383.293 50.2523 382.469 50.4285 381.638 50.761C380.806 51.0935 380.098 51.591 379.515 52.2534C378.884 52.917 378.422 53.6485 378.13 54.4478C377.838 55.2471 377.703 56.0546 377.723 56.8702C377.744 57.6858 377.921 58.5096 378.254 59.3415C378.587 60.1735 379.085 60.8814 379.748 61.4652C380.412 62.097 381.144 62.5591 381.943 62.8515C382.743 63.1439 383.55 63.28 384.366 63.26C385.182 63.24 386.005 63.0637 386.837 62.7312C387.669 62.3987 388.376 61.9013 388.96 61.2388ZM326.829 51.9279C325.058 50.2431 323.749 48.295 322.901 46.0834L312.86 46.2942L312.697 39.8171L321.765 39.5943C321.858 37.5757 322.277 35.6571 323.023 33.8385C323.769 32.0198 324.844 30.3732 326.247 28.8985C327.65 27.4237 329.241 26.2685 331.02 25.4326C332.799 24.5968 334.695 24.0821 336.706 23.8887L336.477 14.8208L342.954 14.6617L343.244 24.7002C345.495 25.437 347.506 26.6478 349.277 28.3325C349.597 28.6367 349.892 28.9415 350.164 29.2469C350.436 29.5522 350.696 29.8939 350.946 30.2718C348.405 31.3664 346.002 32.6857 343.737 34.2296C341.471 35.7735 339.38 37.5532 337.463 39.5686C335.569 41.5595 333.907 43.7246 332.478 46.0641C331.049 48.4036 329.839 50.8817 328.849 53.4985C328.507 53.2668 328.177 53.0229 327.859 52.7667C327.54 52.5105 327.197 52.2309 326.829 51.9279Z" fill="#DDD347"/>
<path fill-rule="evenodd" clip-rule="evenodd" d="M339.972 42.6457C342.51 40.2942 345.249 38.3586 348.188 36.8391C351.128 35.3195 354.159 34.2238 357.282 33.5518C360.405 32.8798 363.586 32.5943 366.824 32.6953C370.062 32.7962 373.212 33.326 376.273 34.2847C379.335 35.2433 382.286 36.5819 385.126 38.3005C387.967 40.0191 390.564 42.1485 392.917 44.6888C395.501 47.4782 397.594 50.5368 399.197 53.8646C400.8 57.1924 401.882 60.6562 402.442 64.256C403.002 67.8557 403.044 71.4956 402.568 75.1755C402.093 78.8553 401.045 82.4171 399.426 85.8607L359.905 64.1634L378.521 105.226C374.964 106.578 371.332 107.35 367.627 107.543C363.921 107.737 360.308 107.405 356.786 106.549C353.265 105.692 349.893 104.35 346.673 102.52C343.452 100.691 340.55 98.3816 337.966 95.5923C335.613 93.052 333.676 90.3116 332.154 87.3712C330.632 84.4307 329.535 81.3985 328.86 78.2747C328.186 75.1508 327.899 71.9698 327.997 68.7316C328.096 65.4935 328.623 62.3439 329.58 59.2829C330.536 56.222 331.873 53.2718 333.589 50.4322C335.306 47.5927 337.433 44.9972 339.972 42.6457ZM360.379 89.6851C360.037 90.4644 359.53 91.1653 358.858 91.7877C358.234 92.412 357.497 92.8639 356.646 93.1432C355.795 93.4226 354.961 93.5465 354.146 93.515C353.331 93.4836 352.533 93.2967 351.754 92.9544C350.974 92.6122 350.273 92.1048 349.65 91.4324C349.026 90.8079 348.573 90.07 348.293 89.2187C348.013 88.3674 347.889 87.5341 347.92 86.7188C347.951 85.9035 348.137 85.1062 348.479 84.3269C348.82 83.5476 349.327 82.8468 349.999 82.2243C350.623 81.6 351.361 81.1482 352.212 80.8688C353.063 80.5895 353.896 80.4655 354.711 80.497C355.527 80.5284 356.324 80.7153 357.103 81.0576C357.883 81.3998 358.584 81.9072 359.207 82.5796C359.832 83.2041 360.284 83.942 360.564 84.7933C360.844 85.6446 360.968 86.4779 360.938 87.2932C360.907 88.1085 360.72 88.9058 360.379 89.6851ZM351.868 70.9136C351.527 71.6928 351.02 72.3937 350.348 73.0162C349.724 73.6405 348.986 74.0923 348.135 74.3717C347.284 74.651 346.451 74.775 345.636 74.7435C344.821 74.712 344.023 74.5252 343.244 74.1829C342.464 73.8406 341.763 73.3333 341.14 72.6609C340.515 72.0364 340.063 71.2985 339.783 70.4472C339.503 69.5959 339.379 68.7626 339.41 67.9473C339.44 67.132 339.627 66.3347 339.968 65.5554C340.31 64.7761 340.817 64.0752 341.489 63.4528C342.113 62.8284 342.85 62.3766 343.701 62.0973C344.553 61.8179 345.386 61.694 346.201 61.7254C347.016 61.7569 347.814 61.9438 348.593 62.286C349.373 62.6283 350.074 63.1357 350.697 63.8081C351.321 64.4326 351.774 65.1704 352.054 66.0218C352.334 66.8731 352.458 67.7064 352.427 68.5217C352.396 69.337 352.21 70.1343 351.868 70.9136ZM362.357 56.4774C361.577 56.1351 360.876 55.6277 360.253 54.9553C359.629 54.3308 359.176 53.5929 358.896 52.7416C358.616 51.8903 358.492 51.057 358.523 50.2417C358.554 49.4264 358.74 48.6291 359.082 47.8498C359.423 47.0705 359.93 46.3697 360.602 45.7472C361.226 45.1229 361.964 44.6711 362.815 44.3917C363.666 44.1124 364.499 43.9884 365.314 44.0199C366.13 44.0514 366.927 44.2382 367.706 44.5805C368.486 44.9228 369.187 45.4301 369.81 46.1025C370.435 46.727 370.887 47.4649 371.167 48.3162C371.447 49.1675 371.571 50.0008 371.541 50.8161C371.51 51.6314 371.323 52.4287 370.982 53.208C370.64 53.9873 370.133 54.6882 369.461 55.3106C368.837 55.9349 368.1 56.3868 367.249 56.6661C366.398 56.9455 365.564 57.0694 364.749 57.0379C363.934 57.0065 363.136 56.8196 362.357 56.4774ZM389.049 63.1268C388.707 63.9061 388.2 64.6069 387.528 65.2294C386.904 65.8537 386.167 66.3055 385.316 66.5849C384.464 66.8642 383.631 66.9882 382.816 66.9567C382.001 66.9252 381.203 66.7384 380.424 66.3961C379.644 66.0538 378.943 65.5465 378.32 64.8741C377.696 64.2496 377.243 63.5117 376.963 62.6604C376.683 61.8091 376.559 60.9758 376.59 60.1605C376.621 59.3452 376.807 58.5479 377.149 57.7686C377.49 56.9893 377.997 56.2884 378.669 55.666C379.293 55.0417 380.031 54.5898 380.882 54.3105C381.733 54.0311 382.566 53.9072 383.381 53.9387C384.196 53.9701 384.994 54.157 385.773 54.4993C386.553 54.8415 387.254 55.3489 387.877 56.0213C388.502 56.6458 388.954 57.3837 389.234 58.235C389.514 59.0863 389.638 59.9196 389.608 60.7349C389.577 61.5502 389.39 62.3475 389.049 63.1268Z" fill="#CE6C9E"/>
<path d="M335.458 47.6559C336.782 45.8784 338.286 44.208 339.972 42.6459C342.511 40.2945 345.249 38.3587 348.188 36.8391C351.127 35.3197 354.158 34.2237 357.282 33.5517C360.405 32.8798 363.586 32.594 366.824 32.6949C370.062 32.7959 373.212 33.3258 376.273 34.2844C379.335 35.243 382.286 36.5821 385.127 38.3007C387.967 40.0192 390.563 42.1486 392.916 44.6887C395.5 47.478 397.594 50.537 399.197 53.8648C400.8 57.1926 401.882 60.6566 402.442 64.2563C403.002 67.856 403.044 71.4963 402.569 75.176C402.325 77.0577 401.931 78.908 401.388 80.728L395.723 78.0675C395.255 79.7269 394.636 81.3079 393.876 82.8141L388.198 79.6967C388.88 78.3014 389.397 76.8237 389.746 75.2622L361.324 61.9181L363.594 66.189L359.905 64.1632L377.738 103.502C375.781 104.081 373.792 104.49 371.768 104.725C368.083 105.151 364.455 105.048 360.887 104.416C357.318 103.783 353.869 102.656 350.539 101.033C347.21 99.4108 344.167 97.289 341.412 94.6683C338.903 92.2816 336.797 89.6689 335.093 86.8304C333.389 83.9919 332.102 81.0351 331.232 77.96C330.363 74.8849 329.874 71.7283 329.768 68.4904C329.662 65.2527 329.991 62.0763 330.752 58.9612C331.513 55.8461 332.661 52.817 334.195 49.8749C334.588 49.121 335.009 48.3812 335.458 47.6559ZM379.515 52.2535C378.884 52.9171 378.422 53.6487 378.13 54.448C377.853 55.2075 377.717 55.9745 377.722 56.7487C377.496 57.0723 377.305 57.4122 377.149 57.7687C376.807 58.5479 376.62 59.345 376.59 60.1602C376.559 60.9755 376.683 61.8091 376.963 62.6604C377.243 63.5116 377.695 64.2498 378.32 64.8743C378.943 65.5466 379.644 66.0537 380.424 66.396C381.203 66.7383 382.001 66.9259 382.816 66.9574C383.631 66.9888 384.465 66.8642 385.316 66.5849C386.167 66.3055 386.904 65.8532 387.528 65.2291C388.2 64.6066 388.707 63.9058 389.049 63.1265C389.39 62.3473 389.577 61.5502 389.608 60.735C389.612 60.6384 389.612 60.5413 389.611 60.4441C389.92 60.0032 390.164 59.5369 390.344 59.0444C390.636 58.2451 390.773 57.4377 390.752 56.6221C390.732 55.8065 390.555 54.9826 390.222 54.1507C389.888 53.3188 389.39 52.6104 388.727 52.0266C388.063 51.395 387.331 50.9328 386.532 50.6404C385.732 50.348 384.924 50.2118 384.109 50.2318C383.293 50.2519 382.469 50.4286 381.637 50.7611C380.806 51.0935 380.099 51.5912 379.515 52.2535ZM349.999 82.2245C349.327 82.847 348.821 83.5478 348.479 84.3271C348.137 85.1063 347.951 85.9034 347.92 86.7186C347.889 87.5339 348.014 88.3674 348.293 89.2187C348.573 90.07 349.025 90.8082 349.65 91.4326C350.273 92.105 350.975 92.6121 351.754 92.9544C352.533 93.2966 353.33 93.4835 354.146 93.5151C354.961 93.5465 355.794 93.4225 356.645 93.1433C357.496 92.8639 358.234 92.4117 358.858 91.7874C359.053 91.6073 359.231 91.4188 359.398 91.2255C359.565 91.1713 359.733 91.1121 359.9 91.0452C360.732 90.7127 361.44 90.2158 362.023 89.5534C362.654 88.8899 363.115 88.1581 363.407 87.3589C363.699 86.5597 363.836 85.7522 363.815 84.9367C363.794 84.1211 363.617 83.2971 363.284 82.4653C362.951 81.6333 362.453 80.925 361.79 80.3412C361.126 79.7095 360.394 79.2474 359.595 78.955C358.795 78.6626 357.987 78.5263 357.172 78.5464C356.356 78.5664 355.532 78.7432 354.7 79.0756C353.869 79.4081 353.161 79.9057 352.578 80.5681C352.496 80.6543 352.416 80.7411 352.34 80.8296C352.298 80.8428 352.255 80.8554 352.212 80.8694C351.361 81.1487 350.623 81.6002 349.999 82.2245ZM360.858 43.4943C360.227 44.1579 359.766 44.8896 359.474 45.6888C359.209 46.4144 359.073 47.1468 359.066 47.8859C358.734 48.6537 358.553 49.439 358.523 50.2417C358.492 51.057 358.617 51.8906 358.897 52.7419C359.177 53.5931 359.629 54.3314 360.253 54.9558C360.876 55.6281 361.578 56.1353 362.357 56.4776C363.137 56.8197 363.934 57.0067 364.749 57.0382C365.564 57.0697 366.398 56.9457 367.248 56.6665C368.1 56.3871 368.838 55.9349 369.462 55.3106C370.134 54.6882 370.64 53.9873 370.982 53.2081C371.324 52.4288 371.51 51.6312 371.541 50.8159C371.543 50.7582 371.542 50.7004 371.543 50.6425C371.594 50.5249 371.644 50.4065 371.688 50.2859C371.98 49.4866 372.116 48.6786 372.095 47.8629C372.074 47.0474 371.897 46.2235 371.564 45.3916C371.231 44.5597 370.733 43.8519 370.07 43.2681C369.407 42.6365 368.675 42.1744 367.875 41.882C367.076 41.5896 366.268 41.4533 365.452 41.4733C364.637 41.4934 363.813 41.6701 362.981 42.0026C362.149 42.3351 361.441 42.832 360.858 43.4943ZM341.489 63.4528C340.817 64.0753 340.31 64.7761 339.969 65.5554C339.627 66.3347 339.441 67.1322 339.41 67.9475C339.379 68.7627 339.503 69.5959 339.783 70.447C340.063 71.2983 340.515 72.0365 341.14 72.6609C341.763 73.3333 342.464 73.8404 343.244 74.1827C344.023 74.525 344.821 74.7126 345.636 74.744C346.451 74.7755 347.284 74.6516 348.135 74.3723C348.987 74.0929 349.724 73.6401 350.348 73.0157C350.493 72.8816 350.628 72.7422 350.758 72.6008C351.362 72.2851 351.891 71.8711 352.345 71.3558C352.976 70.6923 353.438 69.9612 353.73 69.162C354.022 68.3627 354.158 67.5547 354.137 66.7391C354.116 65.9235 353.939 65.0996 353.606 64.2677C353.273 63.4359 352.775 62.728 352.113 62.1443C351.449 61.5126 350.717 61.0505 349.917 60.7581C349.118 60.4657 348.31 60.3295 347.494 60.3495C346.679 60.3695 345.855 60.5462 345.023 60.8787C344.191 61.2112 343.483 61.7081 342.9 62.3705C342.866 62.4064 342.833 62.4437 342.8 62.48C342.318 62.7361 341.881 63.0605 341.489 63.4528Z" fill="#D3592C"/>
<path d="M482.069 7.12769L488.446 41.5268L513.824 17.4455L498.763 49.0232L533.449 44.4579L502.704 61.1525L533.449 77.8471L498.763 73.2818L513.824 104.86L488.446 80.7782L482.069 115.177L475.692 80.7782L450.314 104.86L465.374 73.2818L430.688 77.8471L461.433 61.1525L430.688 44.4579L465.374 49.0232L450.314 17.4455L475.692 41.5268L482.069 7.12769Z" fill="#A75B79"/>
<path d="M480.649 6.51267L488.342 40.6416L512.777 15.6036L498.94 47.7363L533.425 41.8425L503.344 59.7053L534.707 75.2071L499.872 71.977L516.133 102.953L489.849 79.864L484.798 114.483L477.105 80.3537L452.67 105.392L466.507 73.2591L432.022 79.1528L462.103 61.29L430.74 45.7882L465.576 49.0183L449.314 18.0422L475.598 41.1313L480.649 6.51267Z" fill="#5CA7B5"/>
<path d="M487.999 39.1239L488.445 41.5272L510.713 20.3973L498.941 47.7362L499.416 47.6542L498.764 49.0233L527.76 45.2059L503.344 59.705L504.403 60.2284L502.704 61.1522L527.326 74.5223L499.871 71.9774L500.689 73.535L498.764 73.2821L510.594 98.0858L489.85 79.8641L489.562 81.8368L488.445 80.7782L483.37 108.151L477.106 80.3534L475.852 81.6376L475.693 80.7782L454.685 100.711L466.507 73.2587L465.285 73.4667L465.374 73.2821L435.226 77.2499L462.104 61.2899L457.463 58.996L433.632 46.0555L464.769 48.9432L465.374 49.0233L465.361 48.9979L465.575 49.0184L463.351 44.7821L451.524 19.9833L471.258 37.3192L475.693 41.5272L481.49 10.245L487.999 39.1239Z" fill="#715A95"/>
<path d="M547.318 19.8451H563.961V36.4886H547.318V19.8451Z" fill="#A75B79"/>
<path d="M563.961 36.4886H580.605V53.1321H563.961V36.4886Z" fill="#A75B79"/>
<path d="M597.248 36.4886H613.892V53.1321H597.248V36.4886Z" fill="#A75B79"/>
<path d="M613.892 19.8451H630.535V36.4886H613.892V19.8451Z" fill="#A75B79"/>
<path d="M580.605 19.8451H597.248V36.4886H580.605V19.8451Z" fill="#A75B79"/>
<path d="M547.318 53.1321H563.961V69.7756H547.318V53.1321Z" fill="#A75B79"/>
<path d="M563.961 69.7756H580.605V86.4191H563.961V69.7756Z" fill="#A75B79"/>
<path d="M597.248 69.7756H613.892V86.4191H597.248V69.7756Z" fill="#A75B79"/>
<path d="M613.892 53.1321H630.535V69.7756H613.892V53.1321Z" fill="#A75B79"/>
<path d="M580.605 53.1321H597.248V69.7756H580.605V53.1321Z" fill="#A75B79"/>
<path d="M547.318 86.4191H563.961V103.063H547.318V86.4191Z" fill="#A75B79"/>
<path d="M613.892 86.4191H630.535V103.063H613.892V86.4191Z" fill="#A75B79"/>
<path d="M580.605 86.4191H597.248V103.063H580.605V86.4191Z" fill="#A75B79"/>
<path d="M565.546 17.9326H582.19V34.5761H565.546V17.9326Z" fill="#5CA7B5"/>
<path d="M598.833 17.9326H615.477V34.5761H598.833V17.9326Z" fill="#5CA7B5"/>
<path d="M582.19 34.5761H598.833V51.2196H582.19V34.5761Z" fill="#5CA7B5"/>
<path d="M565.546 51.2196H582.19V67.8631H565.546V51.2196Z" fill="#5CA7B5"/>
<path d="M548.903 34.5761H565.546V51.2196H548.903V34.5761Z" fill="#5CA7B5"/>
<path d="M582.19 67.8631H598.833V84.5066H582.19V67.8631Z" fill="#5CA7B5"/>
<path d="M598.833 51.2196H615.477V67.8631H598.833V51.2196Z" fill="#5CA7B5"/>
<path d="M615.477 34.5761H632.12V51.2196H615.477V34.5761Z" fill="#5CA7B5"/>
<path d="M615.477 67.8631H632.12V84.5066H615.477V67.8631Z" fill="#5CA7B5"/>
<path d="M598.833 84.5066H615.477V101.15H598.833V84.5066Z" fill="#5CA7B5"/>
<path d="M565.546 84.5066H582.19V101.15H565.546V84.5066Z" fill="#5CA7B5"/>
<path d="M548.903 67.8631H565.546V84.5066H548.903V67.8631Z" fill="#5CA7B5"/>
<path d="M615.477 101.15H613.892V86.4193H615.477V101.15ZM582.19 101.15H580.605V86.4193H582.19V101.15ZM613.892 86.4193H598.834V84.5062H613.892V86.4193ZM580.605 86.4193H565.547V84.5062H580.605V86.4193ZM598.834 84.5062H597.249V69.7758H598.834V84.5062ZM565.547 84.5062H563.962V69.7758H565.547V84.5062ZM630.536 69.7758H615.477V67.8627H630.536V69.7758ZM597.249 69.7758H582.19V67.8627H597.249V69.7758ZM563.962 69.7758H548.903V67.8627H563.962V69.7758ZM615.477 67.8627H613.892V53.1322H615.477V67.8627ZM582.19 67.8627H580.605V53.1322H582.19V67.8627ZM613.892 53.1322H598.834V51.2201H613.892V53.1322ZM580.605 53.1322H565.547V51.2201H580.605V53.1322ZM598.834 51.2201H597.249V36.4886H598.834V51.2201ZM565.547 51.2201H563.962V36.4886H565.547V51.2201ZM630.536 36.4886H615.477V34.5765H630.536V36.4886ZM597.249 36.4886H582.19V34.5765H597.249V36.4886ZM563.962 36.4886H548.903V34.5765H563.962V36.4886ZM615.477 34.5765H613.892V19.8451H615.477V34.5765ZM582.19 34.5765H580.605V19.8451H582.19V34.5765Z" fill="#715A95"/>
<path fill-rule="evenodd" clip-rule="evenodd" d="M692.716 113.213C721.468 113.213 744.776 89.9045 744.776 61.1525C744.776 32.4004 721.468 9.09216 692.716 9.09216C663.964 9.09216 640.655 32.4004 640.655 61.1525C640.655 89.9045 663.964 113.213 692.716 113.213ZM692.716 106.992C718.032 106.992 738.555 86.4688 738.555 61.1525C738.555 35.8361 718.032 15.3132 692.716 15.3132C667.399 15.3132 646.876 35.8361 646.876 61.1525C646.876 86.4688 667.399 106.992 692.716 106.992Z" fill="#DDD347"/>
<path fill-rule="evenodd" clip-rule="evenodd" d="M692.879 103.39C716.116 103.39 734.953 84.5529 734.953 61.3162C734.953 38.0794 716.116 19.2423 692.879 19.2423C669.643 19.2423 650.806 38.0794 650.806 61.3162C650.806 84.5529 669.643 103.39 692.879 103.39ZM693.043 98.1513C713.296 98.1513 729.715 81.733 729.715 61.4799C729.715 41.2268 713.296 24.8085 693.043 24.8085C672.79 24.8085 656.372 41.2268 656.372 61.4799C656.372 81.733 672.79 98.1513 693.043 98.1513Z" fill="#DDD347"/>
<path fill-rule="evenodd" clip-rule="evenodd" d="M692.716 92.5851C710.075 92.5851 724.148 78.5122 724.148 61.1525C724.148 43.7927 710.075 29.7198 692.716 29.7198C675.356 29.7198 661.283 43.7927 661.283 61.1525C661.283 78.5122 675.356 92.5851 692.716 92.5851ZM692.716 87.3463C707.182 87.3463 718.91 75.6189 718.91 61.1525C718.91 46.686 707.182 34.9586 692.716 34.9586C678.249 34.9586 666.522 46.686 666.522 61.1525C666.522 75.6189 678.249 87.3463 692.716 87.3463Z" fill="#DDD347"/>
<path fill-rule="evenodd" clip-rule="evenodd" d="M692.716 82.1075C704.289 82.1075 713.671 72.7256 713.671 61.1525C713.671 49.5793 704.289 40.1974 692.716 40.1974C681.143 40.1974 671.761 49.5793 671.761 61.1525C671.761 72.7256 681.143 82.1075 692.716 82.1075ZM692.716 78.1785C702.119 78.1785 709.742 70.4823 709.742 60.9887C709.742 51.4951 702.119 43.799 692.716 43.799C683.313 43.799 675.69 51.4951 675.69 60.9887C675.69 70.4823 683.313 78.1785 692.716 78.1785Z" fill="#DDD347"/>
<path fill-rule="evenodd" clip-rule="evenodd" d="M694.353 111.903C723.105 111.903 746.413 88.5949 746.413 59.8428C746.413 31.0907 723.105 7.78247 694.353 7.78247C665.601 7.78247 642.292 31.0907 642.292 59.8428C642.292 88.5949 665.601 111.903 694.353 111.903ZM694.353 105.682C719.669 105.682 740.192 85.1591 740.192 59.8428C740.192 34.5265 719.669 14.0035 694.353 14.0035C669.036 14.0035 648.514 34.5265 648.514 59.8428C648.514 85.1591 669.036 105.682 694.353 105.682Z" fill="#5CA7B5"/>
<path fill-rule="evenodd" clip-rule="evenodd" d="M694.516 102.08C717.753 102.08 736.59 83.2432 736.59 60.0065C736.59 36.7697 717.753 17.9326 694.516 17.9326C671.28 17.9326 652.443 36.7697 652.443 60.0065C652.443 83.2432 671.28 102.08 694.516 102.08ZM694.68 96.8416C714.933 96.8416 731.352 80.4233 731.352 60.1702C731.352 39.9171 714.933 23.4988 694.68 23.4988C674.427 23.4988 658.009 39.9171 658.009 60.1702C658.009 80.4233 674.427 96.8416 694.68 96.8416Z" fill="#5CA7B5"/>
<path fill-rule="evenodd" clip-rule="evenodd" d="M694.353 91.2754C711.713 91.2754 725.785 77.2025 725.785 59.8428C725.785 42.483 711.713 28.4101 694.353 28.4101C676.993 28.4101 662.92 42.483 662.92 59.8428C662.92 77.2025 676.993 91.2754 694.353 91.2754ZM694.353 86.0366C708.819 86.0366 720.547 74.3093 720.547 59.8428C720.547 45.3763 708.819 33.6489 694.353 33.6489C679.886 33.6489 668.159 45.3763 668.159 59.8428C668.159 74.3093 679.886 86.0366 694.353 86.0366Z" fill="#5CA7B5"/>
<path fill-rule="evenodd" clip-rule="evenodd" d="M694.353 80.7978C705.926 80.7978 715.308 71.4159 715.308 59.8428C715.308 48.2696 705.926 38.8877 694.353 38.8877C682.78 38.8877 673.398 48.2696 673.398 59.8428C673.398 71.4159 682.78 80.7978 694.353 80.7978ZM694.353 76.8688C703.756 76.8688 711.379 69.1726 711.379 59.6791C711.379 50.1855 703.756 42.4893 694.353 42.4893C684.95 42.4893 677.327 50.1855 677.327 59.6791C677.327 69.1726 684.95 76.8688 694.353 76.8688Z" fill="#5CA7B5"/>
<path d="M692.715 9.09216C721.467 9.09216 744.776 32.4006 744.776 61.1527C744.776 77.2281 737.488 91.5992 726.038 101.149C717.261 107.891 706.276 111.903 694.353 111.903C665.601 111.903 642.293 88.5951 642.292 59.8431C642.292 43.7704 649.577 29.3997 661.024 19.85C669.802 13.1046 680.789 9.09225 692.715 9.09216ZM694.353 14.0033C683.147 14.0033 672.882 18.0266 664.918 24.7045C653.953 33.0801 646.876 46.289 646.876 61.1527C646.877 86.4688 667.399 106.991 692.715 106.992C703.918 106.992 714.18 102.97 722.142 96.2963C733.112 87.921 740.192 74.7102 740.192 59.8431C740.192 34.5269 719.669 14.0034 694.353 14.0033ZM692.879 19.2426C716.116 19.2426 734.953 38.0792 734.954 61.3158C734.954 74.2447 729.119 85.8088 719.943 93.5267C712.88 98.8927 704.071 102.08 694.516 102.08C671.28 102.08 652.443 83.2428 652.443 60.0062C652.443 47.079 658.274 35.5152 667.449 27.7972C674.512 22.4297 683.323 19.2426 692.879 19.2426ZM694.68 23.4984C685.647 23.4984 677.379 26.7658 670.988 32.181C662.111 38.8738 656.372 49.5062 656.372 61.4799C656.372 81.7329 672.79 98.1517 693.043 98.1517C702.07 98.1517 710.333 94.8869 716.722 89.4779C725.606 82.7857 731.352 72.1497 731.352 60.1703C731.352 39.9172 714.933 23.4984 694.68 23.4984ZM692.715 29.7201C710.075 29.7201 724.148 43.793 724.148 61.1527C724.148 70.7211 719.871 79.289 713.126 85.0541C707.888 88.9614 701.391 91.2757 694.353 91.2758C676.993 91.2758 662.921 77.2027 662.92 59.8431C662.92 50.2739 667.197 41.704 673.943 35.9388C679.181 32.0323 685.678 29.7202 692.715 29.7201ZM694.353 33.6488C687.785 33.6488 681.781 36.0654 677.183 40.059C670.717 44.8287 666.522 52.5009 666.522 61.1527C666.522 75.6189 678.249 87.3459 692.715 87.3461C699.285 87.3461 705.29 84.9274 709.888 80.932C716.352 76.1622 720.546 68.4931 720.546 59.8431C720.546 45.3767 708.819 33.6489 694.353 33.6488ZM692.715 40.1976C704.288 40.1976 713.67 49.5795 713.67 61.1527C713.67 67.4038 710.932 73.0136 706.59 76.8529C703.147 79.3344 698.921 80.7982 694.353 80.7982C682.78 80.7982 673.398 71.4161 673.398 59.8431C673.398 53.5954 676.133 47.987 680.47 44.1478C683.915 41.6629 688.144 40.1977 692.715 40.1976ZM694.353 42.4896C689.984 42.4896 685.999 44.1509 682.985 46.8822C678.575 49.9886 675.69 55.1482 675.69 60.9886C675.69 70.4821 683.312 78.1779 692.715 78.1781C697.084 78.1781 701.067 76.5162 704.082 73.7855C708.492 70.6792 711.378 65.5201 711.378 59.6791C711.378 50.1856 703.756 42.4897 694.353 42.4896Z" fill="#7CA835"/>
</svg>
