<svg width="1448" height="235" viewBox="0 0 1448 235" fill="none" xmlns="http://www.w3.org/2000/svg">
<path fill-rule="evenodd" clip-rule="evenodd" d="M166.865 55.6082C166.865 68.3153 143.34 78.9851 111.558 81.9566C143.34 84.9281 166.865 95.5979 166.865 108.305C166.865 121.012 143.34 131.682 111.557 134.653C143.34 137.625 166.865 148.295 166.865 161.002C166.865 173.709 143.34 184.379 111.557 187.35C136.914 189.721 157.015 196.992 164.106 206.288H181.685V28.4365H93.7299C134.135 28.4659 166.865 40.6198 166.865 55.6082ZM93.4363 28.4365H3.83398V206.288H23.0604C30.1517 196.992 50.2523 189.721 75.6089 187.35C43.8267 184.379 20.3018 173.709 20.3018 161.002C20.3018 148.295 43.8267 137.625 75.6089 134.653C43.8267 131.682 20.3018 121.012 20.3018 108.305C20.3018 95.5979 43.8265 84.9281 75.6086 81.9566C43.8265 78.9851 20.3018 68.3153 20.3018 55.6082C20.3018 40.6198 53.0316 28.4659 93.4363 28.4365Z" fill="#AD6095"/>
<path fill-rule="evenodd" clip-rule="evenodd" d="M173.451 49.0214C173.451 61.7284 149.927 72.3982 118.145 75.3697C149.927 78.3413 173.451 89.011 173.451 101.718C173.451 114.425 149.928 125.094 118.147 128.066C149.928 131.038 173.451 141.708 173.451 154.414C173.451 167.122 149.926 177.791 118.144 180.763C149.238 183.67 172.428 193.945 173.418 206.288H26.9217C27.9123 193.945 51.1024 183.67 82.1958 180.763C50.4136 177.791 26.8887 167.122 26.8887 154.414C26.8887 141.708 50.4123 131.038 82.1931 128.066C50.4123 125.094 26.8887 114.425 26.8887 101.718C26.8887 89.011 50.4134 78.3413 82.1955 75.3697C50.4134 72.3982 26.8887 61.7284 26.8887 49.0214C26.8887 40.7932 36.7523 33.4193 52.3345 28.4365H148.006C163.588 33.4193 173.451 40.7932 173.451 49.0214Z" fill="#76ACB6"/>
<path fill-rule="evenodd" clip-rule="evenodd" d="M165.027 61.6827C166.23 59.7298 166.865 57.6968 166.865 55.6087C166.865 40.6172 134.121 28.4613 93.7049 28.437H148.006C163.588 33.4198 173.452 40.7937 173.452 49.0218C173.452 53.5938 170.407 57.9019 165.027 61.6827ZM135.483 77.9039C128.335 79.7542 120.256 81.1439 111.558 81.9571C143.34 84.9286 166.865 95.5984 166.865 108.305C166.865 110.394 166.23 112.427 165.027 114.379C170.407 110.599 173.452 106.291 173.452 101.719C173.452 91.4593 158.117 82.5279 135.483 77.9039ZM135.484 130.6C128.336 132.451 120.256 133.841 111.558 134.654C143.34 137.625 166.865 148.295 166.865 161.002C166.865 163.09 166.23 165.123 165.028 167.075C170.407 163.295 173.452 158.987 173.452 154.415C173.452 144.156 158.118 135.224 135.484 130.6ZM135.484 183.297C128.336 185.148 120.256 186.537 111.558 187.351C136.914 189.721 157.015 196.992 164.106 206.288H173.419C172.623 196.376 157.51 187.797 135.484 183.297ZM52.335 28.437C40.7071 32.1553 32.2637 37.2051 28.7271 42.9478C40.9873 34.3312 65.3716 28.4539 93.4625 28.437H52.335ZM28.7266 201.039C38.2987 194.311 55.2618 189.253 75.6095 187.351C69.4869 186.778 63.6708 185.92 58.2703 184.817C43.5908 188.617 32.8394 194.359 28.7266 201.039ZM28.7266 148.342C38.2987 141.614 55.2618 136.556 75.6094 134.654C69.4869 134.081 63.6708 133.223 58.2703 132.12C43.5908 135.92 32.8394 141.662 28.7266 148.342ZM28.7271 95.6446C38.2993 88.9172 55.2621 83.8595 75.6092 81.9571C69.4872 81.3847 63.6715 80.5267 58.2713 79.4235C43.592 83.2233 32.8405 88.9653 28.7271 95.6446Z" fill="#715A95"/>
<path d="M347.086 119.989C346.458 119.624 345.767 119.275 345.054 118.934C345.767 118.592 346.458 118.243 347.086 117.879C350.644 115.856 353.766 113.149 356.274 109.915C358.781 106.68 360.624 102.982 361.697 99.0325C362.769 95.0829 363.049 90.9603 362.522 86.9019C361.994 82.8435 360.669 78.9296 358.623 75.3854C356.577 71.8412 353.849 68.7368 350.599 66.2508C347.348 63.7649 343.637 61.9465 339.68 60.9005C335.724 59.8544 331.599 59.6013 327.545 60.1557C323.49 60.7101 319.585 62.0611 316.054 64.1309C315.426 64.4955 314.774 64.9067 314.13 65.3644C314.192 64.5886 314.231 63.8128 314.231 63.037C314.231 54.8068 310.962 46.9136 305.142 41.094C299.322 35.2743 291.429 32.0049 283.199 32.0049C274.969 32.0049 267.076 35.2743 261.256 41.094C255.436 46.9136 252.167 54.8068 252.167 63.037C252.167 63.7663 252.167 64.5421 252.268 65.3644C251.624 64.9222 250.972 64.4955 250.344 64.1309C246.813 62.0611 242.908 60.7101 238.853 60.1557C234.798 59.6013 230.674 59.8544 226.717 60.9005C222.761 61.9465 219.05 63.7649 215.799 66.2508C212.548 68.7368 209.821 71.8412 207.775 75.3854C205.729 78.9296 204.404 82.8435 203.876 86.9019C203.349 90.9603 203.629 95.0829 204.701 99.0325C205.774 102.982 207.616 106.68 210.124 109.915C212.631 113.149 215.754 115.856 219.312 117.879C219.94 118.243 220.63 118.592 221.344 118.934C220.63 119.275 219.94 119.624 219.312 119.989C215.754 122.011 212.631 124.718 210.124 127.952C207.616 131.187 205.774 134.885 204.701 138.835C203.629 142.784 203.349 146.907 203.876 150.965C204.404 155.024 205.729 158.938 207.775 162.482C209.821 166.026 212.548 169.131 215.799 171.616C219.05 174.102 222.761 175.921 226.717 176.967C230.674 178.013 234.798 178.266 238.853 177.712C242.908 177.157 246.813 175.806 250.344 173.736C250.972 173.372 251.624 172.961 252.268 172.503C252.206 173.279 252.167 174.054 252.167 174.791C252.167 183.022 255.436 190.915 261.256 196.734C267.076 202.554 274.969 205.824 283.199 205.824C291.429 205.824 299.322 202.554 305.142 196.734C310.962 190.915 314.231 183.022 314.231 174.791C314.231 174.062 314.192 173.286 314.13 172.503C314.774 172.945 315.426 173.372 316.054 173.736C320.755 176.459 326.091 177.894 331.524 177.895C334.253 177.891 336.971 177.531 339.608 176.824C345.536 175.235 350.86 171.924 354.907 167.309C358.953 162.694 361.54 156.983 362.341 150.897C363.141 144.812 362.119 138.626 359.404 133.121C356.689 127.617 352.402 123.041 347.086 119.973V119.989ZM264.58 118.934C264.58 115.251 265.672 111.651 267.718 108.589C269.763 105.527 272.671 103.141 276.074 101.732C279.476 100.322 283.22 99.9537 286.831 100.672C290.443 101.391 293.761 103.164 296.365 105.768C298.969 108.372 300.742 111.689 301.46 115.301C302.179 118.913 301.81 122.657 300.401 126.059C298.992 129.461 296.605 132.369 293.543 134.415C290.481 136.461 286.881 137.553 283.199 137.553C278.261 137.553 273.525 135.591 270.033 132.099C266.541 128.608 264.58 123.872 264.58 118.934Z" fill="#CE6C9E"/>
<path d="M349.239 112.52C348.579 112.215 347.859 111.931 347.117 111.657C347.796 111.252 348.452 110.84 349.043 110.419C352.399 108.075 355.257 105.092 357.455 101.639C359.652 98.1865 361.145 94.3334 361.847 90.3016C362.549 86.2697 362.447 82.1388 361.546 78.1467C360.645 74.1545 358.964 70.38 356.598 67.0404C354.233 63.7007 351.23 60.862 347.763 58.6876C344.296 56.5132 340.433 55.046 336.397 54.3706C332.36 53.6952 328.23 53.8248 324.244 54.7521C320.258 55.6794 316.495 57.3859 313.171 59.7735C312.579 60.1947 311.968 60.6645 311.369 61.1798C311.359 60.4016 311.326 59.6255 311.254 58.8531C310.492 50.6581 306.507 43.1014 300.173 37.8453C293.84 32.5892 285.678 30.0642 277.483 30.8258C269.288 31.5875 261.732 35.5733 256.476 41.9066C251.22 48.2398 248.695 56.4016 249.456 64.5966C249.524 65.3227 249.595 66.0952 249.772 66.9046C249.09 66.5239 248.402 66.1594 247.742 65.8545C244.035 64.1203 240.022 63.1365 235.933 62.9597C231.844 62.7829 227.761 63.4166 223.918 64.8243C220.076 66.232 216.549 68.3859 213.542 71.1621C210.535 73.9382 208.107 77.2817 206.398 81C204.688 84.7184 203.731 88.7382 203.581 92.8279C203.431 96.9177 204.092 100.997 205.525 104.83C206.959 108.663 209.136 112.175 211.932 115.164C214.728 118.152 218.087 120.558 221.817 122.243C222.476 122.548 223.196 122.832 223.939 123.106C223.259 123.512 222.604 123.923 222.012 124.344C218.657 126.688 215.798 129.671 213.601 133.124C211.404 136.577 209.911 140.43 209.209 144.462C208.507 148.493 208.609 152.624 209.51 156.616C210.41 160.609 212.092 164.383 214.458 167.723C216.823 171.062 219.826 173.901 223.293 176.076C226.76 178.25 230.623 179.717 234.659 180.393C238.696 181.068 242.826 180.938 246.812 180.011C250.798 179.084 254.561 177.377 257.885 174.99C258.477 174.568 259.088 174.099 259.687 173.583C259.697 174.362 259.73 175.138 259.798 175.871C260.56 184.066 264.546 191.623 270.879 196.879C277.212 202.135 285.374 204.66 293.569 203.899C301.764 203.137 309.32 199.151 314.577 192.818C319.833 186.485 322.358 178.323 321.596 170.128C321.529 169.402 321.418 168.633 321.284 167.858C321.966 168.239 322.654 168.604 323.314 168.909C328.246 171.185 333.692 172.119 339.102 171.618C341.819 171.362 344.492 170.752 347.052 169.803C352.808 167.673 357.803 163.883 361.405 158.913C365.007 153.944 367.054 148.017 367.288 141.884C367.522 135.751 365.932 129.686 362.719 124.456C359.506 119.227 354.814 115.068 349.237 112.504L349.239 112.52ZM320.345 69.8979C322.34 68.4847 324.594 67.4782 326.979 66.9361C329.363 66.394 331.831 66.3268 334.241 66.7384C336.651 67.15 338.957 68.0323 341.026 69.3349C343.095 70.6376 344.888 72.335 346.301 74.3304C347.714 76.3257 348.721 78.5799 349.263 80.9642C349.805 83.3485 349.872 85.8162 349.461 88.2265C349.049 90.6368 348.167 92.9423 346.864 95.0116C345.561 97.0809 343.864 98.8734 341.869 100.287C337.286 103.541 327.933 106.358 315.225 108.365C313.268 101.95 309.286 96.3419 303.875 92.3799C309.99 81.0438 315.762 73.1522 320.345 69.8979ZM278.636 43.224C283.553 42.7671 288.45 44.2821 292.25 47.4357C296.05 50.5894 298.441 55.1234 298.898 60.0404C299.418 65.6331 297.186 75.1513 292.568 87.1664C286.034 85.6331 279.179 86.2702 273.04 88.9814C266.287 78.0231 262.339 69.0792 261.819 63.4865C261.362 58.5695 262.877 53.6724 266.031 49.8725C269.185 46.0725 273.719 43.681 278.636 43.224ZM217.858 86.2717C218.879 84.0493 220.328 82.0497 222.122 80.3873C223.916 78.7249 226.02 77.4322 228.313 76.5831C230.607 75.7339 233.045 75.3449 235.489 75.4383C237.933 75.5318 240.335 76.1058 242.557 77.1276C247.661 79.4815 254.789 86.1742 262.888 96.1893C258.295 101.087 255.416 107.342 254.68 114.015C241.82 114.385 232.108 113.339 227.005 110.993C224.779 109.973 222.777 108.523 221.112 106.728C219.448 104.932 218.153 102.826 217.304 100.53C216.454 98.2333 216.066 95.792 216.161 93.3454C216.256 90.8989 216.833 88.4951 217.858 86.2717ZM250.711 164.865C246.681 167.719 241.683 168.856 236.815 168.025C231.947 167.193 227.609 164.463 224.755 160.433C221.9 156.403 220.764 151.404 221.595 146.537C222.426 141.669 225.157 137.331 229.187 134.476C233.77 131.222 243.123 128.405 255.831 126.398C257.788 132.813 261.77 138.421 267.181 142.383C261.066 153.719 255.294 161.611 250.711 164.865ZM292.42 191.539C287.503 191.996 282.606 190.481 278.806 187.327C275.006 184.174 272.615 179.64 272.158 174.723C271.638 169.13 273.87 159.612 278.488 147.597C285.021 149.13 291.877 148.493 298.016 145.782C304.769 156.74 308.717 165.684 309.236 171.277C309.693 176.194 308.178 181.091 305.025 184.891C301.871 188.691 297.337 191.082 292.42 191.539ZM353.197 148.491C352.177 150.714 350.728 152.713 348.934 154.376C347.14 156.038 345.036 157.331 342.743 158.18C340.449 159.029 338.011 159.418 335.567 159.325C333.123 159.231 330.721 158.657 328.499 157.636C323.395 155.282 316.267 148.589 308.168 138.574C312.76 133.676 315.64 127.421 316.375 120.748C329.236 120.378 338.948 121.424 344.051 123.77C346.277 124.791 348.279 126.24 349.944 128.036C351.608 129.831 352.902 131.937 353.752 134.234C354.601 136.53 354.99 138.971 354.895 141.418C354.8 143.864 354.223 146.268 353.197 148.491Z" fill="#DDD347"/>
<path fill-rule="evenodd" clip-rule="evenodd" d="M347.117 111.658C347.859 111.931 348.579 112.215 349.239 112.52L349.237 112.505C350.298 112.992 351.326 113.537 352.319 114.136C350.713 115.558 348.96 116.813 347.086 117.879C346.458 118.243 345.767 118.592 345.054 118.934C345.767 119.275 346.458 119.624 347.086 119.989V119.973C352.402 123.041 356.689 127.617 359.404 133.121C362.119 138.626 363.141 144.812 362.341 150.897C361.8 155.005 360.446 158.942 358.378 162.487C355.198 165.713 351.336 168.218 347.052 169.804C344.492 170.752 341.819 171.362 339.102 171.618C333.692 172.119 328.246 171.185 323.314 168.909C322.654 168.604 321.966 168.239 321.284 167.859C321.418 168.633 321.528 169.402 321.596 170.128C321.786 172.177 321.771 174.224 321.56 176.241C319.655 175.591 317.81 174.753 316.054 173.736C315.426 173.372 314.774 172.945 314.13 172.503C314.192 173.286 314.231 174.062 314.231 174.791C314.231 183.022 310.962 190.915 305.142 196.734C301.981 199.895 298.209 202.303 294.104 203.844C293.926 203.864 293.747 203.882 293.569 203.899C285.374 204.66 277.212 202.135 270.879 196.879C264.546 191.623 260.56 184.067 259.798 175.872C259.73 175.138 259.697 174.362 259.687 173.583C259.088 174.099 258.477 174.569 257.885 174.99C256.15 176.236 254.294 177.297 252.35 178.159C252.228 177.046 252.167 175.922 252.167 174.791C252.167 174.054 252.205 173.279 252.268 172.503C251.624 172.961 250.972 173.372 250.344 173.736C246.813 175.806 242.908 177.157 238.853 177.712C234.798 178.266 230.674 178.013 226.717 176.967C225.217 176.57 223.752 176.062 222.333 175.449C219.27 173.367 216.602 170.751 214.458 167.723C212.092 164.383 210.41 160.609 209.51 156.617C208.609 152.624 208.507 148.494 209.209 144.462C209.911 140.43 211.404 136.577 213.601 133.124C215.798 129.672 218.657 126.688 222.012 124.345C222.604 123.923 223.259 123.512 223.938 123.106C223.196 122.832 222.476 122.548 221.817 122.243C220.666 121.723 219.55 121.135 218.475 120.482C218.751 120.313 219.03 120.149 219.311 119.989C219.94 119.624 220.63 119.275 221.344 118.934C220.63 118.592 219.94 118.243 219.311 117.879C215.754 115.856 212.631 113.149 210.124 109.915C207.616 106.68 205.773 102.982 204.701 99.0325C204.064 96.6855 203.706 94.2774 203.632 91.858C203.887 88.1036 204.823 84.4241 206.397 81.0002C208.107 77.2818 210.535 73.9383 213.542 71.1622C216.549 68.3861 220.076 66.2322 223.918 64.8245C227.761 63.4168 231.844 62.7831 235.933 62.9599C240.022 63.1367 244.035 64.1205 247.742 65.8546C248.401 66.1595 249.09 66.5241 249.772 66.9048C249.595 66.0954 249.524 65.323 249.456 64.5969L249.456 64.5967C249.425 64.2605 249.399 63.9243 249.379 63.5883C249.703 63.7633 250.025 63.9441 250.344 64.1309C250.972 64.4955 251.624 64.9222 252.268 65.3644C252.167 64.5421 252.167 63.7663 252.167 63.037C252.167 54.8068 255.436 46.9136 261.256 41.094C267.075 35.2743 274.969 32.0049 283.199 32.0049C287.199 32.0049 291.12 32.7774 294.762 34.2397C296.673 35.2412 298.488 36.4466 300.173 37.8455C306.507 43.1016 310.492 50.6583 311.254 58.8532C311.326 59.6257 311.359 60.4018 311.369 61.18C311.968 60.6646 312.579 60.1949 313.171 59.7737C313.442 59.5788 313.716 59.3884 313.993 59.2027C314.151 60.4681 314.231 61.7484 314.231 63.037C314.231 63.8128 314.192 64.5886 314.13 65.3644C314.774 64.9067 315.426 64.4955 316.054 64.1309C319.585 62.0611 323.49 60.7101 327.545 60.1557C331.599 59.6013 335.724 59.8544 339.68 60.9005C343.637 61.9465 347.347 63.7649 350.598 66.2508C353.849 68.7368 356.577 71.8412 358.623 75.3854C360.429 78.5135 361.673 81.9298 362.303 85.4791C362.277 87.0923 362.125 88.7048 361.847 90.3017C361.145 94.3336 359.652 98.1867 357.455 101.639C355.257 105.092 352.399 108.076 349.043 110.419C348.451 110.84 347.796 111.252 347.117 111.658ZM326.979 66.9363C324.594 67.4784 322.34 68.4848 320.345 69.8981C315.762 73.1523 309.99 81.044 303.875 92.3801C309.286 96.342 313.268 101.95 315.225 108.365C327.933 106.358 337.286 103.541 341.869 100.287C343.864 98.8735 345.561 97.0811 346.864 95.0118C348.167 92.9425 349.049 90.6369 349.461 88.2267C349.872 85.8164 349.805 83.3487 349.263 80.9644C348.721 78.5801 347.714 76.3259 346.301 74.3305C344.888 72.3352 343.095 70.6377 341.026 69.3351C338.957 68.0325 336.651 67.1502 334.241 66.7386C331.831 66.327 329.363 66.3942 326.979 66.9363ZM292.25 47.4359C288.45 44.2822 283.553 42.7672 278.636 43.2242C273.719 43.6812 269.185 46.0727 266.031 49.8727C262.877 53.6726 261.362 58.5697 261.819 63.4866C262.339 69.0794 266.287 78.0232 273.04 88.9815C279.179 86.2704 286.034 85.6333 292.568 87.1666C297.186 75.1515 299.418 65.6333 298.898 60.0405C298.441 55.1236 296.05 50.5896 292.25 47.4359ZM222.122 80.3875C220.328 82.0499 218.879 84.0495 217.858 86.2719C216.833 88.4953 216.256 90.8991 216.161 93.3456C216.066 95.7922 216.454 98.2335 217.304 100.53C218.153 102.826 219.447 104.932 221.112 106.728C222.777 108.523 224.779 109.973 227.005 110.993C232.108 113.34 241.82 114.385 254.68 114.016C255.416 107.342 258.295 101.087 262.887 96.1894C254.789 86.1744 247.661 79.4817 242.557 77.1277C240.335 76.106 237.933 75.5319 235.489 75.4385C233.045 75.3451 230.607 75.7341 228.313 76.5832C226.02 77.4324 223.916 78.7251 222.122 80.3875ZM236.815 168.025C241.683 168.856 246.681 167.72 250.711 164.865C255.294 161.611 261.066 153.719 267.181 142.383C261.77 138.421 257.788 132.813 255.831 126.398C243.123 128.405 233.77 131.222 229.187 134.477C225.157 137.331 222.426 141.669 221.595 146.537C220.764 151.405 221.9 156.403 224.755 160.433C227.609 164.463 231.947 167.194 236.815 168.025ZM278.806 187.328C282.606 190.481 287.503 191.996 292.42 191.539C297.337 191.082 301.871 188.691 305.025 184.891C308.178 181.091 309.693 176.194 309.236 171.277C308.717 165.684 304.769 156.74 298.016 145.782C291.877 148.493 285.021 149.13 278.488 147.597C273.87 159.612 271.638 169.13 272.158 174.723C272.615 179.64 275.006 184.174 278.806 187.328ZM348.934 154.376C350.728 152.714 352.177 150.714 353.197 148.492C354.223 146.268 354.799 143.864 354.895 141.418C354.99 138.971 354.601 136.53 353.752 134.234C352.902 131.937 351.608 129.831 349.944 128.036C348.279 126.24 346.277 124.791 344.051 123.77C338.948 121.424 329.236 120.379 316.375 120.748C315.64 127.421 312.76 133.676 308.168 138.574C316.267 148.589 323.395 155.282 328.499 157.636C330.721 158.658 333.123 159.232 335.567 159.325C338.011 159.418 340.449 159.029 342.743 158.18C345.036 157.331 347.14 156.038 348.934 154.376ZM267.717 108.589C265.672 111.651 264.58 115.251 264.58 118.934C264.58 123.872 266.541 128.608 270.033 132.099C273.525 135.591 278.261 137.553 283.199 137.553C286.881 137.553 290.481 136.461 293.543 134.415C296.605 132.369 298.992 129.461 300.401 126.059C301.81 122.657 302.179 118.913 301.46 115.301C300.742 111.689 298.969 108.372 296.365 105.768C293.761 103.164 290.443 101.391 286.831 100.672C283.219 99.9537 279.476 100.322 276.074 101.732C272.671 103.141 269.763 105.527 267.717 108.589Z" fill="#D3592C"/>
<circle cx="478.292" cy="117.362" r="88.9257" fill="#76ACB6"/>
<path d="M567.218 28.4365L389.366 206.288H567.218V28.4365Z" fill="#DDD347"/>
<path fill-rule="evenodd" clip-rule="evenodd" d="M415.412 180.243C431.504 196.335 453.736 206.289 478.292 206.289C527.404 206.289 567.218 166.475 567.218 117.363C567.218 92.8067 557.264 70.5753 541.172 54.4829L415.412 180.243Z" fill="#7CA835"/>
<path d="M663.556 80.8971C668.183 76.0336 673.249 71.951 678.753 68.6492C684.258 65.3475 689.992 62.855 695.957 61.1717C701.921 59.4884 708.044 58.5463 714.326 58.3454C720.607 58.1445 726.77 58.7847 732.815 60.266C738.86 61.7472 744.737 63.9777 750.447 66.9573C756.157 69.9369 761.445 73.7418 766.312 78.372C771.656 83.4561 776.084 89.1215 779.594 95.3682C783.105 101.615 785.623 108.189 787.148 115.09C788.673 121.991 789.2 129.032 788.73 136.215C788.259 143.398 786.668 150.422 783.954 157.287L771.513 151.446C770.401 155.385 768.866 159.102 766.905 162.596C764.944 166.09 762.559 169.361 759.749 172.411C756.936 175.367 753.834 177.911 750.442 180.044C747.05 182.176 743.368 183.896 739.397 185.204L745.85 197.339C739.129 200.392 732.193 202.332 725.042 203.159C717.892 203.987 710.855 203.787 703.932 202.56C697.009 201.333 690.318 199.146 683.859 195.999C677.4 192.851 671.498 188.736 666.154 183.652C661.287 179.021 657.201 173.953 653.895 168.446C650.589 162.939 648.092 157.203 646.405 151.238C644.717 145.272 643.771 139.149 643.565 132.867C643.36 126.586 643.996 120.424 645.473 114.38C646.95 108.337 649.176 102.461 652.152 96.7537C655.128 91.0461 658.929 85.7605 663.556 80.8971ZM706.137 173.728C707.362 172.441 708.257 171.022 708.823 169.471C709.39 167.921 709.653 166.354 709.613 164.772C709.573 163.19 709.229 161.592 708.583 159.978C707.937 158.364 706.971 156.99 705.685 155.858C704.397 154.632 702.977 153.736 701.426 153.169C699.875 152.601 698.308 152.337 696.726 152.376C695.144 152.415 693.546 152.757 691.932 153.402C690.319 154.047 688.946 155.012 687.814 156.297C686.59 157.584 685.694 159.003 685.128 160.554C684.562 162.105 684.299 163.671 684.339 165.253C684.379 166.836 684.722 168.434 685.368 170.048C686.014 171.662 686.98 173.035 688.266 174.167C689.555 175.393 690.974 176.289 692.525 176.857C694.076 177.424 695.643 177.688 697.225 177.649C698.808 177.61 700.406 177.268 702.019 176.623C703.633 175.978 705.005 175.013 706.137 173.728ZM687.363 138.427C688.587 137.139 689.483 135.72 690.049 134.17C690.615 132.619 690.878 131.053 690.838 129.47C690.798 127.888 690.455 126.29 689.809 124.676C689.163 123.062 688.197 121.689 686.911 120.556C685.623 119.331 684.203 118.434 682.652 117.867C681.101 117.3 679.534 117.036 677.952 117.075C676.37 117.113 674.772 117.455 673.158 118.1C671.545 118.745 670.172 119.71 669.04 120.996C667.815 122.283 666.92 123.702 666.354 125.253C665.788 126.803 665.525 128.37 665.565 129.952C665.605 131.534 665.948 133.132 666.594 134.746C667.24 136.36 668.206 137.733 669.492 138.866C670.78 140.092 672.2 140.988 673.751 141.555C675.302 142.122 676.869 142.387 678.451 142.348C680.033 142.309 681.631 141.967 683.245 141.322C684.858 140.677 686.231 139.712 687.363 138.427ZM750.588 163.695C752.946 161.216 754.903 158.49 756.458 155.518C758.013 152.546 759.166 149.375 759.919 146.004L704.782 120.117L733.383 173.897C736.665 172.931 739.751 171.598 742.642 169.897C745.533 168.197 748.181 166.129 750.588 163.695ZM704.33 102.247C705.618 103.473 707.038 104.369 708.589 104.936C710.14 105.503 711.706 105.768 713.289 105.729C714.871 105.69 716.469 105.348 718.083 104.703C719.696 104.058 721.069 103.093 722.2 101.808C723.425 100.52 724.321 99.1014 724.887 97.5508C725.453 96.0002 725.716 94.4338 725.676 92.8515C725.636 91.2692 725.293 89.6711 724.647 88.0572C724.001 86.4432 723.034 85.07 721.749 83.9374C720.46 82.7118 719.041 81.8154 717.49 81.2481C715.938 80.6809 714.372 80.4167 712.789 80.4556C711.207 80.4945 709.609 80.8364 707.996 81.4814C706.382 82.1264 705.01 83.0915 703.878 84.3766C702.653 85.664 701.758 87.083 701.191 88.6336C700.625 90.1842 700.362 91.7506 700.402 93.3329C700.442 94.9151 700.785 96.5132 701.432 98.1272C702.078 99.7411 703.044 101.114 704.33 102.247ZM758.393 118.8C759.618 117.512 760.514 116.093 761.08 114.543C761.646 112.992 761.909 111.426 761.869 109.844C761.829 108.261 761.486 106.663 760.84 105.049C760.194 103.435 759.228 102.062 757.942 100.929C756.653 99.7038 755.234 98.8074 753.683 98.2402C752.132 97.6729 750.565 97.4087 748.983 97.4476C747.4 97.4865 745.802 97.8284 744.189 98.4735C742.575 99.1185 741.203 100.084 740.071 101.369C738.846 102.656 737.951 104.075 737.385 105.626C736.818 107.176 736.555 108.743 736.595 110.325C736.635 111.907 736.978 113.505 737.625 115.119C738.271 116.733 739.237 118.106 740.523 119.239C741.811 120.465 743.231 121.361 744.782 121.928C746.333 122.496 747.9 122.76 749.482 122.721C751.064 122.682 752.662 122.34 754.276 121.695C755.889 121.05 757.262 120.085 758.393 118.8ZM637.864 100.737C634.428 97.4687 631.888 93.6894 630.243 89.3992L610.765 89.808L610.447 77.2429L628.038 76.8106C628.219 72.8946 629.033 69.1726 630.48 65.6446C631.928 62.1165 634.012 58.9221 636.734 56.0612C639.456 53.2004 642.542 50.9592 645.994 49.3377C649.445 47.7162 653.122 46.7178 657.024 46.3425L656.58 28.7514L669.145 28.4426L669.707 47.9168C674.074 49.3461 677.975 51.695 681.411 54.9633C682.031 55.5535 682.605 56.1447 683.132 56.7371C683.659 57.3295 684.165 57.9923 684.649 58.7255C679.72 60.8489 675.058 63.4082 670.664 66.4033C666.269 69.3984 662.212 72.8509 658.492 76.7608C654.818 80.6229 651.594 84.8232 648.822 89.3617C646.05 93.9002 643.703 98.7076 641.782 103.784C641.119 103.335 640.479 102.861 639.861 102.364C639.243 101.867 638.577 101.325 637.864 100.737Z" fill="#DDD347"/>
<path fill-rule="evenodd" clip-rule="evenodd" d="M663.359 82.7305C668.284 78.1687 673.597 74.4138 679.299 71.4659C685.001 68.5181 690.881 66.3924 696.94 65.0888C702.999 63.7853 709.17 63.2314 715.451 63.4272C721.733 63.623 727.843 64.6508 733.782 66.5105C739.721 68.3703 745.446 70.9671 750.957 74.3011C756.467 77.6351 761.505 81.766 766.07 86.6941C771.083 92.1052 775.144 98.0387 778.254 104.495C781.363 110.95 783.461 117.67 784.548 124.653C785.634 131.637 785.716 138.698 784.793 145.836C783.871 152.975 781.839 159.885 778.697 166.565L702.028 124.474L738.142 204.133C731.242 206.755 724.197 208.254 717.009 208.629C709.82 209.003 702.81 208.36 695.978 206.699C689.147 205.038 682.607 202.433 676.359 198.884C670.111 195.335 664.481 190.855 659.469 185.444C654.904 180.516 651.145 175.2 648.193 169.496C645.242 163.791 643.112 157.909 641.804 151.849C640.496 145.789 639.938 139.618 640.13 133.336C640.321 127.054 641.344 120.944 643.2 115.006C645.055 109.068 647.648 103.344 650.978 97.836C654.308 92.3275 658.435 87.2923 663.359 82.7305ZM702.948 173.984C702.285 175.496 701.302 176.856 699.998 178.063C698.788 179.275 697.357 180.151 695.706 180.693C694.055 181.235 692.438 181.475 690.857 181.414C689.275 181.353 687.728 180.991 686.216 180.327C684.704 179.663 683.344 178.679 682.135 177.374C680.923 176.163 680.046 174.731 679.503 173.08C678.96 171.428 678.718 169.812 678.778 168.23C678.838 166.648 679.199 165.102 679.862 163.59C680.525 162.078 681.508 160.718 682.812 159.511C684.023 158.3 685.453 157.423 687.104 156.881C688.755 156.339 690.372 156.099 691.953 156.16C693.535 156.221 695.082 156.584 696.594 157.247C698.106 157.911 699.466 158.896 700.675 160.2C701.887 161.412 702.764 162.843 703.307 164.495C703.85 166.146 704.092 167.763 704.032 169.344C703.972 170.926 703.611 172.473 702.948 173.984ZM686.438 137.569C685.775 139.08 684.792 140.44 683.489 141.648C682.278 142.859 680.847 143.735 679.196 144.277C677.545 144.819 675.929 145.06 674.347 144.999C672.766 144.937 671.219 144.575 669.707 143.911C668.195 143.247 666.834 142.263 665.626 140.958C664.414 139.747 663.537 138.315 662.993 136.664C662.45 135.012 662.209 133.396 662.269 131.814C662.329 130.233 662.69 128.686 663.353 127.174C664.016 125.662 664.999 124.303 666.303 123.095C667.513 121.884 668.944 121.007 670.595 120.466C672.246 119.924 673.862 119.683 675.444 119.744C677.025 119.805 678.572 120.168 680.084 120.832C681.597 121.496 682.957 122.48 684.165 123.784C685.377 124.996 686.255 126.427 686.798 128.079C687.341 129.73 687.582 131.347 687.523 132.929C687.463 134.51 687.101 136.057 686.438 137.569ZM706.786 109.563C705.273 108.899 703.913 107.915 702.705 106.61C701.493 105.399 700.615 103.968 700.072 102.316C699.529 100.665 699.288 99.048 699.348 97.4664C699.407 95.8847 699.769 94.338 700.432 92.8262C701.095 91.3145 702.078 89.9548 703.381 88.7473C704.592 87.5361 706.023 86.6596 707.674 86.1177C709.325 85.5758 710.941 85.3353 712.523 85.3964C714.104 85.4574 715.651 85.8199 717.163 86.4839C718.675 87.1479 720.036 88.1321 721.244 89.4366C722.456 90.648 723.334 92.0795 723.877 93.731C724.42 95.3825 724.661 96.999 724.601 98.5807C724.541 100.162 724.18 101.709 723.517 103.221C722.854 104.733 721.871 106.092 720.567 107.3C719.357 108.511 717.926 109.387 716.275 109.929C714.624 110.471 713.008 110.712 711.426 110.651C709.845 110.59 708.298 110.227 706.786 109.563ZM758.566 122.463C757.903 123.974 756.92 125.334 755.616 126.542C754.406 127.753 752.975 128.629 751.324 129.171C749.673 129.713 748.057 129.954 746.475 129.893C744.893 129.832 743.347 129.469 741.834 128.805C740.322 128.141 738.962 127.157 737.754 125.852C736.542 124.641 735.664 123.209 735.121 121.558C734.578 119.906 734.336 118.29 734.396 116.708C734.456 115.127 734.818 113.58 735.481 112.068C736.143 110.556 737.127 109.197 738.43 107.989C739.641 106.778 741.072 105.901 742.723 105.36C744.374 104.818 745.99 104.577 747.571 104.638C749.153 104.699 750.7 105.062 752.212 105.726C753.724 106.39 755.085 107.374 756.293 108.678C757.505 109.89 758.382 111.321 758.925 112.973C759.469 114.624 759.71 116.241 759.65 117.823C759.59 119.404 759.229 120.951 758.566 122.463Z" fill="#CE6C9E"/>
<path fill-rule="evenodd" clip-rule="evenodd" d="M736.627 200.79C732.831 201.915 728.969 202.705 725.043 203.159C717.892 203.987 710.856 203.787 703.933 202.56C697.01 201.334 690.319 199.146 683.859 195.999C677.4 192.852 671.498 188.736 666.154 183.652C661.288 179.021 657.201 173.953 653.895 168.446C650.59 162.94 648.093 157.203 646.405 151.238C644.718 145.272 643.771 139.149 643.566 132.867C643.361 126.586 643.996 120.424 645.474 114.38C646.951 108.337 649.177 102.462 652.153 96.7539C652.919 95.2848 653.739 93.8437 654.614 92.4306C657.179 88.9889 660.094 85.7554 663.36 82.7301C668.285 78.1683 673.598 74.4134 679.3 71.4655C685.002 68.5177 690.882 66.392 696.941 65.0884C703 63.7849 709.17 63.231 715.452 63.4268C721.733 63.6226 727.844 64.6504 733.783 66.5101C739.722 68.3699 745.447 70.9667 750.957 74.3007C756.468 77.6346 761.506 81.7656 766.071 86.6937C771.083 92.1048 775.145 98.0383 778.254 104.494C781.364 110.95 783.462 117.67 784.548 124.653C785.635 131.636 785.717 138.697 784.794 145.836C784.322 149.487 783.56 153.078 782.508 156.608L771.513 151.446C770.605 154.665 769.413 157.736 767.938 160.658L756.919 154.608C758.243 151.901 759.243 149.033 759.92 146.004L704.782 120.117L709.189 128.405L702.029 124.473L736.627 200.79ZM708.824 169.471C708.258 171.022 707.362 172.441 706.137 173.728C705.006 175.013 703.633 175.979 702.02 176.624C701.696 176.753 701.373 176.87 701.051 176.975C700.727 177.35 700.376 177.713 699.999 178.063C698.788 179.274 697.357 180.151 695.706 180.693C694.055 181.234 692.439 181.475 690.857 181.414C689.276 181.353 687.729 180.99 686.217 180.326C684.705 179.662 683.344 178.678 682.136 177.374C680.924 176.162 680.047 174.731 679.503 173.079C678.96 171.428 678.719 169.811 678.779 168.23C678.839 166.648 679.2 165.101 679.863 163.589C680.526 162.078 681.509 160.718 682.813 159.51C684.023 158.299 685.454 157.423 687.105 156.881C687.19 156.853 687.275 156.826 687.359 156.8C687.506 156.63 687.658 156.463 687.815 156.297C688.947 155.012 690.319 154.047 691.933 153.402C693.546 152.757 695.144 152.415 696.727 152.376C698.309 152.337 699.876 152.601 701.427 153.169C702.978 153.736 704.397 154.632 705.686 155.858C706.972 156.991 707.938 158.364 708.584 159.978C709.23 161.592 709.573 163.19 709.613 164.772C709.653 166.354 709.39 167.921 708.824 169.471ZM690.05 134.17C689.483 135.72 688.588 137.139 687.363 138.427C686.484 139.425 685.46 140.23 684.291 140.842C684.038 141.117 683.771 141.386 683.489 141.647C682.279 142.858 680.848 143.735 679.197 144.277C677.546 144.819 675.93 145.059 674.348 144.998C672.766 144.937 671.22 144.575 669.707 143.911C668.195 143.247 666.835 142.262 665.627 140.958C664.415 139.746 663.537 138.315 662.994 136.664C662.451 135.012 662.209 133.395 662.269 131.814C662.329 130.232 662.691 128.685 663.354 127.174C664.016 125.662 665 124.302 666.303 123.095C667.062 122.335 667.908 121.707 668.84 121.211C668.906 121.139 668.973 121.067 669.041 120.996C670.172 119.711 671.545 118.746 673.159 118.101C674.772 117.456 676.37 117.114 677.952 117.075C679.535 117.036 681.101 117.3 682.652 117.867C684.203 118.434 685.623 119.331 686.911 120.557C688.197 121.689 689.163 123.062 689.81 124.676C690.456 126.29 690.799 127.888 690.839 129.471C690.879 131.053 690.616 132.619 690.05 134.17ZM700.399 92.9017C699.757 94.3894 699.407 95.9108 699.348 97.466C699.288 99.0476 699.53 100.664 700.073 102.316C700.616 103.967 701.493 105.399 702.705 106.61C703.914 107.915 705.274 108.899 706.786 109.563C708.298 110.227 709.845 110.589 711.427 110.65C713.008 110.711 714.625 110.471 716.276 109.929C717.927 109.387 719.358 108.511 720.568 107.299C721.872 106.092 722.855 104.732 723.518 103.22C724.181 101.709 724.542 100.162 724.602 98.5803C724.606 98.467 724.609 98.3536 724.61 98.24C724.71 98.0133 724.802 97.7836 724.887 97.5509C725.453 96.0003 725.717 94.4339 725.676 92.8516C725.636 91.2694 725.293 89.6713 724.647 88.0573C724.001 86.4434 723.035 85.0701 721.749 83.9376C720.461 82.7119 719.041 81.8155 717.49 81.2483C715.939 80.681 714.372 80.4168 712.79 80.4557C711.208 80.4946 709.61 80.8365 707.996 81.4816C706.383 82.1266 705.01 83.0916 703.878 84.3767C702.654 85.6641 701.758 87.0831 701.192 88.6337C700.677 90.0433 700.413 91.466 700.399 92.9017ZM759.659 117.258C760.258 116.403 760.732 115.498 761.08 114.543C761.647 112.992 761.91 111.426 761.87 109.844C761.83 108.261 761.487 106.663 760.84 105.049C760.194 103.435 759.228 102.062 757.942 100.93C756.654 99.704 755.234 98.8075 753.683 98.2403C752.132 97.673 750.565 97.4089 748.983 97.4477C747.401 97.4866 745.803 97.8286 744.189 98.4736C742.576 99.1186 741.203 100.084 740.072 101.369C738.847 102.656 737.951 104.075 737.385 105.626C736.847 107.099 736.583 108.587 736.592 110.088C736.155 110.716 735.784 111.376 735.481 112.068C734.818 113.58 734.457 115.126 734.397 116.708C734.337 118.289 734.579 119.906 735.122 121.558C735.665 123.209 736.542 124.641 737.754 125.852C738.963 127.156 740.323 128.141 741.835 128.805C743.347 129.469 744.894 129.831 746.476 129.892C748.057 129.953 749.674 129.713 751.325 129.171C752.976 128.629 754.406 127.752 755.617 126.541C756.92 125.334 757.904 123.974 758.567 122.462C759.229 120.951 759.591 119.404 759.651 117.822C759.658 117.635 759.661 117.447 759.659 117.258Z" fill="#D3592C"/>
<path d="M937.783 15.0195L950.011 80.9837L998.677 34.8051L969.797 95.3588L1036.31 86.6044L977.354 118.618L1036.31 150.632L969.797 141.877L998.677 202.431L950.011 156.252L937.783 222.217L925.555 156.252L876.889 202.431L905.769 141.877L839.255 150.632L898.212 118.618L839.255 86.6044L905.769 95.3588L876.889 34.8051L925.555 80.9837L937.783 15.0195Z" fill="#AD6095"/>
<path d="M935.061 13.84L949.813 79.2861L996.67 31.2729L970.136 92.8908L1036.27 81.589L978.581 115.843L1038.72 145.569L971.922 139.375L1003.11 198.775L952.703 154.499L943.017 220.884L928.265 155.438L881.408 203.452L907.942 141.834L841.813 153.135L899.497 118.882L839.354 89.1552L906.156 95.3492L874.972 35.9491L925.375 80.2251L935.061 13.84Z" fill="#76ACB6"/>
<path fill-rule="evenodd" clip-rule="evenodd" d="M879.21 39.6729L917.027 72.8932L925.555 80.9845L936.675 20.998L949.154 76.3618L950.011 80.9845L992.712 40.4659L970.136 92.8918L971.048 92.736L969.796 95.3596L1025.4 88.041L978.581 115.844L980.614 116.849L977.354 118.619L1024.57 144.258L971.922 139.376L973.491 142.365L969.796 141.878L992.482 189.443L952.703 154.5L952.151 158.284L950.011 156.253L940.28 208.744L928.265 155.439L925.86 157.903L925.555 156.253L885.274 194.475L907.942 141.835L905.599 142.235L905.769 141.878L847.959 149.487L899.497 118.883L890.583 114.476L844.899 89.6703L904.605 95.2063L905.769 95.3596L905.746 95.3122L906.156 95.3502L901.878 87.2021L879.21 39.6729Z" fill="#715A95"/>
<path d="M1063.1 38.4985H1095.38V70.786H1063.1V38.4985Z" fill="#AD6095"/>
<path d="M1095.38 70.786H1127.67V103.074H1095.38V70.786Z" fill="#AD6095"/>
<path d="M1159.96 70.786H1192.25V103.074H1159.96V70.786Z" fill="#AD6095"/>
<path d="M1192.25 38.4985H1224.53V70.786H1192.25V38.4985Z" fill="#AD6095"/>
<path d="M1127.67 38.4985H1159.96V70.786H1127.67V38.4985Z" fill="#AD6095"/>
<path d="M1063.1 103.074H1095.38V135.361H1063.1V103.074Z" fill="#AD6095"/>
<path d="M1095.38 135.361H1127.67V167.649H1095.38V135.361Z" fill="#AD6095"/>
<path d="M1159.96 135.361H1192.25V167.649H1159.96V135.361Z" fill="#AD6095"/>
<path d="M1192.25 103.074H1224.53V135.361H1192.25V103.074Z" fill="#AD6095"/>
<path d="M1127.67 103.074H1159.96V135.361H1127.67V103.074Z" fill="#AD6095"/>
<path d="M1063.1 167.649H1095.38V199.936H1063.1V167.649Z" fill="#AD6095"/>
<path d="M1192.25 167.649H1224.53V199.936H1192.25V167.649Z" fill="#AD6095"/>
<path d="M1127.67 167.649H1159.96V199.936H1127.67V167.649Z" fill="#AD6095"/>
<path d="M1098.46 34.7886H1130.75V67.0761H1098.46V34.7886Z" fill="#76ACB6"/>
<path d="M1163.03 34.7886H1195.32V67.0761H1163.03V34.7886Z" fill="#76ACB6"/>
<path d="M1130.75 67.0761H1163.03V99.3636H1130.75V67.0761Z" fill="#76ACB6"/>
<path d="M1098.46 99.3636H1130.75V131.651H1098.46V99.3636Z" fill="#76ACB6"/>
<path d="M1066.17 67.0761H1098.46V99.3636H1066.17V67.0761Z" fill="#76ACB6"/>
<path d="M1130.75 131.651H1163.03V163.939H1130.75V131.651Z" fill="#76ACB6"/>
<path d="M1163.03 99.3636H1195.32V131.651H1163.03V99.3636Z" fill="#76ACB6"/>
<path d="M1195.32 67.0761H1227.61V99.3636H1195.32V67.0761Z" fill="#76ACB6"/>
<path d="M1195.32 131.651H1227.61V163.939H1195.32V131.651Z" fill="#76ACB6"/>
<path d="M1163.03 163.939H1195.32V196.226H1163.03V163.939Z" fill="#76ACB6"/>
<path d="M1098.46 163.939H1130.75V196.226H1098.46V163.939Z" fill="#76ACB6"/>
<path d="M1066.17 131.651H1098.46V163.939H1066.17V131.651Z" fill="#76ACB6"/>
<path fill-rule="evenodd" clip-rule="evenodd" d="M1066.17 70.786V67.0757H1095.38V70.786H1066.17ZM1095.38 99.3632V70.786H1098.46V99.3632H1095.38ZM1195.32 167.649V196.226H1192.25V167.649H1195.32ZM1130.75 38.4985H1127.67V67.0757H1130.75V70.786H1159.96V99.3632H1163.03V103.074H1192.25V131.651H1195.32V135.361H1224.53V131.651H1195.32V103.074H1192.25V99.3632H1163.03V70.786H1159.96V67.0757H1130.75V38.4985ZM1195.32 70.786H1224.53V67.0757H1195.32V38.4985H1192.25V67.0757H1195.32V70.786ZM1163.03 135.361V163.938H1159.96V135.361H1163.03ZM1130.75 135.361H1159.96V131.651H1130.75V103.074H1127.67V99.3632H1098.46V103.074H1127.67V131.651H1130.75V135.361ZM1127.67 163.938V167.649H1098.46V163.938H1127.67ZM1098.46 135.361V163.938H1095.38V135.361H1098.46ZM1095.38 131.651H1066.17V135.361H1095.38V131.651ZM1130.75 167.649V196.226H1127.67V167.649H1130.75ZM1192.25 163.938V167.649H1163.03V163.938H1192.25Z" fill="#715A95"/>
<path fill-rule="evenodd" clip-rule="evenodd" d="M1342.62 217.052C1396.99 217.052 1441.07 172.974 1441.07 118.6C1441.07 64.2269 1396.99 20.1484 1342.62 20.1484C1288.24 20.1484 1244.17 64.2269 1244.17 118.6C1244.17 172.974 1288.24 217.052 1342.62 217.052ZM1342.62 205.288C1390.49 205.288 1429.31 166.477 1429.31 118.6C1429.31 70.7244 1390.49 31.9131 1342.62 31.9131C1294.74 31.9131 1255.93 70.7244 1255.93 118.6C1255.93 166.477 1294.74 205.288 1342.62 205.288Z" fill="#DDD347"/>
<path fill-rule="evenodd" clip-rule="evenodd" d="M1342.93 198.477C1386.87 198.477 1422.49 162.853 1422.49 118.91C1422.49 74.9667 1386.87 39.3435 1342.93 39.3435C1298.98 39.3435 1263.36 74.9667 1263.36 118.91C1263.36 162.853 1298.98 198.477 1342.93 198.477ZM1343.24 188.57C1381.54 188.57 1412.59 157.521 1412.59 119.22C1412.59 80.9187 1381.54 49.8698 1343.24 49.8698C1304.94 49.8698 1273.89 80.9187 1273.89 119.22C1273.89 157.521 1304.94 188.57 1343.24 188.57Z" fill="#DDD347"/>
<path fill-rule="evenodd" clip-rule="evenodd" d="M1342.62 178.043C1375.45 178.043 1402.06 151.43 1402.06 118.6C1402.06 85.7712 1375.45 59.1577 1342.62 59.1577C1309.79 59.1577 1283.18 85.7712 1283.18 118.6C1283.18 151.43 1309.79 178.043 1342.62 178.043ZM1342.62 168.136C1369.98 168.136 1392.15 145.958 1392.15 118.6C1392.15 91.2426 1369.98 69.0649 1342.62 69.0649C1315.26 69.0649 1293.08 91.2426 1293.08 118.6C1293.08 145.958 1315.26 168.136 1342.62 168.136Z" fill="#DDD347"/>
<path fill-rule="evenodd" clip-rule="evenodd" d="M1342.62 158.229C1364.5 158.229 1382.25 140.487 1382.25 118.6C1382.25 96.7143 1364.5 78.972 1342.62 78.972C1320.73 78.972 1302.99 96.7143 1302.99 118.6C1302.99 140.487 1320.73 158.229 1342.62 158.229ZM1342.62 150.799C1360.4 150.799 1374.82 136.244 1374.82 118.291C1374.82 100.337 1360.4 85.7831 1342.62 85.7831C1324.84 85.7831 1310.42 100.337 1310.42 118.291C1310.42 136.244 1324.84 150.799 1342.62 150.799Z" fill="#DDD347"/>
<path fill-rule="evenodd" clip-rule="evenodd" d="M1345.71 214.576C1400.09 214.576 1444.17 170.497 1444.17 116.124C1444.17 61.7504 1400.09 17.6719 1345.71 17.6719C1291.34 17.6719 1247.26 61.7504 1247.26 116.124C1247.26 170.497 1291.34 214.576 1345.71 214.576ZM1345.71 202.811C1393.59 202.811 1432.4 164 1432.4 116.124C1432.4 68.2478 1393.59 29.4366 1345.71 29.4366C1297.84 29.4366 1259.03 68.2478 1259.03 116.124C1259.03 164 1297.84 202.811 1345.71 202.811Z" fill="#76ACB6"/>
<path fill-rule="evenodd" clip-rule="evenodd" d="M1346.02 196C1389.97 196 1425.59 160.377 1425.59 116.433C1425.59 72.4901 1389.97 36.8669 1346.02 36.8669C1302.08 36.8669 1266.46 72.4901 1266.46 116.433C1266.46 160.377 1302.08 196 1346.02 196ZM1346.33 186.093C1384.63 186.093 1415.68 155.044 1415.68 116.743C1415.68 78.4422 1384.63 47.3932 1346.33 47.3932C1308.03 47.3932 1276.98 78.4422 1276.98 116.743C1276.98 155.044 1308.03 186.093 1346.33 186.093Z" fill="#76ACB6"/>
<path fill-rule="evenodd" clip-rule="evenodd" d="M1345.71 175.567C1378.54 175.567 1405.16 148.953 1405.16 116.124C1405.16 83.2946 1378.54 56.6812 1345.71 56.6812C1312.88 56.6812 1286.27 83.2946 1286.27 116.124C1286.27 148.953 1312.88 175.567 1345.71 175.567ZM1345.71 165.66C1373.07 165.66 1395.25 143.482 1395.25 116.124C1395.25 88.7661 1373.07 66.5883 1345.71 66.5883C1318.36 66.5883 1296.18 88.7661 1296.18 116.124C1296.18 143.482 1318.36 165.66 1345.71 165.66Z" fill="#76ACB6"/>
<path fill-rule="evenodd" clip-rule="evenodd" d="M1345.71 155.752C1367.6 155.752 1385.34 138.01 1385.34 116.124C1385.34 94.2377 1367.6 76.4954 1345.71 76.4954C1323.83 76.4954 1306.09 94.2377 1306.09 116.124C1306.09 138.01 1323.83 155.752 1345.71 155.752ZM1345.71 148.322C1363.5 148.322 1377.91 133.768 1377.91 115.814C1377.91 97.8608 1363.5 83.3066 1345.71 83.3066C1327.93 83.3066 1313.52 97.8608 1313.52 115.814C1313.52 133.768 1327.93 148.322 1345.71 148.322Z" fill="#76ACB6"/>
<path fill-rule="evenodd" clip-rule="evenodd" d="M1405.61 194.268C1389.01 207.005 1368.25 214.576 1345.71 214.576C1291.34 214.576 1247.26 170.497 1247.26 116.124C1247.26 85.7094 1261.05 58.516 1282.72 40.4565C1299.32 27.7194 1320.08 20.1484 1342.62 20.1484C1396.99 20.1484 1441.07 64.2269 1441.07 118.6C1441.07 149.015 1427.28 176.208 1405.61 194.268ZM1290.07 49.6505C1269.32 65.4889 1255.93 90.4812 1255.93 118.6C1255.93 166.477 1294.74 205.288 1342.62 205.288C1363.8 205.288 1383.21 197.691 1398.26 185.074C1419.01 169.235 1432.4 144.243 1432.4 116.124C1432.4 68.2478 1393.59 29.4366 1345.71 29.4366C1324.53 29.4366 1305.13 37.0332 1290.07 49.6505ZM1394.13 179.818C1380.77 189.973 1364.1 196 1346.02 196C1302.08 196 1266.46 160.377 1266.46 116.433C1266.46 91.9899 1277.48 70.1208 1294.82 55.5252C1308.18 45.3708 1324.85 39.3435 1342.93 39.3435C1386.87 39.3435 1422.49 74.9667 1422.49 118.91C1422.49 143.354 1411.47 165.223 1394.13 179.818ZM1301.51 63.82C1284.73 76.4774 1273.89 96.5818 1273.89 119.22C1273.89 157.521 1304.94 188.57 1343.24 188.57C1360.32 188.57 1375.97 182.39 1388.06 172.143C1404.84 159.485 1415.68 139.381 1415.68 116.743C1415.68 78.4422 1384.63 47.3932 1346.33 47.3932C1329.25 47.3932 1313.6 53.5732 1301.51 63.82ZM1307.08 70.945C1316.99 63.5414 1329.29 59.1577 1342.62 59.1577C1375.45 59.1577 1402.06 85.7712 1402.06 118.6C1402.06 136.681 1393.99 152.877 1381.25 163.779C1371.34 171.183 1359.04 175.567 1345.71 175.567C1312.88 175.567 1286.27 148.953 1286.27 116.124C1286.27 98.0429 1294.34 81.8474 1307.08 70.945ZM1375.06 156.034C1387.31 147.015 1395.25 132.497 1395.25 116.124C1395.25 88.7661 1373.07 66.5883 1345.71 66.5883C1333.3 66.5883 1321.96 71.1512 1313.27 78.6907C1301.03 87.7094 1293.08 102.227 1293.08 118.6C1293.08 145.958 1315.26 168.136 1342.62 168.136C1355.03 168.136 1366.37 163.573 1375.06 156.034ZM1368.87 148.285C1362.36 152.984 1354.36 155.752 1345.71 155.752C1323.83 155.752 1306.09 138.01 1306.09 116.124C1306.09 104.308 1311.26 93.6994 1319.46 86.439C1325.97 81.7404 1333.97 78.972 1342.62 78.972C1364.5 78.972 1382.25 96.7143 1382.25 118.6C1382.25 130.417 1377.07 141.025 1368.87 148.285ZM1324.22 91.6073C1315.88 97.4814 1310.42 107.242 1310.42 118.291C1310.42 136.244 1324.84 150.799 1342.62 150.799C1350.88 150.799 1358.41 147.659 1364.11 142.498C1372.45 136.624 1377.91 126.863 1377.91 115.814C1377.91 97.8608 1363.5 83.3065 1345.71 83.3065C1337.45 83.3065 1329.92 86.446 1324.22 91.6073Z" fill="#7CA835"/>
</svg>
