<svg width="360" height="220" viewBox="0 0 360 220" fill="none" xmlns="http://www.w3.org/2000/svg">
<path d="M83.8149 86.6422H76.0532C72.921 82.539 64.0469 79.3294 52.853 78.2838C66.885 76.9731 77.2724 72.2637 77.2729 66.6539C77.2727 61.0447 66.8877 56.3344 52.8579 55.0231C66.8875 53.7117 77.2723 49.0023 77.2729 43.3932C77.2727 37.7832 66.8848 33.072 52.8521 31.7614C66.8846 30.4507 77.2726 25.7414 77.2729 20.1315C77.2726 13.5076 62.7899 8.13733 44.9253 8.13733C27.061 8.13745 12.579 13.5076 12.5786 20.1315C12.579 25.7412 22.9665 30.4506 36.9985 31.7614C22.9665 33.0721 12.5789 37.7834 12.5786 43.3932C12.5792 49.0021 22.9639 53.7115 36.9927 55.0231C22.9636 56.3346 12.5789 61.0449 12.5786 66.6539C12.5792 72.2636 22.9668 76.973 36.9985 78.2838C25.8046 79.3295 16.9305 82.539 13.7983 86.6422H5.31006V8.13733H83.8149V86.6422Z" fill="#A75B79"/>
<path d="M68.9458 8.13782C75.8257 10.3373 80.1811 13.5923 80.1812 17.2247C80.1808 22.8346 69.7928 27.544 55.7603 28.8546C69.7929 30.1652 80.1808 34.8755 80.1812 40.4855C80.1812 46.0955 69.793 50.8047 55.7603 52.1154C69.793 53.426 80.1811 58.1362 80.1812 63.7462C80.1809 69.3569 69.79 74.0672 55.7544 75.3771C69.4844 76.6584 79.7248 81.1937 80.1646 86.6427H15.5034C15.9431 81.1939 26.1825 76.6587 39.9116 75.3771C25.8769 74.067 15.4871 69.3567 15.4868 63.7462C15.4868 58.1364 25.8738 53.4262 39.9058 52.1154C25.8739 50.8045 15.4868 46.0953 15.4868 40.4855C15.4871 34.8758 25.874 30.1655 39.9058 28.8546C25.8741 27.5438 15.4872 22.8344 15.4868 17.2247C15.4868 13.5924 19.8418 10.3373 26.7212 8.13782H68.9458Z" fill="#5CA7B5"/>
<path d="M63.4073 76.4952C73.1362 78.4803 79.8129 82.2659 80.1661 86.6427H76.0558C72.9234 82.5386 64.0461 79.3294 52.8488 78.2843C56.687 77.9261 60.2521 77.311 63.4073 76.4952ZM29.3488 77.1642C31.7338 77.6511 34.3021 78.0319 37.006 78.2843C28.0201 79.1231 20.5292 81.357 16.3019 84.3273C18.118 81.3778 22.8655 78.8414 29.3488 77.1642ZM63.4122 53.2335C73.4088 55.2739 80.1827 59.2161 80.1827 63.7462C80.1825 65.7648 78.8369 67.666 76.4611 69.3351C76.9927 68.4726 77.2754 67.5757 77.2755 66.6534C77.2752 61.0436 66.8868 56.3333 52.8546 55.0226C56.6926 54.6641 60.2575 54.0494 63.4122 53.2335ZM29.3497 53.9034C31.7328 54.3899 34.2988 54.7702 37.0001 55.0226C28.0175 55.8617 20.5285 58.0941 16.3019 61.0636C18.1193 58.1148 22.8671 55.5803 29.3497 53.9034ZM63.4122 29.9728C73.4086 32.0132 80.1825 35.9555 80.1827 40.4855C80.1826 42.5043 78.8364 44.4052 76.4601 46.0743C76.9919 45.2117 77.2754 44.3151 77.2755 43.3927C77.2752 37.7829 66.8868 33.0726 52.8546 31.7618C56.6926 31.4033 60.2575 30.7887 63.4122 29.9728ZM29.3497 30.6427C31.7328 31.1292 34.2988 31.5095 37.0001 31.7618C28.0175 32.601 20.5285 34.8333 16.3019 37.8029C18.1194 34.8541 22.8672 32.3196 29.3497 30.6427ZM68.9474 8.13782C75.8272 10.3373 80.1827 13.5923 80.1827 17.2247C80.1825 19.2435 78.8364 21.1445 76.4601 22.8136C76.9919 21.951 77.2754 21.0543 77.2755 20.132C77.2755 13.508 62.7923 8.13796 44.9279 8.13782C32.5054 8.13787 21.7192 10.7358 16.2999 14.545C17.8609 12.0094 21.5883 9.77946 26.7228 8.13782H68.9474Z" fill="#715A95"/>
<path d="M156.834 48.5492C156.557 48.3882 156.252 48.2341 155.937 48.0834C156.252 47.9327 156.557 47.7786 156.834 47.6177C158.404 46.7248 159.783 45.5302 160.889 44.1025C161.996 42.6748 162.81 41.0422 163.283 39.2989C163.756 37.5555 163.88 35.7357 163.647 33.9443C163.414 32.1529 162.83 30.4253 161.926 28.8608C161.023 27.2964 159.819 25.9261 158.384 24.8287C156.949 23.7314 155.311 22.9288 153.565 22.4671C151.818 22.0053 149.998 21.8936 148.208 22.1383C146.418 22.383 144.694 22.9794 143.136 23.893C142.859 24.0539 142.571 24.2354 142.287 24.4375C142.314 24.095 142.331 23.7526 142.331 23.4101C142.331 19.7772 140.888 16.2931 138.319 13.7243C135.75 11.1554 132.266 9.71228 128.633 9.71228C125.001 9.71228 121.516 11.1554 118.948 13.7243C116.379 16.2931 114.936 19.7772 114.936 23.4101C114.936 23.732 114.936 24.0745 114.98 24.4375C114.696 24.2423 114.408 24.0539 114.131 23.893C112.572 22.9794 110.849 22.383 109.059 22.1383C107.269 21.8936 105.449 22.0053 103.702 22.4671C101.956 22.9288 100.318 23.7314 98.8827 24.8287C97.4477 25.9261 96.2439 27.2964 95.3406 28.8608C94.4374 30.4253 93.8525 32.1529 93.6196 33.9443C93.3868 35.7357 93.5106 37.5555 93.9839 39.2989C94.4572 41.0422 95.2707 42.6748 96.3775 44.1025C97.4843 45.5302 98.8626 46.7248 100.433 47.6177C100.71 47.7786 101.015 47.9327 101.33 48.0834C101.015 48.2341 100.71 48.3882 100.433 48.5492C98.8626 49.442 97.4843 50.6367 96.3775 52.0644C95.2707 53.4921 94.4572 55.1246 93.9839 56.868C93.5106 58.6113 93.3868 60.4311 93.6196 62.2225C93.8525 64.0139 94.4374 65.7416 95.3406 67.306C96.2439 68.8705 97.4477 70.2408 98.8827 71.3381C100.318 72.4354 101.956 73.238 103.702 73.6998C105.449 74.1615 107.269 74.2733 109.059 74.0285C110.849 73.7838 112.572 73.1875 114.131 72.2739C114.408 72.1129 114.696 71.9314 114.98 71.7294C114.953 72.0718 114.936 72.4143 114.936 72.7396C114.936 76.3725 116.379 79.8566 118.948 82.4254C121.516 84.9943 125.001 86.4374 128.633 86.4374C132.266 86.4374 135.75 84.9943 138.319 82.4254C140.888 79.8566 142.331 76.3725 142.331 72.7396C142.331 72.4177 142.314 72.0752 142.287 71.7294C142.571 71.9246 142.859 72.1129 143.136 72.2739C145.211 73.4757 147.566 74.1089 149.964 74.1094C151.169 74.1079 152.369 73.949 153.533 73.6368C156.15 72.9354 158.5 71.4738 160.286 69.4367C162.072 67.3996 163.214 64.8786 163.567 62.1925C163.921 59.5064 163.47 56.7758 162.271 54.3461C161.073 51.9163 159.18 49.8966 156.834 48.5423V48.5492ZM120.415 48.0834C120.415 46.4579 120.897 44.8689 121.8 43.5173C122.703 42.1658 123.987 41.1124 125.488 40.4903C126.99 39.8683 128.643 39.7055 130.237 40.0226C131.831 40.3397 133.296 41.1225 134.445 42.2719C135.594 43.4213 136.377 44.8858 136.694 46.48C137.011 48.0743 136.849 49.7268 136.227 51.2286C135.605 52.7304 134.551 54.014 133.2 54.917C131.848 55.8201 130.259 56.3021 128.633 56.3021C126.454 56.3021 124.363 55.4362 122.822 53.8949C121.281 52.3536 120.415 50.2632 120.415 48.0834Z" fill="#CE6C9E"/>
<path d="M157.784 45.2527C157.493 45.1181 157.175 44.9929 156.848 44.872C157.147 44.6928 157.437 44.5112 157.698 44.3252C159.179 43.2909 160.441 41.9738 161.411 40.4498C162.381 38.9258 163.04 37.225 163.35 35.4453C163.659 33.6656 163.614 31.8422 163.217 30.08C162.819 28.3179 162.077 26.6518 161.033 25.1776C159.989 23.7035 158.663 22.4504 157.133 21.4906C155.602 20.5308 153.897 19.8832 152.115 19.5851C150.334 19.2869 148.511 19.3442 146.751 19.7535C144.992 20.1628 143.331 20.9161 141.863 21.97C141.602 22.1559 141.332 22.3632 141.068 22.5907C141.064 22.2472 141.049 21.9046 141.017 21.5637C140.681 17.9464 138.922 14.6108 136.126 12.2907C133.331 9.97055 129.728 8.856 126.111 9.1922C122.493 9.52839 119.158 11.2878 116.838 14.0833C114.518 16.8789 113.403 20.4816 113.739 24.0989C113.769 24.4194 113.801 24.7604 113.879 25.1177C113.578 24.9497 113.274 24.7887 112.983 24.6541C111.346 23.8887 109.575 23.4544 107.77 23.3764C105.965 23.2983 104.163 23.5781 102.467 24.1994C100.77 24.8208 99.2137 25.7716 97.8864 26.997C96.5591 28.2224 95.4873 29.6982 94.7327 31.3395C93.9781 32.9809 93.5556 34.7552 93.4895 36.5605C93.4235 38.3658 93.7151 40.1663 94.3478 41.8583C94.9804 43.5504 95.9414 45.1007 97.1756 46.4198C98.4098 47.739 99.8927 48.801 101.539 49.5447C101.83 49.6793 102.148 49.8045 102.475 49.9254C102.176 50.1045 101.887 50.2862 101.625 50.4721C100.144 51.5065 98.8824 52.8236 97.9124 54.3476C96.9425 55.8716 96.2836 57.5724 95.9736 59.352C95.6637 61.1317 95.7088 62.9552 96.1064 64.7173C96.5041 66.4795 97.2463 68.1456 98.2905 69.6197C99.3346 71.0939 100.66 72.3469 102.19 73.3067C103.721 74.2666 105.426 74.9142 107.208 75.2123C108.989 75.5104 110.812 75.4532 112.572 75.0439C114.331 74.6346 115.993 73.8813 117.46 72.8274C117.721 72.6415 117.991 72.4341 118.255 72.2067C118.259 72.5502 118.274 72.8927 118.304 73.2167C118.64 76.834 120.4 80.1696 123.195 82.4897C125.991 84.8098 129.594 85.9243 133.211 85.5881C136.828 85.2519 140.164 83.4925 142.484 80.697C144.804 77.9014 145.919 74.2987 145.582 70.6814C145.553 70.3609 145.504 70.0215 145.445 69.6797C145.746 69.8477 146.049 70.0086 146.341 70.1432C148.518 71.1479 150.922 71.5604 153.31 71.3389C154.509 71.226 155.689 70.9568 156.819 70.5382C159.36 69.5976 161.564 67.9248 163.154 65.7311C164.744 63.5375 165.648 60.9216 165.751 58.2144C165.855 55.5071 165.153 52.83 163.734 50.5216C162.316 48.2132 160.245 46.3772 157.783 45.2459L157.784 45.2527ZM145.03 26.439C145.911 25.8151 146.906 25.3709 147.958 25.1316C149.011 24.8923 150.1 24.8627 151.164 25.0443C152.228 25.226 153.246 25.6155 154.159 26.1905C155.072 26.7655 155.864 27.5147 156.487 28.3955C157.111 29.2763 157.555 30.2713 157.795 31.3237C158.034 32.3762 158.064 33.4655 157.882 34.5294C157.7 35.5933 157.311 36.611 156.736 37.5244C156.161 38.4378 155.412 39.229 154.531 39.8528C152.508 41.2893 148.38 42.5328 142.77 43.4187C141.906 40.5871 140.149 38.1116 137.76 36.3627C140.459 31.3589 143.007 27.8754 145.03 26.439ZM126.619 14.6649C128.79 14.4632 130.951 15.1319 132.629 16.524C134.306 17.916 135.362 19.9174 135.563 22.0878C135.793 24.5564 134.808 28.7579 132.769 34.0614C129.885 33.3846 126.859 33.6659 124.149 34.8626C121.168 30.0255 119.426 26.0776 119.196 23.6089C118.995 21.4385 119.663 19.2769 121.055 17.5996C122.448 15.9222 124.449 14.8666 126.619 14.6649ZM99.7916 33.6665C100.242 32.6855 100.882 31.8029 101.674 31.0691C102.465 30.3353 103.394 29.7647 104.406 29.3898C105.419 29.015 106.495 28.8433 107.574 28.8846C108.653 28.9258 109.713 29.1792 110.694 29.6302C112.947 30.6693 116.093 33.6235 119.668 38.0442C117.641 40.2061 116.37 42.9671 116.045 45.9128C110.368 46.0759 106.082 45.6145 103.829 44.5788C102.846 44.1283 101.963 43.4885 101.228 42.6959C100.493 41.9034 99.9219 40.9737 99.5469 39.9601C99.1719 38.9465 99.0004 37.8689 99.0424 36.7889C99.0844 35.709 99.339 34.6479 99.7916 33.6665ZM114.293 68.3584C112.514 69.6183 110.308 70.1199 108.159 69.753C106.011 69.3861 104.096 68.1807 102.836 66.4019C101.576 64.6231 101.074 62.4167 101.441 60.268C101.808 58.1193 103.013 56.2044 104.792 54.9445C106.815 53.5081 110.944 52.2646 116.553 51.3787C117.417 54.2102 119.174 56.6858 121.563 58.4346C118.864 63.4385 116.316 66.9219 114.293 68.3584ZM132.704 80.1325C130.533 80.3342 128.372 79.6655 126.695 78.2734C125.017 76.8814 123.962 74.88 123.76 72.7096C123.53 70.2409 124.516 66.0395 126.554 60.7359C129.438 61.4128 132.464 61.1315 135.174 59.9348C138.155 64.7719 139.897 68.7198 140.127 71.1885C140.328 73.3589 139.66 75.5205 138.268 77.1978C136.876 78.8751 134.874 79.9308 132.704 80.1325ZM159.532 61.1308C159.081 62.1119 158.441 62.9945 157.65 63.7283C156.858 64.4621 155.929 65.0327 154.917 65.4075C153.904 65.7823 152.828 65.954 151.749 65.9128C150.67 65.8716 149.61 65.6182 148.629 65.1672C146.377 64.1281 143.23 61.1739 139.655 56.7532C141.682 54.5912 142.953 51.8303 143.278 48.8846C148.955 48.7215 153.242 49.1829 155.494 50.2185C156.477 50.6691 157.361 51.3089 158.095 52.1015C158.83 52.894 159.401 53.8237 159.776 54.8373C160.151 55.8509 160.323 56.9285 160.281 58.0084C160.239 59.0884 159.984 60.1494 159.532 61.1308Z" fill="#DDD347"/>
<path d="M128.635 9.71228C130.399 9.71232 132.128 10.0541 133.734 10.6986C134.578 11.1409 135.381 11.6724 136.126 12.2904C138.921 14.6105 140.681 17.9465 141.017 21.5638C141.049 21.9048 141.064 22.2477 141.068 22.5912C141.332 22.3637 141.602 22.156 141.863 21.9701C141.983 21.884 142.104 21.8002 142.226 21.7181C142.296 22.2766 142.332 22.8419 142.332 23.4105C142.332 23.7528 142.315 24.0955 142.288 24.4379C142.572 24.2359 142.859 24.0539 143.136 23.8929C144.695 22.9793 146.419 22.3828 148.209 22.1381C149.998 21.8934 151.819 22.0055 153.565 22.4672C155.311 22.9289 156.95 23.7313 158.385 24.8285C159.82 25.9258 161.024 27.2963 161.927 28.8607C162.723 30.2387 163.271 31.7437 163.55 33.307C163.539 34.0224 163.473 34.7376 163.349 35.4457C163.039 37.2251 162.381 38.9258 161.411 40.4496C160.441 41.9735 159.179 43.2912 157.698 44.3256C157.437 44.5115 157.147 44.6933 156.847 44.8724C157.175 44.9933 157.493 45.1187 157.784 45.2533L157.783 45.2465C158.251 45.4613 158.704 45.7021 159.141 45.9662C158.433 46.5931 157.661 47.1477 156.835 47.6176C156.557 47.7785 156.252 47.9327 155.937 48.0834C156.252 48.2341 156.557 48.3882 156.835 48.5492V48.5424C159.181 49.8967 161.074 51.9164 162.272 54.3461C163.471 56.7758 163.921 59.5067 163.568 62.1927C163.33 64.0061 162.73 65.7432 161.817 67.308C160.413 68.732 158.709 69.8385 156.818 70.5385C155.688 70.957 154.509 71.2263 153.309 71.3392C150.922 71.5607 148.518 71.1476 146.341 70.1429C146.049 70.0084 145.745 69.8481 145.444 69.6801C145.503 70.0219 145.552 70.3615 145.582 70.682C145.666 71.5858 145.659 72.4887 145.566 73.3783C144.726 73.0914 143.911 72.7225 143.136 72.2738C142.859 72.113 142.572 71.9249 142.288 71.7299C142.315 72.0756 142.332 72.4179 142.332 72.7396C142.332 76.3724 140.889 79.8563 138.32 82.4252C136.924 83.8211 135.258 84.8837 133.444 85.5638C133.366 85.5724 133.289 85.581 133.211 85.5883C129.593 85.9244 125.991 84.8097 123.195 82.4896C120.4 80.1696 118.64 76.8343 118.303 73.2172C118.273 72.8932 118.259 72.5499 118.255 72.2064C117.99 72.4339 117.721 72.6416 117.46 72.8275C116.694 73.3774 115.875 73.8439 115.017 74.224C114.964 73.7333 114.936 73.2379 114.936 72.7396C114.936 72.4144 114.954 72.0722 114.981 71.7299C114.697 71.9319 114.409 72.1129 114.132 72.2738C112.573 73.1874 110.849 73.784 109.059 74.0287C107.27 74.2734 105.449 74.1613 103.703 73.6996C103.041 73.5246 102.395 73.301 101.769 73.0306C100.416 72.1112 99.2368 70.9566 98.2898 69.6195C97.2458 68.1455 96.5038 66.4791 96.1062 64.7172C95.7086 62.9551 95.6635 61.1315 95.9734 59.3519C96.2833 57.5725 96.9421 55.8718 97.9119 54.348C98.8818 52.824 100.144 51.5064 101.625 50.472C101.886 50.2861 102.176 50.1044 102.475 49.9252C102.148 49.8043 101.83 49.6798 101.539 49.5453C101.031 49.3158 100.539 49.0553 100.064 48.767C100.186 48.6926 100.309 48.6199 100.433 48.5492C100.711 48.3883 101.016 48.234 101.331 48.0834C101.016 47.9327 100.711 47.7785 100.433 47.6176C98.8633 46.7248 97.4853 45.5303 96.3787 44.1029C95.2719 42.6753 94.4584 41.0424 93.9851 39.2992C93.7027 38.2589 93.5445 37.191 93.5125 36.1185C93.6265 34.4663 94.0394 32.8472 94.7322 31.3402C95.4868 29.6989 96.5592 28.2228 97.8865 26.9974C99.2138 25.7721 100.77 24.821 102.467 24.1996C104.163 23.5783 105.965 23.2984 107.769 23.3763C109.574 23.4544 111.346 23.8892 112.982 24.6547C113.273 24.7893 113.578 24.9495 113.879 25.1176C113.801 24.7603 113.769 24.4194 113.739 24.099C113.725 23.9505 113.715 23.802 113.706 23.6537C113.849 23.7309 113.991 23.8105 114.132 23.8929C114.409 24.0539 114.697 24.2427 114.981 24.4379C114.937 24.075 114.936 23.7323 114.936 23.4105C114.936 19.7776 116.379 16.2928 118.948 13.724C121.517 11.1552 125.002 9.71228 128.635 9.71228ZM135.174 59.9349C132.464 61.1317 129.437 61.4125 126.553 60.7357C124.515 66.039 123.53 70.2406 123.76 72.7094C123.961 74.8797 125.017 76.8817 126.694 78.2738C128.371 79.6659 130.533 80.3349 132.704 80.1332C134.874 79.9314 136.875 78.8749 138.267 77.1976C139.659 75.5204 140.328 73.3591 140.127 71.1888C139.897 68.7202 138.154 64.772 135.174 59.9349ZM116.552 51.3793C110.943 52.2652 106.815 53.5083 104.792 54.9447C103.013 56.2045 101.808 58.1195 101.441 60.2679C101.074 62.4166 101.576 64.623 102.836 66.4017C104.096 68.1805 106.01 69.3864 108.159 69.7533C110.308 70.1202 112.514 69.6186 114.293 68.3588C116.316 66.9223 118.863 63.4387 121.562 58.4349C119.174 56.6862 117.416 54.2106 116.552 51.3793ZM155.494 50.2191C153.241 49.1835 148.955 48.7221 143.278 48.8851C142.953 51.8307 141.682 54.5915 139.655 56.7533C143.23 61.174 146.377 64.1283 148.63 65.1674C149.61 65.6183 150.67 65.8722 151.749 65.9135C152.828 65.9547 153.904 65.7824 154.917 65.4076C155.929 65.0328 156.857 64.4625 157.649 63.7289C158.441 62.9951 159.08 62.1121 159.531 61.1312C159.984 60.1498 160.238 59.0881 160.28 58.0082C160.322 56.9284 160.151 55.8507 159.776 54.8373C159.401 53.8239 158.83 52.8944 158.095 52.1019C157.361 51.3094 156.476 50.6696 155.494 50.2191ZM130.238 40.0228C128.644 39.7057 126.991 39.8685 125.489 40.4906C123.987 41.1126 122.704 42.1656 121.801 43.517C120.897 44.8685 120.416 46.4579 120.416 48.0834C120.416 50.2631 121.282 52.3536 122.823 53.8949C124.364 55.4361 126.455 56.3021 128.635 56.3021C130.26 56.3021 131.849 55.8202 133.2 54.9174C134.551 54.0143 135.605 52.7306 136.227 51.2289C136.849 49.7271 137.012 48.0741 136.695 46.4799C136.378 44.8857 135.595 43.4212 134.446 42.2719C133.297 41.1226 131.832 40.34 130.238 40.0228ZM107.574 28.8851C106.495 28.8439 105.418 29.0152 104.406 29.39C103.394 29.7648 102.465 30.3359 101.674 31.0697C100.882 31.8034 100.242 32.6856 99.7917 33.6664C99.3392 34.6478 99.0837 35.7095 99.0417 36.7894C98.9998 37.8693 99.1717 38.9468 99.5466 39.9603C99.9216 40.9737 100.493 41.9032 101.227 42.6957C101.962 43.4882 102.846 44.1289 103.829 44.5795C106.082 45.615 110.368 46.0765 116.045 45.9135C116.369 42.9678 117.641 40.2062 119.668 38.0443C116.093 33.6236 112.946 30.6693 110.693 29.6302C109.712 29.1793 108.653 28.9264 107.574 28.8851ZM151.164 25.0443C150.1 24.8626 149.01 24.8929 147.958 25.1322C146.906 25.3715 145.911 25.8152 145.03 26.4388C143.007 27.8753 140.459 31.3588 137.76 36.3627C140.148 38.1115 141.906 40.5878 142.769 43.4193C148.379 42.5334 152.508 41.2894 154.531 39.8529C155.412 39.2291 156.161 38.4381 156.736 37.5248C157.311 36.6114 157.7 35.5935 157.882 34.5297C158.063 33.4658 158.034 32.3761 157.795 31.3236C157.555 30.2713 157.111 29.2765 156.487 28.3959C155.863 27.5152 155.072 26.7658 154.159 26.1908C153.246 25.6158 152.228 25.226 151.164 25.0443ZM132.629 16.5238C130.951 15.1317 128.789 14.4637 126.619 14.6654C124.449 14.8672 122.447 15.9227 121.055 17.6C119.663 19.2772 118.994 21.4385 119.196 23.6088C119.425 26.0774 121.168 30.0256 124.149 34.8627C126.859 33.666 129.885 33.3851 132.769 34.0619C134.808 28.7585 135.793 24.557 135.563 22.0883C135.362 19.9179 134.306 17.9159 132.629 16.5238Z" fill="#D3592C"/>
<circle cx="214.759" cy="47.3895" r="39.2526" fill="#5CA7B5"/>
<path d="M254.012 8.13684L175.506 86.6421H254.012V8.13684Z" fill="#DDD347"/>
<path d="M242.513 19.6349C249.617 26.7382 254.01 36.5513 254.01 47.3907C254.01 69.0693 236.437 86.6435 214.758 86.6437C203.919 86.6437 194.106 82.2491 187.002 75.1456L242.513 19.6349Z" fill="#7CA835"/>
<path d="M293.545 32.6658C295.414 30.7019 297.459 29.0534 299.682 27.7202C301.904 26.3869 304.22 25.3805 306.629 24.7008C309.037 24.0211 311.509 23.6407 314.046 23.5596C316.582 23.4784 319.071 23.7369 321.512 24.3351C323.952 24.9332 326.326 25.8338 328.631 27.037C330.937 28.2401 333.072 29.7765 335.037 31.6461C337.195 33.6991 338.983 35.9867 340.401 38.5091C341.818 41.0315 342.835 43.6859 343.451 46.4725C344.067 49.259 344.279 52.1024 344.09 55.0028C343.9 57.9031 343.257 60.7394 342.161 63.5116L337.137 61.153C336.689 62.7435 336.068 64.2442 335.277 65.6551C334.485 67.0659 333.522 68.387 332.387 69.6183C331.252 70.812 329.999 71.8393 328.629 72.7003C327.26 73.5613 325.773 74.256 324.169 74.7843L326.775 79.6843C324.061 80.9167 321.26 81.7001 318.373 82.0343C315.486 82.3685 312.644 82.2879 309.849 81.7925C307.053 81.2971 304.352 80.4139 301.743 79.143C299.135 77.8721 296.752 76.2101 294.594 74.1572C292.629 72.2876 290.979 70.241 289.644 68.0174C288.309 65.7939 287.301 63.4777 286.62 61.0688C285.938 58.6599 285.556 56.1873 285.473 53.6509C285.39 51.1146 285.647 48.6262 286.244 46.186C286.84 43.7457 287.739 41.3733 288.94 39.0685C290.142 36.7638 291.677 34.6296 293.545 32.6658ZM310.739 70.1503C311.234 69.6304 311.595 69.0575 311.824 68.4313C312.053 67.8052 312.159 67.1727 312.143 66.5338C312.126 65.8949 311.988 65.2496 311.727 64.5979C311.466 63.9462 311.076 63.3917 310.557 62.9344C310.037 62.4395 309.463 62.0775 308.837 61.8485C308.211 61.6194 307.578 61.5127 306.939 61.5284C306.3 61.5441 305.655 61.6822 305.003 61.9427C304.352 62.2031 303.798 62.5928 303.341 63.1117C302.846 63.6315 302.485 64.2045 302.256 64.8306C302.027 65.4568 301.921 66.0893 301.937 66.7282C301.953 67.3671 302.092 68.0124 302.353 68.6641C302.614 69.3158 303.004 69.8703 303.523 70.3276C304.043 70.8225 304.617 71.1845 305.243 71.4135C305.869 71.6426 306.502 71.7493 307.141 71.7336C307.78 71.7179 308.425 71.5798 309.076 71.3193C309.728 71.0589 310.282 70.6692 310.739 70.1503ZM303.158 55.8958C303.653 55.376 304.014 54.803 304.243 54.1769C304.472 53.5507 304.578 52.9182 304.562 52.2793C304.546 51.6404 304.407 50.9951 304.146 50.3434C303.885 49.6917 303.495 49.1372 302.976 48.6799C302.456 48.185 301.882 47.823 301.256 47.594C300.63 47.3649 299.997 47.2582 299.358 47.2739C298.719 47.2896 298.074 47.4277 297.423 47.6882C296.771 47.9486 296.217 48.3383 295.76 48.8572C295.265 49.3771 294.904 49.95 294.675 50.5762C294.446 51.2023 294.34 51.8348 294.356 52.4737C294.372 53.1126 294.511 53.7579 294.772 54.4096C295.033 55.0613 295.423 55.6158 295.942 56.0731C296.462 56.568 297.036 56.93 297.662 57.159C298.288 57.3881 298.921 57.4948 299.56 57.4791C300.199 57.4634 300.844 57.3253 301.495 57.0648C302.147 56.8044 302.701 56.4147 303.158 55.8958ZM328.688 66.099C329.64 65.0978 330.431 63.9973 331.058 62.7972C331.686 61.5972 332.152 60.3165 332.456 58.9553L310.192 48.5026L321.741 70.2184C323.066 69.8286 324.312 69.2902 325.48 68.6035C326.647 67.9167 327.716 67.0819 328.688 66.099ZM310.009 41.2867C310.53 41.7816 311.103 42.1435 311.729 42.3726C312.355 42.6016 312.988 42.7083 313.627 42.6926C314.266 42.6769 314.911 42.5388 315.563 42.2784C316.214 42.0179 316.768 41.6282 317.225 41.1093C317.72 40.5895 318.082 40.0165 318.31 39.3904C318.539 38.7643 318.645 38.1318 318.629 37.4929C318.613 36.8539 318.474 36.2086 318.213 35.5569C317.952 34.9052 317.562 34.3507 317.043 33.8934C316.523 33.3985 315.95 33.0365 315.323 32.8075C314.697 32.5785 314.064 32.4718 313.425 32.4875C312.786 32.5032 312.141 32.6413 311.49 32.9017C310.838 33.1622 310.284 33.5518 309.827 34.0708C309.332 34.5906 308.971 35.1636 308.742 35.7897C308.514 36.4158 308.407 37.0483 308.424 37.6872C308.44 38.3261 308.578 38.9714 308.839 39.6231C309.1 40.2748 309.49 40.8293 310.009 41.2867ZM331.84 47.9706C332.334 47.4507 332.696 46.8778 332.925 46.2517C333.153 45.6255 333.26 44.993 333.243 44.3541C333.227 43.7152 333.089 43.0699 332.828 42.4182C332.567 41.7665 332.177 41.212 331.658 40.7547C331.137 40.2598 330.564 39.8978 329.938 39.6688C329.311 39.4397 328.679 39.333 328.04 39.3487C327.401 39.3644 326.756 39.5025 326.104 39.763C325.453 40.0234 324.898 40.4131 324.441 40.932C323.947 41.4518 323.585 42.0248 323.357 42.6509C323.128 43.2771 323.022 43.9096 323.038 44.5485C323.054 45.1874 323.193 45.8327 323.454 46.4844C323.715 47.1361 324.105 47.6906 324.624 48.1479C325.144 48.6428 325.717 49.0048 326.344 49.2338C326.97 49.4629 327.603 49.5696 328.242 49.5539C328.88 49.5382 329.526 49.4001 330.177 49.1396C330.829 48.8792 331.383 48.4895 331.84 47.9706ZM283.171 40.677C281.784 39.3572 280.758 37.8312 280.094 36.0988L272.229 36.2639L272.1 31.1902L279.204 31.0157C279.276 29.4344 279.605 27.9315 280.19 26.5069C280.774 25.0823 281.616 23.7924 282.715 22.6372C283.814 21.482 285.06 20.5771 286.454 19.9223C287.848 19.2676 289.332 18.8644 290.908 18.7129L290.728 11.6097L295.802 11.485L296.029 19.3485C297.792 19.9257 299.368 20.8742 300.755 22.1939C301.005 22.4322 301.237 22.6709 301.45 22.9101C301.663 23.1494 301.867 23.417 302.063 23.713C300.072 24.5705 298.19 25.6039 296.415 26.8133C294.641 28.0227 293.002 29.4168 291.5 30.9955C290.017 32.555 288.715 34.2511 287.596 36.0837C286.476 37.9163 285.529 39.8575 284.753 41.9073C284.485 41.7259 284.227 41.5348 283.977 41.3341C283.728 41.1334 283.459 40.9143 283.171 40.677Z" fill="#DDD347"/>
<path fill-rule="evenodd" clip-rule="evenodd" d="M293.466 33.4063C295.454 31.5642 297.6 30.048 299.902 28.8577C302.205 27.6674 304.579 26.809 307.026 26.2827C309.472 25.7563 311.964 25.5327 314.5 25.6117C317.037 25.6908 319.504 26.1058 321.902 26.8568C324.3 27.6077 326.612 28.6563 328.837 30.0025C331.062 31.3488 333.096 33.0168 334.94 35.0067C336.964 37.1917 338.604 39.5876 339.859 42.1944C341.115 44.8012 341.962 47.5145 342.401 50.3344C342.84 53.1542 342.873 56.0054 342.5 58.888C342.128 61.7706 341.307 64.5606 340.039 67.2581L309.08 50.2619L323.663 82.4278C320.876 83.4866 318.032 84.0916 315.129 84.243C312.227 84.3943 309.396 84.1346 306.637 83.4638C303.879 82.793 301.238 81.7411 298.715 80.3082C296.192 78.8752 293.919 77.0662 291.895 74.8812C290.052 72.8913 288.534 70.7447 287.342 68.4413C286.15 66.138 285.29 63.7628 284.762 61.3157C284.234 58.8687 284.009 56.3769 284.086 53.8403C284.163 51.3037 284.576 48.8366 285.326 46.4388C286.075 44.0411 287.122 41.73 288.466 39.5057C289.811 37.2814 291.477 35.2483 293.466 33.4063ZM309.451 70.2539C309.184 70.8644 308.787 71.4134 308.26 71.901C307.772 72.39 307.194 72.744 306.527 72.9628C305.861 73.1816 305.208 73.2787 304.569 73.254C303.931 73.2294 303.306 73.083 302.695 72.8149C302.085 72.5468 301.535 72.1494 301.048 71.6226C300.558 71.1335 300.204 70.5555 299.985 69.8886C299.765 69.2217 299.668 68.569 299.692 67.9303C299.716 67.2917 299.862 66.6671 300.13 66.0567C300.397 65.4462 300.794 64.8972 301.321 64.4096C301.81 63.9206 302.387 63.5666 303.054 63.3478C303.721 63.129 304.373 63.0319 305.012 63.0565C305.651 63.0812 306.275 63.2276 306.886 63.4957C307.496 63.7638 308.046 64.1612 308.534 64.6879C309.023 65.1771 309.377 65.7551 309.597 66.422C309.816 67.0889 309.913 67.7416 309.889 68.3803C309.865 69.0189 309.719 69.6435 309.451 70.2539ZM302.785 55.5495C302.517 56.1599 302.12 56.709 301.594 57.1966C301.105 57.6856 300.527 58.0395 299.861 58.2584C299.194 58.4772 298.541 58.5743 297.903 58.5496C297.264 58.525 296.64 58.3786 296.029 58.1105C295.418 57.8424 294.869 57.445 294.381 56.9182C293.892 56.429 293.537 55.851 293.318 55.1842C293.099 54.5173 293.001 53.8646 293.026 53.2259C293.05 52.5872 293.196 51.9627 293.463 51.3522C293.731 50.7418 294.128 50.1928 294.654 49.7052C295.143 49.2161 295.721 48.8622 296.388 48.6434C297.054 48.4246 297.707 48.3275 298.346 48.3521C298.984 48.3768 299.609 48.5231 300.219 48.7912C300.83 49.0594 301.379 49.4568 301.867 49.9835C302.357 50.4727 302.711 51.0507 302.93 51.7176C303.149 52.3844 303.247 53.0372 303.223 53.6758C303.199 54.3145 303.053 54.939 302.785 55.5495ZM311.001 44.2411C310.391 43.973 309.841 43.5756 309.353 43.0488C308.864 42.5597 308.51 41.9816 308.29 41.3148C308.071 40.6479 307.974 39.9952 307.998 39.3565C308.022 38.7178 308.168 38.0933 308.435 37.4828C308.703 36.8724 309.1 36.3234 309.627 35.8358C310.115 35.3467 310.693 34.9928 311.36 34.774C312.026 34.5552 312.679 34.4581 313.318 34.4827C313.956 34.5074 314.581 34.6537 315.192 34.9219C315.802 35.19 316.351 35.5874 316.839 36.1141C317.329 36.6033 317.683 37.1813 317.902 37.8482C318.122 38.515 318.219 39.1678 318.195 39.8064C318.171 40.4451 318.025 41.0697 317.757 41.6801C317.49 42.2905 317.093 42.8396 316.566 43.3272C316.077 43.8162 315.5 44.1701 314.833 44.389C314.166 44.6078 313.514 44.7049 312.875 44.6802C312.236 44.6556 311.612 44.5092 311.001 44.2411ZM331.91 49.4498C331.642 50.0603 331.245 50.6093 330.719 51.0969C330.23 51.5859 329.652 51.9399 328.985 52.1587C328.319 52.3775 327.666 52.4746 327.027 52.45C326.389 52.4253 325.764 52.2789 325.154 52.0108C324.543 51.7427 323.994 51.3453 323.506 50.8185C323.016 50.3294 322.662 49.7514 322.443 49.0845C322.224 48.4176 322.126 47.7649 322.15 47.1262C322.174 46.4876 322.32 45.863 322.588 45.2526C322.856 44.6421 323.253 44.0931 323.779 43.6055C324.268 43.1165 324.846 42.7625 325.512 42.5437C326.179 42.3249 326.832 42.2278 327.47 42.2524C328.109 42.2771 328.733 42.4235 329.344 42.6916C329.955 42.9597 330.504 43.3571 330.992 43.8839C331.481 44.373 331.836 44.951 332.055 45.6179C332.274 46.2848 332.372 46.9375 332.347 47.5762C332.323 48.2148 332.177 48.8394 331.91 49.4498Z" fill="#CE6C9E"/>
<path d="M289.937 37.3194C290.972 35.9308 292.149 34.6261 293.467 33.4054C295.455 31.5635 297.6 30.0469 299.902 28.8566C302.205 27.6663 304.58 26.8085 307.026 26.2821C309.473 25.7558 311.964 25.5312 314.501 25.6102C317.037 25.6893 319.504 26.1053 321.903 26.8562C324.301 27.6072 326.612 28.6555 328.837 30.0017C331.062 31.3479 333.097 33.0156 334.94 35.0053C336.964 37.1902 338.604 39.5863 339.86 42.1929C341.115 44.7997 341.962 47.5137 342.401 50.3336C342.839 53.1532 342.873 56.0043 342.501 58.8867C342.31 60.3609 342.001 61.8108 341.576 63.2366L337.138 61.1527C336.772 62.4527 336.287 63.6912 335.691 64.8712L331.243 62.429C331.778 61.3359 332.184 60.1788 332.457 58.9554L310.193 48.502L311.972 51.8485L309.08 50.2607L323.051 81.0769C321.518 81.5311 319.959 81.8507 318.374 82.0342C315.487 82.3683 312.645 82.2875 309.849 81.7922C307.054 81.2967 304.353 80.4136 301.745 79.1428C299.136 77.8719 296.753 76.2099 294.595 74.157C292.63 72.2874 290.98 70.2409 289.645 68.0174C288.31 65.7938 287.302 63.4773 286.621 61.0685C285.94 58.6597 285.558 56.1872 285.475 53.6508C285.392 51.1144 285.648 48.6256 286.245 46.1854C286.841 43.7452 287.741 41.3729 288.942 39.0683C289.252 38.4741 289.583 37.891 289.937 37.3194ZM324.443 40.9319C323.948 41.4517 323.586 42.0244 323.357 42.6506C323.14 43.2453 323.035 43.846 323.038 44.4524C322.861 44.7061 322.71 44.9722 322.588 45.2518C322.32 45.8621 322.174 46.4871 322.15 47.1256C322.126 47.7641 322.224 48.4168 322.443 49.0835C322.662 49.7504 323.017 50.3285 323.506 50.8177C323.994 51.3443 324.543 51.7422 325.154 52.0103C325.764 52.2784 326.389 52.4245 327.028 52.4492C327.666 52.4738 328.319 52.3767 328.986 52.1579C329.652 51.9391 330.23 51.5848 330.719 51.0959C331.245 50.6083 331.642 50.0589 331.91 49.4485C332.177 48.8381 332.324 48.2138 332.348 47.5753C332.351 47.4999 332.351 47.4244 332.351 47.3486C332.593 47.003 332.785 46.6373 332.926 46.2512C333.154 45.6251 333.261 44.9922 333.244 44.3534C333.228 43.7147 333.09 43.0694 332.829 42.4179C332.568 41.7662 332.178 41.2114 331.658 40.754C331.138 40.2593 330.565 39.8973 329.939 39.6682C329.313 39.4392 328.679 39.3331 328.041 39.3488C327.402 39.3645 326.756 39.502 326.105 39.7624C325.454 40.0229 324.899 40.413 324.443 40.9319ZM301.321 64.4086C300.794 64.8961 300.398 65.4451 300.13 66.0554C299.862 66.6658 299.717 67.2906 299.693 67.9292C299.668 68.5679 299.765 69.2209 299.984 69.8878C300.204 70.5547 300.559 71.1328 301.048 71.622C301.536 72.1487 302.086 72.5458 302.696 72.8139C303.307 73.0819 303.931 73.2288 304.569 73.2535C305.208 73.2781 305.861 73.1804 306.528 72.9615C307.194 72.7427 307.772 72.3884 308.261 71.8995C308.413 71.7584 308.554 71.6114 308.684 71.46C308.815 71.4175 308.946 71.3713 309.077 71.3189C309.729 71.0585 310.283 70.6691 310.74 70.1502C311.235 69.6304 311.596 69.0569 311.825 68.4308C312.053 67.8048 312.16 67.1718 312.144 66.533C312.127 65.8944 311.989 65.2495 311.728 64.5982C311.467 63.9465 311.077 63.391 310.558 62.9336C310.038 62.4388 309.464 62.0775 308.838 61.8485C308.211 61.6195 307.579 61.5127 306.94 61.5284C306.301 61.5441 305.656 61.6816 305.004 61.942C304.353 62.2025 303.799 62.5926 303.342 63.1114C303.278 63.1788 303.215 63.2466 303.156 63.3157C303.122 63.3261 303.088 63.3362 303.054 63.3473C302.388 63.5661 301.809 63.9197 301.321 64.4086ZM309.828 34.0709C309.334 34.5907 308.971 35.1636 308.743 35.7896C308.535 36.358 308.43 36.9318 308.424 37.5107C308.164 38.1119 308.022 38.7266 307.998 39.3552C307.974 39.9939 308.072 40.6469 308.291 41.3138C308.511 41.9805 308.864 42.5589 309.353 43.048C309.841 43.5747 310.391 43.9718 311.002 44.2399C311.612 44.508 312.237 44.6541 312.875 44.6788C313.514 44.7034 314.167 44.6063 314.833 44.3875C315.5 44.1687 316.078 43.8152 316.567 43.3261C317.093 42.8387 317.49 42.2897 317.757 41.6794C318.025 41.069 318.171 40.4442 318.195 39.8056C318.197 39.761 318.195 39.7163 318.196 39.6715C318.237 39.5788 318.276 39.4855 318.311 39.3903C318.54 38.7642 318.646 38.1314 318.63 37.4925C318.614 36.8536 318.475 36.208 318.214 35.5563C317.953 34.9048 317.563 34.3504 317.044 33.8931C316.524 33.3983 315.951 33.0364 315.324 32.8073C314.698 32.5783 314.065 32.4715 313.427 32.4871C312.788 32.5028 312.142 32.6411 311.49 32.9015C310.839 33.162 310.285 33.5521 309.828 34.0709ZM294.654 49.7044C294.128 50.1919 293.731 50.7408 293.464 51.3511C293.196 51.9615 293.051 52.5863 293.026 53.225C293.002 53.8636 293.099 54.5167 293.318 55.1835C293.538 55.8502 293.892 56.428 294.381 56.9171C294.869 57.4438 295.419 57.8415 296.03 58.1097C296.64 58.3776 297.265 58.5246 297.903 58.5492C298.542 58.5739 299.195 58.4761 299.862 58.2573C300.528 58.0384 301.106 57.6841 301.595 57.1952C301.708 57.0901 301.814 56.981 301.916 56.8702C302.389 56.6229 302.804 56.2984 303.159 55.8949C303.653 55.3753 304.015 54.8028 304.244 54.1769C304.472 53.5508 304.579 52.918 304.562 52.2791C304.546 51.6402 304.408 50.9946 304.147 50.3429C303.886 49.6914 303.496 49.137 302.977 48.6798C302.456 48.1849 301.883 47.823 301.257 47.5939C300.631 47.3649 299.998 47.2581 299.359 47.2738C298.72 47.2895 298.075 47.4277 297.423 47.6881C296.772 47.9485 296.218 48.3382 295.761 48.8569C295.735 48.8845 295.709 48.9131 295.684 48.941C295.306 49.1418 294.962 49.3964 294.654 49.7044Z" fill="#D3592C"/>
<path d="M44.9046 122.062L50.0729 149.943L70.6418 130.425L58.4355 156.018L86.5483 152.318L61.6297 165.849L86.5483 179.38L58.4355 175.68L70.6418 201.273L50.0729 181.755L44.9046 209.636L39.7363 181.755L19.1674 201.273L31.3738 175.68L3.26099 179.38L28.1796 165.849L3.26099 152.318L31.3738 156.018L19.1674 130.425L39.7363 149.943L44.9046 122.062Z" fill="#A75B79"/>
<path d="M43.7544 121.564L49.9894 149.225L69.7937 128.932L58.5791 154.975L86.5291 150.198L62.1484 164.676L87.5681 177.24L59.334 174.622L72.5141 199.728L51.2109 181.014L47.1169 209.072L40.8819 181.411L21.0776 201.704L32.2923 175.661L4.34229 180.438L28.723 165.96L3.30322 153.396L31.5374 156.014L18.3573 130.908L39.6604 149.622L43.7544 121.564Z" fill="#5CA7B5"/>
<path d="M49.713 147.998L50.0734 149.942L68.1202 132.816L58.5792 154.974L58.964 154.908L58.4357 156.017L81.9386 152.924L62.1486 164.676L63.007 165.099L61.63 165.849L81.5851 176.684L59.3341 174.622L59.9972 175.885L58.4357 175.68L68.0236 195.782L51.2111 181.014L50.9777 182.612L50.0734 181.755L45.9601 203.941L40.882 181.411L39.8654 182.452L39.7365 181.755L22.712 197.909L32.2921 175.661L31.3019 175.83L31.3741 175.68L6.9386 178.895L28.7228 165.96L24.9572 164.099L5.64661 153.612L30.8839 155.953L31.3741 156.017L31.3644 155.997L31.5372 156.014L29.7345 152.579L20.1486 132.481L36.1271 146.517L39.7365 149.942L44.4366 124.589L49.713 147.998Z" fill="#715A95"/>
<path d="M98.4119 129.45H113.097V144.135H98.4119V129.45Z" fill="#A75B79"/>
<path d="M113.097 144.135H127.782V158.819H113.097V144.135Z" fill="#A75B79"/>
<path d="M142.467 144.135H157.151V158.819H142.467V144.135Z" fill="#A75B79"/>
<path d="M157.151 129.45H171.836V144.135H157.151V129.45Z" fill="#A75B79"/>
<path d="M127.782 129.45H142.467V144.135H127.782V129.45Z" fill="#A75B79"/>
<path d="M98.4119 158.819H113.097V173.504H98.4119V158.819Z" fill="#A75B79"/>
<path d="M113.097 173.504H127.782V188.189H113.097V173.504Z" fill="#A75B79"/>
<path d="M142.467 173.504H157.151V188.189H142.467V173.504Z" fill="#A75B79"/>
<path d="M157.151 158.819H171.836V173.504H157.151V158.819Z" fill="#A75B79"/>
<path d="M127.782 158.819H142.467V173.504H127.782V158.819Z" fill="#A75B79"/>
<path d="M98.4119 188.189H113.097V202.874H98.4119V188.189Z" fill="#A75B79"/>
<path d="M157.151 188.189H171.836V202.874H157.151V188.189Z" fill="#A75B79"/>
<path d="M127.782 188.189H142.467V202.874H127.782V188.189Z" fill="#A75B79"/>
<path d="M114.495 127.762H129.18V142.446H114.495V127.762Z" fill="#5CA7B5"/>
<path d="M143.865 127.762H158.55V142.446H143.865V127.762Z" fill="#5CA7B5"/>
<path d="M129.18 142.446H143.865V157.131H129.18V142.446Z" fill="#5CA7B5"/>
<path d="M114.495 157.131H129.18V171.816H114.495V157.131Z" fill="#5CA7B5"/>
<path d="M99.8101 142.446H114.495V157.131H99.8101V142.446Z" fill="#5CA7B5"/>
<path d="M129.18 171.816H143.865V186.501H129.18V171.816Z" fill="#5CA7B5"/>
<path d="M143.865 157.131H158.55V171.816H143.865V157.131Z" fill="#5CA7B5"/>
<path d="M158.55 142.446H173.234V157.131H158.55V142.446Z" fill="#5CA7B5"/>
<path d="M158.55 171.816H173.234V186.501H158.55V171.816Z" fill="#5CA7B5"/>
<path d="M143.865 186.501H158.55V201.186H143.865V186.501Z" fill="#5CA7B5"/>
<path d="M114.495 186.501H129.18V201.186H114.495V186.501Z" fill="#5CA7B5"/>
<path d="M99.8101 171.816H114.495V186.501H99.8101V171.816Z" fill="#5CA7B5"/>
<path d="M158.549 201.186H157.151V188.189H158.549V201.186ZM129.18 201.186H127.782V188.189H129.18V201.186ZM157.151 188.189H143.865V186.501H157.151V188.189ZM127.782 188.189H114.495V186.501H127.782V188.189ZM143.865 186.501H142.466V173.504H143.865V186.501ZM114.495 186.501H113.096V173.504H114.495V186.501ZM171.836 173.504H158.549V171.817H171.836V173.504ZM142.466 173.504H129.18V171.817H142.466V173.504ZM113.096 173.504H99.8101V171.817H113.096V173.504ZM158.549 171.817H157.151V158.819H158.549V171.817ZM129.18 171.817H127.782V158.819H129.18V171.817ZM157.151 158.819H143.865V157.131H157.151V158.819ZM127.782 158.819H114.495V157.131H127.782V158.819ZM143.865 157.131H142.466V144.134H143.865V157.131ZM114.495 157.131H113.096V144.134H114.495V157.131ZM171.836 144.134H158.549V142.447H171.836V144.134ZM142.466 144.134H129.18V142.447H142.466V144.134ZM113.096 144.134H99.8101V142.447H113.096V144.134ZM158.549 142.447H157.151V129.45H158.549V142.447ZM129.18 142.447H127.782V129.45H129.18V142.447Z" fill="#715A95"/>
<path fill-rule="evenodd" clip-rule="evenodd" d="M226.709 211.829C252.078 211.829 272.643 191.264 272.643 165.895C272.643 140.527 252.078 119.961 226.709 119.961C201.34 119.961 180.775 140.527 180.775 165.895C180.775 191.264 201.34 211.829 226.709 211.829ZM226.709 206.34C249.046 206.34 267.154 188.232 267.154 165.895C267.154 143.558 249.046 125.45 226.709 125.45C204.372 125.45 186.264 143.558 186.264 165.895C186.264 188.232 204.372 206.34 226.709 206.34Z" fill="#DDD347"/>
<path fill-rule="evenodd" clip-rule="evenodd" d="M226.853 203.162C247.356 203.162 263.976 186.542 263.976 166.04C263.976 145.537 247.356 128.917 226.853 128.917C206.351 128.917 189.731 145.537 189.731 166.04C189.731 186.542 206.351 203.162 226.853 203.162ZM226.998 198.54C244.868 198.54 259.354 184.054 259.354 166.184C259.354 148.314 244.868 133.828 226.998 133.828C209.128 133.828 194.642 148.314 194.642 166.184C194.642 184.054 209.128 198.54 226.998 198.54Z" fill="#DDD347"/>
<path fill-rule="evenodd" clip-rule="evenodd" d="M226.709 193.629C242.026 193.629 254.443 181.212 254.443 165.895C254.443 150.578 242.026 138.162 226.709 138.162C211.392 138.162 198.975 150.578 198.975 165.895C198.975 181.212 211.392 193.629 226.709 193.629ZM226.709 189.007C239.473 189.007 249.82 178.659 249.82 165.895C249.82 153.131 239.473 142.784 226.709 142.784C213.945 142.784 203.598 153.131 203.598 165.895C203.598 178.659 213.945 189.007 226.709 189.007Z" fill="#DDD347"/>
<path fill-rule="evenodd" clip-rule="evenodd" d="M226.709 184.384C236.92 184.384 245.198 176.106 245.198 165.895C245.198 155.684 236.92 147.406 226.709 147.406C216.498 147.406 208.22 155.684 208.22 165.895C208.22 176.106 216.498 184.384 226.709 184.384ZM226.709 180.918C235.006 180.918 241.731 174.127 241.731 165.751C241.731 157.374 235.006 150.584 226.709 150.584C218.412 150.584 211.687 157.374 211.687 165.751C211.687 174.127 218.412 180.918 226.709 180.918Z" fill="#DDD347"/>
<path fill-rule="evenodd" clip-rule="evenodd" d="M228.153 210.674C253.522 210.674 274.087 190.109 274.087 164.74C274.087 139.372 253.522 118.806 228.153 118.806C202.785 118.806 182.219 139.372 182.219 164.74C182.219 190.109 202.785 210.674 228.153 210.674ZM228.153 205.185C250.49 205.185 268.598 187.077 268.598 164.74C268.598 142.403 250.49 124.295 228.153 124.295C205.816 124.295 187.708 142.403 187.708 164.74C187.708 187.077 205.816 205.185 228.153 205.185Z" fill="#5CA7B5"/>
<path fill-rule="evenodd" clip-rule="evenodd" d="M228.298 202.007C248.8 202.007 265.42 185.387 265.42 164.885C265.42 144.382 248.8 127.762 228.298 127.762C207.795 127.762 191.175 144.382 191.175 164.885C191.175 185.387 207.795 202.007 228.298 202.007ZM228.442 197.385C246.312 197.385 260.798 182.899 260.798 165.029C260.798 147.159 246.312 132.673 228.442 132.673C210.572 132.673 196.086 147.159 196.086 165.029C196.086 182.899 210.572 197.385 228.442 197.385Z" fill="#5CA7B5"/>
<path fill-rule="evenodd" clip-rule="evenodd" d="M228.153 192.474C243.47 192.474 255.887 180.057 255.887 164.74C255.887 149.423 243.47 137.006 228.153 137.006C212.836 137.006 200.42 149.423 200.42 164.74C200.42 180.057 212.836 192.474 228.153 192.474ZM228.153 187.851C240.917 187.851 251.265 177.504 251.265 164.74C251.265 151.976 240.917 141.629 228.153 141.629C215.389 141.629 205.042 151.976 205.042 164.74C205.042 177.504 215.389 187.851 228.153 187.851Z" fill="#5CA7B5"/>
<path fill-rule="evenodd" clip-rule="evenodd" d="M228.153 183.229C238.364 183.229 246.642 174.951 246.642 164.74C246.642 154.529 238.364 146.251 228.153 146.251C217.942 146.251 209.664 154.529 209.664 164.74C209.664 174.951 217.942 183.229 228.153 183.229ZM228.153 179.762C236.45 179.762 243.176 172.972 243.176 164.596C243.176 156.219 236.45 149.429 228.153 149.429C219.857 149.429 213.131 156.219 213.131 164.596C213.131 172.972 219.857 179.762 228.153 179.762Z" fill="#5CA7B5"/>
<path d="M226.709 119.961C252.077 119.961 272.642 140.527 272.642 165.895C272.642 180.074 266.216 192.75 256.12 201.176C248.374 207.13 238.678 210.673 228.153 210.673C202.784 210.673 182.219 190.108 182.219 164.74C182.219 150.559 188.647 137.88 198.746 129.455C206.491 123.502 216.186 119.961 226.709 119.961ZM228.153 124.294C218.266 124.294 209.209 127.844 202.183 133.735C192.508 141.125 186.264 152.78 186.264 165.895C186.264 188.232 204.372 206.34 226.709 206.34C236.594 206.34 245.65 202.791 252.676 196.901C262.353 189.511 268.598 177.856 268.598 164.74C268.598 142.403 250.49 124.294 228.153 124.294ZM226.853 128.917C247.355 128.917 263.976 145.537 263.976 166.04C263.976 177.445 258.83 187.646 250.737 194.456C244.504 199.193 236.73 202.006 228.297 202.006C207.795 202.006 191.174 185.386 191.174 164.884C191.174 153.479 196.319 143.277 204.413 136.467C210.646 131.73 218.42 128.918 226.853 128.917ZM228.442 132.672C220.477 132.672 213.185 135.552 207.547 140.325C199.709 146.229 194.642 155.615 194.642 166.184C194.642 184.054 209.128 198.54 226.998 198.541C234.963 198.541 242.254 195.66 247.891 190.887C255.729 184.983 260.797 175.598 260.797 165.029C260.797 147.159 246.312 132.672 228.442 132.672ZM226.709 138.162C242.025 138.162 254.442 150.578 254.442 165.895C254.442 174.337 250.669 181.896 244.718 186.983C240.096 190.431 234.363 192.473 228.153 192.473C212.836 192.473 200.42 180.057 200.42 164.74C200.42 156.299 204.191 148.74 210.14 143.653C214.763 140.204 220.497 138.162 226.709 138.162ZM228.153 141.628C222.357 141.628 217.059 143.761 213.003 147.286C207.298 151.494 203.597 158.262 203.597 165.895C203.597 178.659 213.945 189.006 226.709 189.006C232.503 189.006 237.8 186.873 241.856 183.35C247.562 179.142 251.264 172.374 251.264 164.74C251.264 151.976 240.917 141.628 228.153 141.628ZM226.709 147.406C236.92 147.406 245.198 155.684 245.198 165.895C245.198 171.41 242.782 176.359 238.953 179.747C235.914 181.937 232.185 183.229 228.153 183.229C217.942 183.229 209.664 174.951 209.664 164.74C209.664 159.225 212.079 154.274 215.909 150.886C218.947 148.696 222.677 147.406 226.709 147.406ZM228.153 149.428C224.298 149.428 220.783 150.895 218.124 153.304C214.233 156.045 211.686 160.597 211.686 165.75C211.686 174.127 218.412 180.917 226.709 180.917C230.563 180.917 234.078 179.452 236.737 177.042C240.629 174.302 243.175 169.749 243.175 164.595C243.175 156.219 236.45 149.428 228.153 149.428Z" fill="#7CA835"/>
<path d="M320.814 141.483L354.75 200.262H286.878L320.814 141.483Z" fill="#CE6C9E"/>
<path d="M320.814 189.153L286.878 130.374H354.75L320.814 189.153Z" fill="#DDD347"/>
<path d="M334.574 165.318L320.815 189.153L307.053 165.317L320.814 141.483L334.574 165.318Z" fill="#D3592C"/>
</svg>
